<?xml version="1.0" encoding="UTF-8" standalone="no"?>
<!DOCTYPE svg PUBLIC "-//W3C//DTD SVG 1.1//EN"
 "http://www.w3.org/Graphics/SVG/1.1/DTD/svg11.dtd">
<!-- Generated by graphviz version 2.40.1 (20161225.0304)
 -->
<!-- Title: G Pages: 1 -->
<svg width="800pt" height="3098pt"
 viewBox="0.00 0.00 799.50 3098.00" xmlns="http://www.w3.org/2000/svg" xmlns:xlink="http://www.w3.org/1999/xlink">
<g id="graph0" class="graph" transform="scale(1 1) rotate(0) translate(4 3094)">
<title>G</title>
<polygon fill="#ffffff" stroke="transparent" points="-4,4 -4,-3094 795.5,-3094 795.5,4 -4,4"/>
<g id="clust1" class="cluster">
<title>cluster_Global</title>
<path fill="none" stroke="#c0c0c0" d="M20,-98C20,-98 771.5,-98 771.5,-98 777.5,-98 783.5,-104 783.5,-110 783.5,-110 783.5,-3070 783.5,-3070 783.5,-3076 777.5,-3082 771.5,-3082 771.5,-3082 20,-3082 20,-3082 14,-3082 8,-3076 8,-3070 8,-3070 8,-110 8,-110 8,-104 14,-98 20,-98"/>
<text text-anchor="middle" x="395.75" y="-3069.2" font-family="Times,serif" font-size="11.00" fill="#c0c0c0">Global</text>
</g>
<g id="clust2" class="cluster">
<title>cluster_\acdhOeaw</title>
<path fill="none" stroke="#c0c0c0" d="M28,-106C28,-106 763.5,-106 763.5,-106 769.5,-106 775.5,-112 775.5,-118 775.5,-118 775.5,-3042 775.5,-3042 775.5,-3048 769.5,-3054 763.5,-3054 763.5,-3054 28,-3054 28,-3054 22,-3054 16,-3048 16,-3042 16,-3042 16,-118 16,-118 16,-112 22,-106 28,-106"/>
<text text-anchor="middle" x="395.75" y="-3041.2" font-family="Times,serif" font-size="11.00" fill="#c0c0c0">acdhOeaw</text>
</g>
<g id="clust3" class="cluster">
<title>cluster_\acdhOeaw\schema</title>
<path fill="none" stroke="#c0c0c0" d="M413.5,-2730C413.5,-2730 721.5,-2730 721.5,-2730 727.5,-2730 733.5,-2736 733.5,-2742 733.5,-2742 733.5,-3014 733.5,-3014 733.5,-3020 727.5,-3026 721.5,-3026 721.5,-3026 413.5,-3026 413.5,-3026 407.5,-3026 401.5,-3020 401.5,-3014 401.5,-3014 401.5,-2742 401.5,-2742 401.5,-2736 407.5,-2730 413.5,-2730"/>
<text text-anchor="middle" x="567.5" y="-3013.2" font-family="Times,serif" font-size="11.00" fill="#c0c0c0">schema</text>
</g>
<g id="clust4" class="cluster">
<title>cluster_\acdhOeaw\schema\dissemination</title>
<path fill="none" stroke="#c0c0c0" d="M644.5,-2818C644.5,-2818 713.5,-2818 713.5,-2818 719.5,-2818 725.5,-2824 725.5,-2830 725.5,-2830 725.5,-2986 725.5,-2986 725.5,-2992 719.5,-2998 713.5,-2998 713.5,-2998 644.5,-2998 644.5,-2998 638.5,-2998 632.5,-2992 632.5,-2986 632.5,-2986 632.5,-2830 632.5,-2830 632.5,-2824 638.5,-2818 644.5,-2818"/>
<text text-anchor="middle" x="679" y="-2985.2" font-family="Times,serif" font-size="11.00" fill="#c0c0c0">dissemination</text>
</g>
<g id="clust5" class="cluster">
<title>cluster_\acdhOeaw\schema\file</title>
<path fill="none" stroke="#c0c0c0" d="M656,-2738C656,-2738 702,-2738 702,-2738 708,-2738 714,-2744 714,-2750 714,-2750 714,-2798 714,-2798 714,-2804 708,-2810 702,-2810 702,-2810 656,-2810 656,-2810 650,-2810 644,-2804 644,-2798 644,-2798 644,-2750 644,-2750 644,-2744 650,-2738 656,-2738"/>
<text text-anchor="middle" x="679" y="-2797.2" font-family="Times,serif" font-size="11.00" fill="#c0c0c0">file</text>
</g>
<g id="clust6" class="cluster">
<title>cluster_\acdhOeaw\util</title>
<path fill="none" stroke="#c0c0c0" d="M382,-1840C382,-1840 755.5,-1840 755.5,-1840 761.5,-1840 767.5,-1846 767.5,-1852 767.5,-1852 767.5,-2710 767.5,-2710 767.5,-2716 761.5,-2722 755.5,-2722 755.5,-2722 382,-2722 382,-2722 376,-2722 370,-2716 370,-2710 370,-2710 370,-1852 370,-1852 370,-1846 376,-1840 382,-1840"/>
<text text-anchor="middle" x="568.75" y="-2709.2" font-family="Times,serif" font-size="11.00" fill="#c0c0c0">util</text>
</g>
<g id="clust7" class="cluster">
<title>cluster_\acdhOeaw\util\metaLookup</title>
<path fill="none" stroke="#c0c0c0" d="M390,-2460C390,-2460 747.5,-2460 747.5,-2460 753.5,-2460 759.5,-2466 759.5,-2472 759.5,-2472 759.5,-2682 759.5,-2682 759.5,-2688 753.5,-2694 747.5,-2694 747.5,-2694 390,-2694 390,-2694 384,-2694 378,-2688 378,-2682 378,-2682 378,-2472 378,-2472 378,-2466 384,-2460 390,-2460"/>
<text text-anchor="middle" x="568.75" y="-2681.2" font-family="Times,serif" font-size="11.00" fill="#c0c0c0">metaLookup</text>
</g>
<g id="clust8" class="cluster">
<title>cluster_\acdhOeaw\util\metadataValidator</title>
<path fill="none" stroke="#c0c0c0" d="M617.5,-2272C617.5,-2272 740.5,-2272 740.5,-2272 746.5,-2272 752.5,-2278 752.5,-2284 752.5,-2284 752.5,-2440 752.5,-2440 752.5,-2446 746.5,-2452 740.5,-2452 740.5,-2452 617.5,-2452 617.5,-2452 611.5,-2452 605.5,-2446 605.5,-2440 605.5,-2440 605.5,-2284 605.5,-2284 605.5,-2278 611.5,-2272 617.5,-2272"/>
<text text-anchor="middle" x="679" y="-2439.2" font-family="Times,serif" font-size="11.00" fill="#c0c0c0">metadataValidator</text>
</g>
<g id="clust9" class="cluster">
<title>cluster_\acdhOeaw\fedora</title>
<path fill="none" stroke="#c0c0c0" d="M36,-114C36,-114 748.5,-114 748.5,-114 754.5,-114 760.5,-120 760.5,-126 760.5,-126 760.5,-1820 760.5,-1820 760.5,-1826 754.5,-1832 748.5,-1832 748.5,-1832 36,-1832 36,-1832 30,-1832 24,-1826 24,-1820 24,-1820 24,-126 24,-126 24,-120 30,-114 36,-114"/>
<text text-anchor="middle" x="392.25" y="-1819.2" font-family="Times,serif" font-size="11.00" fill="#c0c0c0">fedora</text>
</g>
<g id="clust10" class="cluster">
<title>cluster_\acdhOeaw\fedora\dissemination</title>
<path fill="none" stroke="#c0c0c0" d="M395.5,-1164C395.5,-1164 738.5,-1164 738.5,-1164 744.5,-1164 750.5,-1170 750.5,-1176 750.5,-1176 750.5,-1792 750.5,-1792 750.5,-1798 744.5,-1804 738.5,-1804 738.5,-1804 395.5,-1804 395.5,-1804 389.5,-1804 383.5,-1798 383.5,-1792 383.5,-1792 383.5,-1176 383.5,-1176 383.5,-1170 389.5,-1164 395.5,-1164"/>
<text text-anchor="middle" x="567" y="-1791.2" font-family="Times,serif" font-size="11.00" fill="#c0c0c0">dissemination</text>
</g>
<g id="clust11" class="cluster">
<title>cluster_\acdhOeaw\fedora\dissemination\parameter</title>
<path fill="none" stroke="#c0c0c0" d="M403.5,-1326C403.5,-1326 730.5,-1326 730.5,-1326 736.5,-1326 742.5,-1332 742.5,-1338 742.5,-1338 742.5,-1764 742.5,-1764 742.5,-1770 736.5,-1776 730.5,-1776 730.5,-1776 403.5,-1776 403.5,-1776 397.5,-1776 391.5,-1770 391.5,-1764 391.5,-1764 391.5,-1338 391.5,-1338 391.5,-1332 397.5,-1326 403.5,-1326"/>
<text text-anchor="middle" x="567" y="-1763.2" font-family="Times,serif" font-size="11.00" fill="#c0c0c0">parameter</text>
</g>
<g id="clust12" class="cluster">
<title>cluster_\acdhOeaw\fedora\exceptions</title>
<path fill="none" stroke="#c0c0c0" d="M617.5,-276C617.5,-276 740.5,-276 740.5,-276 746.5,-276 752.5,-282 752.5,-288 752.5,-288 752.5,-768 752.5,-768 752.5,-774 746.5,-780 740.5,-780 740.5,-780 617.5,-780 617.5,-780 611.5,-780 605.5,-774 605.5,-768 605.5,-768 605.5,-288 605.5,-288 605.5,-282 611.5,-276 617.5,-276"/>
<text text-anchor="middle" x="679" y="-767.2" font-family="Times,serif" font-size="11.00" fill="#c0c0c0">exceptions</text>
</g>
<g id="clust13" class="cluster">
<title>cluster_\acdhOeaw\fedora\acl</title>
<path fill="none" stroke="#c0c0c0" d="M641,-976C641,-976 717,-976 717,-976 723,-976 729,-982 729,-988 729,-988 729,-1144 729,-1144 729,-1150 723,-1156 717,-1156 717,-1156 641,-1156 641,-1156 635,-1156 629,-1150 629,-1144 629,-1144 629,-988 629,-988 629,-982 635,-976 641,-976"/>
<text text-anchor="middle" x="679" y="-1143.2" font-family="Times,serif" font-size="11.00" fill="#c0c0c0">acl</text>
</g>
<g id="clust14" class="cluster">
<title>cluster_\acdhOeaw\fedora\metadataQuery</title>
<path fill="none" stroke="#c0c0c0" d="M44,-788C44,-788 724,-788 724,-788 730,-788 736,-794 736,-800 736,-800 736,-956 736,-956 736,-962 730,-968 724,-968 724,-968 44,-968 44,-968 38,-968 32,-962 32,-956 32,-956 32,-800 32,-800 32,-794 38,-788 44,-788"/>
<text text-anchor="middle" x="384" y="-955.2" font-family="Times,serif" font-size="11.00" fill="#c0c0c0">metadataQuery</text>
</g>
<!-- \\acdhOeaw\\schema\\dissemination\\Match -->
<g id="node1" class="node">
<title>\\acdhOeaw\\schema\\dissemination\\Match</title>
<polygon fill="none" stroke="#000000" points="706,-2970 652,-2970 652,-2934 706,-2934 706,-2970"/>
<text text-anchor="middle" x="679" y="-2949.2" font-family="Courier,monospace" font-size="11.00" fill="#000000">Match</text>
</g>
<!-- \\acdhOeaw\\schema\\SchemaObject -->
<g id="node5" class="node">
<title>\\acdhOeaw\\schema\\SchemaObject</title>
<polygon fill="none" stroke="#000000" points="507.5,-2889 409.5,-2889 409.5,-2853 507.5,-2853 507.5,-2889"/>
<text text-anchor="start" x="424.5" y="-2874.2" font-family="Courier,monospace" font-size="11.00" fill="#000000">«abstract»</text>
<text text-anchor="start" x="417.5" y="-2862.2" font-family="Courier,monospace" font-size="11.00" fill="#000000">SchemaObject</text>
</g>
<!-- \\acdhOeaw\\schema\\dissemination\\Match&#45;&gt;\\acdhOeaw\\schema\\SchemaObject -->
<g id="edge1" class="edge">
<title>\\acdhOeaw\\schema\\dissemination\\Match&#45;&gt;\\acdhOeaw\\schema\\SchemaObject</title>
<path fill="none" stroke="#000000" d="M651.8775,-2942.4848C637.3584,-2937.3608 619.1817,-2930.8975 603,-2925 574.203,-2914.5048 542.2744,-2902.6012 515.7694,-2892.646"/>
<polygon fill="none" stroke="#000000" points="516.8577,-2889.316 506.2656,-2889.0726 514.394,-2895.8681 516.8577,-2889.316"/>
</g>
<!-- \\acdhOeaw\\schema\\dissemination\\Parameter -->
<g id="node2" class="node">
<title>\\acdhOeaw\\schema\\dissemination\\Parameter</title>
<polygon fill="none" stroke="#000000" points="717.5,-2916 640.5,-2916 640.5,-2880 717.5,-2880 717.5,-2916"/>
<text text-anchor="middle" x="679" y="-2895.2" font-family="Courier,monospace" font-size="11.00" fill="#000000">Parameter</text>
</g>
<!-- \\acdhOeaw\\schema\\dissemination\\Parameter&#45;&gt;\\acdhOeaw\\schema\\SchemaObject -->
<g id="edge5" class="edge">
<title>\\acdhOeaw\\schema\\dissemination\\Parameter&#45;&gt;\\acdhOeaw\\schema\\SchemaObject</title>
<path fill="none" stroke="#000000" d="M640.3395,-2893.2661C606.4387,-2889.1149 556.6277,-2883.0156 517.7072,-2878.2499"/>
<polygon fill="none" stroke="#000000" points="517.9045,-2874.748 507.5532,-2877.0065 517.0537,-2881.6961 517.9045,-2874.748"/>
</g>
<!-- \\acdhOeaw\\schema\\dissemination\\Service -->
<g id="node3" class="node">
<title>\\acdhOeaw\\schema\\dissemination\\Service</title>
<polygon fill="none" stroke="#000000" points="711,-2862 647,-2862 647,-2826 711,-2826 711,-2862"/>
<text text-anchor="middle" x="679" y="-2841.2" font-family="Courier,monospace" font-size="11.00" fill="#000000">Service</text>
</g>
<!-- \\acdhOeaw\\schema\\dissemination\\Service&#45;&gt;\\acdhOeaw\\schema\\SchemaObject -->
<g id="edge24" class="edge">
<title>\\acdhOeaw\\schema\\dissemination\\Service&#45;&gt;\\acdhOeaw\\schema\\SchemaObject</title>
<path fill="none" stroke="#000000" d="M646.9374,-2847.926C613.1717,-2852.0606 559.2472,-2858.6636 517.718,-2863.7488"/>
<polygon fill="none" stroke="#000000" points="517.2169,-2860.2839 507.7165,-2864.9735 518.0678,-2867.232 517.2169,-2860.2839"/>
</g>
<!-- \\acdhOeaw\\schema\\file\\File -->
<g id="node4" class="node">
<title>\\acdhOeaw\\schema\\file\\File</title>
<polygon fill="none" stroke="#000000" points="706,-2782 652,-2782 652,-2746 706,-2746 706,-2782"/>
<text text-anchor="middle" x="679" y="-2761.2" font-family="Courier,monospace" font-size="11.00" fill="#000000">File</text>
</g>
<!-- \\acdhOeaw\\schema\\file\\File&#45;&gt;\\acdhOeaw\\schema\\SchemaObject -->
<g id="edge16" class="edge">
<title>\\acdhOeaw\\schema\\file\\File&#45;&gt;\\acdhOeaw\\schema\\SchemaObject</title>
<path fill="none" stroke="#000000" d="M651.9624,-2777.1203C615.3516,-2794.8861 549.4726,-2826.8546 504.8771,-2848.495"/>
<polygon fill="none" stroke="#000000" points="503.1709,-2845.4326 495.7022,-2852.9472 506.2269,-2851.7303 503.1709,-2845.4326"/>
</g>
<!-- \\acdhOeaw\\util\\metaLookup\\MetaLookupException -->
<g id="node6" class="node">
<title>\\acdhOeaw\\util\\metaLookup\\MetaLookupException</title>
<polygon fill="none" stroke="#000000" points="751.5,-2504 606.5,-2504 606.5,-2468 751.5,-2468 751.5,-2504"/>
<text text-anchor="middle" x="679" y="-2483.2" font-family="Courier,monospace" font-size="11.00" fill="#000000">MetaLookupException</text>
</g>
<!-- \\Exception -->
<g id="node57" class="node">
<title>\\Exception</title>
<ellipse fill="none" stroke="#000000" cx="458.5" cy="-18" rx="48.9926" ry="18"/>
<text text-anchor="middle" x="458.5" y="-14.3" font-family="Times,serif" font-size="14.00" fill="#c0c0c0">\Exception</text>
</g>
<!-- \\acdhOeaw\\util\\metaLookup\\MetaLookupException&#45;&gt;\\Exception -->
<g id="edge7" class="edge">
<title>\\acdhOeaw\\util\\metaLookup\\MetaLookupException&#45;&gt;\\Exception</title>
<path fill="none" stroke="#000000" d="M614.9521,-2467.8849C610.3591,-2464.5677 606.2614,-2460.6431 603,-2456 448.9521,-2236.6881 687.1744,-262.8027 531,-45 526.2673,-38.3997 519.7253,-33.411 512.4929,-29.6409"/>
<polygon fill="none" stroke="#000000" points="513.6098,-26.3086 503.0468,-25.4875 510.7922,-32.7166 513.6098,-26.3086"/>
</g>
<!-- \\acdhOeaw\\util\\metaLookup\\MetaLookupFile -->
<g id="node7" class="node">
<title>\\acdhOeaw\\util\\metaLookup\\MetaLookupFile</title>
<polygon fill="none" stroke="#000000" points="734.5,-2558 623.5,-2558 623.5,-2522 734.5,-2522 734.5,-2558"/>
<text text-anchor="middle" x="679" y="-2537.2" font-family="Courier,monospace" font-size="11.00" fill="#000000">MetaLookupFile</text>
</g>
<!-- \\acdhOeaw\\util\\metaLookup\\MetaLookupInterface -->
<g id="node10" class="node">
<title>\\acdhOeaw\\util\\metaLookup\\MetaLookupInterface</title>
<polygon fill="none" stroke="#000000" points="531,-2612 386,-2612 386,-2576 531,-2576 531,-2612"/>
<text text-anchor="middle" x="458.5" y="-2591.2" font-family="Courier,monospace" font-size="11.00" fill="#000000">MetaLookupInterface</text>
</g>
<!-- \\acdhOeaw\\util\\metaLookup\\MetaLookupFile&#45;&gt;\\acdhOeaw\\util\\metaLookup\\MetaLookupInterface -->
<g id="edge8" class="edge">
<title>\\acdhOeaw\\util\\metaLookup\\MetaLookupFile&#45;&gt;\\acdhOeaw\\util\\metaLookup\\MetaLookupInterface</title>
<path fill="none" stroke="#000000" stroke-dasharray="1,5" d="M623.3585,-2553.6265C598.4743,-2559.7206 568.6246,-2567.0307 541.2038,-2573.746"/>
<polygon fill="none" stroke="#000000" points="540.1054,-2570.4115 531.225,-2576.1898 541.7706,-2577.2106 540.1054,-2570.4115"/>
</g>
<!-- \\acdhOeaw\\util\\metaLookup\\MetaLookupGraph -->
<g id="node8" class="node">
<title>\\acdhOeaw\\util\\metaLookup\\MetaLookupGraph</title>
<polygon fill="none" stroke="#000000" points="738,-2666 620,-2666 620,-2630 738,-2630 738,-2666"/>
<text text-anchor="middle" x="679" y="-2645.2" font-family="Courier,monospace" font-size="11.00" fill="#000000">MetaLookupGraph</text>
</g>
<!-- \\acdhOeaw\\util\\metaLookup\\MetaLookupGraph&#45;&gt;\\acdhOeaw\\util\\metaLookup\\MetaLookupInterface -->
<g id="edge17" class="edge">
<title>\\acdhOeaw\\util\\metaLookup\\MetaLookupGraph&#45;&gt;\\acdhOeaw\\util\\metaLookup\\MetaLookupInterface</title>
<path fill="none" stroke="#000000" stroke-dasharray="1,5" d="M619.91,-2633.529C595.703,-2627.6007 567.268,-2620.6371 541.0641,-2614.2198"/>
<polygon fill="none" stroke="#000000" points="541.6894,-2610.7695 531.1438,-2611.7903 540.0242,-2617.5686 541.6894,-2610.7695"/>
</g>
<!-- \\acdhOeaw\\util\\metaLookup\\MetaLookupConstant -->
<g id="node9" class="node">
<title>\\acdhOeaw\\util\\metaLookup\\MetaLookupConstant</title>
<polygon fill="none" stroke="#000000" points="748,-2612 610,-2612 610,-2576 748,-2576 748,-2612"/>
<text text-anchor="middle" x="679" y="-2591.2" font-family="Courier,monospace" font-size="11.00" fill="#000000">MetaLookupConstant</text>
</g>
<!-- \\acdhOeaw\\util\\metaLookup\\MetaLookupConstant&#45;&gt;\\acdhOeaw\\util\\metaLookup\\MetaLookupInterface -->
<g id="edge35" class="edge">
<title>\\acdhOeaw\\util\\metaLookup\\MetaLookupConstant&#45;&gt;\\acdhOeaw\\util\\metaLookup\\MetaLookupInterface</title>
<path fill="none" stroke="#000000" stroke-dasharray="1,5" d="M609.8374,-2594C588.1514,-2594 563.9904,-2594 541.4533,-2594"/>
<polygon fill="none" stroke="#000000" points="541.2275,-2590.5001 531.2274,-2594 541.2274,-2597.5001 541.2275,-2590.5001"/>
</g>
<!-- \\acdhOeaw\\util\\metadataValidator\\MetadataValidator -->
<g id="node11" class="node">
<title>\\acdhOeaw\\util\\metadataValidator\\MetadataValidator</title>
<polygon fill="none" stroke="#000000" points="744.5,-2424 613.5,-2424 613.5,-2388 744.5,-2388 744.5,-2424"/>
<text text-anchor="middle" x="679" y="-2403.2" font-family="Courier,monospace" font-size="11.00" fill="#000000">MetadataValidator</text>
</g>
<!-- \\acdhOeaw\\util\\metadataValidator\\Error -->
<g id="node12" class="node">
<title>\\acdhOeaw\\util\\metadataValidator\\Error</title>
<polygon fill="none" stroke="#000000" points="706,-2370 652,-2370 652,-2334 706,-2334 706,-2370"/>
<text text-anchor="middle" x="679" y="-2349.2" font-family="Courier,monospace" font-size="11.00" fill="#000000">Error</text>
</g>
<!-- \\acdhOeaw\\util\\metadataValidator\\OntologyProperty -->
<g id="node13" class="node">
<title>\\acdhOeaw\\util\\metadataValidator\\OntologyProperty</title>
<polygon fill="none" stroke="#000000" points="741.5,-2316 616.5,-2316 616.5,-2280 741.5,-2280 741.5,-2316"/>
<text text-anchor="middle" x="679" y="-2295.2" font-family="Courier,monospace" font-size="11.00" fill="#000000">OntologyProperty</text>
</g>
<!-- \\acdhOeaw\\util\\RepoConfig -->
<g id="node14" class="node">
<title>\\acdhOeaw\\util\\RepoConfig</title>
<polygon fill="none" stroke="#000000" points="721,-2262 637,-2262 637,-2226 721,-2226 721,-2262"/>
<text text-anchor="middle" x="679" y="-2241.2" font-family="Courier,monospace" font-size="11.00" fill="#000000">RepoConfig</text>
</g>
<!-- \\acdhOeaw\\util\\Ontology -->
<g id="node15" class="node">
<title>\\acdhOeaw\\util\\Ontology</title>
<polygon fill="none" stroke="#000000" points="714.5,-2208 643.5,-2208 643.5,-2172 714.5,-2172 714.5,-2208"/>
<text text-anchor="middle" x="679" y="-2187.2" font-family="Courier,monospace" font-size="11.00" fill="#000000">Ontology</text>
</g>
<!-- \\acdhOeaw\\util\\Indexer -->
<g id="node16" class="node">
<title>\\acdhOeaw\\util\\Indexer</title>
<polygon fill="none" stroke="#000000" points="711,-2154 647,-2154 647,-2118 711,-2118 711,-2154"/>
<text text-anchor="middle" x="679" y="-2133.2" font-family="Courier,monospace" font-size="11.00" fill="#000000">Indexer</text>
</g>
<!-- \\acdhOeaw\\util\\ResourceFactory -->
<g id="node17" class="node">
<title>\\acdhOeaw\\util\\ResourceFactory</title>
<polygon fill="none" stroke="#000000" points="738,-2100 620,-2100 620,-2064 738,-2064 738,-2100"/>
<text text-anchor="middle" x="679" y="-2079.2" font-family="Courier,monospace" font-size="11.00" fill="#000000">ResourceFactory</text>
</g>
<!-- \\acdhOeaw\\util\\IndexerException -->
<g id="node18" class="node">
<title>\\acdhOeaw\\util\\IndexerException</title>
<polygon fill="none" stroke="#000000" points="741.5,-1992 616.5,-1992 616.5,-1956 741.5,-1956 741.5,-1992"/>
<text text-anchor="middle" x="679" y="-1971.2" font-family="Courier,monospace" font-size="11.00" fill="#000000">IndexerException</text>
</g>
<!-- \\acdhOeaw\\util\\IndexerException&#45;&gt;\\Exception -->
<g id="edge11" class="edge">
<title>\\acdhOeaw\\util\\IndexerException&#45;&gt;\\Exception</title>
<path fill="none" stroke="#000000" d="M616.4685,-1959.3336C611.2868,-1956.021 606.6478,-1951.965 603,-1947 477.7839,-1776.569 654.9219,-216.3743 531,-45 526.241,-38.4186 519.6851,-33.44 512.4469,-29.674"/>
<polygon fill="none" stroke="#000000" points="513.5606,-26.3405 502.9973,-25.5231 510.7453,-32.7495 513.5606,-26.3405"/>
</g>
<!-- \\acdhOeaw\\util\\MetadataCollection -->
<g id="node19" class="node">
<title>\\acdhOeaw\\util\\MetadataCollection</title>
<polygon fill="none" stroke="#000000" points="748,-2046 610,-2046 610,-2010 748,-2010 748,-2046"/>
<text text-anchor="middle" x="679" y="-2025.2" font-family="Courier,monospace" font-size="11.00" fill="#000000">MetadataCollection</text>
</g>
<!-- \\EasyRdf\\Graph -->
<g id="node58" class="node">
<title>\\EasyRdf\\Graph</title>
<ellipse fill="none" stroke="#000000" cx="458.5" cy="-72" rx="67.6881" ry="18"/>
<text text-anchor="middle" x="458.5" y="-68.3" font-family="Times,serif" font-size="14.00" fill="#c0c0c0">\EasyRdf\Graph</text>
</g>
<!-- \\acdhOeaw\\util\\MetadataCollection&#45;&gt;\\EasyRdf\\Graph -->
<g id="edge28" class="edge">
<title>\\acdhOeaw\\util\\MetadataCollection&#45;&gt;\\EasyRdf\\Graph</title>
<path fill="none" stroke="#000000" d="M611.7854,-2009.8782C608.4984,-2007.3009 605.523,-2004.3586 603,-2001 521.6419,-1892.6953 541.8636,-919.0223 531,-784 509.5554,-517.4671 472.9305,-195.8919 461.8026,-100.173"/>
<polygon fill="none" stroke="#000000" points="465.2661,-99.6561 460.6319,-90.1286 458.3132,-100.4665 465.2661,-99.6561"/>
</g>
<!-- \\acdhOeaw\\util\\KeepTransactionAlive -->
<g id="node20" class="node">
<title>\\acdhOeaw\\util\\KeepTransactionAlive</title>
<polygon fill="none" stroke="#000000" points="755,-1938 603,-1938 603,-1902 755,-1902 755,-1938"/>
<text text-anchor="middle" x="679" y="-1917.2" font-family="Courier,monospace" font-size="11.00" fill="#000000">KeepTransactionAlive</text>
</g>
<!-- \\acdhOeaw\\util\\Geonames -->
<g id="node21" class="node">
<title>\\acdhOeaw\\util\\Geonames</title>
<polygon fill="none" stroke="#000000" points="714.5,-1884 643.5,-1884 643.5,-1848 714.5,-1848 714.5,-1884"/>
<text text-anchor="middle" x="679" y="-1863.2" font-family="Courier,monospace" font-size="11.00" fill="#000000">Geonames</text>
</g>
<!-- \\acdhOeaw\\fedora\\dissemination\\parameter\\UriPart -->
<g id="node22" class="node">
<title>\\acdhOeaw\\fedora\\dissemination\\parameter\\UriPart</title>
<polygon fill="none" stroke="#000000" points="711,-1748 647,-1748 647,-1712 711,-1712 711,-1748"/>
<text text-anchor="middle" x="679" y="-1727.2" font-family="Courier,monospace" font-size="11.00" fill="#000000">UriPart</text>
</g>
<!-- \\acdhOeaw\\fedora\\dissemination\\parameter\\iTransformation -->
<g id="node30" class="node">
<title>\\acdhOeaw\\fedora\\dissemination\\parameter\\iTransformation</title>
<polygon fill="none" stroke="#000000" points="517.5,-1559 399.5,-1559 399.5,-1523 517.5,-1523 517.5,-1559"/>
<text text-anchor="middle" x="458.5" y="-1538.2" font-family="Courier,monospace" font-size="11.00" fill="#000000">iTransformation</text>
</g>
<!-- \\acdhOeaw\\fedora\\dissemination\\parameter\\UriPart&#45;&gt;\\acdhOeaw\\fedora\\dissemination\\parameter\\iTransformation -->
<g id="edge6" class="edge">
<title>\\acdhOeaw\\fedora\\dissemination\\parameter\\UriPart&#45;&gt;\\acdhOeaw\\fedora\\dissemination\\parameter\\iTransformation</title>
<path fill="none" stroke="#000000" stroke-dasharray="1,5" d="M646.6426,-1722.4015C632.4776,-1718.1232 616.131,-1711.828 603,-1703 547.7848,-1665.8787 500.0052,-1602.9154 475.6638,-1567.405"/>
<polygon fill="none" stroke="#000000" points="478.4863,-1565.3305 469.9901,-1559.0009 472.6847,-1569.2473 478.4863,-1565.3305"/>
</g>
<!-- \\acdhOeaw\\fedora\\dissemination\\parameter\\SetParam -->
<g id="node23" class="node">
<title>\\acdhOeaw\\fedora\\dissemination\\parameter\\SetParam</title>
<polygon fill="none" stroke="#000000" points="714.5,-1694 643.5,-1694 643.5,-1658 714.5,-1658 714.5,-1694"/>
<text text-anchor="middle" x="679" y="-1673.2" font-family="Courier,monospace" font-size="11.00" fill="#000000">SetParam</text>
</g>
<!-- \\acdhOeaw\\fedora\\dissemination\\parameter\\SetParam&#45;&gt;\\acdhOeaw\\fedora\\dissemination\\parameter\\iTransformation -->
<g id="edge9" class="edge">
<title>\\acdhOeaw\\fedora\\dissemination\\parameter\\SetParam&#45;&gt;\\acdhOeaw\\fedora\\dissemination\\parameter\\iTransformation</title>
<path fill="none" stroke="#000000" stroke-dasharray="1,5" d="M643.2504,-1665.7624C630.2138,-1661.3975 615.5911,-1655.7418 603,-1649 559.2738,-1625.5872 514.3484,-1589.8109 486.4413,-1565.9277"/>
<polygon fill="none" stroke="#000000" points="488.5452,-1563.1199 478.6919,-1559.226 483.9663,-1568.4146 488.5452,-1563.1199"/>
</g>
<!-- \\acdhOeaw\\fedora\\dissemination\\parameter\\RemoveProtocol -->
<g id="node24" class="node">
<title>\\acdhOeaw\\fedora\\dissemination\\parameter\\RemoveProtocol</title>
<polygon fill="none" stroke="#000000" points="734.5,-1640 623.5,-1640 623.5,-1604 734.5,-1604 734.5,-1640"/>
<text text-anchor="middle" x="679" y="-1619.2" font-family="Courier,monospace" font-size="11.00" fill="#000000">RemoveProtocol</text>
</g>
<!-- \\acdhOeaw\\fedora\\dissemination\\parameter\\RemoveProtocol&#45;&gt;\\acdhOeaw\\fedora\\dissemination\\parameter\\iTransformation -->
<g id="edge12" class="edge">
<title>\\acdhOeaw\\fedora\\dissemination\\parameter\\RemoveProtocol&#45;&gt;\\acdhOeaw\\fedora\\dissemination\\parameter\\iTransformation</title>
<path fill="none" stroke="#000000" stroke-dasharray="1,5" d="M627.8578,-1603.9595C619.5408,-1600.9887 611.0251,-1597.9248 603,-1595 574.203,-1584.5048 542.2744,-1572.6012 515.7694,-1562.646"/>
<polygon fill="none" stroke="#000000" points="516.8577,-1559.316 506.2656,-1559.0726 514.394,-1565.8681 516.8577,-1559.316"/>
</g>
<!-- \\acdhOeaw\\fedora\\dissemination\\parameter\\Base64Encode -->
<g id="node25" class="node">
<title>\\acdhOeaw\\fedora\\dissemination\\parameter\\Base64Encode</title>
<polygon fill="none" stroke="#000000" points="728,-1586 630,-1586 630,-1550 728,-1550 728,-1586"/>
<text text-anchor="middle" x="679" y="-1565.2" font-family="Courier,monospace" font-size="11.00" fill="#000000">Base64Encode</text>
</g>
<!-- \\acdhOeaw\\fedora\\dissemination\\parameter\\Base64Encode&#45;&gt;\\acdhOeaw\\fedora\\dissemination\\parameter\\iTransformation -->
<g id="edge20" class="edge">
<title>\\acdhOeaw\\fedora\\dissemination\\parameter\\Base64Encode&#45;&gt;\\acdhOeaw\\fedora\\dissemination\\parameter\\iTransformation</title>
<path fill="none" stroke="#000000" stroke-dasharray="1,5" d="M629.7899,-1561.9743C599.7679,-1558.2981 560.9278,-1553.5422 527.8245,-1549.4887"/>
<polygon fill="none" stroke="#000000" points="528.1027,-1545.9967 517.7514,-1548.2553 527.2518,-1552.9448 528.1027,-1545.9967"/>
</g>
<!-- \\acdhOeaw\\fedora\\dissemination\\parameter\\AddParam -->
<g id="node26" class="node">
<title>\\acdhOeaw\\fedora\\dissemination\\parameter\\AddParam</title>
<polygon fill="none" stroke="#000000" points="714.5,-1532 643.5,-1532 643.5,-1496 714.5,-1496 714.5,-1532"/>
<text text-anchor="middle" x="679" y="-1511.2" font-family="Courier,monospace" font-size="11.00" fill="#000000">AddParam</text>
</g>
<!-- \\acdhOeaw\\fedora\\dissemination\\parameter\\AddParam&#45;&gt;\\acdhOeaw\\fedora\\dissemination\\parameter\\iTransformation -->
<g id="edge21" class="edge">
<title>\\acdhOeaw\\fedora\\dissemination\\parameter\\AddParam&#45;&gt;\\acdhOeaw\\fedora\\dissemination\\parameter\\iTransformation</title>
<path fill="none" stroke="#000000" stroke-dasharray="1,5" d="M643.0821,-1518.3981C611.9397,-1522.2115 565.9859,-1527.8385 527.7223,-1532.5238"/>
<polygon fill="none" stroke="#000000" points="527.1651,-1529.0658 517.6647,-1533.7553 528.016,-1536.0139 527.1651,-1529.0658"/>
</g>
<!-- \\acdhOeaw\\fedora\\dissemination\\parameter\\RawUrlEncode -->
<g id="node27" class="node">
<title>\\acdhOeaw\\fedora\\dissemination\\parameter\\RawUrlEncode</title>
<polygon fill="none" stroke="#000000" points="728,-1478 630,-1478 630,-1442 728,-1442 728,-1478"/>
<text text-anchor="middle" x="679" y="-1457.2" font-family="Courier,monospace" font-size="11.00" fill="#000000">RawUrlEncode</text>
</g>
<!-- \\acdhOeaw\\fedora\\dissemination\\parameter\\RawUrlEncode&#45;&gt;\\acdhOeaw\\fedora\\dissemination\\parameter\\iTransformation -->
<g id="edge26" class="edge">
<title>\\acdhOeaw\\fedora\\dissemination\\parameter\\RawUrlEncode&#45;&gt;\\acdhOeaw\\fedora\\dissemination\\parameter\\iTransformation</title>
<path fill="none" stroke="#000000" stroke-dasharray="1,5" d="M629.7335,-1476.8798C620.7919,-1480.1198 611.583,-1483.5739 603,-1487 570.4771,-1499.9821 563.8173,-1506.7814 531,-1519 529.7866,-1519.4518 528.5593,-1519.9014 527.3209,-1520.3482"/>
<polygon fill="none" stroke="#000000" points="525.9519,-1517.1187 517.6591,-1523.7126 528.2539,-1523.7294 525.9519,-1517.1187"/>
</g>
<!-- \\acdhOeaw\\fedora\\dissemination\\parameter\\Substr -->
<g id="node28" class="node">
<title>\\acdhOeaw\\fedora\\dissemination\\parameter\\Substr</title>
<polygon fill="none" stroke="#000000" points="707.5,-1424 650.5,-1424 650.5,-1388 707.5,-1388 707.5,-1424"/>
<text text-anchor="middle" x="679" y="-1403.2" font-family="Courier,monospace" font-size="11.00" fill="#000000">Substr</text>
</g>
<!-- \\acdhOeaw\\fedora\\dissemination\\parameter\\Substr&#45;&gt;\\acdhOeaw\\fedora\\dissemination\\parameter\\iTransformation -->
<g id="edge30" class="edge">
<title>\\acdhOeaw\\fedora\\dissemination\\parameter\\Substr&#45;&gt;\\acdhOeaw\\fedora\\dissemination\\parameter\\iTransformation</title>
<path fill="none" stroke="#000000" stroke-dasharray="1,5" d="M650.2248,-1412.3292C635.2377,-1416.5509 617.1407,-1423.168 603,-1433 562.0718,-1461.4574 572.582,-1491.5067 531,-1519 529.5668,-1519.9476 528.091,-1520.8558 526.5809,-1521.7262"/>
<polygon fill="none" stroke="#000000" points="524.925,-1518.6418 517.6115,-1526.3075 528.1091,-1524.8757 524.925,-1518.6418"/>
</g>
<!-- \\acdhOeaw\\fedora\\dissemination\\parameter\\UrlEncode -->
<g id="node29" class="node">
<title>\\acdhOeaw\\fedora\\dissemination\\parameter\\UrlEncode</title>
<polygon fill="none" stroke="#000000" points="717.5,-1370 640.5,-1370 640.5,-1334 717.5,-1334 717.5,-1370"/>
<text text-anchor="middle" x="679" y="-1349.2" font-family="Courier,monospace" font-size="11.00" fill="#000000">UrlEncode</text>
</g>
<!-- \\acdhOeaw\\fedora\\dissemination\\parameter\\UrlEncode&#45;&gt;\\acdhOeaw\\fedora\\dissemination\\parameter\\iTransformation -->
<g id="edge32" class="edge">
<title>\\acdhOeaw\\fedora\\dissemination\\parameter\\UrlEncode&#45;&gt;\\acdhOeaw\\fedora\\dissemination\\parameter\\iTransformation</title>
<path fill="none" stroke="#000000" stroke-dasharray="1,5" d="M640.4721,-1359.5902C627.4426,-1363.6458 613.5402,-1369.7821 603,-1379 550.3313,-1425.061 584.7306,-1474.1823 531,-1519 529.4849,-1520.2638 527.8984,-1521.455 526.2541,-1522.5779"/>
<polygon fill="none" stroke="#000000" points="524.4719,-1519.5655 517.6139,-1527.6413 528.0112,-1525.6049 524.4719,-1519.5655"/>
</g>
<!-- \\acdhOeaw\\fedora\\dissemination\\Parameter -->
<g id="node31" class="node">
<title>\\acdhOeaw\\fedora\\dissemination\\Parameter</title>
<polygon fill="none" stroke="#000000" points="717.5,-1316 640.5,-1316 640.5,-1280 717.5,-1280 717.5,-1316"/>
<text text-anchor="middle" x="679" y="-1295.2" font-family="Courier,monospace" font-size="11.00" fill="#000000">Parameter</text>
</g>
<!-- \\acdhOeaw\\fedora\\FedoraResource -->
<g id="node54" class="node">
<title>\\acdhOeaw\\fedora\\FedoraResource</title>
<polygon fill="none" stroke="#000000" points="514,-1156 403,-1156 403,-1120 514,-1120 514,-1156"/>
<text text-anchor="middle" x="458.5" y="-1135.2" font-family="Courier,monospace" font-size="11.00" fill="#000000">FedoraResource</text>
</g>
<!-- \\acdhOeaw\\fedora\\dissemination\\Parameter&#45;&gt;\\acdhOeaw\\fedora\\FedoraResource -->
<g id="edge2" class="edge">
<title>\\acdhOeaw\\fedora\\dissemination\\Parameter&#45;&gt;\\acdhOeaw\\fedora\\FedoraResource</title>
<path fill="none" stroke="#000000" d="M640.1467,-1287.5462C627.7939,-1283.3588 614.3912,-1277.8696 603,-1271 554.1608,-1241.5469 507.452,-1193.7999 480.9413,-1164.2407"/>
<polygon fill="none" stroke="#000000" points="483.2636,-1161.5838 474.0145,-1156.4162 478.0223,-1166.2237 483.2636,-1161.5838"/>
</g>
<!-- \\acdhOeaw\\fedora\\dissemination\\Format -->
<g id="node32" class="node">
<title>\\acdhOeaw\\fedora\\dissemination\\Format</title>
<polygon fill="none" stroke="#000000" points="707.5,-1262 650.5,-1262 650.5,-1226 707.5,-1226 707.5,-1262"/>
<text text-anchor="middle" x="679" y="-1241.2" font-family="Courier,monospace" font-size="11.00" fill="#000000">Format</text>
</g>
<!-- \\acdhOeaw\\fedora\\dissemination\\Service -->
<g id="node33" class="node">
<title>\\acdhOeaw\\fedora\\dissemination\\Service</title>
<polygon fill="none" stroke="#000000" points="711,-1208 647,-1208 647,-1172 711,-1172 711,-1208"/>
<text text-anchor="middle" x="679" y="-1187.2" font-family="Courier,monospace" font-size="11.00" fill="#000000">Service</text>
</g>
<!-- \\acdhOeaw\\fedora\\dissemination\\Service&#45;&gt;\\acdhOeaw\\fedora\\FedoraResource -->
<g id="edge31" class="edge">
<title>\\acdhOeaw\\fedora\\dissemination\\Service&#45;&gt;\\acdhOeaw\\fedora\\FedoraResource</title>
<path fill="none" stroke="#000000" d="M646.9374,-1182.4388C614.8269,-1174.8662 564.4855,-1162.9943 523.9107,-1153.4257"/>
<polygon fill="none" stroke="#000000" points="524.6256,-1149.9983 514.0892,-1151.1095 523.0188,-1156.8114 524.6256,-1149.9983"/>
</g>
<!-- \\acdhOeaw\\fedora\\exceptions\\ManyAcdhIds -->
<g id="node34" class="node">
<title>\\acdhOeaw\\fedora\\exceptions\\ManyAcdhIds</title>
<polygon fill="none" stroke="#000000" points="724.5,-536 633.5,-536 633.5,-500 724.5,-500 724.5,-536"/>
<text text-anchor="middle" x="679" y="-515.2" font-family="Courier,monospace" font-size="11.00" fill="#000000">ManyAcdhIds</text>
</g>
<!-- \\acdhOeaw\\fedora\\exceptions\\ManyAcdhIds&#45;&gt;\\Exception -->
<g id="edge3" class="edge">
<title>\\acdhOeaw\\fedora\\exceptions\\ManyAcdhIds&#45;&gt;\\Exception</title>
<path fill="none" stroke="#000000" d="M633.1669,-510.3323C621.8157,-506.3334 610.7092,-500.2509 603,-491 474.4569,-336.7511 658.3713,-200.2179 531,-45 525.8479,-38.7216 519.0847,-33.9027 511.759,-30.2042"/>
<polygon fill="none" stroke="#000000" points="512.8254,-26.8521 502.2578,-26.0931 510.0456,-33.2765 512.8254,-26.8521"/>
</g>
<!-- \\acdhOeaw\\fedora\\exceptions\\Deleted -->
<g id="node35" class="node">
<title>\\acdhOeaw\\fedora\\exceptions\\Deleted</title>
<polygon fill="none" stroke="#000000" points="711,-482 647,-482 647,-446 711,-446 711,-482"/>
<text text-anchor="middle" x="679" y="-461.2" font-family="Courier,monospace" font-size="11.00" fill="#000000">Deleted</text>
</g>
<!-- \\acdhOeaw\\fedora\\exceptions\\Deleted&#45;&gt;\\Exception -->
<g id="edge4" class="edge">
<title>\\acdhOeaw\\fedora\\exceptions\\Deleted&#45;&gt;\\Exception</title>
<path fill="none" stroke="#000000" d="M646.6674,-460.0662C631.276,-456.5234 613.8958,-449.7913 603,-437 488.136,-302.1532 644.8395,-180.7127 531,-45 525.7804,-38.7775 518.9816,-33.9882 511.6409,-30.3022"/>
<polygon fill="none" stroke="#000000" points="512.6992,-26.947 502.1308,-26.1985 509.9257,-33.3741 512.6992,-26.947"/>
</g>
<!-- \\acdhOeaw\\fedora\\exceptions\\NoAcdhId -->
<g id="node36" class="node">
<title>\\acdhOeaw\\fedora\\exceptions\\NoAcdhId</title>
<polygon fill="none" stroke="#000000" points="714.5,-428 643.5,-428 643.5,-392 714.5,-392 714.5,-428"/>
<text text-anchor="middle" x="679" y="-407.2" font-family="Courier,monospace" font-size="11.00" fill="#000000">NoAcdhId</text>
</g>
<!-- \\acdhOeaw\\fedora\\exceptions\\NoAcdhId&#45;&gt;\\Exception -->
<g id="edge13" class="edge">
<title>\\acdhOeaw\\fedora\\exceptions\\NoAcdhId&#45;&gt;\\Exception</title>
<path fill="none" stroke="#000000" d="M643.3341,-405.0759C628.8935,-401.317 613.2446,-394.6885 603,-383 501.7625,-267.4938 631.3599,-161.2696 531,-45 525.6931,-38.8518 518.8483,-34.1017 511.4881,-30.4322"/>
<polygon fill="none" stroke="#000000" points="512.5359,-27.073 501.9665,-26.3382 509.7708,-33.5037 512.5359,-27.073"/>
</g>
<!-- \\acdhOeaw\\fedora\\exceptions\\NotFound -->
<g id="node37" class="node">
<title>\\acdhOeaw\\fedora\\exceptions\\NotFound</title>
<polygon fill="none" stroke="#000000" points="714.5,-374 643.5,-374 643.5,-338 714.5,-338 714.5,-374"/>
<text text-anchor="middle" x="679" y="-353.2" font-family="Courier,monospace" font-size="11.00" fill="#000000">NotFound</text>
</g>
<!-- \\acdhOeaw\\fedora\\exceptions\\NotFound&#45;&gt;\\Exception -->
<g id="edge14" class="edge">
<title>\\acdhOeaw\\fedora\\exceptions\\NotFound&#45;&gt;\\Exception</title>
<path fill="none" stroke="#000000" d="M643.1587,-350.7813C628.8635,-346.9723 613.3729,-340.3861 603,-329 515.3065,-232.7404 617.962,-141.9209 531,-45 525.576,-38.9549 518.6694,-34.2591 511.2832,-30.6126"/>
<polygon fill="none" stroke="#000000" points="512.3169,-27.248 501.7462,-26.5321 509.5633,-33.6837 512.3169,-27.248"/>
</g>
<!-- \\acdhOeaw\\fedora\\exceptions\\CacheInconsistent -->
<g id="node38" class="node">
<title>\\acdhOeaw\\fedora\\exceptions\\CacheInconsistent</title>
<polygon fill="none" stroke="#000000" points="744.5,-320 613.5,-320 613.5,-284 744.5,-284 744.5,-320"/>
<text text-anchor="middle" x="679" y="-299.2" font-family="Courier,monospace" font-size="11.00" fill="#000000">CacheInconsistent</text>
</g>
<!-- \\acdhOeaw\\fedora\\exceptions\\CacheInconsistent&#45;&gt;\\Exception -->
<g id="edge18" class="edge">
<title>\\acdhOeaw\\fedora\\exceptions\\CacheInconsistent&#45;&gt;\\Exception</title>
<path fill="none" stroke="#000000" d="M613.4598,-288.0287C609.6688,-285.7406 606.1322,-283.0839 603,-280 525.1606,-203.3602 605.9221,-124.4941 531,-45 525.4295,-39.0896 518.4456,-34.4649 511.0268,-30.8484"/>
<polygon fill="none" stroke="#000000" points="512.0428,-27.4772 501.4706,-26.7856 509.304,-33.9192 512.0428,-27.4772"/>
</g>
<!-- \\acdhOeaw\\fedora\\exceptions\\NotInCache -->
<g id="node39" class="node">
<title>\\acdhOeaw\\fedora\\exceptions\\NotInCache</title>
<polygon fill="none" stroke="#000000" points="721,-752 637,-752 637,-716 721,-716 721,-752"/>
<text text-anchor="middle" x="679" y="-731.2" font-family="Courier,monospace" font-size="11.00" fill="#000000">NotInCache</text>
</g>
<!-- \\acdhOeaw\\fedora\\exceptions\\NotInCache&#45;&gt;\\Exception -->
<g id="edge22" class="edge">
<title>\\acdhOeaw\\fedora\\exceptions\\NotInCache&#45;&gt;\\Exception</title>
<path fill="none" stroke="#000000" d="M636.8153,-727.9011C624.1072,-723.9789 611.3357,-717.5456 603,-707 419.4728,-474.818 712.7637,-278.5651 531,-45 526.012,-38.5904 519.3354,-33.7024 512.0461,-29.9747"/>
<polygon fill="none" stroke="#000000" points="513.1323,-26.6303 502.5665,-25.8464 510.3373,-33.0481 513.1323,-26.6303"/>
</g>
<!-- \\acdhOeaw\\fedora\\exceptions\\AmbiguousMatch -->
<g id="node40" class="node">
<title>\\acdhOeaw\\fedora\\exceptions\\AmbiguousMatch</title>
<polygon fill="none" stroke="#000000" points="734.5,-698 623.5,-698 623.5,-662 734.5,-662 734.5,-698"/>
<text text-anchor="middle" x="679" y="-677.2" font-family="Courier,monospace" font-size="11.00" fill="#000000">AmbiguousMatch</text>
</g>
<!-- \\acdhOeaw\\fedora\\exceptions\\AmbiguousMatch&#45;&gt;\\Exception -->
<g id="edge23" class="edge">
<title>\\acdhOeaw\\fedora\\exceptions\\AmbiguousMatch&#45;&gt;\\Exception</title>
<path fill="none" stroke="#000000" d="M623.1641,-668.4882C615.4328,-664.7028 608.3286,-659.6755 603,-653 433.2446,-440.3333 699.1401,-258.9462 531,-45 525.9815,-38.6143 519.2888,-33.7389 511.9927,-30.0165"/>
<polygon fill="none" stroke="#000000" points="513.0752,-26.6706 502.5091,-25.8913 510.283,-33.0896 513.0752,-26.6706"/>
</g>
<!-- \\acdhOeaw\\fedora\\exceptions\\AlreadyInCache -->
<g id="node41" class="node">
<title>\\acdhOeaw\\fedora\\exceptions\\AlreadyInCache</title>
<polygon fill="none" stroke="#000000" points="734.5,-644 623.5,-644 623.5,-608 734.5,-608 734.5,-644"/>
<text text-anchor="middle" x="679" y="-623.2" font-family="Courier,monospace" font-size="11.00" fill="#000000">AlreadyInCache</text>
</g>
<!-- \\acdhOeaw\\fedora\\exceptions\\AlreadyInCache&#45;&gt;\\Exception -->
<g id="edge27" class="edge">
<title>\\acdhOeaw\\fedora\\exceptions\\AlreadyInCache&#45;&gt;\\Exception</title>
<path fill="none" stroke="#000000" d="M623.23,-614.4353C615.4905,-610.6564 608.3664,-605.6451 603,-599 447.0026,-405.8312 685.5301,-239.3446 531,-45 525.9453,-38.6429 519.2334,-33.7826 511.9294,-30.0666"/>
<polygon fill="none" stroke="#000000" points="513.0075,-26.719 502.4409,-25.9452 510.2186,-33.1395 513.0075,-26.719"/>
</g>
<!-- \\acdhOeaw\\fedora\\exceptions\\AclException -->
<g id="node42" class="node">
<title>\\acdhOeaw\\fedora\\exceptions\\AclException</title>
<polygon fill="none" stroke="#000000" points="728,-590 630,-590 630,-554 728,-554 728,-590"/>
<text text-anchor="middle" x="679" y="-569.2" font-family="Courier,monospace" font-size="11.00" fill="#000000">AclException</text>
</g>
<!-- \\acdhOeaw\\fedora\\exceptions\\AclException&#45;&gt;\\Exception -->
<g id="edge33" class="edge">
<title>\\acdhOeaw\\fedora\\exceptions\\AclException&#45;&gt;\\Exception</title>
<path fill="none" stroke="#000000" d="M629.904,-563.2473C619.679,-559.2567 609.9203,-553.4496 603,-545 460.7423,-371.3064 671.9383,-219.7659 531,-45 525.9016,-38.6779 519.1667,-33.836 511.8529,-30.1278"/>
<polygon fill="none" stroke="#000000" points="512.9258,-26.7782 502.3588,-26.011 510.141,-33.2004 512.9258,-26.7782"/>
</g>
<!-- \\acdhOeaw\\fedora\\acl\\WebAclRule -->
<g id="node43" class="node">
<title>\\acdhOeaw\\fedora\\acl\\WebAclRule</title>
<polygon fill="none" stroke="#000000" points="721,-1128 637,-1128 637,-1092 721,-1092 721,-1128"/>
<text text-anchor="middle" x="679" y="-1107.2" font-family="Courier,monospace" font-size="11.00" fill="#000000">WebAclRule</text>
</g>
<!-- \\acdhOeaw\\fedora\\acl\\WebAclRule&#45;&gt;\\acdhOeaw\\fedora\\FedoraResource -->
<g id="edge10" class="edge">
<title>\\acdhOeaw\\fedora\\acl\\WebAclRule&#45;&gt;\\acdhOeaw\\fedora\\FedoraResource</title>
<path fill="none" stroke="#000000" d="M636.7463,-1115.3656C604.9698,-1119.4007 560.8293,-1125.0058 524.4247,-1129.6286"/>
<polygon fill="none" stroke="#000000" points="523.858,-1126.1724 514.3786,-1130.9043 524.7399,-1133.1166 523.858,-1126.1724"/>
</g>
<!-- \\acdhOeaw\\fedora\\acl\\CheckAcess -->
<g id="node44" class="node">
<title>\\acdhOeaw\\fedora\\acl\\CheckAcess</title>
<polygon fill="none" stroke="#000000" points="721,-1074 637,-1074 637,-1038 721,-1038 721,-1074"/>
<text text-anchor="middle" x="679" y="-1053.2" font-family="Courier,monospace" font-size="11.00" fill="#000000">CheckAcess</text>
</g>
<!-- \\acdhOeaw\\fedora\\acl\\WebAcl -->
<g id="node45" class="node">
<title>\\acdhOeaw\\fedora\\acl\\WebAcl</title>
<polygon fill="none" stroke="#000000" points="707.5,-1020 650.5,-1020 650.5,-984 707.5,-984 707.5,-1020"/>
<text text-anchor="middle" x="679" y="-999.2" font-family="Courier,monospace" font-size="11.00" fill="#000000">WebAcl</text>
</g>
<!-- \\acdhOeaw\\fedora\\metadataQuery\\Query -->
<g id="node46" class="node">
<title>\\acdhOeaw\\fedora\\metadataQuery\\Query</title>
<polygon fill="none" stroke="#000000" points="485.5,-886 431.5,-886 431.5,-850 485.5,-850 485.5,-886"/>
<text text-anchor="middle" x="458.5" y="-865.2" font-family="Courier,monospace" font-size="11.00" fill="#000000">Query</text>
</g>
<!-- \\acdhOeaw\\fedora\\metadataQuery\\HasValue -->
<g id="node47" class="node">
<title>\\acdhOeaw\\fedora\\metadataQuery\\HasValue</title>
<polygon fill="none" stroke="#000000" points="494,-940 423,-940 423,-904 494,-904 494,-940"/>
<text text-anchor="middle" x="458.5" y="-919.2" font-family="Courier,monospace" font-size="11.00" fill="#000000">HasValue</text>
</g>
<!-- \\acdhOeaw\\fedora\\metadataQuery\\HasProperty -->
<g id="node52" class="node">
<title>\\acdhOeaw\\fedora\\metadataQuery\\HasProperty</title>
<polygon fill="none" stroke="#000000" points="314,-886 223,-886 223,-850 314,-850 314,-886"/>
<text text-anchor="middle" x="268.5" y="-865.2" font-family="Courier,monospace" font-size="11.00" fill="#000000">HasProperty</text>
</g>
<!-- \\acdhOeaw\\fedora\\metadataQuery\\HasValue&#45;&gt;\\acdhOeaw\\fedora\\metadataQuery\\HasProperty -->
<g id="edge15" class="edge">
<title>\\acdhOeaw\\fedora\\metadataQuery\\HasValue&#45;&gt;\\acdhOeaw\\fedora\\metadataQuery\\HasProperty</title>
<path fill="none" stroke="#000000" d="M422.7625,-911.843C394.9006,-903.9244 355.7156,-892.7876 323.8115,-883.7201"/>
<polygon fill="none" stroke="#000000" points="324.7405,-880.3456 314.1646,-880.9784 322.8268,-887.0789 324.7405,-880.3456"/>
</g>
<!-- \\acdhOeaw\\fedora\\metadataQuery\\QueryParameter -->
<g id="node48" class="node">
<title>\\acdhOeaw\\fedora\\metadataQuery\\QueryParameter</title>
<polygon fill="none" stroke="#000000" points="151,-886 40,-886 40,-850 151,-850 151,-886"/>
<text text-anchor="start" x="61.5" y="-871.2" font-family="Courier,monospace" font-size="11.00" fill="#000000">«abstract»</text>
<text text-anchor="start" x="48" y="-859.2" font-family="Courier,monospace" font-size="11.00" fill="#000000">QueryParameter</text>
</g>
<!-- \\acdhOeaw\\fedora\\metadataQuery\\MatchesRegEx -->
<g id="node49" class="node">
<title>\\acdhOeaw\\fedora\\metadataQuery\\MatchesRegEx</title>
<polygon fill="none" stroke="#000000" points="728,-940 630,-940 630,-904 728,-904 728,-940"/>
<text text-anchor="middle" x="679" y="-919.2" font-family="Courier,monospace" font-size="11.00" fill="#000000">MatchesRegEx</text>
</g>
<!-- \\acdhOeaw\\fedora\\metadataQuery\\MatchesRegEx&#45;&gt;\\acdhOeaw\\fedora\\metadataQuery\\HasValue -->
<g id="edge19" class="edge">
<title>\\acdhOeaw\\fedora\\metadataQuery\\MatchesRegEx&#45;&gt;\\acdhOeaw\\fedora\\metadataQuery\\HasValue</title>
<path fill="none" stroke="#000000" d="M629.7899,-922C592.3605,-922 541.225,-922 504.5881,-922"/>
<polygon fill="none" stroke="#000000" points="504.1895,-918.5001 494.1895,-922 504.1894,-925.5001 504.1895,-918.5001"/>
</g>
<!-- \\acdhOeaw\\fedora\\metadataQuery\\SimpleQuery -->
<g id="node50" class="node">
<title>\\acdhOeaw\\fedora\\metadataQuery\\SimpleQuery</title>
<polygon fill="none" stroke="#000000" points="724.5,-886 633.5,-886 633.5,-850 724.5,-850 724.5,-886"/>
<text text-anchor="middle" x="679" y="-865.2" font-family="Courier,monospace" font-size="11.00" fill="#000000">SimpleQuery</text>
</g>
<!-- \\acdhOeaw\\fedora\\metadataQuery\\SimpleQuery&#45;&gt;\\acdhOeaw\\fedora\\metadataQuery\\Query -->
<g id="edge25" class="edge">
<title>\\acdhOeaw\\fedora\\metadataQuery\\SimpleQuery&#45;&gt;\\acdhOeaw\\fedora\\metadataQuery\\Query</title>
<path fill="none" stroke="#000000" d="M633.3123,-868C592.6101,-868 533.7814,-868 495.8381,-868"/>
<polygon fill="none" stroke="#000000" points="495.7225,-864.5001 485.7225,-868 495.7224,-871.5001 495.7225,-864.5001"/>
</g>
<!-- \\acdhOeaw\\fedora\\metadataQuery\\HasTriple -->
<g id="node51" class="node">
<title>\\acdhOeaw\\fedora\\metadataQuery\\HasTriple</title>
<polygon fill="none" stroke="#000000" points="497,-832 420,-832 420,-796 497,-796 497,-832"/>
<text text-anchor="middle" x="458.5" y="-811.2" font-family="Courier,monospace" font-size="11.00" fill="#000000">HasTriple</text>
</g>
<!-- \\acdhOeaw\\fedora\\metadataQuery\\HasTriple&#45;&gt;\\acdhOeaw\\fedora\\metadataQuery\\HasProperty -->
<g id="edge29" class="edge">
<title>\\acdhOeaw\\fedora\\metadataQuery\\HasTriple&#45;&gt;\\acdhOeaw\\fedora\\metadataQuery\\HasProperty</title>
<path fill="none" stroke="#000000" d="M419.5922,-825.058C391.9658,-832.9097 354.4795,-843.5637 323.7577,-852.2952"/>
<polygon fill="none" stroke="#000000" points="322.704,-848.956 314.0418,-855.0565 324.6177,-855.6893 322.704,-848.956"/>
</g>
<!-- \\acdhOeaw\\fedora\\metadataQuery\\HasProperty&#45;&gt;\\acdhOeaw\\fedora\\metadataQuery\\QueryParameter -->
<g id="edge34" class="edge">
<title>\\acdhOeaw\\fedora\\metadataQuery\\HasProperty&#45;&gt;\\acdhOeaw\\fedora\\metadataQuery\\QueryParameter</title>
<path fill="none" stroke="#000000" d="M222.5934,-868C203.8395,-868 181.7934,-868 161.3754,-868"/>
<polygon fill="none" stroke="#000000" points="161.1897,-864.5001 151.1896,-868 161.1896,-871.5001 161.1897,-864.5001"/>
</g>
<!-- \\acdhOeaw\\fedora\\Fedora -->
<g id="node53" class="node">
<title>\\acdhOeaw\\fedora\\Fedora</title>
<polygon fill="none" stroke="#000000" points="707.5,-266 650.5,-266 650.5,-230 707.5,-230 707.5,-266"/>
<text text-anchor="middle" x="679" y="-245.2" font-family="Courier,monospace" font-size="11.00" fill="#000000">Fedora</text>
</g>
<!-- \\acdhOeaw\\fedora\\SparqlClient -->
<g id="node55" class="node">
<title>\\acdhOeaw\\fedora\\SparqlClient</title>
<polygon fill="none" stroke="#000000" points="728,-212 630,-212 630,-176 728,-176 728,-212"/>
<text text-anchor="middle" x="679" y="-191.2" font-family="Courier,monospace" font-size="11.00" fill="#000000">SparqlClient</text>
</g>
<!-- \\acdhOeaw\\fedora\\FedoraCache -->
<g id="node56" class="node">
<title>\\acdhOeaw\\fedora\\FedoraCache</title>
<polygon fill="none" stroke="#000000" points="724.5,-158 633.5,-158 633.5,-122 724.5,-122 724.5,-158"/>
<text text-anchor="middle" x="679" y="-137.2" font-family="Courier,monospace" font-size="11.00" fill="#000000">FedoraCache</text>
</g>
</g>
</svg>
