<?xml version="1.0" encoding="UTF-8" standalone="no"?>
<!DOCTYPE svg PUBLIC "-//W3C//DTD SVG 1.1//EN"
 "http://www.w3.org/Graphics/SVG/1.1/DTD/svg11.dtd">
<!-- Generated by graphviz version 2.40.1 (20161225.0304)
 -->
<!-- Title: G Pages: 1 -->
<svg width="807pt" height="2990pt"
 viewBox="0.00 0.00 806.50 2990.00" xmlns="http://www.w3.org/2000/svg" xmlns:xlink="http://www.w3.org/1999/xlink">
<g id="graph0" class="graph" transform="scale(1 1) rotate(0) translate(4 2986)">
<title>G</title>
<polygon fill="#ffffff" stroke="transparent" points="-4,4 -4,-2986 802.5,-2986 802.5,4 -4,4"/>
<g id="clust1" class="cluster">
<title>cluster_Global</title>
<path fill="none" stroke="#c0c0c0" d="M20,-98C20,-98 778.5,-98 778.5,-98 784.5,-98 790.5,-104 790.5,-110 790.5,-110 790.5,-2962 790.5,-2962 790.5,-2968 784.5,-2974 778.5,-2974 778.5,-2974 20,-2974 20,-2974 14,-2974 8,-2968 8,-2962 8,-2962 8,-110 8,-110 8,-104 14,-98 20,-98"/>
<text text-anchor="middle" x="399.25" y="-2961.2" font-family="Times,serif" font-size="11.00" fill="#c0c0c0">Global</text>
</g>
<g id="clust2" class="cluster">
<title>cluster_\acdhOeaw</title>
<path fill="none" stroke="#c0c0c0" d="M28,-106C28,-106 770.5,-106 770.5,-106 776.5,-106 782.5,-112 782.5,-118 782.5,-118 782.5,-2934 782.5,-2934 782.5,-2940 776.5,-2946 770.5,-2946 770.5,-2946 28,-2946 28,-2946 22,-2946 16,-2940 16,-2934 16,-2934 16,-118 16,-118 16,-112 22,-106 28,-106"/>
<text text-anchor="middle" x="399.25" y="-2933.2" font-family="Times,serif" font-size="11.00" fill="#c0c0c0">acdhOeaw</text>
</g>
<g id="clust3" class="cluster">
<title>cluster_\acdhOeaw\schema</title>
<path fill="none" stroke="#c0c0c0" d="M227,-2622C227,-2622 742,-2622 742,-2622 748,-2622 754,-2628 754,-2634 754,-2634 754,-2906 754,-2906 754,-2912 748,-2918 742,-2918 742,-2918 227,-2918 227,-2918 221,-2918 215,-2912 215,-2906 215,-2906 215,-2634 215,-2634 215,-2628 221,-2622 227,-2622"/>
<text text-anchor="middle" x="484.5" y="-2905.2" font-family="Times,serif" font-size="11.00" fill="#c0c0c0">schema</text>
</g>
<g id="clust4" class="cluster">
<title>cluster_\acdhOeaw\schema\dissemination</title>
<path fill="none" stroke="#c0c0c0" d="M437.5,-2710C437.5,-2710 734,-2710 734,-2710 740,-2710 746,-2716 746,-2722 746,-2722 746,-2878 746,-2878 746,-2884 740,-2890 734,-2890 734,-2890 437.5,-2890 437.5,-2890 431.5,-2890 425.5,-2884 425.5,-2878 425.5,-2878 425.5,-2722 425.5,-2722 425.5,-2716 431.5,-2710 437.5,-2710"/>
<text text-anchor="middle" x="585.75" y="-2877.2" font-family="Times,serif" font-size="11.00" fill="#c0c0c0">dissemination</text>
</g>
<g id="clust5" class="cluster">
<title>cluster_\acdhOeaw\schema\file</title>
<path fill="none" stroke="#c0c0c0" d="M442.5,-2630C442.5,-2630 488.5,-2630 488.5,-2630 494.5,-2630 500.5,-2636 500.5,-2642 500.5,-2642 500.5,-2690 500.5,-2690 500.5,-2696 494.5,-2702 488.5,-2702 488.5,-2702 442.5,-2702 442.5,-2702 436.5,-2702 430.5,-2696 430.5,-2690 430.5,-2690 430.5,-2642 430.5,-2642 430.5,-2636 436.5,-2630 442.5,-2630"/>
<text text-anchor="middle" x="465.5" y="-2689.2" font-family="Times,serif" font-size="11.00" fill="#c0c0c0">file</text>
</g>
<g id="clust6" class="cluster">
<title>cluster_\acdhOeaw\util</title>
<path fill="none" stroke="#c0c0c0" d="M389,-1840C389,-1840 762.5,-1840 762.5,-1840 768.5,-1840 774.5,-1846 774.5,-1852 774.5,-1852 774.5,-2602 774.5,-2602 774.5,-2608 768.5,-2614 762.5,-2614 762.5,-2614 389,-2614 389,-2614 383,-2614 377,-2608 377,-2602 377,-2602 377,-1852 377,-1852 377,-1846 383,-1840 389,-1840"/>
<text text-anchor="middle" x="575.75" y="-2601.2" font-family="Times,serif" font-size="11.00" fill="#c0c0c0">util</text>
</g>
<g id="clust7" class="cluster">
<title>cluster_\acdhOeaw\util\metaLookup</title>
<path fill="none" stroke="#c0c0c0" d="M397,-2406C397,-2406 754.5,-2406 754.5,-2406 760.5,-2406 766.5,-2412 766.5,-2418 766.5,-2418 766.5,-2574 766.5,-2574 766.5,-2580 760.5,-2586 754.5,-2586 754.5,-2586 397,-2586 397,-2586 391,-2586 385,-2580 385,-2574 385,-2574 385,-2418 385,-2418 385,-2412 391,-2406 397,-2406"/>
<text text-anchor="middle" x="575.75" y="-2573.2" font-family="Times,serif" font-size="11.00" fill="#c0c0c0">metaLookup</text>
</g>
<g id="clust8" class="cluster">
<title>cluster_\acdhOeaw\util\metadataValidator</title>
<path fill="none" stroke="#c0c0c0" d="M624.5,-2218C624.5,-2218 747.5,-2218 747.5,-2218 753.5,-2218 759.5,-2224 759.5,-2230 759.5,-2230 759.5,-2386 759.5,-2386 759.5,-2392 753.5,-2398 747.5,-2398 747.5,-2398 624.5,-2398 624.5,-2398 618.5,-2398 612.5,-2392 612.5,-2386 612.5,-2386 612.5,-2230 612.5,-2230 612.5,-2224 618.5,-2218 624.5,-2218"/>
<text text-anchor="middle" x="686" y="-2385.2" font-family="Times,serif" font-size="11.00" fill="#c0c0c0">metadataValidator</text>
</g>
<g id="clust9" class="cluster">
<title>cluster_\acdhOeaw\fedora</title>
<path fill="none" stroke="#c0c0c0" d="M36,-114C36,-114 755.5,-114 755.5,-114 761.5,-114 767.5,-120 767.5,-126 767.5,-126 767.5,-1820 767.5,-1820 767.5,-1826 761.5,-1832 755.5,-1832 755.5,-1832 36,-1832 36,-1832 30,-1832 24,-1826 24,-1820 24,-1820 24,-126 24,-126 24,-120 30,-114 36,-114"/>
<text text-anchor="middle" x="395.75" y="-1819.2" font-family="Times,serif" font-size="11.00" fill="#c0c0c0">fedora</text>
</g>
<g id="clust10" class="cluster">
<title>cluster_\acdhOeaw\fedora\dissemination</title>
<path fill="none" stroke="#c0c0c0" d="M402.5,-1164C402.5,-1164 745.5,-1164 745.5,-1164 751.5,-1164 757.5,-1170 757.5,-1176 757.5,-1176 757.5,-1792 757.5,-1792 757.5,-1798 751.5,-1804 745.5,-1804 745.5,-1804 402.5,-1804 402.5,-1804 396.5,-1804 390.5,-1798 390.5,-1792 390.5,-1792 390.5,-1176 390.5,-1176 390.5,-1170 396.5,-1164 402.5,-1164"/>
<text text-anchor="middle" x="574" y="-1791.2" font-family="Times,serif" font-size="11.00" fill="#c0c0c0">dissemination</text>
</g>
<g id="clust11" class="cluster">
<title>cluster_\acdhOeaw\fedora\dissemination\parameter</title>
<path fill="none" stroke="#c0c0c0" d="M410.5,-1326C410.5,-1326 737.5,-1326 737.5,-1326 743.5,-1326 749.5,-1332 749.5,-1338 749.5,-1338 749.5,-1764 749.5,-1764 749.5,-1770 743.5,-1776 737.5,-1776 737.5,-1776 410.5,-1776 410.5,-1776 404.5,-1776 398.5,-1770 398.5,-1764 398.5,-1764 398.5,-1338 398.5,-1338 398.5,-1332 404.5,-1326 410.5,-1326"/>
<text text-anchor="middle" x="574" y="-1763.2" font-family="Times,serif" font-size="11.00" fill="#c0c0c0">parameter</text>
</g>
<g id="clust12" class="cluster">
<title>cluster_\acdhOeaw\fedora\exceptions</title>
<path fill="none" stroke="#c0c0c0" d="M624.5,-276C624.5,-276 747.5,-276 747.5,-276 753.5,-276 759.5,-282 759.5,-288 759.5,-288 759.5,-768 759.5,-768 759.5,-774 753.5,-780 747.5,-780 747.5,-780 624.5,-780 624.5,-780 618.5,-780 612.5,-774 612.5,-768 612.5,-768 612.5,-288 612.5,-288 612.5,-282 618.5,-276 624.5,-276"/>
<text text-anchor="middle" x="686" y="-767.2" font-family="Times,serif" font-size="11.00" fill="#c0c0c0">exceptions</text>
</g>
<g id="clust13" class="cluster">
<title>cluster_\acdhOeaw\fedora\acl</title>
<path fill="none" stroke="#c0c0c0" d="M648,-976C648,-976 724,-976 724,-976 730,-976 736,-982 736,-988 736,-988 736,-1144 736,-1144 736,-1150 730,-1156 724,-1156 724,-1156 648,-1156 648,-1156 642,-1156 636,-1150 636,-1144 636,-1144 636,-988 636,-988 636,-982 642,-976 648,-976"/>
<text text-anchor="middle" x="686" y="-1143.2" font-family="Times,serif" font-size="11.00" fill="#c0c0c0">acl</text>
</g>
<g id="clust14" class="cluster">
<title>cluster_\acdhOeaw\fedora\metadataQuery</title>
<path fill="none" stroke="#c0c0c0" d="M44,-788C44,-788 731,-788 731,-788 737,-788 743,-794 743,-800 743,-800 743,-956 743,-956 743,-962 737,-968 731,-968 731,-968 44,-968 44,-968 38,-968 32,-962 32,-956 32,-956 32,-800 32,-800 32,-794 38,-788 44,-788"/>
<text text-anchor="middle" x="387.5" y="-955.2" font-family="Times,serif" font-size="11.00" fill="#c0c0c0">metadataQuery</text>
</g>
<!-- \\acdhOeaw\\schema\\dissemination\\Match -->
<g id="node1" class="node">
<title>\\acdhOeaw\\schema\\dissemination\\Match</title>
<polygon fill="none" stroke="#000000" points="713,-2862 659,-2862 659,-2826 713,-2826 713,-2862"/>
<text text-anchor="middle" x="686" y="-2841.2" font-family="Courier,monospace" font-size="11.00" fill="#000000">Match</text>
</g>
<!-- \\acdhOeaw\\schema\\SchemaObject -->
<g id="node6" class="node">
<title>\\acdhOeaw\\schema\\SchemaObject</title>
<polygon fill="none" stroke="#000000" points="321,-2780 223,-2780 223,-2744 321,-2744 321,-2780"/>
<text text-anchor="start" x="238" y="-2765.2" font-family="Courier,monospace" font-size="11.00" fill="#000000">«abstract»</text>
<text text-anchor="start" x="231" y="-2753.2" font-family="Courier,monospace" font-size="11.00" fill="#000000">SchemaObject</text>
</g>
<!-- \\acdhOeaw\\schema\\dissemination\\Match&#45;&gt;\\acdhOeaw\\schema\\SchemaObject -->
<g id="edge1" class="edge">
<title>\\acdhOeaw\\schema\\dissemination\\Match&#45;&gt;\\acdhOeaw\\schema\\SchemaObject</title>
<path fill="none" stroke="#000000" d="M658.9743,-2844.259C604.5391,-2844.1191 478.2512,-2840.4374 377,-2812 354.4485,-2805.6662 330.7724,-2794.8043 311.6226,-2784.8193"/>
<polygon fill="none" stroke="#000000" points="313.0806,-2781.6302 302.6101,-2780.0116 309.7859,-2787.8064 313.0806,-2781.6302"/>
</g>
<!-- \\acdhOeaw\\schema\\dissemination\\Parameter -->
<g id="node2" class="node">
<title>\\acdhOeaw\\schema\\dissemination\\Parameter</title>
<polygon fill="none" stroke="#000000" points="724.5,-2754 647.5,-2754 647.5,-2718 724.5,-2718 724.5,-2754"/>
<text text-anchor="middle" x="686" y="-2733.2" font-family="Courier,monospace" font-size="11.00" fill="#000000">Parameter</text>
</g>
<!-- \\acdhOeaw\\schema\\dissemination\\Parameter&#45;&gt;\\acdhOeaw\\schema\\SchemaObject -->
<g id="edge5" class="edge">
<title>\\acdhOeaw\\schema\\dissemination\\Parameter&#45;&gt;\\acdhOeaw\\schema\\SchemaObject</title>
<path fill="none" stroke="#000000" d="M647.4237,-2738.4227C574.7997,-2742.9836 417.3547,-2752.8714 331.225,-2758.2806"/>
<polygon fill="none" stroke="#000000" points="330.8464,-2754.7973 321.0854,-2758.9173 331.2852,-2761.7836 330.8464,-2754.7973"/>
</g>
<!-- \\acdhOeaw\\schema\\dissemination\\CiriloService -->
<g id="node3" class="node">
<title>\\acdhOeaw\\schema\\dissemination\\CiriloService</title>
<polygon fill="none" stroke="#000000" points="738,-2808 634,-2808 634,-2772 738,-2772 738,-2808"/>
<text text-anchor="middle" x="686" y="-2787.2" font-family="Courier,monospace" font-size="11.00" fill="#000000">CiriloService</text>
</g>
<!-- \\acdhOeaw\\schema\\dissemination\\Service -->
<g id="node4" class="node">
<title>\\acdhOeaw\\schema\\dissemination\\Service</title>
<polygon fill="none" stroke="#000000" points="497.5,-2803 433.5,-2803 433.5,-2767 497.5,-2767 497.5,-2803"/>
<text text-anchor="middle" x="465.5" y="-2782.2" font-family="Courier,monospace" font-size="11.00" fill="#000000">Service</text>
</g>
<!-- \\acdhOeaw\\schema\\dissemination\\CiriloService&#45;&gt;\\acdhOeaw\\schema\\dissemination\\Service -->
<g id="edge9" class="edge">
<title>\\acdhOeaw\\schema\\dissemination\\CiriloService&#45;&gt;\\acdhOeaw\\schema\\dissemination\\Service</title>
<path fill="none" stroke="#000000" d="M633.7446,-2788.8151C595.262,-2787.9424 543.6011,-2786.771 507.721,-2785.9574"/>
<polygon fill="none" stroke="#000000" points="507.6615,-2782.4552 497.5847,-2785.7275 507.5028,-2789.4534 507.6615,-2782.4552"/>
</g>
<!-- \\acdhOeaw\\schema\\dissemination\\Service&#45;&gt;\\acdhOeaw\\schema\\SchemaObject -->
<g id="edge25" class="edge">
<title>\\acdhOeaw\\schema\\dissemination\\Service&#45;&gt;\\acdhOeaw\\schema\\SchemaObject</title>
<path fill="none" stroke="#000000" d="M433.1125,-2781.1503C405.4222,-2777.859 364.8589,-2773.0375 331.362,-2769.0559"/>
<polygon fill="none" stroke="#000000" points="331.5586,-2765.5548 321.2153,-2767.8499 330.7323,-2772.5058 331.5586,-2765.5548"/>
</g>
<!-- \\acdhOeaw\\schema\\file\\File -->
<g id="node5" class="node">
<title>\\acdhOeaw\\schema\\file\\File</title>
<polygon fill="none" stroke="#000000" points="492.5,-2674 438.5,-2674 438.5,-2638 492.5,-2638 492.5,-2674"/>
<text text-anchor="middle" x="465.5" y="-2653.2" font-family="Courier,monospace" font-size="11.00" fill="#000000">File</text>
</g>
<!-- \\acdhOeaw\\schema\\file\\File&#45;&gt;\\acdhOeaw\\schema\\SchemaObject -->
<g id="edge17" class="edge">
<title>\\acdhOeaw\\schema\\file\\File&#45;&gt;\\acdhOeaw\\schema\\SchemaObject</title>
<path fill="none" stroke="#000000" d="M438.1866,-2670.9624C405.9179,-2688.6393 351.8685,-2718.2477 314.2027,-2738.8812"/>
<polygon fill="none" stroke="#000000" points="312.0915,-2736.0469 305.0028,-2743.9209 315.4547,-2742.1861 312.0915,-2736.0469"/>
</g>
<!-- \\acdhOeaw\\util\\metaLookup\\MetaLookupException -->
<g id="node7" class="node">
<title>\\acdhOeaw\\util\\metaLookup\\MetaLookupException</title>
<polygon fill="none" stroke="#000000" points="758.5,-2450 613.5,-2450 613.5,-2414 758.5,-2414 758.5,-2450"/>
<text text-anchor="middle" x="686" y="-2429.2" font-family="Courier,monospace" font-size="11.00" fill="#000000">MetaLookupException</text>
</g>
<!-- \\Exception -->
<g id="node56" class="node">
<title>\\Exception</title>
<ellipse fill="none" stroke="#000000" cx="465.5" cy="-18" rx="48.9926" ry="18"/>
<text text-anchor="middle" x="465.5" y="-14.3" font-family="Times,serif" font-size="14.00" fill="#c0c0c0">\Exception</text>
</g>
<!-- \\acdhOeaw\\util\\metaLookup\\MetaLookupException&#45;&gt;\\Exception -->
<g id="edge7" class="edge">
<title>\\acdhOeaw\\util\\metaLookup\\MetaLookupException&#45;&gt;\\Exception</title>
<path fill="none" stroke="#000000" d="M621.9555,-2413.8825C617.3617,-2410.5658 613.263,-2406.642 610,-2402 459.326,-2187.6472 690.7525,-257.8767 538,-45 533.265,-38.4013 526.7219,-33.4135 519.489,-29.6437"/>
<polygon fill="none" stroke="#000000" points="520.6056,-26.3114 510.0426,-25.4906 517.7882,-32.7194 520.6056,-26.3114"/>
</g>
<!-- \\acdhOeaw\\util\\metaLookup\\MetaLookupFile -->
<g id="node8" class="node">
<title>\\acdhOeaw\\util\\metaLookup\\MetaLookupFile</title>
<polygon fill="none" stroke="#000000" points="741.5,-2558 630.5,-2558 630.5,-2522 741.5,-2522 741.5,-2558"/>
<text text-anchor="middle" x="686" y="-2537.2" font-family="Courier,monospace" font-size="11.00" fill="#000000">MetaLookupFile</text>
</g>
<!-- \\acdhOeaw\\util\\metaLookup\\MetaLookupInterface -->
<g id="node10" class="node">
<title>\\acdhOeaw\\util\\metaLookup\\MetaLookupInterface</title>
<polygon fill="none" stroke="#000000" points="538,-2531 393,-2531 393,-2495 538,-2495 538,-2531"/>
<text text-anchor="middle" x="465.5" y="-2510.2" font-family="Courier,monospace" font-size="11.00" fill="#000000">MetaLookupInterface</text>
</g>
<!-- \\acdhOeaw\\util\\metaLookup\\MetaLookupFile&#45;&gt;\\acdhOeaw\\util\\metaLookup\\MetaLookupInterface -->
<g id="edge8" class="edge">
<title>\\acdhOeaw\\util\\metaLookup\\MetaLookupFile&#45;&gt;\\acdhOeaw\\util\\metaLookup\\MetaLookupInterface</title>
<path fill="none" stroke="#000000" stroke-dasharray="1,5" d="M630.3585,-2533.1868C605.4743,-2530.1397 575.6246,-2526.4846 548.2038,-2523.127"/>
<polygon fill="none" stroke="#000000" points="548.5763,-2519.6466 538.225,-2521.9051 547.7255,-2526.5947 548.5763,-2519.6466"/>
</g>
<!-- \\acdhOeaw\\util\\metaLookup\\MetaLookupGraph -->
<g id="node9" class="node">
<title>\\acdhOeaw\\util\\metaLookup\\MetaLookupGraph</title>
<polygon fill="none" stroke="#000000" points="745,-2504 627,-2504 627,-2468 745,-2468 745,-2504"/>
<text text-anchor="middle" x="686" y="-2483.2" font-family="Courier,monospace" font-size="11.00" fill="#000000">MetaLookupGraph</text>
</g>
<!-- \\acdhOeaw\\util\\metaLookup\\MetaLookupGraph&#45;&gt;\\acdhOeaw\\util\\metaLookup\\MetaLookupInterface -->
<g id="edge18" class="edge">
<title>\\acdhOeaw\\util\\metaLookup\\MetaLookupGraph&#45;&gt;\\acdhOeaw\\util\\metaLookup\\MetaLookupInterface</title>
<path fill="none" stroke="#000000" stroke-dasharray="1,5" d="M626.91,-2493.2355C602.8097,-2496.1866 574.5185,-2499.6508 548.4105,-2502.8477"/>
<polygon fill="none" stroke="#000000" points="547.6443,-2499.4153 538.1438,-2504.1048 548.4951,-2506.3634 547.6443,-2499.4153"/>
</g>
<!-- \\acdhOeaw\\util\\metadataValidator\\MetadataValidator -->
<g id="node11" class="node">
<title>\\acdhOeaw\\util\\metadataValidator\\MetadataValidator</title>
<polygon fill="none" stroke="#000000" points="751.5,-2370 620.5,-2370 620.5,-2334 751.5,-2334 751.5,-2370"/>
<text text-anchor="middle" x="686" y="-2349.2" font-family="Courier,monospace" font-size="11.00" fill="#000000">MetadataValidator</text>
</g>
<!-- \\acdhOeaw\\util\\metadataValidator\\Error -->
<g id="node12" class="node">
<title>\\acdhOeaw\\util\\metadataValidator\\Error</title>
<polygon fill="none" stroke="#000000" points="713,-2316 659,-2316 659,-2280 713,-2280 713,-2316"/>
<text text-anchor="middle" x="686" y="-2295.2" font-family="Courier,monospace" font-size="11.00" fill="#000000">Error</text>
</g>
<!-- \\acdhOeaw\\util\\metadataValidator\\OntologyProperty -->
<g id="node13" class="node">
<title>\\acdhOeaw\\util\\metadataValidator\\OntologyProperty</title>
<polygon fill="none" stroke="#000000" points="748.5,-2262 623.5,-2262 623.5,-2226 748.5,-2226 748.5,-2262"/>
<text text-anchor="middle" x="686" y="-2241.2" font-family="Courier,monospace" font-size="11.00" fill="#000000">OntologyProperty</text>
</g>
<!-- \\acdhOeaw\\util\\RepoConfig -->
<g id="node14" class="node">
<title>\\acdhOeaw\\util\\RepoConfig</title>
<polygon fill="none" stroke="#000000" points="728,-2208 644,-2208 644,-2172 728,-2172 728,-2208"/>
<text text-anchor="middle" x="686" y="-2187.2" font-family="Courier,monospace" font-size="11.00" fill="#000000">RepoConfig</text>
</g>
<!-- \\acdhOeaw\\util\\Ontology -->
<g id="node15" class="node">
<title>\\acdhOeaw\\util\\Ontology</title>
<polygon fill="none" stroke="#000000" points="721.5,-2154 650.5,-2154 650.5,-2118 721.5,-2118 721.5,-2154"/>
<text text-anchor="middle" x="686" y="-2133.2" font-family="Courier,monospace" font-size="11.00" fill="#000000">Ontology</text>
</g>
<!-- \\acdhOeaw\\util\\Indexer -->
<g id="node16" class="node">
<title>\\acdhOeaw\\util\\Indexer</title>
<polygon fill="none" stroke="#000000" points="718,-2100 654,-2100 654,-2064 718,-2064 718,-2100"/>
<text text-anchor="middle" x="686" y="-2079.2" font-family="Courier,monospace" font-size="11.00" fill="#000000">Indexer</text>
</g>
<!-- \\acdhOeaw\\util\\ResourceFactory -->
<g id="node17" class="node">
<title>\\acdhOeaw\\util\\ResourceFactory</title>
<polygon fill="none" stroke="#000000" points="745,-2046 627,-2046 627,-2010 745,-2010 745,-2046"/>
<text text-anchor="middle" x="686" y="-2025.2" font-family="Courier,monospace" font-size="11.00" fill="#000000">ResourceFactory</text>
</g>
<!-- \\acdhOeaw\\util\\IndexerException -->
<g id="node18" class="node">
<title>\\acdhOeaw\\util\\IndexerException</title>
<polygon fill="none" stroke="#000000" points="748.5,-1938 623.5,-1938 623.5,-1902 748.5,-1902 748.5,-1938"/>
<text text-anchor="middle" x="686" y="-1917.2" font-family="Courier,monospace" font-size="11.00" fill="#000000">IndexerException</text>
</g>
<!-- \\acdhOeaw\\util\\IndexerException&#45;&gt;\\Exception -->
<g id="edge12" class="edge">
<title>\\acdhOeaw\\util\\IndexerException&#45;&gt;\\Exception</title>
<path fill="none" stroke="#000000" d="M623.4742,-1905.3295C618.2914,-1902.0176 613.6506,-1897.963 610,-1893 488.2424,-1727.468 658.5006,-211.4493 538,-45 533.2373,-38.4213 526.6796,-33.444 519.4405,-29.6786"/>
<polygon fill="none" stroke="#000000" points="520.5538,-26.3449 509.9905,-25.5281 517.7388,-32.754 520.5538,-26.3449"/>
</g>
<!-- \\acdhOeaw\\util\\MetadataCollection -->
<g id="node19" class="node">
<title>\\acdhOeaw\\util\\MetadataCollection</title>
<polygon fill="none" stroke="#000000" points="755,-1992 617,-1992 617,-1956 755,-1956 755,-1992"/>
<text text-anchor="middle" x="686" y="-1971.2" font-family="Courier,monospace" font-size="11.00" fill="#000000">MetadataCollection</text>
</g>
<!-- \\EasyRdf\\Graph -->
<g id="node57" class="node">
<title>\\EasyRdf\\Graph</title>
<ellipse fill="none" stroke="#000000" cx="465.5" cy="-72" rx="67.6881" ry="18"/>
<text text-anchor="middle" x="465.5" y="-68.3" font-family="Times,serif" font-size="14.00" fill="#c0c0c0">\EasyRdf\Graph</text>
</g>
<!-- \\acdhOeaw\\util\\MetadataCollection&#45;&gt;\\EasyRdf\\Graph -->
<g id="edge29" class="edge">
<title>\\acdhOeaw\\util\\MetadataCollection&#45;&gt;\\EasyRdf\\Graph</title>
<path fill="none" stroke="#000000" d="M618.7962,-1955.8701C615.5065,-1953.2948 612.5276,-1950.3552 610,-1947 532.0974,-1843.5903 548.5598,-913.0383 538,-784 516.1907,-517.4967 479.8143,-195.9013 468.7748,-100.1752"/>
<polygon fill="none" stroke="#000000" points="472.2389,-99.662 467.6136,-90.1301 465.2852,-100.4659 472.2389,-99.662"/>
</g>
<!-- \\acdhOeaw\\util\\KeepTransactionAlive -->
<g id="node20" class="node">
<title>\\acdhOeaw\\util\\KeepTransactionAlive</title>
<polygon fill="none" stroke="#000000" points="762,-1884 610,-1884 610,-1848 762,-1848 762,-1884"/>
<text text-anchor="middle" x="686" y="-1863.2" font-family="Courier,monospace" font-size="11.00" fill="#000000">KeepTransactionAlive</text>
</g>
<!-- \\acdhOeaw\\fedora\\dissemination\\parameter\\UriPart -->
<g id="node21" class="node">
<title>\\acdhOeaw\\fedora\\dissemination\\parameter\\UriPart</title>
<polygon fill="none" stroke="#000000" points="718,-1748 654,-1748 654,-1712 718,-1712 718,-1748"/>
<text text-anchor="middle" x="686" y="-1727.2" font-family="Courier,monospace" font-size="11.00" fill="#000000">UriPart</text>
</g>
<!-- \\acdhOeaw\\fedora\\dissemination\\parameter\\iTransformation -->
<g id="node29" class="node">
<title>\\acdhOeaw\\fedora\\dissemination\\parameter\\iTransformation</title>
<polygon fill="none" stroke="#000000" points="524.5,-1559 406.5,-1559 406.5,-1523 524.5,-1523 524.5,-1559"/>
<text text-anchor="middle" x="465.5" y="-1538.2" font-family="Courier,monospace" font-size="11.00" fill="#000000">iTransformation</text>
</g>
<!-- \\acdhOeaw\\fedora\\dissemination\\parameter\\UriPart&#45;&gt;\\acdhOeaw\\fedora\\dissemination\\parameter\\iTransformation -->
<g id="edge6" class="edge">
<title>\\acdhOeaw\\fedora\\dissemination\\parameter\\UriPart&#45;&gt;\\acdhOeaw\\fedora\\dissemination\\parameter\\iTransformation</title>
<path fill="none" stroke="#000000" stroke-dasharray="1,5" d="M653.6426,-1722.4015C639.4776,-1718.1232 623.131,-1711.828 610,-1703 554.7848,-1665.8787 507.0052,-1602.9154 482.6638,-1567.405"/>
<polygon fill="none" stroke="#000000" points="485.4863,-1565.3305 476.9901,-1559.0009 479.6847,-1569.2473 485.4863,-1565.3305"/>
</g>
<!-- \\acdhOeaw\\fedora\\dissemination\\parameter\\SetParam -->
<g id="node22" class="node">
<title>\\acdhOeaw\\fedora\\dissemination\\parameter\\SetParam</title>
<polygon fill="none" stroke="#000000" points="721.5,-1694 650.5,-1694 650.5,-1658 721.5,-1658 721.5,-1694"/>
<text text-anchor="middle" x="686" y="-1673.2" font-family="Courier,monospace" font-size="11.00" fill="#000000">SetParam</text>
</g>
<!-- \\acdhOeaw\\fedora\\dissemination\\parameter\\SetParam&#45;&gt;\\acdhOeaw\\fedora\\dissemination\\parameter\\iTransformation -->
<g id="edge10" class="edge">
<title>\\acdhOeaw\\fedora\\dissemination\\parameter\\SetParam&#45;&gt;\\acdhOeaw\\fedora\\dissemination\\parameter\\iTransformation</title>
<path fill="none" stroke="#000000" stroke-dasharray="1,5" d="M650.2504,-1665.7624C637.2138,-1661.3975 622.5911,-1655.7418 610,-1649 566.2738,-1625.5872 521.3484,-1589.8109 493.4413,-1565.9277"/>
<polygon fill="none" stroke="#000000" points="495.5452,-1563.1199 485.6919,-1559.226 490.9663,-1568.4146 495.5452,-1563.1199"/>
</g>
<!-- \\acdhOeaw\\fedora\\dissemination\\parameter\\RemoveProtocol -->
<g id="node23" class="node">
<title>\\acdhOeaw\\fedora\\dissemination\\parameter\\RemoveProtocol</title>
<polygon fill="none" stroke="#000000" points="741.5,-1640 630.5,-1640 630.5,-1604 741.5,-1604 741.5,-1640"/>
<text text-anchor="middle" x="686" y="-1619.2" font-family="Courier,monospace" font-size="11.00" fill="#000000">RemoveProtocol</text>
</g>
<!-- \\acdhOeaw\\fedora\\dissemination\\parameter\\RemoveProtocol&#45;&gt;\\acdhOeaw\\fedora\\dissemination\\parameter\\iTransformation -->
<g id="edge13" class="edge">
<title>\\acdhOeaw\\fedora\\dissemination\\parameter\\RemoveProtocol&#45;&gt;\\acdhOeaw\\fedora\\dissemination\\parameter\\iTransformation</title>
<path fill="none" stroke="#000000" stroke-dasharray="1,5" d="M634.8578,-1603.9595C626.5408,-1600.9887 618.0251,-1597.9248 610,-1595 581.203,-1584.5048 549.2744,-1572.6012 522.7694,-1562.646"/>
<polygon fill="none" stroke="#000000" points="523.8577,-1559.316 513.2656,-1559.0726 521.394,-1565.8681 523.8577,-1559.316"/>
</g>
<!-- \\acdhOeaw\\fedora\\dissemination\\parameter\\Base64Encode -->
<g id="node24" class="node">
<title>\\acdhOeaw\\fedora\\dissemination\\parameter\\Base64Encode</title>
<polygon fill="none" stroke="#000000" points="735,-1586 637,-1586 637,-1550 735,-1550 735,-1586"/>
<text text-anchor="middle" x="686" y="-1565.2" font-family="Courier,monospace" font-size="11.00" fill="#000000">Base64Encode</text>
</g>
<!-- \\acdhOeaw\\fedora\\dissemination\\parameter\\Base64Encode&#45;&gt;\\acdhOeaw\\fedora\\dissemination\\parameter\\iTransformation -->
<g id="edge21" class="edge">
<title>\\acdhOeaw\\fedora\\dissemination\\parameter\\Base64Encode&#45;&gt;\\acdhOeaw\\fedora\\dissemination\\parameter\\iTransformation</title>
<path fill="none" stroke="#000000" stroke-dasharray="1,5" d="M636.7899,-1561.9743C606.7679,-1558.2981 567.9278,-1553.5422 534.8245,-1549.4887"/>
<polygon fill="none" stroke="#000000" points="535.1027,-1545.9967 524.7514,-1548.2553 534.2518,-1552.9448 535.1027,-1545.9967"/>
</g>
<!-- \\acdhOeaw\\fedora\\dissemination\\parameter\\AddParam -->
<g id="node25" class="node">
<title>\\acdhOeaw\\fedora\\dissemination\\parameter\\AddParam</title>
<polygon fill="none" stroke="#000000" points="721.5,-1532 650.5,-1532 650.5,-1496 721.5,-1496 721.5,-1532"/>
<text text-anchor="middle" x="686" y="-1511.2" font-family="Courier,monospace" font-size="11.00" fill="#000000">AddParam</text>
</g>
<!-- \\acdhOeaw\\fedora\\dissemination\\parameter\\AddParam&#45;&gt;\\acdhOeaw\\fedora\\dissemination\\parameter\\iTransformation -->
<g id="edge22" class="edge">
<title>\\acdhOeaw\\fedora\\dissemination\\parameter\\AddParam&#45;&gt;\\acdhOeaw\\fedora\\dissemination\\parameter\\iTransformation</title>
<path fill="none" stroke="#000000" stroke-dasharray="1,5" d="M650.0821,-1518.3981C618.9397,-1522.2115 572.9859,-1527.8385 534.7223,-1532.5238"/>
<polygon fill="none" stroke="#000000" points="534.1651,-1529.0658 524.6647,-1533.7553 535.016,-1536.0139 534.1651,-1529.0658"/>
</g>
<!-- \\acdhOeaw\\fedora\\dissemination\\parameter\\RawUrlEncode -->
<g id="node26" class="node">
<title>\\acdhOeaw\\fedora\\dissemination\\parameter\\RawUrlEncode</title>
<polygon fill="none" stroke="#000000" points="735,-1478 637,-1478 637,-1442 735,-1442 735,-1478"/>
<text text-anchor="middle" x="686" y="-1457.2" font-family="Courier,monospace" font-size="11.00" fill="#000000">RawUrlEncode</text>
</g>
<!-- \\acdhOeaw\\fedora\\dissemination\\parameter\\RawUrlEncode&#45;&gt;\\acdhOeaw\\fedora\\dissemination\\parameter\\iTransformation -->
<g id="edge27" class="edge">
<title>\\acdhOeaw\\fedora\\dissemination\\parameter\\RawUrlEncode&#45;&gt;\\acdhOeaw\\fedora\\dissemination\\parameter\\iTransformation</title>
<path fill="none" stroke="#000000" stroke-dasharray="1,5" d="M636.7335,-1476.8798C627.7919,-1480.1198 618.583,-1483.5739 610,-1487 577.4771,-1499.9821 570.8173,-1506.7814 538,-1519 536.7866,-1519.4518 535.5593,-1519.9014 534.3209,-1520.3482"/>
<polygon fill="none" stroke="#000000" points="532.9519,-1517.1187 524.6591,-1523.7126 535.2539,-1523.7294 532.9519,-1517.1187"/>
</g>
<!-- \\acdhOeaw\\fedora\\dissemination\\parameter\\Substr -->
<g id="node27" class="node">
<title>\\acdhOeaw\\fedora\\dissemination\\parameter\\Substr</title>
<polygon fill="none" stroke="#000000" points="714.5,-1424 657.5,-1424 657.5,-1388 714.5,-1388 714.5,-1424"/>
<text text-anchor="middle" x="686" y="-1403.2" font-family="Courier,monospace" font-size="11.00" fill="#000000">Substr</text>
</g>
<!-- \\acdhOeaw\\fedora\\dissemination\\parameter\\Substr&#45;&gt;\\acdhOeaw\\fedora\\dissemination\\parameter\\iTransformation -->
<g id="edge31" class="edge">
<title>\\acdhOeaw\\fedora\\dissemination\\parameter\\Substr&#45;&gt;\\acdhOeaw\\fedora\\dissemination\\parameter\\iTransformation</title>
<path fill="none" stroke="#000000" stroke-dasharray="1,5" d="M657.2248,-1412.3292C642.2377,-1416.5509 624.1407,-1423.168 610,-1433 569.0718,-1461.4574 579.582,-1491.5067 538,-1519 536.5668,-1519.9476 535.091,-1520.8558 533.5809,-1521.7262"/>
<polygon fill="none" stroke="#000000" points="531.925,-1518.6418 524.6115,-1526.3075 535.1091,-1524.8757 531.925,-1518.6418"/>
</g>
<!-- \\acdhOeaw\\fedora\\dissemination\\parameter\\UrlEncode -->
<g id="node28" class="node">
<title>\\acdhOeaw\\fedora\\dissemination\\parameter\\UrlEncode</title>
<polygon fill="none" stroke="#000000" points="724.5,-1370 647.5,-1370 647.5,-1334 724.5,-1334 724.5,-1370"/>
<text text-anchor="middle" x="686" y="-1349.2" font-family="Courier,monospace" font-size="11.00" fill="#000000">UrlEncode</text>
</g>
<!-- \\acdhOeaw\\fedora\\dissemination\\parameter\\UrlEncode&#45;&gt;\\acdhOeaw\\fedora\\dissemination\\parameter\\iTransformation -->
<g id="edge33" class="edge">
<title>\\acdhOeaw\\fedora\\dissemination\\parameter\\UrlEncode&#45;&gt;\\acdhOeaw\\fedora\\dissemination\\parameter\\iTransformation</title>
<path fill="none" stroke="#000000" stroke-dasharray="1,5" d="M647.4721,-1359.5902C634.4426,-1363.6458 620.5402,-1369.7821 610,-1379 557.3313,-1425.061 591.7306,-1474.1823 538,-1519 536.4849,-1520.2638 534.8984,-1521.455 533.2541,-1522.5779"/>
<polygon fill="none" stroke="#000000" points="531.4719,-1519.5655 524.6139,-1527.6413 535.0112,-1525.6049 531.4719,-1519.5655"/>
</g>
<!-- \\acdhOeaw\\fedora\\dissemination\\Parameter -->
<g id="node30" class="node">
<title>\\acdhOeaw\\fedora\\dissemination\\Parameter</title>
<polygon fill="none" stroke="#000000" points="724.5,-1316 647.5,-1316 647.5,-1280 724.5,-1280 724.5,-1316"/>
<text text-anchor="middle" x="686" y="-1295.2" font-family="Courier,monospace" font-size="11.00" fill="#000000">Parameter</text>
</g>
<!-- \\acdhOeaw\\fedora\\FedoraResource -->
<g id="node53" class="node">
<title>\\acdhOeaw\\fedora\\FedoraResource</title>
<polygon fill="none" stroke="#000000" points="521,-1156 410,-1156 410,-1120 521,-1120 521,-1156"/>
<text text-anchor="middle" x="465.5" y="-1135.2" font-family="Courier,monospace" font-size="11.00" fill="#000000">FedoraResource</text>
</g>
<!-- \\acdhOeaw\\fedora\\dissemination\\Parameter&#45;&gt;\\acdhOeaw\\fedora\\FedoraResource -->
<g id="edge2" class="edge">
<title>\\acdhOeaw\\fedora\\dissemination\\Parameter&#45;&gt;\\acdhOeaw\\fedora\\FedoraResource</title>
<path fill="none" stroke="#000000" d="M647.1467,-1287.5462C634.7939,-1283.3588 621.3912,-1277.8696 610,-1271 561.1608,-1241.5469 514.452,-1193.7999 487.9413,-1164.2407"/>
<polygon fill="none" stroke="#000000" points="490.2636,-1161.5838 481.0145,-1156.4162 485.0223,-1166.2237 490.2636,-1161.5838"/>
</g>
<!-- \\acdhOeaw\\fedora\\dissemination\\Format -->
<g id="node31" class="node">
<title>\\acdhOeaw\\fedora\\dissemination\\Format</title>
<polygon fill="none" stroke="#000000" points="714.5,-1262 657.5,-1262 657.5,-1226 714.5,-1226 714.5,-1262"/>
<text text-anchor="middle" x="686" y="-1241.2" font-family="Courier,monospace" font-size="11.00" fill="#000000">Format</text>
</g>
<!-- \\acdhOeaw\\fedora\\dissemination\\Service -->
<g id="node32" class="node">
<title>\\acdhOeaw\\fedora\\dissemination\\Service</title>
<polygon fill="none" stroke="#000000" points="718,-1208 654,-1208 654,-1172 718,-1172 718,-1208"/>
<text text-anchor="middle" x="686" y="-1187.2" font-family="Courier,monospace" font-size="11.00" fill="#000000">Service</text>
</g>
<!-- \\acdhOeaw\\fedora\\dissemination\\Service&#45;&gt;\\acdhOeaw\\fedora\\FedoraResource -->
<g id="edge32" class="edge">
<title>\\acdhOeaw\\fedora\\dissemination\\Service&#45;&gt;\\acdhOeaw\\fedora\\FedoraResource</title>
<path fill="none" stroke="#000000" d="M653.9374,-1182.4388C621.8269,-1174.8662 571.4855,-1162.9943 530.9107,-1153.4257"/>
<polygon fill="none" stroke="#000000" points="531.6256,-1149.9983 521.0892,-1151.1095 530.0188,-1156.8114 531.6256,-1149.9983"/>
</g>
<!-- \\acdhOeaw\\fedora\\exceptions\\ManyAcdhIds -->
<g id="node33" class="node">
<title>\\acdhOeaw\\fedora\\exceptions\\ManyAcdhIds</title>
<polygon fill="none" stroke="#000000" points="731.5,-374 640.5,-374 640.5,-338 731.5,-338 731.5,-374"/>
<text text-anchor="middle" x="686" y="-353.2" font-family="Courier,monospace" font-size="11.00" fill="#000000">ManyAcdhIds</text>
</g>
<!-- \\acdhOeaw\\fedora\\exceptions\\ManyAcdhIds&#45;&gt;\\Exception -->
<g id="edge3" class="edge">
<title>\\acdhOeaw\\fedora\\exceptions\\ManyAcdhIds&#45;&gt;\\Exception</title>
<path fill="none" stroke="#000000" d="M640.3009,-347.7302C629.0867,-343.7307 618.0154,-337.7984 610,-329 522.3065,-232.7404 624.962,-141.9209 538,-45 532.576,-38.9549 525.6694,-34.2591 518.2832,-30.6126"/>
<polygon fill="none" stroke="#000000" points="519.3169,-27.248 508.7462,-26.5321 516.5633,-33.6837 519.3169,-27.248"/>
</g>
<!-- \\acdhOeaw\\fedora\\exceptions\\Deleted -->
<g id="node34" class="node">
<title>\\acdhOeaw\\fedora\\exceptions\\Deleted</title>
<polygon fill="none" stroke="#000000" points="718,-320 654,-320 654,-284 718,-284 718,-320"/>
<text text-anchor="middle" x="686" y="-299.2" font-family="Courier,monospace" font-size="11.00" fill="#000000">Deleted</text>
</g>
<!-- \\acdhOeaw\\fedora\\exceptions\\Deleted&#45;&gt;\\Exception -->
<g id="edge4" class="edge">
<title>\\acdhOeaw\\fedora\\exceptions\\Deleted&#45;&gt;\\Exception</title>
<path fill="none" stroke="#000000" d="M653.6247,-299.6272C638.5994,-296.9345 621.5499,-291.3719 610,-280 532.1606,-203.3602 612.9221,-124.4941 538,-45 532.4295,-39.0896 525.4456,-34.4649 518.0268,-30.8484"/>
<polygon fill="none" stroke="#000000" points="519.0428,-27.4772 508.4706,-26.7856 516.304,-33.9192 519.0428,-27.4772"/>
</g>
<!-- \\acdhOeaw\\fedora\\exceptions\\NoAcdhId -->
<g id="node35" class="node">
<title>\\acdhOeaw\\fedora\\exceptions\\NoAcdhId</title>
<polygon fill="none" stroke="#000000" points="721.5,-752 650.5,-752 650.5,-716 721.5,-716 721.5,-752"/>
<text text-anchor="middle" x="686" y="-731.2" font-family="Courier,monospace" font-size="11.00" fill="#000000">NoAcdhId</text>
</g>
<!-- \\acdhOeaw\\fedora\\exceptions\\NoAcdhId&#45;&gt;\\Exception -->
<g id="edge14" class="edge">
<title>\\acdhOeaw\\fedora\\exceptions\\NoAcdhId&#45;&gt;\\Exception</title>
<path fill="none" stroke="#000000" d="M650.1433,-729.6604C635.4875,-726.0091 619.725,-719.3032 610,-707 426.4728,-474.818 719.7637,-278.5651 538,-45 533.012,-38.5904 526.3354,-33.7024 519.0461,-29.9747"/>
<polygon fill="none" stroke="#000000" points="520.1323,-26.6303 509.5665,-25.8464 517.3373,-33.0481 520.1323,-26.6303"/>
</g>
<!-- \\acdhOeaw\\fedora\\exceptions\\NotFound -->
<g id="node36" class="node">
<title>\\acdhOeaw\\fedora\\exceptions\\NotFound</title>
<polygon fill="none" stroke="#000000" points="721.5,-698 650.5,-698 650.5,-662 721.5,-662 721.5,-698"/>
<text text-anchor="middle" x="686" y="-677.2" font-family="Courier,monospace" font-size="11.00" fill="#000000">NotFound</text>
</g>
<!-- \\acdhOeaw\\fedora\\exceptions\\NotFound&#45;&gt;\\Exception -->
<g id="edge15" class="edge">
<title>\\acdhOeaw\\fedora\\exceptions\\NotFound&#45;&gt;\\Exception</title>
<path fill="none" stroke="#000000" d="M650.1989,-675.6162C635.5534,-671.9568 619.7836,-665.2567 610,-653 440.2446,-440.3333 706.1401,-258.9462 538,-45 532.9815,-38.6143 526.2888,-33.7389 518.9927,-30.0165"/>
<polygon fill="none" stroke="#000000" points="520.0752,-26.6706 509.5091,-25.8913 517.283,-33.0896 520.0752,-26.6706"/>
</g>
<!-- \\acdhOeaw\\fedora\\exceptions\\CacheInconsistent -->
<g id="node37" class="node">
<title>\\acdhOeaw\\fedora\\exceptions\\CacheInconsistent</title>
<polygon fill="none" stroke="#000000" points="751.5,-644 620.5,-644 620.5,-608 751.5,-608 751.5,-644"/>
<text text-anchor="middle" x="686" y="-623.2" font-family="Courier,monospace" font-size="11.00" fill="#000000">CacheInconsistent</text>
</g>
<!-- \\acdhOeaw\\fedora\\exceptions\\CacheInconsistent&#45;&gt;\\Exception -->
<g id="edge19" class="edge">
<title>\\acdhOeaw\\fedora\\exceptions\\CacheInconsistent&#45;&gt;\\Exception</title>
<path fill="none" stroke="#000000" d="M620.4137,-608.6583C616.5283,-605.9001 612.9911,-602.7038 610,-599 454.0026,-405.8312 692.5301,-239.3446 538,-45 532.9453,-38.6429 526.2334,-33.7826 518.9294,-30.0666"/>
<polygon fill="none" stroke="#000000" points="520.0075,-26.719 509.4409,-25.9452 517.2186,-33.1395 520.0075,-26.719"/>
</g>
<!-- \\acdhOeaw\\fedora\\exceptions\\NotInCache -->
<g id="node38" class="node">
<title>\\acdhOeaw\\fedora\\exceptions\\NotInCache</title>
<polygon fill="none" stroke="#000000" points="728,-590 644,-590 644,-554 728,-554 728,-590"/>
<text text-anchor="middle" x="686" y="-569.2" font-family="Courier,monospace" font-size="11.00" fill="#000000">NotInCache</text>
</g>
<!-- \\acdhOeaw\\fedora\\exceptions\\NotInCache&#45;&gt;\\Exception -->
<g id="edge23" class="edge">
<title>\\acdhOeaw\\fedora\\exceptions\\NotInCache&#45;&gt;\\Exception</title>
<path fill="none" stroke="#000000" d="M643.6314,-565.6061C631.0676,-561.6625 618.4286,-555.2912 610,-545 467.7423,-371.3064 678.9383,-219.7659 538,-45 532.9016,-38.6779 526.1667,-33.836 518.8529,-30.1278"/>
<polygon fill="none" stroke="#000000" points="519.9258,-26.7782 509.3588,-26.011 517.141,-33.2004 519.9258,-26.7782"/>
</g>
<!-- \\acdhOeaw\\fedora\\exceptions\\AmbiguousMatch -->
<g id="node39" class="node">
<title>\\acdhOeaw\\fedora\\exceptions\\AmbiguousMatch</title>
<polygon fill="none" stroke="#000000" points="741.5,-536 630.5,-536 630.5,-500 741.5,-500 741.5,-536"/>
<text text-anchor="middle" x="686" y="-515.2" font-family="Courier,monospace" font-size="11.00" fill="#000000">AmbiguousMatch</text>
</g>
<!-- \\acdhOeaw\\fedora\\exceptions\\AmbiguousMatch&#45;&gt;\\Exception -->
<g id="edge24" class="edge">
<title>\\acdhOeaw\\fedora\\exceptions\\AmbiguousMatch&#45;&gt;\\Exception</title>
<path fill="none" stroke="#000000" d="M630.4071,-506.29C622.6455,-502.5293 615.4682,-497.5617 610,-491 481.4569,-336.7511 665.3713,-200.2179 538,-45 532.8479,-38.7216 526.0847,-33.9027 518.759,-30.2042"/>
<polygon fill="none" stroke="#000000" points="519.8254,-26.8521 509.2578,-26.0931 517.0456,-33.2765 519.8254,-26.8521"/>
</g>
<!-- \\acdhOeaw\\fedora\\exceptions\\AlreadyInCache -->
<g id="node40" class="node">
<title>\\acdhOeaw\\fedora\\exceptions\\AlreadyInCache</title>
<polygon fill="none" stroke="#000000" points="741.5,-482 630.5,-482 630.5,-446 741.5,-446 741.5,-482"/>
<text text-anchor="middle" x="686" y="-461.2" font-family="Courier,monospace" font-size="11.00" fill="#000000">AlreadyInCache</text>
</g>
<!-- \\acdhOeaw\\fedora\\exceptions\\AlreadyInCache&#45;&gt;\\Exception -->
<g id="edge28" class="edge">
<title>\\acdhOeaw\\fedora\\exceptions\\AlreadyInCache&#45;&gt;\\Exception</title>
<path fill="none" stroke="#000000" d="M630.1478,-452.0013C622.5169,-448.2765 615.4479,-443.3956 610,-437 495.136,-302.1532 651.8395,-180.7127 538,-45 532.7804,-38.7775 525.9816,-33.9882 518.6409,-30.3022"/>
<polygon fill="none" stroke="#000000" points="519.6992,-26.947 509.1308,-26.1985 516.9257,-33.3741 519.6992,-26.947"/>
</g>
<!-- \\acdhOeaw\\fedora\\exceptions\\AclException -->
<g id="node41" class="node">
<title>\\acdhOeaw\\fedora\\exceptions\\AclException</title>
<polygon fill="none" stroke="#000000" points="735,-428 637,-428 637,-392 735,-392 735,-428"/>
<text text-anchor="middle" x="686" y="-407.2" font-family="Courier,monospace" font-size="11.00" fill="#000000">AclException</text>
</g>
<!-- \\acdhOeaw\\fedora\\exceptions\\AclException&#45;&gt;\\Exception -->
<g id="edge34" class="edge">
<title>\\acdhOeaw\\fedora\\exceptions\\AclException&#45;&gt;\\Exception</title>
<path fill="none" stroke="#000000" d="M636.9143,-400.7511C626.8138,-396.7815 617.1066,-391.1082 610,-383 508.7625,-267.4938 638.3599,-161.2696 538,-45 532.6931,-38.8518 525.8483,-34.1017 518.4881,-30.4322"/>
<polygon fill="none" stroke="#000000" points="519.5359,-27.073 508.9665,-26.3382 516.7708,-33.5037 519.5359,-27.073"/>
</g>
<!-- \\acdhOeaw\\fedora\\acl\\WebAclRule -->
<g id="node42" class="node">
<title>\\acdhOeaw\\fedora\\acl\\WebAclRule</title>
<polygon fill="none" stroke="#000000" points="728,-1128 644,-1128 644,-1092 728,-1092 728,-1128"/>
<text text-anchor="middle" x="686" y="-1107.2" font-family="Courier,monospace" font-size="11.00" fill="#000000">WebAclRule</text>
</g>
<!-- \\acdhOeaw\\fedora\\acl\\WebAclRule&#45;&gt;\\acdhOeaw\\fedora\\FedoraResource -->
<g id="edge11" class="edge">
<title>\\acdhOeaw\\fedora\\acl\\WebAclRule&#45;&gt;\\acdhOeaw\\fedora\\FedoraResource</title>
<path fill="none" stroke="#000000" d="M643.7463,-1115.3656C611.9698,-1119.4007 567.8293,-1125.0058 531.4247,-1129.6286"/>
<polygon fill="none" stroke="#000000" points="530.858,-1126.1724 521.3786,-1130.9043 531.7399,-1133.1166 530.858,-1126.1724"/>
</g>
<!-- \\acdhOeaw\\fedora\\acl\\CheckAcess -->
<g id="node43" class="node">
<title>\\acdhOeaw\\fedora\\acl\\CheckAcess</title>
<polygon fill="none" stroke="#000000" points="728,-1074 644,-1074 644,-1038 728,-1038 728,-1074"/>
<text text-anchor="middle" x="686" y="-1053.2" font-family="Courier,monospace" font-size="11.00" fill="#000000">CheckAcess</text>
</g>
<!-- \\acdhOeaw\\fedora\\acl\\WebAcl -->
<g id="node44" class="node">
<title>\\acdhOeaw\\fedora\\acl\\WebAcl</title>
<polygon fill="none" stroke="#000000" points="714.5,-1020 657.5,-1020 657.5,-984 714.5,-984 714.5,-1020"/>
<text text-anchor="middle" x="686" y="-999.2" font-family="Courier,monospace" font-size="11.00" fill="#000000">WebAcl</text>
</g>
<!-- \\acdhOeaw\\fedora\\metadataQuery\\Query -->
<g id="node45" class="node">
<title>\\acdhOeaw\\fedora\\metadataQuery\\Query</title>
<polygon fill="none" stroke="#000000" points="492.5,-886 438.5,-886 438.5,-850 492.5,-850 492.5,-886"/>
<text text-anchor="middle" x="465.5" y="-865.2" font-family="Courier,monospace" font-size="11.00" fill="#000000">Query</text>
</g>
<!-- \\acdhOeaw\\fedora\\metadataQuery\\HasValue -->
<g id="node46" class="node">
<title>\\acdhOeaw\\fedora\\metadataQuery\\HasValue</title>
<polygon fill="none" stroke="#000000" points="501,-940 430,-940 430,-904 501,-904 501,-940"/>
<text text-anchor="middle" x="465.5" y="-919.2" font-family="Courier,monospace" font-size="11.00" fill="#000000">HasValue</text>
</g>
<!-- \\acdhOeaw\\fedora\\metadataQuery\\HasProperty -->
<g id="node51" class="node">
<title>\\acdhOeaw\\fedora\\metadataQuery\\HasProperty</title>
<polygon fill="none" stroke="#000000" points="317.5,-886 226.5,-886 226.5,-850 317.5,-850 317.5,-886"/>
<text text-anchor="middle" x="272" y="-865.2" font-family="Courier,monospace" font-size="11.00" fill="#000000">HasProperty</text>
</g>
<!-- \\acdhOeaw\\fedora\\metadataQuery\\HasValue&#45;&gt;\\acdhOeaw\\fedora\\metadataQuery\\HasProperty -->
<g id="edge16" class="edge">
<title>\\acdhOeaw\\fedora\\metadataQuery\\HasValue&#45;&gt;\\acdhOeaw\\fedora\\metadataQuery\\HasProperty</title>
<path fill="none" stroke="#000000" d="M429.5576,-911.9696C400.9327,-903.9812 360.3652,-892.6601 327.5635,-883.5061"/>
<polygon fill="none" stroke="#000000" points="328.2276,-880.0578 317.6548,-880.7409 326.346,-886.8001 328.2276,-880.0578"/>
</g>
<!-- \\acdhOeaw\\fedora\\metadataQuery\\QueryParameter -->
<g id="node47" class="node">
<title>\\acdhOeaw\\fedora\\metadataQuery\\QueryParameter</title>
<polygon fill="none" stroke="#000000" points="151,-886 40,-886 40,-850 151,-850 151,-886"/>
<text text-anchor="start" x="61.5" y="-871.2" font-family="Courier,monospace" font-size="11.00" fill="#000000">«abstract»</text>
<text text-anchor="start" x="48" y="-859.2" font-family="Courier,monospace" font-size="11.00" fill="#000000">QueryParameter</text>
</g>
<!-- \\acdhOeaw\\fedora\\metadataQuery\\MatchesRegEx -->
<g id="node48" class="node">
<title>\\acdhOeaw\\fedora\\metadataQuery\\MatchesRegEx</title>
<polygon fill="none" stroke="#000000" points="735,-940 637,-940 637,-904 735,-904 735,-940"/>
<text text-anchor="middle" x="686" y="-919.2" font-family="Courier,monospace" font-size="11.00" fill="#000000">MatchesRegEx</text>
</g>
<!-- \\acdhOeaw\\fedora\\metadataQuery\\MatchesRegEx&#45;&gt;\\acdhOeaw\\fedora\\metadataQuery\\HasValue -->
<g id="edge20" class="edge">
<title>\\acdhOeaw\\fedora\\metadataQuery\\MatchesRegEx&#45;&gt;\\acdhOeaw\\fedora\\metadataQuery\\HasValue</title>
<path fill="none" stroke="#000000" d="M636.7899,-922C599.3605,-922 548.225,-922 511.5881,-922"/>
<polygon fill="none" stroke="#000000" points="511.1895,-918.5001 501.1895,-922 511.1894,-925.5001 511.1895,-918.5001"/>
</g>
<!-- \\acdhOeaw\\fedora\\metadataQuery\\SimpleQuery -->
<g id="node49" class="node">
<title>\\acdhOeaw\\fedora\\metadataQuery\\SimpleQuery</title>
<polygon fill="none" stroke="#000000" points="731.5,-886 640.5,-886 640.5,-850 731.5,-850 731.5,-886"/>
<text text-anchor="middle" x="686" y="-865.2" font-family="Courier,monospace" font-size="11.00" fill="#000000">SimpleQuery</text>
</g>
<!-- \\acdhOeaw\\fedora\\metadataQuery\\SimpleQuery&#45;&gt;\\acdhOeaw\\fedora\\metadataQuery\\Query -->
<g id="edge26" class="edge">
<title>\\acdhOeaw\\fedora\\metadataQuery\\SimpleQuery&#45;&gt;\\acdhOeaw\\fedora\\metadataQuery\\Query</title>
<path fill="none" stroke="#000000" d="M640.3123,-868C599.6101,-868 540.7814,-868 502.8381,-868"/>
<polygon fill="none" stroke="#000000" points="502.7225,-864.5001 492.7225,-868 502.7224,-871.5001 502.7225,-864.5001"/>
</g>
<!-- \\acdhOeaw\\fedora\\metadataQuery\\HasTriple -->
<g id="node50" class="node">
<title>\\acdhOeaw\\fedora\\metadataQuery\\HasTriple</title>
<polygon fill="none" stroke="#000000" points="504,-832 427,-832 427,-796 504,-796 504,-832"/>
<text text-anchor="middle" x="465.5" y="-811.2" font-family="Courier,monospace" font-size="11.00" fill="#000000">HasTriple</text>
</g>
<!-- \\acdhOeaw\\fedora\\metadataQuery\\HasTriple&#45;&gt;\\acdhOeaw\\fedora\\metadataQuery\\HasProperty -->
<g id="edge30" class="edge">
<title>\\acdhOeaw\\fedora\\metadataQuery\\HasTriple&#45;&gt;\\acdhOeaw\\fedora\\metadataQuery\\HasProperty</title>
<path fill="none" stroke="#000000" d="M426.8075,-824.7979C398.4445,-832.7132 359.5181,-843.5763 327.7955,-852.4292"/>
<polygon fill="none" stroke="#000000" points="326.4627,-849.1673 317.7716,-855.2265 328.3444,-855.9097 326.4627,-849.1673"/>
</g>
<!-- \\acdhOeaw\\fedora\\metadataQuery\\HasProperty&#45;&gt;\\acdhOeaw\\fedora\\metadataQuery\\QueryParameter -->
<g id="edge35" class="edge">
<title>\\acdhOeaw\\fedora\\metadataQuery\\HasProperty&#45;&gt;\\acdhOeaw\\fedora\\metadataQuery\\QueryParameter</title>
<path fill="none" stroke="#000000" d="M226.0875,-868C206.336,-868 182.8763,-868 161.3271,-868"/>
<polygon fill="none" stroke="#000000" points="161.2549,-864.5001 151.2548,-868 161.2548,-871.5001 161.2549,-864.5001"/>
</g>
<!-- \\acdhOeaw\\fedora\\Fedora -->
<g id="node52" class="node">
<title>\\acdhOeaw\\fedora\\Fedora</title>
<polygon fill="none" stroke="#000000" points="714.5,-266 657.5,-266 657.5,-230 714.5,-230 714.5,-266"/>
<text text-anchor="middle" x="686" y="-245.2" font-family="Courier,monospace" font-size="11.00" fill="#000000">Fedora</text>
</g>
<!-- \\acdhOeaw\\fedora\\SparqlClient -->
<g id="node54" class="node">
<title>\\acdhOeaw\\fedora\\SparqlClient</title>
<polygon fill="none" stroke="#000000" points="735,-212 637,-212 637,-176 735,-176 735,-212"/>
<text text-anchor="middle" x="686" y="-191.2" font-family="Courier,monospace" font-size="11.00" fill="#000000">SparqlClient</text>
</g>
<!-- \\acdhOeaw\\fedora\\FedoraCache -->
<g id="node55" class="node">
<title>\\acdhOeaw\\fedora\\FedoraCache</title>
<polygon fill="none" stroke="#000000" points="731.5,-158 640.5,-158 640.5,-122 731.5,-122 731.5,-158"/>
<text text-anchor="middle" x="686" y="-137.2" font-family="Courier,monospace" font-size="11.00" fill="#000000">FedoraCache</text>
</g>
</g>
</svg>
