<?xml version="1.0" encoding="UTF-8" standalone="no"?>
<!DOCTYPE svg PUBLIC "-//W3C//DTD SVG 1.1//EN"
 "http://www.w3.org/Graphics/SVG/1.1/DTD/svg11.dtd">
<!-- Generated by graphviz version 2.38.0 (20140413.2041)
 -->
<!-- Title: G Pages: 1 -->
<svg width="786pt" height="1964pt"
 viewBox="0.00 0.00 785.50 1964.00" xmlns="http://www.w3.org/2000/svg" xmlns:xlink="http://www.w3.org/1999/xlink">
<g id="graph0" class="graph" transform="scale(1 1) rotate(0) translate(4 1960)">
<title>G</title>
<polygon fill="white" stroke="none" points="-4,4 -4,-1960 781.5,-1960 781.5,4 -4,4"/>
<g id="clust1" class="cluster"><title>cluster_Global</title>
<path fill="none" stroke="gray" d="M20,-98C20,-98 757.5,-98 757.5,-98 763.5,-98 769.5,-104 769.5,-110 769.5,-110 769.5,-1936 769.5,-1936 769.5,-1942 763.5,-1948 757.5,-1948 757.5,-1948 20,-1948 20,-1948 14,-1948 8,-1942 8,-1936 8,-1936 8,-110 8,-110 8,-104 14,-98 20,-98"/>
<text text-anchor="middle" x="388.75" y="-1935.2" font-family="Times,serif" font-size="11.00" fill="gray">Global</text>
</g>
<g id="clust2" class="cluster"><title>cluster_\acdhOeaw</title>
<path fill="none" stroke="gray" d="M28,-106C28,-106 749.5,-106 749.5,-106 755.5,-106 761.5,-112 761.5,-118 761.5,-118 761.5,-1908 761.5,-1908 761.5,-1914 755.5,-1920 749.5,-1920 749.5,-1920 28,-1920 28,-1920 22,-1920 16,-1914 16,-1908 16,-1908 16,-118 16,-118 16,-112 22,-106 28,-106"/>
<text text-anchor="middle" x="388.75" y="-1907.2" font-family="Times,serif" font-size="11.00" fill="gray">acdhOeaw</text>
</g>
<g id="clust3" class="cluster"><title>cluster_\acdhOeaw\util</title>
<path fill="none" stroke="gray" d="M382,-1576C382,-1576 737,-1576 737,-1576 743,-1576 749,-1582 749,-1588 749,-1588 749,-1880 749,-1880 749,-1886 743,-1892 737,-1892 737,-1892 382,-1892 382,-1892 376,-1892 370,-1886 370,-1880 370,-1880 370,-1588 370,-1588 370,-1582 376,-1576 382,-1576"/>
<text text-anchor="middle" x="559.5" y="-1879.2" font-family="Times,serif" font-size="11.00" fill="gray">util</text>
</g>
<g id="clust4" class="cluster"><title>cluster_\acdhOeaw\util\metaLookup</title>
<path fill="none" stroke="gray" d="M390,-1738C390,-1738 727,-1738 727,-1738 733,-1738 739,-1744 739,-1750 739,-1750 739,-1852 739,-1852 739,-1858 733,-1864 727,-1864 727,-1864 390,-1864 390,-1864 384,-1864 378,-1858 378,-1852 378,-1852 378,-1750 378,-1750 378,-1744 384,-1738 390,-1738"/>
<text text-anchor="middle" x="558.5" y="-1851.2" font-family="Times,serif" font-size="11.00" fill="gray">metaLookup</text>
</g>
<g id="clust5" class="cluster"><title>cluster_\acdhOeaw\fedora</title>
<path fill="none" stroke="gray" d="M36,-552C36,-552 741.5,-552 741.5,-552 747.5,-552 753.5,-558 753.5,-564 753.5,-564 753.5,-1556 753.5,-1556 753.5,-1562 747.5,-1568 741.5,-1568 741.5,-1568 36,-1568 36,-1568 30,-1568 24,-1562 24,-1556 24,-1556 24,-564 24,-564 24,-558 30,-552 36,-552"/>
<text text-anchor="middle" x="388.75" y="-1555.2" font-family="Times,serif" font-size="11.00" fill="gray">fedora</text>
</g>
<g id="clust6" class="cluster"><title>cluster_\acdhOeaw\fedora\exceptions</title>
<path fill="none" stroke="gray" d="M610.5,-714C610.5,-714 733.5,-714 733.5,-714 739.5,-714 745.5,-720 745.5,-726 745.5,-726 745.5,-1206 745.5,-1206 745.5,-1212 739.5,-1218 733.5,-1218 733.5,-1218 610.5,-1218 610.5,-1218 604.5,-1218 598.5,-1212 598.5,-1206 598.5,-1206 598.5,-726 598.5,-726 598.5,-720 604.5,-714 610.5,-714"/>
<text text-anchor="middle" x="672" y="-1205.2" font-family="Times,serif" font-size="11.00" fill="gray">exceptions</text>
</g>
<g id="clust7" class="cluster"><title>cluster_\acdhOeaw\fedora\acl</title>
<path fill="none" stroke="gray" d="M634,-1414C634,-1414 710,-1414 710,-1414 716,-1414 722,-1420 722,-1426 722,-1426 722,-1528 722,-1528 722,-1534 716,-1540 710,-1540 710,-1540 634,-1540 634,-1540 628,-1540 622,-1534 622,-1528 622,-1528 622,-1426 622,-1426 622,-1420 628,-1414 634,-1414"/>
<text text-anchor="middle" x="672" y="-1527.2" font-family="Times,serif" font-size="11.00" fill="gray">acl</text>
</g>
<g id="clust8" class="cluster"><title>cluster_\acdhOeaw\fedora\metadataQuery</title>
<path fill="none" stroke="gray" d="M44,-1226C44,-1226 717,-1226 717,-1226 723,-1226 729,-1232 729,-1238 729,-1238 729,-1394 729,-1394 729,-1400 723,-1406 717,-1406 717,-1406 44,-1406 44,-1406 38,-1406 32,-1400 32,-1394 32,-1394 32,-1238 32,-1238 32,-1232 38,-1226 44,-1226"/>
<text text-anchor="middle" x="380.5" y="-1393.2" font-family="Times,serif" font-size="11.00" fill="gray">metadataQuery</text>
</g>
<g id="clust9" class="cluster"><title>cluster_\acdhOeaw\schema</title>
<path fill="none" stroke="gray" d="M230.5,-114C230.5,-114 728,-114 728,-114 734,-114 740,-120 740,-126 740,-126 740,-532 740,-532 740,-538 734,-544 728,-544 728,-544 230.5,-544 230.5,-544 224.5,-544 218.5,-538 218.5,-532 218.5,-532 218.5,-126 218.5,-126 218.5,-120 224.5,-114 230.5,-114"/>
<text text-anchor="middle" x="479.25" y="-531.2" font-family="Times,serif" font-size="11.00" fill="gray">schema</text>
</g>
<g id="clust10" class="cluster"><title>cluster_\acdhOeaw\schema\dissemination</title>
<path fill="none" stroke="gray" d="M430.5,-390C430.5,-390 720,-390 720,-390 726,-390 732,-396 732,-402 732,-402 732,-504 732,-504 732,-510 726,-516 720,-516 720,-516 430.5,-516 430.5,-516 424.5,-516 418.5,-510 418.5,-504 418.5,-504 418.5,-402 418.5,-402 418.5,-396 424.5,-390 430.5,-390"/>
<text text-anchor="middle" x="575.25" y="-503.2" font-family="Times,serif" font-size="11.00" fill="gray">dissemination</text>
</g>
<g id="clust11" class="cluster"><title>cluster_\acdhOeaw\schema\redmine</title>
<path fill="none" stroke="gray" d="M420.5,-202C420.5,-202 700,-202 700,-202 706,-202 712,-208 712,-214 712,-214 712,-370 712,-370 712,-376 706,-382 700,-382 700,-382 420.5,-382 420.5,-382 414.5,-382 408.5,-376 408.5,-370 408.5,-370 408.5,-214 408.5,-214 408.5,-208 414.5,-202 420.5,-202"/>
<text text-anchor="middle" x="560.25" y="-369.2" font-family="Times,serif" font-size="11.00" fill="gray">redmine</text>
</g>
<g id="clust12" class="cluster"><title>cluster_\acdhOeaw\schema\file</title>
<path fill="none" stroke="gray" d="M435.5,-122C435.5,-122 703.5,-122 703.5,-122 709.5,-122 715.5,-128 715.5,-134 715.5,-134 715.5,-182 715.5,-182 715.5,-188 709.5,-194 703.5,-194 703.5,-194 435.5,-194 435.5,-194 429.5,-194 423.5,-188 423.5,-182 423.5,-182 423.5,-134 423.5,-134 423.5,-128 429.5,-122 435.5,-122"/>
<text text-anchor="middle" x="569.5" y="-181.2" font-family="Times,serif" font-size="11.00" fill="gray">file</text>
</g>
<!-- \\acdhOeaw\\util\\metaLookup\\MetaLookupFile -->
<g id="node1" class="node"><title>\\acdhOeaw\\util\\metaLookup\\MetaLookupFile</title>
<polygon fill="none" stroke="black" points="727.5,-1836 616.5,-1836 616.5,-1800 727.5,-1800 727.5,-1836"/>
<text text-anchor="middle" x="672" y="-1815.2" font-family="Courier,monospace" font-size="11.00">MetaLookupFile</text>
</g>
<!-- \\acdhOeaw\\util\\metaLookup\\MetaLookupInterface -->
<g id="node3" class="node"><title>\\acdhOeaw\\util\\metaLookup\\MetaLookupInterface</title>
<polygon fill="none" stroke="black" points="531,-1809 386,-1809 386,-1773 531,-1773 531,-1809"/>
<text text-anchor="middle" x="458.5" y="-1788.2" font-family="Courier,monospace" font-size="11.00">MetaLookupInterface</text>
</g>
<!-- \\acdhOeaw\\util\\metaLookup\\MetaLookupFile&#45;&gt;\\acdhOeaw\\util\\metaLookup\\MetaLookupInterface -->
<g id="edge5" class="edge"><title>\\acdhOeaw\\util\\metaLookup\\MetaLookupFile&#45;&gt;\\acdhOeaw\\util\\metaLookup\\MetaLookupInterface</title>
<path fill="none" stroke="black" stroke-dasharray="1,5" d="M616.258,-1811.01C593.453,-1808.1 566.485,-1804.66 541.405,-1801.46"/>
<polygon fill="none" stroke="black" points="541.525,-1797.94 531.162,-1800.15 540.638,-1804.89 541.525,-1797.94"/>
</g>
<!-- \\acdhOeaw\\util\\metaLookup\\MetaLookupGraph -->
<g id="node2" class="node"><title>\\acdhOeaw\\util\\metaLookup\\MetaLookupGraph</title>
<polygon fill="none" stroke="black" points="731,-1782 613,-1782 613,-1746 731,-1746 731,-1782"/>
<text text-anchor="middle" x="672" y="-1761.2" font-family="Courier,monospace" font-size="11.00">MetaLookupGraph</text>
</g>
<!-- \\acdhOeaw\\util\\metaLookup\\MetaLookupGraph&#45;&gt;\\acdhOeaw\\util\\metaLookup\\MetaLookupInterface -->
<g id="edge15" class="edge"><title>\\acdhOeaw\\util\\metaLookup\\MetaLookupGraph&#45;&gt;\\acdhOeaw\\util\\metaLookup\\MetaLookupInterface</title>
<path fill="none" stroke="black" stroke-dasharray="1,5" d="M612.927,-1771.41C590.777,-1774.24 565.098,-1777.52 541.159,-1780.58"/>
<polygon fill="none" stroke="black" points="540.497,-1777.13 531.021,-1781.87 541.383,-1784.08 540.497,-1777.13"/>
</g>
<!-- \\acdhOeaw\\util\\RepoConfig -->
<g id="node4" class="node"><title>\\acdhOeaw\\util\\RepoConfig</title>
<polygon fill="none" stroke="black" points="714,-1728 630,-1728 630,-1692 714,-1692 714,-1728"/>
<text text-anchor="middle" x="672" y="-1707.2" font-family="Courier,monospace" font-size="11.00">RepoConfig</text>
</g>
<!-- \\acdhOeaw\\util\\Indexer -->
<g id="node5" class="node"><title>\\acdhOeaw\\util\\Indexer</title>
<polygon fill="none" stroke="black" points="704,-1674 640,-1674 640,-1638 704,-1638 704,-1674"/>
<text text-anchor="middle" x="672" y="-1653.2" font-family="Courier,monospace" font-size="11.00">Indexer</text>
</g>
<!-- \\acdhOeaw\\util\\MetadataCollection -->
<g id="node6" class="node"><title>\\acdhOeaw\\util\\MetadataCollection</title>
<polygon fill="none" stroke="black" points="741,-1620 603,-1620 603,-1584 741,-1584 741,-1620"/>
<text text-anchor="middle" x="672" y="-1599.2" font-family="Courier,monospace" font-size="11.00">MetadataCollection</text>
</g>
<!-- \\EasyRdf\\Graph -->
<g id="node40" class="node"><title>\\EasyRdf\\Graph</title>
<ellipse fill="none" stroke="black" cx="458.5" cy="-72" rx="67.6881" ry="18"/>
<text text-anchor="middle" x="458.5" y="-68.3" font-family="Times,serif" font-size="14.00" fill="gray">\EasyRdf\Graph</text>
</g>
<!-- \\acdhOeaw\\util\\MetadataCollection&#45;&gt;\\EasyRdf\\Graph -->
<g id="edge23" class="edge"><title>\\acdhOeaw\\util\\MetadataCollection&#45;&gt;\\EasyRdf\\Graph</title>
<path fill="none" stroke="black" d="M637.29,-1583.88C622.678,-1574.13 606.996,-1560.66 598.5,-1544 454.35,-1261.4 689.513,-392.804 531,-118 524.95,-107.512 515.436,-99.0219 505.299,-92.3266"/>
<polygon fill="none" stroke="black" points="507.067,-89.3054 496.699,-87.1202 503.441,-95.2934 507.067,-89.3054"/>
</g>
<!-- \\acdhOeaw\\fedora\\exceptions\\ManyAcdhIds -->
<g id="node7" class="node"><title>\\acdhOeaw\\fedora\\exceptions\\ManyAcdhIds</title>
<polygon fill="none" stroke="black" points="717.5,-1190 626.5,-1190 626.5,-1154 717.5,-1154 717.5,-1190"/>
<text text-anchor="middle" x="672" y="-1169.2" font-family="Courier,monospace" font-size="11.00">ManyAcdhIds</text>
</g>
<!-- \\Exception -->
<g id="node39" class="node"><title>\\Exception</title>
<ellipse fill="none" stroke="black" cx="458.5" cy="-18" rx="48.9926" ry="18"/>
<text text-anchor="middle" x="458.5" y="-14.3" font-family="Times,serif" font-size="14.00" fill="gray">\Exception</text>
</g>
<!-- \\acdhOeaw\\fedora\\exceptions\\ManyAcdhIds&#45;&gt;\\Exception -->
<g id="edge1" class="edge"><title>\\acdhOeaw\\fedora\\exceptions\\ManyAcdhIds&#45;&gt;\\Exception</title>
<path fill="none" stroke="black" d="M626.27,-1164.23C615.574,-1160.23 605.298,-1154.17 598.5,-1145 452.679,-948.241 676.372,-242.092 531,-45 526.182,-38.4679 519.584,-33.5158 512.332,-29.7617"/>
<polygon fill="none" stroke="black" points="513.444,-26.428 502.881,-25.6184 510.634,-32.839 513.444,-26.428"/>
</g>
<!-- \\acdhOeaw\\fedora\\exceptions\\Deleted -->
<g id="node8" class="node"><title>\\acdhOeaw\\fedora\\exceptions\\Deleted</title>
<polygon fill="none" stroke="black" points="704,-1136 640,-1136 640,-1100 704,-1100 704,-1136"/>
<text text-anchor="middle" x="672" y="-1115.2" font-family="Courier,monospace" font-size="11.00">Deleted</text>
</g>
<!-- \\acdhOeaw\\fedora\\exceptions\\Deleted&#45;&gt;\\Exception -->
<g id="edge2" class="edge"><title>\\acdhOeaw\\fedora\\exceptions\\Deleted&#45;&gt;\\Exception</title>
<path fill="none" stroke="black" d="M639.87,-1114.27C624.924,-1110.79 608.197,-1104.04 598.5,-1091 459.515,-904.082 669.558,-232.235 531,-45 526.172,-38.4755 519.568,-33.5274 512.314,-29.7749"/>
<polygon fill="none" stroke="black" points="513.425,-26.4407 502.861,-25.6326 510.616,-32.8521 513.425,-26.4407"/>
</g>
<!-- \\acdhOeaw\\fedora\\exceptions\\NoAcdhId -->
<g id="node9" class="node"><title>\\acdhOeaw\\fedora\\exceptions\\NoAcdhId</title>
<polygon fill="none" stroke="black" points="707.5,-1082 636.5,-1082 636.5,-1046 707.5,-1046 707.5,-1082"/>
<text text-anchor="middle" x="672" y="-1061.2" font-family="Courier,monospace" font-size="11.00">NoAcdhId</text>
</g>
<!-- \\acdhOeaw\\fedora\\exceptions\\NoAcdhId&#45;&gt;\\Exception -->
<g id="edge9" class="edge"><title>\\acdhOeaw\\fedora\\exceptions\\NoAcdhId&#45;&gt;\\Exception</title>
<path fill="none" stroke="black" d="M636.153,-1059.33C622.231,-1055.61 607.417,-1048.95 598.5,-1037 466.349,-859.921 662.746,-222.38 531,-45 526.16,-38.4839 519.551,-33.5403 512.294,-29.7896"/>
<polygon fill="none" stroke="black" points="513.404,-26.4549 502.84,-25.6483 510.596,-32.8667 513.404,-26.4549"/>
</g>
<!-- \\acdhOeaw\\fedora\\exceptions\\NotFound -->
<g id="node10" class="node"><title>\\acdhOeaw\\fedora\\exceptions\\NotFound</title>
<polygon fill="none" stroke="black" points="707.5,-1028 636.5,-1028 636.5,-992 707.5,-992 707.5,-1028"/>
<text text-anchor="middle" x="672" y="-1007.2" font-family="Courier,monospace" font-size="11.00">NotFound</text>
</g>
<!-- \\acdhOeaw\\fedora\\exceptions\\NotFound&#45;&gt;\\Exception -->
<g id="edge10" class="edge"><title>\\acdhOeaw\\fedora\\exceptions\\NotFound&#45;&gt;\\Exception</title>
<path fill="none" stroke="black" d="M636.175,-1005.31C622.258,-1001.59 607.44,-994.931 598.5,-983 473.183,-815.759 655.935,-212.527 531,-45 526.148,-38.4934 519.532,-33.5547 512.272,-29.806"/>
<polygon fill="none" stroke="black" points="513.381,-26.4708 502.817,-25.6658 510.573,-32.883 513.381,-26.4708"/>
</g>
<!-- \\acdhOeaw\\fedora\\exceptions\\CacheInconsistent -->
<g id="node11" class="node"><title>\\acdhOeaw\\fedora\\exceptions\\CacheInconsistent</title>
<polygon fill="none" stroke="black" points="737.5,-974 606.5,-974 606.5,-938 737.5,-938 737.5,-974"/>
<text text-anchor="middle" x="672" y="-953.2" font-family="Courier,monospace" font-size="11.00">CacheInconsistent</text>
</g>
<!-- \\acdhOeaw\\fedora\\exceptions\\CacheInconsistent&#45;&gt;\\Exception -->
<g id="edge16" class="edge"><title>\\acdhOeaw\\fedora\\exceptions\\CacheInconsistent&#45;&gt;\\Exception</title>
<path fill="none" stroke="black" d="M607.235,-937.801C603.965,-935.243 601.004,-932.327 598.5,-929 480.014,-771.594 649.126,-202.676 531,-45 526.133,-38.504 519.51,-33.5708 512.247,-29.8245"/>
<polygon fill="none" stroke="black" points="513.355,-26.4886 502.79,-25.6856 510.548,-32.9013 513.355,-26.4886"/>
</g>
<!-- \\acdhOeaw\\fedora\\exceptions\\NotInCache -->
<g id="node12" class="node"><title>\\acdhOeaw\\fedora\\exceptions\\NotInCache</title>
<polygon fill="none" stroke="black" points="714,-920 630,-920 630,-884 714,-884 714,-920"/>
<text text-anchor="middle" x="672" y="-899.2" font-family="Courier,monospace" font-size="11.00">NotInCache</text>
</g>
<!-- \\acdhOeaw\\fedora\\exceptions\\NotInCache&#45;&gt;\\Exception -->
<g id="edge18" class="edge"><title>\\acdhOeaw\\fedora\\exceptions\\NotInCache&#45;&gt;\\Exception</title>
<path fill="none" stroke="black" d="M629.798,-895.343C617.916,-891.383 606.118,-885.068 598.5,-875 486.844,-727.427 642.319,-192.827 531,-45 526.117,-38.516 519.486,-33.5891 512.22,-29.8454"/>
<polygon fill="none" stroke="black" points="513.325,-26.5088 502.76,-25.708 510.52,-32.9221 513.325,-26.5088"/>
</g>
<!-- \\acdhOeaw\\fedora\\exceptions\\AmbiguousMatch -->
<g id="node13" class="node"><title>\\acdhOeaw\\fedora\\exceptions\\AmbiguousMatch</title>
<polygon fill="none" stroke="black" points="727.5,-866 616.5,-866 616.5,-830 727.5,-830 727.5,-866"/>
<text text-anchor="middle" x="672" y="-845.2" font-family="Courier,monospace" font-size="11.00">AmbiguousMatch</text>
</g>
<!-- \\acdhOeaw\\fedora\\exceptions\\AmbiguousMatch&#45;&gt;\\Exception -->
<g id="edge19" class="edge"><title>\\acdhOeaw\\fedora\\exceptions\\AmbiguousMatch&#45;&gt;\\Exception</title>
<path fill="none" stroke="black" d="M616.445,-835.655C609.519,-831.975 603.218,-827.199 598.5,-821 493.672,-683.257 635.513,-182.982 531,-45 526.099,-38.5298 519.458,-33.6101 512.188,-29.8693"/>
<polygon fill="none" stroke="black" points="513.291,-26.5319 502.727,-25.7335 510.488,-32.9459 513.291,-26.5319"/>
</g>
<!-- \\acdhOeaw\\fedora\\exceptions\\AlreadyInCache -->
<g id="node14" class="node"><title>\\acdhOeaw\\fedora\\exceptions\\AlreadyInCache</title>
<polygon fill="none" stroke="black" points="727.5,-812 616.5,-812 616.5,-776 727.5,-776 727.5,-812"/>
<text text-anchor="middle" x="672" y="-791.2" font-family="Courier,monospace" font-size="11.00">AlreadyInCache</text>
</g>
<!-- \\acdhOeaw\\fedora\\exceptions\\AlreadyInCache&#45;&gt;\\Exception -->
<g id="edge22" class="edge"><title>\\acdhOeaw\\fedora\\exceptions\\AlreadyInCache&#45;&gt;\\Exception</title>
<path fill="none" stroke="black" d="M616.481,-781.627C609.55,-777.952 603.238,-773.184 598.5,-767 402.493,-511.166 726.422,-301.281 531,-45 526.078,-38.5456 519.426,-33.6342 512.152,-29.8968"/>
<polygon fill="none" stroke="black" points="513.253,-26.5585 502.688,-25.763 510.451,-32.9732 513.253,-26.5585"/>
</g>
<!-- \\acdhOeaw\\fedora\\exceptions\\AclException -->
<g id="node15" class="node"><title>\\acdhOeaw\\fedora\\exceptions\\AclException</title>
<polygon fill="none" stroke="black" points="721,-758 623,-758 623,-722 721,-722 721,-758"/>
<text text-anchor="middle" x="672" y="-737.2" font-family="Courier,monospace" font-size="11.00">AclException</text>
</g>
<!-- \\acdhOeaw\\fedora\\exceptions\\AclException&#45;&gt;\\Exception -->
<g id="edge25" class="edge"><title>\\acdhOeaw\\fedora\\exceptions\\AclException&#45;&gt;\\Exception</title>
<path fill="none" stroke="black" d="M622.917,-733.987C613.582,-730.664 604.765,-725.621 598.5,-718 407.597,-485.786 714.084,-283.428 531,-45 526.057,-38.5623 519.393,-33.6595 512.114,-29.9257"/>
<polygon fill="none" stroke="black" points="513.213,-26.5864 502.647,-25.7939 510.412,-33.002 513.213,-26.5864"/>
</g>
<!-- \\acdhOeaw\\fedora\\acl\\WebAclRule -->
<g id="node16" class="node"><title>\\acdhOeaw\\fedora\\acl\\WebAclRule</title>
<polygon fill="none" stroke="black" points="714,-1512 630,-1512 630,-1476 714,-1476 714,-1512"/>
<text text-anchor="middle" x="672" y="-1491.2" font-family="Courier,monospace" font-size="11.00">WebAclRule</text>
</g>
<!-- \\acdhOeaw\\fedora\\FedoraResource -->
<g id="node26" class="node"><title>\\acdhOeaw\\fedora\\FedoraResource</title>
<polygon fill="none" stroke="black" points="514,-1512 403,-1512 403,-1476 514,-1476 514,-1512"/>
<text text-anchor="middle" x="458.5" y="-1491.2" font-family="Courier,monospace" font-size="11.00">FedoraResource</text>
</g>
<!-- \\acdhOeaw\\fedora\\acl\\WebAclRule&#45;&gt;\\acdhOeaw\\fedora\\FedoraResource -->
<g id="edge8" class="edge"><title>\\acdhOeaw\\fedora\\acl\\WebAclRule&#45;&gt;\\acdhOeaw\\fedora\\FedoraResource</title>
<path fill="none" stroke="black" d="M629.97,-1494C600.032,-1494 558.849,-1494 524.462,-1494"/>
<polygon fill="none" stroke="black" points="524.028,-1490.5 514.028,-1494 524.028,-1497.5 524.028,-1490.5"/>
</g>
<!-- \\acdhOeaw\\fedora\\acl\\WebAcl -->
<g id="node17" class="node"><title>\\acdhOeaw\\fedora\\acl\\WebAcl</title>
<polygon fill="none" stroke="black" points="700.5,-1458 643.5,-1458 643.5,-1422 700.5,-1422 700.5,-1458"/>
<text text-anchor="middle" x="672" y="-1437.2" font-family="Courier,monospace" font-size="11.00">WebAcl</text>
</g>
<!-- \\acdhOeaw\\fedora\\metadataQuery\\Query -->
<g id="node18" class="node"><title>\\acdhOeaw\\fedora\\metadataQuery\\Query</title>
<polygon fill="none" stroke="black" points="485.5,-1324 431.5,-1324 431.5,-1288 485.5,-1288 485.5,-1324"/>
<text text-anchor="middle" x="458.5" y="-1303.2" font-family="Courier,monospace" font-size="11.00">Query</text>
</g>
<!-- \\acdhOeaw\\fedora\\metadataQuery\\HasValue -->
<g id="node19" class="node"><title>\\acdhOeaw\\fedora\\metadataQuery\\HasValue</title>
<polygon fill="none" stroke="black" points="494,-1378 423,-1378 423,-1342 494,-1342 494,-1378"/>
<text text-anchor="middle" x="458.5" y="-1357.2" font-family="Courier,monospace" font-size="11.00">HasValue</text>
</g>
<!-- \\acdhOeaw\\fedora\\metadataQuery\\HasProperty -->
<g id="node24" class="node"><title>\\acdhOeaw\\fedora\\metadataQuery\\HasProperty</title>
<polygon fill="none" stroke="black" points="314,-1324 223,-1324 223,-1288 314,-1288 314,-1324"/>
<text text-anchor="middle" x="268.5" y="-1303.2" font-family="Courier,monospace" font-size="11.00">HasProperty</text>
</g>
<!-- \\acdhOeaw\\fedora\\metadataQuery\\HasValue&#45;&gt;\\acdhOeaw\\fedora\\metadataQuery\\HasProperty -->
<g id="edge12" class="edge"><title>\\acdhOeaw\\fedora\\metadataQuery\\HasValue&#45;&gt;\\acdhOeaw\\fedora\\metadataQuery\\HasProperty</title>
<path fill="none" stroke="black" d="M422.579,-1349.97C394.864,-1342.01 355.626,-1330.74 323.815,-1321.6"/>
<polygon fill="none" stroke="black" points="324.78,-1318.24 314.202,-1318.84 322.847,-1324.96 324.78,-1318.24"/>
</g>
<!-- \\acdhOeaw\\fedora\\metadataQuery\\QueryParameter -->
<g id="node20" class="node"><title>\\acdhOeaw\\fedora\\metadataQuery\\QueryParameter</title>
<polygon fill="none" stroke="black" points="151,-1324 40,-1324 40,-1288 151,-1288 151,-1324"/>
<text text-anchor="start" x="61.5" y="-1309.2" font-family="Courier,monospace" font-size="11.00">«abstract»</text>
<text text-anchor="start" x="48" y="-1297.2" font-family="Courier,monospace" font-size="11.00">QueryParameter</text>
</g>
<!-- \\acdhOeaw\\fedora\\metadataQuery\\MatchesRegEx -->
<g id="node21" class="node"><title>\\acdhOeaw\\fedora\\metadataQuery\\MatchesRegEx</title>
<polygon fill="none" stroke="black" points="721,-1378 623,-1378 623,-1342 721,-1342 721,-1378"/>
<text text-anchor="middle" x="672" y="-1357.2" font-family="Courier,monospace" font-size="11.00">MatchesRegEx</text>
</g>
<!-- \\acdhOeaw\\fedora\\metadataQuery\\MatchesRegEx&#45;&gt;\\acdhOeaw\\fedora\\metadataQuery\\HasValue -->
<g id="edge17" class="edge"><title>\\acdhOeaw\\fedora\\metadataQuery\\MatchesRegEx&#45;&gt;\\acdhOeaw\\fedora\\metadataQuery\\HasValue</title>
<path fill="none" stroke="black" d="M622.743,-1360C587.165,-1360 539.115,-1360 504.366,-1360"/>
<polygon fill="none" stroke="black" points="504.038,-1356.5 494.038,-1360 504.038,-1363.5 504.038,-1356.5"/>
</g>
<!-- \\acdhOeaw\\fedora\\metadataQuery\\SimpleQuery -->
<g id="node22" class="node"><title>\\acdhOeaw\\fedora\\metadataQuery\\SimpleQuery</title>
<polygon fill="none" stroke="black" points="717.5,-1324 626.5,-1324 626.5,-1288 717.5,-1288 717.5,-1324"/>
<text text-anchor="middle" x="672" y="-1303.2" font-family="Courier,monospace" font-size="11.00">SimpleQuery</text>
</g>
<!-- \\acdhOeaw\\fedora\\metadataQuery\\SimpleQuery&#45;&gt;\\acdhOeaw\\fedora\\metadataQuery\\Query -->
<g id="edge21" class="edge"><title>\\acdhOeaw\\fedora\\metadataQuery\\SimpleQuery&#45;&gt;\\acdhOeaw\\fedora\\metadataQuery\\Query</title>
<path fill="none" stroke="black" d="M626.405,-1306C587.577,-1306 531.991,-1306 495.821,-1306"/>
<polygon fill="none" stroke="black" points="495.713,-1302.5 485.713,-1306 495.713,-1309.5 495.713,-1302.5"/>
</g>
<!-- \\acdhOeaw\\fedora\\metadataQuery\\HasTriple -->
<g id="node23" class="node"><title>\\acdhOeaw\\fedora\\metadataQuery\\HasTriple</title>
<polygon fill="none" stroke="black" points="497,-1270 420,-1270 420,-1234 497,-1234 497,-1270"/>
<text text-anchor="middle" x="458.5" y="-1249.2" font-family="Courier,monospace" font-size="11.00">HasTriple</text>
</g>
<!-- \\acdhOeaw\\fedora\\metadataQuery\\HasTriple&#45;&gt;\\acdhOeaw\\fedora\\metadataQuery\\HasProperty -->
<g id="edge24" class="edge"><title>\\acdhOeaw\\fedora\\metadataQuery\\HasTriple&#45;&gt;\\acdhOeaw\\fedora\\metadataQuery\\HasProperty</title>
<path fill="none" stroke="black" d="M419.907,-1262.8C392.447,-1270.69 354.796,-1281.5 324.034,-1290.34"/>
<polygon fill="none" stroke="black" points="322.956,-1287 314.31,-1293.13 324.888,-1293.73 322.956,-1287"/>
</g>
<!-- \\acdhOeaw\\fedora\\metadataQuery\\HasProperty&#45;&gt;\\acdhOeaw\\fedora\\metadataQuery\\QueryParameter -->
<g id="edge26" class="edge"><title>\\acdhOeaw\\fedora\\metadataQuery\\HasProperty&#45;&gt;\\acdhOeaw\\fedora\\metadataQuery\\QueryParameter</title>
<path fill="none" stroke="black" d="M222.572,-1306C203.864,-1306 181.782,-1306 161.369,-1306"/>
<polygon fill="none" stroke="black" points="161.19,-1302.5 151.19,-1306 161.19,-1309.5 161.19,-1302.5"/>
</g>
<!-- \\acdhOeaw\\fedora\\Fedora -->
<g id="node25" class="node"><title>\\acdhOeaw\\fedora\\Fedora</title>
<polygon fill="none" stroke="black" points="700.5,-704 643.5,-704 643.5,-668 700.5,-668 700.5,-704"/>
<text text-anchor="middle" x="672" y="-683.2" font-family="Courier,monospace" font-size="11.00">Fedora</text>
</g>
<!-- \\acdhOeaw\\fedora\\SparqlClient -->
<g id="node27" class="node"><title>\\acdhOeaw\\fedora\\SparqlClient</title>
<polygon fill="none" stroke="black" points="721,-650 623,-650 623,-614 721,-614 721,-650"/>
<text text-anchor="middle" x="672" y="-629.2" font-family="Courier,monospace" font-size="11.00">SparqlClient</text>
</g>
<!-- \\acdhOeaw\\fedora\\FedoraCache -->
<g id="node28" class="node"><title>\\acdhOeaw\\fedora\\FedoraCache</title>
<polygon fill="none" stroke="black" points="717.5,-596 626.5,-596 626.5,-560 717.5,-560 717.5,-596"/>
<text text-anchor="middle" x="672" y="-575.2" font-family="Courier,monospace" font-size="11.00">FedoraCache</text>
</g>
<!-- \\acdhOeaw\\schema\\dissemination\\Parameter -->
<g id="node29" class="node"><title>\\acdhOeaw\\schema\\dissemination\\Parameter</title>
<polygon fill="none" stroke="black" points="710.5,-488 633.5,-488 633.5,-452 710.5,-452 710.5,-488"/>
<text text-anchor="middle" x="672" y="-467.2" font-family="Courier,monospace" font-size="11.00">Parameter</text>
</g>
<!-- \\acdhOeaw\\schema\\Object -->
<g id="node38" class="node"><title>\\acdhOeaw\\schema\\Object</title>
<polygon fill="none" stroke="black" points="310.5,-380 226.5,-380 226.5,-344 310.5,-344 310.5,-380"/>
<text text-anchor="start" x="234.5" y="-365.2" font-family="Courier,monospace" font-size="11.00">«abstract»</text>
<text text-anchor="start" x="248" y="-353.2" font-family="Courier,monospace" font-size="11.00">Object</text>
</g>
<!-- \\acdhOeaw\\schema\\dissemination\\Parameter&#45;&gt;\\acdhOeaw\\schema\\Object -->
<g id="edge3" class="edge"><title>\\acdhOeaw\\schema\\dissemination\\Parameter&#45;&gt;\\acdhOeaw\\schema\\Object</title>
<path fill="none" stroke="black" d="M633.249,-473.438C574.583,-477.307 459.025,-478.963 370,-443 339.734,-430.774 311.372,-406.236 292.547,-387.356"/>
<polygon fill="none" stroke="black" points="295.052,-384.911 285.573,-380.179 290.032,-389.789 295.052,-384.911"/>
</g>
<!-- \\acdhOeaw\\schema\\dissemination\\CiriloService -->
<g id="node30" class="node"><title>\\acdhOeaw\\schema\\dissemination\\CiriloService</title>
<polygon fill="none" stroke="black" points="724,-434 620,-434 620,-398 724,-398 724,-434"/>
<text text-anchor="middle" x="672" y="-413.2" font-family="Courier,monospace" font-size="11.00">CiriloService</text>
</g>
<!-- \\acdhOeaw\\schema\\dissemination\\Service -->
<g id="node31" class="node"><title>\\acdhOeaw\\schema\\dissemination\\Service</title>
<polygon fill="none" stroke="black" points="490.5,-434 426.5,-434 426.5,-398 490.5,-398 490.5,-434"/>
<text text-anchor="middle" x="458.5" y="-413.2" font-family="Courier,monospace" font-size="11.00">Service</text>
</g>
<!-- \\acdhOeaw\\schema\\dissemination\\CiriloService&#45;&gt;\\acdhOeaw\\schema\\dissemination\\Service -->
<g id="edge6" class="edge"><title>\\acdhOeaw\\schema\\dissemination\\CiriloService&#45;&gt;\\acdhOeaw\\schema\\dissemination\\Service</title>
<path fill="none" stroke="black" d="M619.802,-416C583.24,-416 534.699,-416 500.646,-416"/>
<polygon fill="none" stroke="black" points="500.573,-412.5 490.573,-416 500.573,-419.5 500.573,-412.5"/>
</g>
<!-- \\acdhOeaw\\schema\\dissemination\\Service&#45;&gt;\\acdhOeaw\\schema\\Object -->
<g id="edge20" class="edge"><title>\\acdhOeaw\\schema\\dissemination\\Service&#45;&gt;\\acdhOeaw\\schema\\Object</title>
<path fill="none" stroke="black" d="M426.456,-407.083C397.694,-398.822 354.38,-386.381 320.535,-376.659"/>
<polygon fill="none" stroke="black" points="321.39,-373.263 310.812,-373.866 319.457,-379.991 321.39,-373.263"/>
</g>
<!-- \\acdhOeaw\\schema\\redmine\\Redmine -->
<g id="node32" class="node"><title>\\acdhOeaw\\schema\\redmine\\Redmine</title>
<polygon fill="none" stroke="black" points="500.5,-327 416.5,-327 416.5,-291 500.5,-291 500.5,-327"/>
<text text-anchor="start" x="424.5" y="-312.2" font-family="Courier,monospace" font-size="11.00">«abstract»</text>
<text text-anchor="start" x="434.5" y="-300.2" font-family="Courier,monospace" font-size="11.00">Redmine</text>
</g>
<!-- \\acdhOeaw\\schema\\redmine\\Redmine&#45;&gt;\\acdhOeaw\\schema\\Object -->
<g id="edge4" class="edge"><title>\\acdhOeaw\\schema\\redmine\\Redmine&#45;&gt;\\acdhOeaw\\schema\\Object</title>
<path fill="none" stroke="black" d="M416.243,-320.631C388.081,-328.57 350.581,-339.142 320.539,-347.611"/>
<polygon fill="none" stroke="black" points="319.336,-344.314 310.661,-350.396 321.236,-351.051 319.336,-344.314"/>
</g>
<!-- \\acdhOeaw\\schema\\redmine\\Issue -->
<g id="node33" class="node"><title>\\acdhOeaw\\schema\\redmine\\Issue</title>
<polygon fill="none" stroke="black" points="699,-354 645,-354 645,-318 699,-318 699,-354"/>
<text text-anchor="middle" x="672" y="-333.2" font-family="Courier,monospace" font-size="11.00">Issue</text>
</g>
<!-- \\acdhOeaw\\schema\\redmine\\Issue&#45;&gt;\\acdhOeaw\\schema\\redmine\\Redmine -->
<g id="edge7" class="edge"><title>\\acdhOeaw\\schema\\redmine\\Issue&#45;&gt;\\acdhOeaw\\schema\\redmine\\Redmine</title>
<path fill="none" stroke="black" d="M644.641,-332.635C611.291,-328.378 553.116,-320.951 510.861,-315.557"/>
<polygon fill="none" stroke="black" points="511.119,-312.061 500.756,-314.267 510.232,-319.005 511.119,-312.061"/>
</g>
<!-- \\acdhOeaw\\schema\\redmine\\Project -->
<g id="node34" class="node"><title>\\acdhOeaw\\schema\\redmine\\Project</title>
<polygon fill="none" stroke="black" points="704,-300 640,-300 640,-264 704,-264 704,-300"/>
<text text-anchor="middle" x="672" y="-279.2" font-family="Courier,monospace" font-size="11.00">Project</text>
</g>
<!-- \\acdhOeaw\\schema\\redmine\\Project&#45;&gt;\\acdhOeaw\\schema\\redmine\\Redmine -->
<g id="edge13" class="edge"><title>\\acdhOeaw\\schema\\redmine\\Project&#45;&gt;\\acdhOeaw\\schema\\redmine\\Redmine</title>
<path fill="none" stroke="black" d="M639.792,-285.984C605.861,-290.316 551.097,-297.307 510.818,-302.449"/>
<polygon fill="none" stroke="black" points="510.128,-299.008 500.652,-303.747 511.015,-305.952 510.128,-299.008"/>
</g>
<!-- \\acdhOeaw\\schema\\redmine\\User -->
<g id="node35" class="node"><title>\\acdhOeaw\\schema\\redmine\\User</title>
<polygon fill="none" stroke="black" points="699,-246 645,-246 645,-210 699,-210 699,-246"/>
<text text-anchor="middle" x="672" y="-225.2" font-family="Courier,monospace" font-size="11.00">User</text>
</g>
<!-- \\acdhOeaw\\schema\\redmine\\User&#45;&gt;\\acdhOeaw\\schema\\redmine\\Redmine -->
<g id="edge27" class="edge"><title>\\acdhOeaw\\schema\\redmine\\User&#45;&gt;\\acdhOeaw\\schema\\redmine\\Redmine</title>
<path fill="none" stroke="black" d="M644.792,-237.659C630.999,-242.768 613.815,-249.174 598.5,-255 569.191,-266.15 536.5,-278.838 510.188,-289.112"/>
<polygon fill="none" stroke="black" points="508.84,-285.88 500.8,-292.78 511.388,-292.4 508.84,-285.88"/>
</g>
<!-- \\acdhOeaw\\schema\\file\\CmdiFile -->
<g id="node36" class="node"><title>\\acdhOeaw\\schema\\file\\CmdiFile</title>
<polygon fill="none" stroke="black" points="707.5,-166 636.5,-166 636.5,-130 707.5,-130 707.5,-166"/>
<text text-anchor="middle" x="672" y="-145.2" font-family="Courier,monospace" font-size="11.00">CmdiFile</text>
</g>
<!-- \\acdhOeaw\\schema\\file\\File -->
<g id="node37" class="node"><title>\\acdhOeaw\\schema\\file\\File</title>
<polygon fill="none" stroke="black" points="485.5,-166 431.5,-166 431.5,-130 485.5,-130 485.5,-166"/>
<text text-anchor="middle" x="458.5" y="-145.2" font-family="Courier,monospace" font-size="11.00">File</text>
</g>
<!-- \\acdhOeaw\\schema\\file\\CmdiFile&#45;&gt;\\acdhOeaw\\schema\\file\\File -->
<g id="edge11" class="edge"><title>\\acdhOeaw\\schema\\file\\CmdiFile&#45;&gt;\\acdhOeaw\\schema\\file\\File</title>
<path fill="none" stroke="black" d="M636.075,-148C597.384,-148 535.284,-148 495.98,-148"/>
<polygon fill="none" stroke="black" points="495.779,-144.5 485.779,-148 495.779,-151.5 495.779,-144.5"/>
</g>
<!-- \\acdhOeaw\\schema\\file\\File&#45;&gt;\\acdhOeaw\\schema\\Object -->
<g id="edge14" class="edge"><title>\\acdhOeaw\\schema\\file\\File&#45;&gt;\\acdhOeaw\\schema\\Object</title>
<path fill="none" stroke="black" d="M431.113,-158.807C412.455,-167.401 387.709,-180.825 370,-198 328.259,-238.482 296.804,-299.769 280.955,-334.829"/>
<polygon fill="none" stroke="black" points="277.75,-333.422 276.902,-343.983 284.151,-336.256 277.75,-333.422"/>
</g>
</g>
</svg>
