<?xml version="1.0" encoding="UTF-8" standalone="no"?>
<!DOCTYPE svg PUBLIC "-//W3C//DTD SVG 1.1//EN"
 "http://www.w3.org/Graphics/SVG/1.1/DTD/svg11.dtd">
<!-- Generated by graphviz version 2.38.0 (20140413.2041)
 -->
<!-- Title: G Pages: 1 -->
<svg width="795pt" height="2394pt"
 viewBox="0.00 0.00 795.00 2394.00" xmlns="http://www.w3.org/2000/svg" xmlns:xlink="http://www.w3.org/1999/xlink">
<g id="graph0" class="graph" transform="scale(1 1) rotate(0) translate(4 2390)">
<title>G</title>
<polygon fill="white" stroke="none" points="-4,4 -4,-2390 791,-2390 791,4 -4,4"/>
<g id="clust1" class="cluster"><title>cluster_Global</title>
<path fill="none" stroke="gray" d="M20,-98C20,-98 767,-98 767,-98 773,-98 779,-104 779,-110 779,-110 779,-2366 779,-2366 779,-2372 773,-2378 767,-2378 767,-2378 20,-2378 20,-2378 14,-2378 8,-2372 8,-2366 8,-2366 8,-110 8,-110 8,-104 14,-98 20,-98"/>
<text text-anchor="middle" x="393.5" y="-2365.2" font-family="Times,serif" font-size="11.00" fill="gray">Global</text>
</g>
<g id="clust2" class="cluster"><title>cluster_\acdhOeaw</title>
<path fill="none" stroke="gray" d="M28,-106C28,-106 759,-106 759,-106 765,-106 771,-112 771,-118 771,-118 771,-2338 771,-2338 771,-2344 765,-2350 759,-2350 759,-2350 28,-2350 28,-2350 22,-2350 16,-2344 16,-2338 16,-2338 16,-118 16,-118 16,-112 22,-106 28,-106"/>
<text text-anchor="middle" x="393.5" y="-2337.2" font-family="Times,serif" font-size="11.00" fill="gray">acdhOeaw</text>
</g>
<g id="clust3" class="cluster"><title>cluster_\acdhOeaw\schema</title>
<path fill="none" stroke="gray" d="M230.5,-1838C230.5,-1838 735,-1838 735,-1838 741,-1838 747,-1844 747,-1850 747,-1850 747,-2310 747,-2310 747,-2316 741,-2322 735,-2322 735,-2322 230.5,-2322 230.5,-2322 224.5,-2322 218.5,-2316 218.5,-2310 218.5,-2310 218.5,-1850 218.5,-1850 218.5,-1844 224.5,-1838 230.5,-1838"/>
<text text-anchor="middle" x="482.75" y="-2309.2" font-family="Times,serif" font-size="11.00" fill="gray">schema</text>
</g>
<g id="clust4" class="cluster"><title>cluster_\acdhOeaw\schema\dissemination</title>
<path fill="none" stroke="gray" d="M430.5,-2114C430.5,-2114 727,-2114 727,-2114 733,-2114 739,-2120 739,-2126 739,-2126 739,-2282 739,-2282 739,-2288 733,-2294 727,-2294 727,-2294 430.5,-2294 430.5,-2294 424.5,-2294 418.5,-2288 418.5,-2282 418.5,-2282 418.5,-2126 418.5,-2126 418.5,-2120 424.5,-2114 430.5,-2114"/>
<text text-anchor="middle" x="578.75" y="-2281.2" font-family="Times,serif" font-size="11.00" fill="gray">dissemination</text>
</g>
<g id="clust5" class="cluster"><title>cluster_\acdhOeaw\schema\redmine</title>
<path fill="none" stroke="gray" d="M420.5,-1926C420.5,-1926 707,-1926 707,-1926 713,-1926 719,-1932 719,-1938 719,-1938 719,-2094 719,-2094 719,-2100 713,-2106 707,-2106 707,-2106 420.5,-2106 420.5,-2106 414.5,-2106 408.5,-2100 408.5,-2094 408.5,-2094 408.5,-1938 408.5,-1938 408.5,-1932 414.5,-1926 420.5,-1926"/>
<text text-anchor="middle" x="563.75" y="-2093.2" font-family="Times,serif" font-size="11.00" fill="gray">redmine</text>
</g>
<g id="clust6" class="cluster"><title>cluster_\acdhOeaw\schema\file</title>
<path fill="none" stroke="gray" d="M435.5,-1846C435.5,-1846 710.5,-1846 710.5,-1846 716.5,-1846 722.5,-1852 722.5,-1858 722.5,-1858 722.5,-1906 722.5,-1906 722.5,-1912 716.5,-1918 710.5,-1918 710.5,-1918 435.5,-1918 435.5,-1918 429.5,-1918 423.5,-1912 423.5,-1906 423.5,-1906 423.5,-1858 423.5,-1858 423.5,-1852 429.5,-1846 435.5,-1846"/>
<text text-anchor="middle" x="573" y="-1905.2" font-family="Times,serif" font-size="11.00" fill="gray">file</text>
</g>
<g id="clust7" class="cluster"><title>cluster_\acdhOeaw\util</title>
<path fill="none" stroke="gray" d="M382,-1272C382,-1272 751,-1272 751,-1272 757,-1272 763,-1278 763,-1284 763,-1284 763,-1818 763,-1818 763,-1824 757,-1830 751,-1830 751,-1830 382,-1830 382,-1830 376,-1830 370,-1824 370,-1818 370,-1818 370,-1284 370,-1284 370,-1278 376,-1272 382,-1272"/>
<text text-anchor="middle" x="566.5" y="-1817.2" font-family="Times,serif" font-size="11.00" fill="gray">util</text>
</g>
<g id="clust8" class="cluster"><title>cluster_\acdhOeaw\util\metaLookup</title>
<path fill="none" stroke="gray" d="M390,-1676C390,-1676 734,-1676 734,-1676 740,-1676 746,-1682 746,-1688 746,-1688 746,-1790 746,-1790 746,-1796 740,-1802 734,-1802 734,-1802 390,-1802 390,-1802 384,-1802 378,-1796 378,-1790 378,-1790 378,-1688 378,-1688 378,-1682 384,-1676 390,-1676"/>
<text text-anchor="middle" x="562" y="-1789.2" font-family="Times,serif" font-size="11.00" fill="gray">metaLookup</text>
</g>
<g id="clust9" class="cluster"><title>cluster_\acdhOeaw\util\metadataValidator</title>
<path fill="none" stroke="gray" d="M617.5,-1488C617.5,-1488 740.5,-1488 740.5,-1488 746.5,-1488 752.5,-1494 752.5,-1500 752.5,-1500 752.5,-1656 752.5,-1656 752.5,-1662 746.5,-1668 740.5,-1668 740.5,-1668 617.5,-1668 617.5,-1668 611.5,-1668 605.5,-1662 605.5,-1656 605.5,-1656 605.5,-1500 605.5,-1500 605.5,-1494 611.5,-1488 617.5,-1488"/>
<text text-anchor="middle" x="679" y="-1655.2" font-family="Times,serif" font-size="11.00" fill="gray">metadataValidator</text>
</g>
<g id="clust10" class="cluster"><title>cluster_\acdhOeaw\fedora</title>
<path fill="none" stroke="gray" d="M36,-114C36,-114 748.5,-114 748.5,-114 754.5,-114 760.5,-120 760.5,-126 760.5,-126 760.5,-1252 760.5,-1252 760.5,-1258 754.5,-1264 748.5,-1264 748.5,-1264 36,-1264 36,-1264 30,-1264 24,-1258 24,-1252 24,-1252 24,-126 24,-126 24,-120 30,-114 36,-114"/>
<text text-anchor="middle" x="392.25" y="-1251.2" font-family="Times,serif" font-size="11.00" fill="gray">fedora</text>
</g>
<g id="clust11" class="cluster"><title>cluster_\acdhOeaw\fedora\dissemination</title>
<path fill="none" stroke="gray" d="M644.5,-1110C644.5,-1110 713.5,-1110 713.5,-1110 719.5,-1110 725.5,-1116 725.5,-1122 725.5,-1122 725.5,-1224 725.5,-1224 725.5,-1230 719.5,-1236 713.5,-1236 713.5,-1236 644.5,-1236 644.5,-1236 638.5,-1236 632.5,-1230 632.5,-1224 632.5,-1224 632.5,-1122 632.5,-1122 632.5,-1116 638.5,-1110 644.5,-1110"/>
<text text-anchor="middle" x="679" y="-1223.2" font-family="Times,serif" font-size="11.00" fill="gray">dissemination</text>
</g>
<g id="clust12" class="cluster"><title>cluster_\acdhOeaw\fedora\exceptions</title>
<path fill="none" stroke="gray" d="M617.5,-276C617.5,-276 740.5,-276 740.5,-276 746.5,-276 752.5,-282 752.5,-288 752.5,-288 752.5,-768 752.5,-768 752.5,-774 746.5,-780 740.5,-780 740.5,-780 617.5,-780 617.5,-780 611.5,-780 605.5,-774 605.5,-768 605.5,-768 605.5,-288 605.5,-288 605.5,-282 611.5,-276 617.5,-276"/>
<text text-anchor="middle" x="679" y="-767.2" font-family="Times,serif" font-size="11.00" fill="gray">exceptions</text>
</g>
<g id="clust13" class="cluster"><title>cluster_\acdhOeaw\fedora\acl</title>
<path fill="none" stroke="gray" d="M641,-976C641,-976 717,-976 717,-976 723,-976 729,-982 729,-988 729,-988 729,-1090 729,-1090 729,-1096 723,-1102 717,-1102 717,-1102 641,-1102 641,-1102 635,-1102 629,-1096 629,-1090 629,-1090 629,-988 629,-988 629,-982 635,-976 641,-976"/>
<text text-anchor="middle" x="679" y="-1089.2" font-family="Times,serif" font-size="11.00" fill="gray">acl</text>
</g>
<g id="clust14" class="cluster"><title>cluster_\acdhOeaw\fedora\metadataQuery</title>
<path fill="none" stroke="gray" d="M44,-788C44,-788 724,-788 724,-788 730,-788 736,-794 736,-800 736,-800 736,-956 736,-956 736,-962 730,-968 724,-968 724,-968 44,-968 44,-968 38,-968 32,-962 32,-956 32,-956 32,-800 32,-800 32,-794 38,-788 44,-788"/>
<text text-anchor="middle" x="384" y="-955.2" font-family="Times,serif" font-size="11.00" fill="gray">metadataQuery</text>
</g>
<!-- \\acdhOeaw\\schema\\dissemination\\Match -->
<g id="node1" class="node"><title>\\acdhOeaw\\schema\\dissemination\\Match</title>
<polygon fill="none" stroke="black" points="706,-2158 652,-2158 652,-2122 706,-2122 706,-2158"/>
<text text-anchor="middle" x="679" y="-2137.2" font-family="Courier,monospace" font-size="11.00">Match</text>
</g>
<!-- \\acdhOeaw\\schema\\Object -->
<g id="node11" class="node"><title>\\acdhOeaw\\schema\\Object</title>
<polygon fill="none" stroke="black" points="310.5,-2113 226.5,-2113 226.5,-2077 310.5,-2077 310.5,-2113"/>
<text text-anchor="start" x="234.5" y="-2098.2" font-family="Courier,monospace" font-size="11.00">«abstract»</text>
<text text-anchor="start" x="248" y="-2086.2" font-family="Courier,monospace" font-size="11.00">Object</text>
</g>
<!-- \\acdhOeaw\\schema\\dissemination\\Match&#45;&gt;\\acdhOeaw\\schema\\Object -->
<g id="edge1" class="edge"><title>\\acdhOeaw\\schema\\dissemination\\Match&#45;&gt;\\acdhOeaw\\schema\\Object</title>
<path fill="none" stroke="black" d="M651.885,-2146.53C610.683,-2155.85 528.21,-2170.54 459.5,-2158"/>
<path fill="none" stroke="black" d="M457.5,-2158C409.783,-2149.29 357.638,-2131.08 320.396,-2116.47"/>
<polygon fill="none" stroke="black" points="321.368,-2113.09 310.782,-2112.65 318.782,-2119.6 321.368,-2113.09"/>
</g>
<!-- \\acdhOeaw\\schema\\dissemination\\Parameter -->
<g id="node2" class="node"><title>\\acdhOeaw\\schema\\dissemination\\Parameter</title>
<polygon fill="none" stroke="black" points="717.5,-2212 640.5,-2212 640.5,-2176 717.5,-2176 717.5,-2212"/>
<text text-anchor="middle" x="679" y="-2191.2" font-family="Courier,monospace" font-size="11.00">Parameter</text>
</g>
<!-- \\acdhOeaw\\schema\\dissemination\\Parameter&#45;&gt;\\acdhOeaw\\schema\\Object -->
<g id="edge5" class="edge"><title>\\acdhOeaw\\schema\\dissemination\\Parameter&#45;&gt;\\acdhOeaw\\schema\\Object</title>
<path fill="none" stroke="black" d="M640.429,-2188.21C596.842,-2181.4 522.85,-2169.56 459.5,-2158"/>
</g>
<!-- \\acdhOeaw\\schema\\dissemination\\CiriloService -->
<g id="node3" class="node"><title>\\acdhOeaw\\schema\\dissemination\\CiriloService</title>
<polygon fill="none" stroke="black" points="731,-2266 627,-2266 627,-2230 731,-2230 731,-2266"/>
<text text-anchor="middle" x="679" y="-2245.2" font-family="Courier,monospace" font-size="11.00">CiriloService</text>
</g>
<!-- \\acdhOeaw\\schema\\dissemination\\Service -->
<g id="node4" class="node"><title>\\acdhOeaw\\schema\\dissemination\\Service</title>
<polygon fill="none" stroke="black" points="490.5,-2248 426.5,-2248 426.5,-2212 490.5,-2212 490.5,-2248"/>
<text text-anchor="middle" x="458.5" y="-2227.2" font-family="Courier,monospace" font-size="11.00">Service</text>
</g>
<!-- \\acdhOeaw\\schema\\dissemination\\CiriloService&#45;&gt;\\acdhOeaw\\schema\\dissemination\\Service -->
<g id="edge8" class="edge"><title>\\acdhOeaw\\schema\\dissemination\\CiriloService&#45;&gt;\\acdhOeaw\\schema\\dissemination\\Service</title>
<path fill="none" stroke="black" d="M626.771,-2243.78C588.312,-2240.61 536.338,-2236.33 500.585,-2233.38"/>
<polygon fill="none" stroke="black" points="500.754,-2229.89 490.5,-2232.55 500.179,-2236.86 500.754,-2229.89"/>
</g>
<!-- \\acdhOeaw\\schema\\dissemination\\Service&#45;&gt;\\acdhOeaw\\schema\\Object -->
<g id="edge22" class="edge"><title>\\acdhOeaw\\schema\\dissemination\\Service&#45;&gt;\\acdhOeaw\\schema\\Object</title>
<path fill="none" stroke="black" d="M426.195,-2226.73C408.677,-2223.81 387.01,-2218.31 370,-2208 334.254,-2186.32 304.096,-2147.9 286.402,-2121.94"/>
<polygon fill="none" stroke="black" points="289.127,-2119.72 280.675,-2113.33 283.298,-2123.59 289.127,-2119.72"/>
</g>
<!-- \\acdhOeaw\\schema\\redmine\\Redmine -->
<g id="node5" class="node"><title>\\acdhOeaw\\schema\\redmine\\Redmine</title>
<polygon fill="none" stroke="black" points="500.5,-2051 416.5,-2051 416.5,-2015 500.5,-2015 500.5,-2051"/>
<text text-anchor="start" x="424.5" y="-2036.2" font-family="Courier,monospace" font-size="11.00">«abstract»</text>
<text text-anchor="start" x="434.5" y="-2024.2" font-family="Courier,monospace" font-size="11.00">Redmine</text>
</g>
<!-- \\acdhOeaw\\schema\\redmine\\Redmine&#45;&gt;\\acdhOeaw\\schema\\Object -->
<g id="edge6" class="edge"><title>\\acdhOeaw\\schema\\redmine\\Redmine&#45;&gt;\\acdhOeaw\\schema\\Object</title>
<path fill="none" stroke="black" d="M416.243,-2046.61C388.081,-2055.89 350.581,-2068.26 320.539,-2078.17"/>
<polygon fill="none" stroke="black" points="319.062,-2074.97 310.661,-2081.43 321.254,-2081.62 319.062,-2074.97"/>
</g>
<!-- \\acdhOeaw\\schema\\redmine\\Issue -->
<g id="node6" class="node"><title>\\acdhOeaw\\schema\\redmine\\Issue</title>
<polygon fill="none" stroke="black" points="706,-2078 652,-2078 652,-2042 706,-2042 706,-2078"/>
<text text-anchor="middle" x="679" y="-2057.2" font-family="Courier,monospace" font-size="11.00">Issue</text>
</g>
<!-- \\acdhOeaw\\schema\\redmine\\Issue&#45;&gt;\\acdhOeaw\\schema\\redmine\\Redmine -->
<g id="edge9" class="edge"><title>\\acdhOeaw\\schema\\redmine\\Issue&#45;&gt;\\acdhOeaw\\schema\\redmine\\Redmine</title>
<path fill="none" stroke="black" d="M651.644,-2056.74C616.894,-2052.45 555.001,-2044.8 510.85,-2039.35"/>
<polygon fill="none" stroke="black" points="511.231,-2035.87 500.877,-2038.11 510.372,-2042.81 511.231,-2035.87"/>
</g>
<!-- \\acdhOeaw\\schema\\redmine\\Project -->
<g id="node7" class="node"><title>\\acdhOeaw\\schema\\redmine\\Project</title>
<polygon fill="none" stroke="black" points="711,-2024 647,-2024 647,-1988 711,-1988 711,-2024"/>
<text text-anchor="middle" x="679" y="-2003.2" font-family="Courier,monospace" font-size="11.00">Project</text>
</g>
<!-- \\acdhOeaw\\schema\\redmine\\Project&#45;&gt;\\acdhOeaw\\schema\\redmine\\Redmine -->
<g id="edge15" class="edge"><title>\\acdhOeaw\\schema\\redmine\\Project&#45;&gt;\\acdhOeaw\\schema\\redmine\\Redmine</title>
<path fill="none" stroke="black" d="M646.694,-2009.87C611.265,-2014.25 553.015,-2021.44 510.893,-2026.65"/>
<polygon fill="none" stroke="black" points="510.32,-2023.19 500.825,-2027.89 511.179,-2030.14 510.32,-2023.19"/>
</g>
<!-- \\acdhOeaw\\schema\\redmine\\User -->
<g id="node8" class="node"><title>\\acdhOeaw\\schema\\redmine\\User</title>
<polygon fill="none" stroke="black" points="706,-1970 652,-1970 652,-1934 706,-1934 706,-1970"/>
<text text-anchor="middle" x="679" y="-1949.2" font-family="Courier,monospace" font-size="11.00">User</text>
</g>
<!-- \\acdhOeaw\\schema\\redmine\\User&#45;&gt;\\acdhOeaw\\schema\\redmine\\Redmine -->
<g id="edge30" class="edge"><title>\\acdhOeaw\\schema\\redmine\\User&#45;&gt;\\acdhOeaw\\schema\\redmine\\Redmine</title>
<path fill="none" stroke="black" d="M651.934,-1961.28C637.495,-1966.45 619.234,-1973.02 603,-1979 572.052,-1990.39 537.449,-2003.41 509.978,-2013.8"/>
<polygon fill="none" stroke="black" points="508.688,-2010.55 500.576,-2017.36 511.167,-2017.09 508.688,-2010.55"/>
</g>
<!-- \\acdhOeaw\\schema\\file\\CmdiFile -->
<g id="node9" class="node"><title>\\acdhOeaw\\schema\\file\\CmdiFile</title>
<polygon fill="none" stroke="black" points="714.5,-1890 643.5,-1890 643.5,-1854 714.5,-1854 714.5,-1890"/>
<text text-anchor="middle" x="679" y="-1869.2" font-family="Courier,monospace" font-size="11.00">CmdiFile</text>
</g>
<!-- \\acdhOeaw\\schema\\file\\File -->
<g id="node10" class="node"><title>\\acdhOeaw\\schema\\file\\File</title>
<polygon fill="none" stroke="black" points="485.5,-1890 431.5,-1890 431.5,-1854 485.5,-1854 485.5,-1890"/>
<text text-anchor="middle" x="458.5" y="-1869.2" font-family="Courier,monospace" font-size="11.00">File</text>
</g>
<!-- \\acdhOeaw\\schema\\file\\CmdiFile&#45;&gt;\\acdhOeaw\\schema\\file\\File -->
<g id="edge13" class="edge"><title>\\acdhOeaw\\schema\\file\\CmdiFile&#45;&gt;\\acdhOeaw\\schema\\file\\File</title>
<path fill="none" stroke="black" d="M643.378,-1872C603.084,-1872 536.846,-1872 495.834,-1872"/>
<polygon fill="none" stroke="black" points="495.731,-1868.5 485.731,-1872 495.731,-1875.5 495.731,-1868.5"/>
</g>
<!-- \\acdhOeaw\\schema\\file\\File&#45;&gt;\\acdhOeaw\\schema\\Object -->
<g id="edge16" class="edge"><title>\\acdhOeaw\\schema\\file\\File&#45;&gt;\\acdhOeaw\\schema\\Object</title>
<path fill="none" stroke="black" d="M431.388,-1882.5C412.624,-1891.03 387.63,-1904.49 370,-1922 326.742,-1964.95 295.562,-2030.32 280.23,-2067.18"/>
<polygon fill="none" stroke="black" points="276.852,-2066.2 276.33,-2076.78 283.337,-2068.83 276.852,-2066.2"/>
</g>
<!-- \\acdhOeaw\\util\\metaLookup\\MetaLookupFile -->
<g id="node12" class="node"><title>\\acdhOeaw\\util\\metaLookup\\MetaLookupFile</title>
<polygon fill="none" stroke="black" points="734.5,-1774 623.5,-1774 623.5,-1738 734.5,-1738 734.5,-1774"/>
<text text-anchor="middle" x="679" y="-1753.2" font-family="Courier,monospace" font-size="11.00">MetaLookupFile</text>
</g>
<!-- \\acdhOeaw\\util\\metaLookup\\MetaLookupInterface -->
<g id="node14" class="node"><title>\\acdhOeaw\\util\\metaLookup\\MetaLookupInterface</title>
<polygon fill="none" stroke="black" points="531,-1747 386,-1747 386,-1711 531,-1711 531,-1747"/>
<text text-anchor="middle" x="458.5" y="-1726.2" font-family="Courier,monospace" font-size="11.00">MetaLookupInterface</text>
</g>
<!-- \\acdhOeaw\\util\\metaLookup\\MetaLookupFile&#45;&gt;\\acdhOeaw\\util\\metaLookup\\MetaLookupInterface -->
<g id="edge7" class="edge"><title>\\acdhOeaw\\util\\metaLookup\\MetaLookupFile&#45;&gt;\\acdhOeaw\\util\\metaLookup\\MetaLookupInterface</title>
<path fill="none" stroke="black" stroke-dasharray="1,5" d="M623.427,-1749.26C598.547,-1746.18 568.57,-1742.48 541.092,-1739.08"/>
<polygon fill="none" stroke="black" points="541.45,-1735.6 531.096,-1737.85 540.591,-1742.55 541.45,-1735.6"/>
</g>
<!-- \\acdhOeaw\\util\\metaLookup\\MetaLookupGraph -->
<g id="node13" class="node"><title>\\acdhOeaw\\util\\metaLookup\\MetaLookupGraph</title>
<polygon fill="none" stroke="black" points="738,-1720 620,-1720 620,-1684 738,-1684 738,-1720"/>
<text text-anchor="middle" x="679" y="-1699.2" font-family="Courier,monospace" font-size="11.00">MetaLookupGraph</text>
</g>
<!-- \\acdhOeaw\\util\\metaLookup\\MetaLookupGraph&#45;&gt;\\acdhOeaw\\util\\metaLookup\\MetaLookupInterface -->
<g id="edge17" class="edge"><title>\\acdhOeaw\\util\\metaLookup\\MetaLookupGraph&#45;&gt;\\acdhOeaw\\util\\metaLookup\\MetaLookupInterface</title>
<path fill="none" stroke="black" stroke-dasharray="1,5" d="M619.733,-1709.2C595.738,-1712.17 567.513,-1715.65 541.492,-1718.87"/>
<polygon fill="none" stroke="black" points="540.756,-1715.43 531.261,-1720.13 541.615,-1722.38 540.756,-1715.43"/>
</g>
<!-- \\acdhOeaw\\util\\metadataValidator\\MetadataValidator -->
<g id="node15" class="node"><title>\\acdhOeaw\\util\\metadataValidator\\MetadataValidator</title>
<polygon fill="none" stroke="black" points="744.5,-1640 613.5,-1640 613.5,-1604 744.5,-1604 744.5,-1640"/>
<text text-anchor="middle" x="679" y="-1619.2" font-family="Courier,monospace" font-size="11.00">MetadataValidator</text>
</g>
<!-- \\acdhOeaw\\util\\metadataValidator\\Error -->
<g id="node16" class="node"><title>\\acdhOeaw\\util\\metadataValidator\\Error</title>
<polygon fill="none" stroke="black" points="706,-1586 652,-1586 652,-1550 706,-1550 706,-1586"/>
<text text-anchor="middle" x="679" y="-1565.2" font-family="Courier,monospace" font-size="11.00">Error</text>
</g>
<!-- \\acdhOeaw\\util\\metadataValidator\\OntologyProperty -->
<g id="node17" class="node"><title>\\acdhOeaw\\util\\metadataValidator\\OntologyProperty</title>
<polygon fill="none" stroke="black" points="741.5,-1532 616.5,-1532 616.5,-1496 741.5,-1496 741.5,-1532"/>
<text text-anchor="middle" x="679" y="-1511.2" font-family="Courier,monospace" font-size="11.00">OntologyProperty</text>
</g>
<!-- \\acdhOeaw\\util\\RepoConfig -->
<g id="node18" class="node"><title>\\acdhOeaw\\util\\RepoConfig</title>
<polygon fill="none" stroke="black" points="721,-1478 637,-1478 637,-1442 721,-1442 721,-1478"/>
<text text-anchor="middle" x="679" y="-1457.2" font-family="Courier,monospace" font-size="11.00">RepoConfig</text>
</g>
<!-- \\acdhOeaw\\util\\Indexer -->
<g id="node19" class="node"><title>\\acdhOeaw\\util\\Indexer</title>
<polygon fill="none" stroke="black" points="711,-1424 647,-1424 647,-1388 711,-1388 711,-1424"/>
<text text-anchor="middle" x="679" y="-1403.2" font-family="Courier,monospace" font-size="11.00">Indexer</text>
</g>
<!-- \\acdhOeaw\\util\\DisseminationService -->
<g id="node20" class="node"><title>\\acdhOeaw\\util\\DisseminationService</title>
<polygon fill="none" stroke="black" points="755,-1370 603,-1370 603,-1334 755,-1334 755,-1370"/>
<text text-anchor="middle" x="679" y="-1349.2" font-family="Courier,monospace" font-size="11.00">DisseminationService</text>
</g>
<!-- \\acdhOeaw\\util\\MetadataCollection -->
<g id="node21" class="node"><title>\\acdhOeaw\\util\\MetadataCollection</title>
<polygon fill="none" stroke="black" points="748,-1316 610,-1316 610,-1280 748,-1280 748,-1316"/>
<text text-anchor="middle" x="679" y="-1295.2" font-family="Courier,monospace" font-size="11.00">MetadataCollection</text>
</g>
<!-- \\EasyRdf\\Graph -->
<g id="node47" class="node"><title>\\EasyRdf\\Graph</title>
<ellipse fill="none" stroke="black" cx="458.5" cy="-72" rx="67.6881" ry="18"/>
<text text-anchor="middle" x="458.5" y="-68.3" font-family="Times,serif" font-size="14.00" fill="gray">\EasyRdf\Graph</text>
</g>
<!-- \\acdhOeaw\\util\\MetadataCollection&#45;&gt;\\EasyRdf\\Graph -->
<g id="edge25" class="edge"><title>\\acdhOeaw\\util\\MetadataCollection&#45;&gt;\\EasyRdf\\Graph</title>
<path fill="none" stroke="black" d="M643.715,-1279.82C628.729,-1270.06 612.444,-1256.59 603,-1240 573.754,-1188.61 480.028,-274.758 462.38,-100.556"/>
<polygon fill="none" stroke="black" points="465.84,-99.9815 461.351,-90.3846 458.875,-100.686 465.84,-99.9815"/>
</g>
<!-- \\acdhOeaw\\fedora\\dissemination\\Parameter -->
<g id="node22" class="node"><title>\\acdhOeaw\\fedora\\dissemination\\Parameter</title>
<polygon fill="none" stroke="black" points="717.5,-1208 640.5,-1208 640.5,-1172 717.5,-1172 717.5,-1208"/>
<text text-anchor="middle" x="679" y="-1187.2" font-family="Courier,monospace" font-size="11.00">Parameter</text>
</g>
<!-- \\acdhOeaw\\fedora\\FedoraResource -->
<g id="node43" class="node"><title>\\acdhOeaw\\fedora\\FedoraResource</title>
<polygon fill="none" stroke="black" points="514,-1154 403,-1154 403,-1118 514,-1118 514,-1154"/>
<text text-anchor="middle" x="458.5" y="-1133.2" font-family="Courier,monospace" font-size="11.00">FedoraResource</text>
</g>
<!-- \\acdhOeaw\\fedora\\dissemination\\Parameter&#45;&gt;\\acdhOeaw\\fedora\\FedoraResource -->
<g id="edge2" class="edge"><title>\\acdhOeaw\\fedora\\dissemination\\Parameter&#45;&gt;\\acdhOeaw\\fedora\\FedoraResource</title>
<path fill="none" stroke="black" d="M640.439,-1180.72C608.516,-1172.83 561.974,-1161.33 524.088,-1151.96"/>
<polygon fill="none" stroke="black" points="524.703,-1148.51 514.156,-1149.51 523.024,-1155.3 524.703,-1148.51"/>
</g>
<!-- \\acdhOeaw\\fedora\\dissemination\\Service -->
<g id="node23" class="node"><title>\\acdhOeaw\\fedora\\dissemination\\Service</title>
<polygon fill="none" stroke="black" points="711,-1154 647,-1154 647,-1118 711,-1118 711,-1154"/>
<text text-anchor="middle" x="679" y="-1133.2" font-family="Courier,monospace" font-size="11.00">Service</text>
</g>
<!-- \\acdhOeaw\\fedora\\dissemination\\Service&#45;&gt;\\acdhOeaw\\fedora\\FedoraResource -->
<g id="edge27" class="edge"><title>\\acdhOeaw\\fedora\\dissemination\\Service&#45;&gt;\\acdhOeaw\\fedora\\FedoraResource</title>
<path fill="none" stroke="black" d="M646.694,-1136C614.93,-1136 564.822,-1136 524.439,-1136"/>
<polygon fill="none" stroke="black" points="524.399,-1132.5 514.399,-1136 524.399,-1139.5 524.399,-1132.5"/>
</g>
<!-- \\acdhOeaw\\fedora\\exceptions\\ManyAcdhIds -->
<g id="node24" class="node"><title>\\acdhOeaw\\fedora\\exceptions\\ManyAcdhIds</title>
<polygon fill="none" stroke="black" points="724.5,-482 633.5,-482 633.5,-446 724.5,-446 724.5,-482"/>
<text text-anchor="middle" x="679" y="-461.2" font-family="Courier,monospace" font-size="11.00">ManyAcdhIds</text>
</g>
<!-- \\Exception -->
<g id="node46" class="node"><title>\\Exception</title>
<ellipse fill="none" stroke="black" cx="458.5" cy="-18" rx="48.9926" ry="18"/>
<text text-anchor="middle" x="458.5" y="-14.3" font-family="Times,serif" font-size="14.00" fill="gray">\Exception</text>
</g>
<!-- \\acdhOeaw\\fedora\\exceptions\\ManyAcdhIds&#45;&gt;\\Exception -->
<g id="edge3" class="edge"><title>\\acdhOeaw\\fedora\\exceptions\\ManyAcdhIds&#45;&gt;\\Exception</title>
<path fill="none" stroke="black" d="M633.281,-456.24C621.945,-452.241 610.788,-446.182 603,-437 488.419,-301.912 644.529,-180.972 531,-45 525.798,-38.7695 518.999,-33.9749 511.664,-30.2858"/>
<polygon fill="none" stroke="black" points="512.734,-26.9352 502.166,-26.1792 509.956,-33.3604 512.734,-26.9352"/>
</g>
<!-- \\acdhOeaw\\fedora\\exceptions\\Deleted -->
<g id="node25" class="node"><title>\\acdhOeaw\\fedora\\exceptions\\Deleted</title>
<polygon fill="none" stroke="black" points="711,-428 647,-428 647,-392 711,-392 711,-428"/>
<text text-anchor="middle" x="679" y="-407.2" font-family="Courier,monospace" font-size="11.00">Deleted</text>
</g>
<!-- \\acdhOeaw\\fedora\\exceptions\\Deleted&#45;&gt;\\Exception -->
<g id="edge4" class="edge"><title>\\acdhOeaw\\fedora\\exceptions\\Deleted&#45;&gt;\\Exception</title>
<path fill="none" stroke="black" d="M646.99,-406.007C631.655,-402.448 614.102,-395.72 603,-383 502.005,-267.281 631.094,-161.498 531,-45 525.71,-38.8435 518.866,-34.0876 511.512,-30.4144"/>
<polygon fill="none" stroke="black" points="512.572,-27.0601 502.004,-26.3169 509.802,-33.4887 512.572,-27.0601"/>
</g>
<!-- \\acdhOeaw\\fedora\\exceptions\\NoAcdhId -->
<g id="node26" class="node"><title>\\acdhOeaw\\fedora\\exceptions\\NoAcdhId</title>
<polygon fill="none" stroke="black" points="714.5,-374 643.5,-374 643.5,-338 714.5,-338 714.5,-374"/>
<text text-anchor="middle" x="679" y="-353.2" font-family="Courier,monospace" font-size="11.00">NoAcdhId</text>
</g>
<!-- \\acdhOeaw\\fedora\\exceptions\\NoAcdhId&#45;&gt;\\Exception -->
<g id="edge11" class="edge"><title>\\acdhOeaw\\fedora\\exceptions\\NoAcdhId&#45;&gt;\\Exception</title>
<path fill="none" stroke="black" d="M643.391,-350.879C629.071,-347.083 613.414,-340.48 603,-329 515.509,-232.557 617.741,-142.119 531,-45 525.593,-38.9462 518.688,-34.244 511.309,-30.5929"/>
<polygon fill="none" stroke="black" points="512.356,-27.2336 501.786,-26.5079 509.596,-33.6667 512.356,-27.2336"/>
</g>
<!-- \\acdhOeaw\\fedora\\exceptions\\NotFound -->
<g id="node27" class="node"><title>\\acdhOeaw\\fedora\\exceptions\\NotFound</title>
<polygon fill="none" stroke="black" points="714.5,-320 643.5,-320 643.5,-284 714.5,-284 714.5,-320"/>
<text text-anchor="middle" x="679" y="-299.2" font-family="Courier,monospace" font-size="11.00">NotFound</text>
</g>
<!-- \\acdhOeaw\\fedora\\exceptions\\NotFound&#45;&gt;\\Exception -->
<g id="edge12" class="edge"><title>\\acdhOeaw\\fedora\\exceptions\\NotFound&#45;&gt;\\Exception</title>
<path fill="none" stroke="black" d="M643.385,-299.01C629.237,-296.129 613.714,-290.587 603,-280 525.297,-203.222 605.74,-124.665 531,-45 525.446,-39.0806 518.464,-34.4484 511.054,-30.8263"/>
<polygon fill="none" stroke="black" points="512.084,-27.4608 501.513,-26.7576 509.338,-33.8998 512.084,-27.4608"/>
</g>
<!-- \\acdhOeaw\\fedora\\exceptions\\CacheInconsistent -->
<g id="node28" class="node"><title>\\acdhOeaw\\fedora\\exceptions\\CacheInconsistent</title>
<polygon fill="none" stroke="black" points="744.5,-752 613.5,-752 613.5,-716 744.5,-716 744.5,-752"/>
<text text-anchor="middle" x="679" y="-731.2" font-family="Courier,monospace" font-size="11.00">CacheInconsistent</text>
</g>
<!-- \\acdhOeaw\\fedora\\exceptions\\CacheInconsistent&#45;&gt;\\Exception -->
<g id="edge18" class="edge"><title>\\acdhOeaw\\fedora\\exceptions\\CacheInconsistent&#45;&gt;\\Exception</title>
<path fill="none" stroke="black" d="M613.183,-716.644C609.37,-713.889 605.91,-710.697 603,-707 419.961,-474.433 712.23,-278.979 531,-45 526.03,-38.583 519.352,-33.6911 512.067,-29.9618"/>
<polygon fill="none" stroke="black" points="513.163,-26.6213 502.597,-25.8325 510.365,-33.0378 513.163,-26.6213"/>
</g>
<!-- \\acdhOeaw\\fedora\\exceptions\\NotInCache -->
<g id="node29" class="node"><title>\\acdhOeaw\\fedora\\exceptions\\NotInCache</title>
<polygon fill="none" stroke="black" points="721,-698 637,-698 637,-662 721,-662 721,-698"/>
<text text-anchor="middle" x="679" y="-677.2" font-family="Courier,monospace" font-size="11.00">NotInCache</text>
</g>
<!-- \\acdhOeaw\\fedora\\exceptions\\NotInCache&#45;&gt;\\Exception -->
<g id="edge20" class="edge"><title>\\acdhOeaw\\fedora\\exceptions\\NotInCache&#45;&gt;\\Exception</title>
<path fill="none" stroke="black" d="M636.809,-673.853C624.143,-669.93 611.352,-663.509 603,-653 433.692,-439.977 698.651,-259.329 531,-45 525.999,-38.6068 519.306,-33.7273 512.014,-30.0031"/>
<polygon fill="none" stroke="black" points="513.106,-26.6613 502.541,-25.8767 510.311,-33.0789 513.106,-26.6613"/>
</g>
<!-- \\acdhOeaw\\fedora\\exceptions\\AmbiguousMatch -->
<g id="node30" class="node"><title>\\acdhOeaw\\fedora\\exceptions\\AmbiguousMatch</title>
<polygon fill="none" stroke="black" points="734.5,-644 623.5,-644 623.5,-608 734.5,-608 734.5,-644"/>
<text text-anchor="middle" x="679" y="-623.2" font-family="Courier,monospace" font-size="11.00">AmbiguousMatch</text>
</g>
<!-- \\acdhOeaw\\fedora\\exceptions\\AmbiguousMatch&#45;&gt;\\Exception -->
<g id="edge21" class="edge"><title>\\acdhOeaw\\fedora\\exceptions\\AmbiguousMatch&#45;&gt;\\Exception</title>
<path fill="none" stroke="black" d="M623.33,-614.504C615.548,-610.718 608.377,-605.687 603,-599 447.409,-405.504 685.086,-239.697 531,-45 525.963,-38.6353 519.251,-33.7707 511.951,-30.0527"/>
<polygon fill="none" stroke="black" points="513.039,-26.7092 502.473,-25.9297 510.247,-33.1282 513.039,-26.7092"/>
</g>
<!-- \\acdhOeaw\\fedora\\exceptions\\AlreadyInCache -->
<g id="node31" class="node"><title>\\acdhOeaw\\fedora\\exceptions\\AlreadyInCache</title>
<polygon fill="none" stroke="black" points="734.5,-590 623.5,-590 623.5,-554 734.5,-554 734.5,-590"/>
<text text-anchor="middle" x="679" y="-569.2" font-family="Courier,monospace" font-size="11.00">AlreadyInCache</text>
</g>
<!-- \\acdhOeaw\\fedora\\exceptions\\AlreadyInCache&#45;&gt;\\Exception -->
<g id="edge24" class="edge"><title>\\acdhOeaw\\fedora\\exceptions\\AlreadyInCache&#45;&gt;\\Exception</title>
<path fill="none" stroke="black" d="M623.409,-560.44C615.618,-556.662 608.423,-551.649 603,-545 461.107,-371.008 671.539,-220.087 531,-45 525.919,-38.6702 519.184,-33.8237 511.875,-30.1132"/>
<polygon fill="none" stroke="black" points="512.958,-26.7679 502.392,-25.9945 510.17,-33.1885 512.958,-26.7679"/>
</g>
<!-- \\acdhOeaw\\fedora\\exceptions\\AclException -->
<g id="node32" class="node"><title>\\acdhOeaw\\fedora\\exceptions\\AclException</title>
<polygon fill="none" stroke="black" points="728,-536 630,-536 630,-500 728,-500 728,-536"/>
<text text-anchor="middle" x="679" y="-515.2" font-family="Courier,monospace" font-size="11.00">AclException</text>
</g>
<!-- \\acdhOeaw\\fedora\\exceptions\\AclException&#45;&gt;\\Exception -->
<g id="edge28" class="edge"><title>\\acdhOeaw\\fedora\\exceptions\\AclException&#45;&gt;\\Exception</title>
<path fill="none" stroke="black" d="M629.642,-509.04C619.548,-505.058 609.893,-499.307 603,-491 474.781,-336.482 658.017,-200.508 531,-45 525.865,-38.7137 519.102,-33.89 511.782,-30.1888"/>
<polygon fill="none" stroke="black" points="512.859,-26.8412 502.292,-26.0755 510.075,-33.2638 512.859,-26.8412"/>
</g>
<!-- \\acdhOeaw\\fedora\\acl\\WebAclRule -->
<g id="node33" class="node"><title>\\acdhOeaw\\fedora\\acl\\WebAclRule</title>
<polygon fill="none" stroke="black" points="721,-1074 637,-1074 637,-1038 721,-1038 721,-1074"/>
<text text-anchor="middle" x="679" y="-1053.2" font-family="Courier,monospace" font-size="11.00">WebAclRule</text>
</g>
<!-- \\acdhOeaw\\fedora\\acl\\WebAclRule&#45;&gt;\\acdhOeaw\\fedora\\FedoraResource -->
<g id="edge10" class="edge"><title>\\acdhOeaw\\fedora\\acl\\WebAclRule&#45;&gt;\\acdhOeaw\\fedora\\FedoraResource</title>
<path fill="none" stroke="black" d="M636.902,-1071.05C603.539,-1083.26 556.057,-1100.65 518.611,-1114.36"/>
<polygon fill="none" stroke="black" points="517.016,-1111.21 508.829,-1117.94 519.423,-1117.79 517.016,-1111.21"/>
</g>
<!-- \\acdhOeaw\\fedora\\acl\\WebAcl -->
<g id="node34" class="node"><title>\\acdhOeaw\\fedora\\acl\\WebAcl</title>
<polygon fill="none" stroke="black" points="707.5,-1020 650.5,-1020 650.5,-984 707.5,-984 707.5,-1020"/>
<text text-anchor="middle" x="679" y="-999.2" font-family="Courier,monospace" font-size="11.00">WebAcl</text>
</g>
<!-- \\acdhOeaw\\fedora\\metadataQuery\\Query -->
<g id="node35" class="node"><title>\\acdhOeaw\\fedora\\metadataQuery\\Query</title>
<polygon fill="none" stroke="black" points="485.5,-886 431.5,-886 431.5,-850 485.5,-850 485.5,-886"/>
<text text-anchor="middle" x="458.5" y="-865.2" font-family="Courier,monospace" font-size="11.00">Query</text>
</g>
<!-- \\acdhOeaw\\fedora\\metadataQuery\\HasValue -->
<g id="node36" class="node"><title>\\acdhOeaw\\fedora\\metadataQuery\\HasValue</title>
<polygon fill="none" stroke="black" points="494,-940 423,-940 423,-904 494,-904 494,-940"/>
<text text-anchor="middle" x="458.5" y="-919.2" font-family="Courier,monospace" font-size="11.00">HasValue</text>
</g>
<!-- \\acdhOeaw\\fedora\\metadataQuery\\HasProperty -->
<g id="node41" class="node"><title>\\acdhOeaw\\fedora\\metadataQuery\\HasProperty</title>
<polygon fill="none" stroke="black" points="314,-886 223,-886 223,-850 314,-850 314,-886"/>
<text text-anchor="middle" x="268.5" y="-865.2" font-family="Courier,monospace" font-size="11.00">HasProperty</text>
</g>
<!-- \\acdhOeaw\\fedora\\metadataQuery\\HasValue&#45;&gt;\\acdhOeaw\\fedora\\metadataQuery\\HasProperty -->
<g id="edge14" class="edge"><title>\\acdhOeaw\\fedora\\metadataQuery\\HasValue&#45;&gt;\\acdhOeaw\\fedora\\metadataQuery\\HasProperty</title>
<path fill="none" stroke="black" d="M422.579,-911.97C394.864,-904.009 355.626,-892.738 323.815,-883.601"/>
<polygon fill="none" stroke="black" points="324.78,-880.237 314.202,-880.84 322.847,-886.965 324.78,-880.237"/>
</g>
<!-- \\acdhOeaw\\fedora\\metadataQuery\\QueryParameter -->
<g id="node37" class="node"><title>\\acdhOeaw\\fedora\\metadataQuery\\QueryParameter</title>
<polygon fill="none" stroke="black" points="151,-886 40,-886 40,-850 151,-850 151,-886"/>
<text text-anchor="start" x="61.5" y="-871.2" font-family="Courier,monospace" font-size="11.00">«abstract»</text>
<text text-anchor="start" x="48" y="-859.2" font-family="Courier,monospace" font-size="11.00">QueryParameter</text>
</g>
<!-- \\acdhOeaw\\fedora\\metadataQuery\\MatchesRegEx -->
<g id="node38" class="node"><title>\\acdhOeaw\\fedora\\metadataQuery\\MatchesRegEx</title>
<polygon fill="none" stroke="black" points="728,-940 630,-940 630,-904 728,-904 728,-940"/>
<text text-anchor="middle" x="679" y="-919.2" font-family="Courier,monospace" font-size="11.00">MatchesRegEx</text>
</g>
<!-- \\acdhOeaw\\fedora\\metadataQuery\\MatchesRegEx&#45;&gt;\\acdhOeaw\\fedora\\metadataQuery\\HasValue -->
<g id="edge19" class="edge"><title>\\acdhOeaw\\fedora\\metadataQuery\\MatchesRegEx&#45;&gt;\\acdhOeaw\\fedora\\metadataQuery\\HasValue</title>
<path fill="none" stroke="black" d="M629.779,-922C592.375,-922 540.919,-922 504.387,-922"/>
<polygon fill="none" stroke="black" points="504.032,-918.5 494.032,-922 504.032,-925.5 504.032,-918.5"/>
</g>
<!-- \\acdhOeaw\\fedora\\metadataQuery\\SimpleQuery -->
<g id="node39" class="node"><title>\\acdhOeaw\\fedora\\metadataQuery\\SimpleQuery</title>
<polygon fill="none" stroke="black" points="724.5,-886 633.5,-886 633.5,-850 724.5,-850 724.5,-886"/>
<text text-anchor="middle" x="679" y="-865.2" font-family="Courier,monospace" font-size="11.00">SimpleQuery</text>
</g>
<!-- \\acdhOeaw\\fedora\\metadataQuery\\SimpleQuery&#45;&gt;\\acdhOeaw\\fedora\\metadataQuery\\Query -->
<g id="edge23" class="edge"><title>\\acdhOeaw\\fedora\\metadataQuery\\SimpleQuery&#45;&gt;\\acdhOeaw\\fedora\\metadataQuery\\Query</title>
<path fill="none" stroke="black" d="M633.256,-868C592.628,-868 533.457,-868 495.724,-868"/>
<polygon fill="none" stroke="black" points="495.683,-864.5 485.683,-868 495.683,-871.5 495.683,-864.5"/>
</g>
<!-- \\acdhOeaw\\fedora\\metadataQuery\\HasTriple -->
<g id="node40" class="node"><title>\\acdhOeaw\\fedora\\metadataQuery\\HasTriple</title>
<polygon fill="none" stroke="black" points="497,-832 420,-832 420,-796 497,-796 497,-832"/>
<text text-anchor="middle" x="458.5" y="-811.2" font-family="Courier,monospace" font-size="11.00">HasTriple</text>
</g>
<!-- \\acdhOeaw\\fedora\\metadataQuery\\HasTriple&#45;&gt;\\acdhOeaw\\fedora\\metadataQuery\\HasProperty -->
<g id="edge26" class="edge"><title>\\acdhOeaw\\fedora\\metadataQuery\\HasTriple&#45;&gt;\\acdhOeaw\\fedora\\metadataQuery\\HasProperty</title>
<path fill="none" stroke="black" d="M419.907,-824.798C392.447,-832.685 354.796,-843.5 324.034,-852.336"/>
<polygon fill="none" stroke="black" points="322.956,-849.004 314.31,-855.129 324.888,-855.732 322.956,-849.004"/>
</g>
<!-- \\acdhOeaw\\fedora\\metadataQuery\\HasProperty&#45;&gt;\\acdhOeaw\\fedora\\metadataQuery\\QueryParameter -->
<g id="edge29" class="edge"><title>\\acdhOeaw\\fedora\\metadataQuery\\HasProperty&#45;&gt;\\acdhOeaw\\fedora\\metadataQuery\\QueryParameter</title>
<path fill="none" stroke="black" d="M222.572,-868C203.864,-868 181.782,-868 161.369,-868"/>
<polygon fill="none" stroke="black" points="161.19,-864.5 151.19,-868 161.19,-871.5 161.19,-864.5"/>
</g>
<!-- \\acdhOeaw\\fedora\\Fedora -->
<g id="node42" class="node"><title>\\acdhOeaw\\fedora\\Fedora</title>
<polygon fill="none" stroke="black" points="707.5,-266 650.5,-266 650.5,-230 707.5,-230 707.5,-266"/>
<text text-anchor="middle" x="679" y="-245.2" font-family="Courier,monospace" font-size="11.00">Fedora</text>
</g>
<!-- \\acdhOeaw\\fedora\\SparqlClient -->
<g id="node44" class="node"><title>\\acdhOeaw\\fedora\\SparqlClient</title>
<polygon fill="none" stroke="black" points="728,-212 630,-212 630,-176 728,-176 728,-212"/>
<text text-anchor="middle" x="679" y="-191.2" font-family="Courier,monospace" font-size="11.00">SparqlClient</text>
</g>
<!-- \\acdhOeaw\\fedora\\FedoraCache -->
<g id="node45" class="node"><title>\\acdhOeaw\\fedora\\FedoraCache</title>
<polygon fill="none" stroke="black" points="724.5,-158 633.5,-158 633.5,-122 724.5,-122 724.5,-158"/>
<text text-anchor="middle" x="679" y="-137.2" font-family="Courier,monospace" font-size="11.00">FedoraCache</text>
</g>
</g>
</svg>
