<?xml version="1.0" encoding="UTF-8" standalone="no"?>
<!DOCTYPE svg PUBLIC "-//W3C//DTD SVG 1.1//EN"
 "http://www.w3.org/Graphics/SVG/1.1/DTD/svg11.dtd">
<!-- Generated by graphviz version 2.38.0 (20140413.2041)
 -->
<!-- Title: G Pages: 1 -->
<svg width="796pt" height="2908pt"
 viewBox="0.00 0.00 796.00 2908.00" xmlns="http://www.w3.org/2000/svg" xmlns:xlink="http://www.w3.org/1999/xlink">
<g id="graph0" class="graph" transform="scale(1 1) rotate(0) translate(4 2904)">
<title>G</title>
<polygon fill="white" stroke="none" points="-4,4 -4,-2904 792,-2904 792,4 -4,4"/>
<g id="clust1" class="cluster"><title>cluster_Global</title>
<path fill="none" stroke="gray" d="M20,-98C20,-98 768,-98 768,-98 774,-98 780,-104 780,-110 780,-110 780,-2880 780,-2880 780,-2886 774,-2892 768,-2892 768,-2892 20,-2892 20,-2892 14,-2892 8,-2886 8,-2880 8,-2880 8,-110 8,-110 8,-104 14,-98 20,-98"/>
<text text-anchor="middle" x="394" y="-2879.2" font-family="Times,serif" font-size="11.00" fill="gray">Global</text>
</g>
<g id="clust2" class="cluster"><title>cluster_\acdhOeaw</title>
<path fill="none" stroke="gray" d="M28,-106C28,-106 760,-106 760,-106 766,-106 772,-112 772,-118 772,-118 772,-2852 772,-2852 772,-2858 766,-2864 760,-2864 760,-2864 28,-2864 28,-2864 22,-2864 16,-2858 16,-2852 16,-2852 16,-118 16,-118 16,-112 22,-106 28,-106"/>
<text text-anchor="middle" x="394" y="-2851.2" font-family="Times,serif" font-size="11.00" fill="gray">acdhOeaw</text>
</g>
<g id="clust3" class="cluster"><title>cluster_\acdhOeaw\schema</title>
<path fill="none" stroke="gray" d="M230.5,-2352C230.5,-2352 731.5,-2352 731.5,-2352 737.5,-2352 743.5,-2358 743.5,-2364 743.5,-2364 743.5,-2824 743.5,-2824 743.5,-2830 737.5,-2836 731.5,-2836 731.5,-2836 230.5,-2836 230.5,-2836 224.5,-2836 218.5,-2830 218.5,-2824 218.5,-2824 218.5,-2364 218.5,-2364 218.5,-2358 224.5,-2352 230.5,-2352"/>
<text text-anchor="middle" x="481" y="-2823.2" font-family="Times,serif" font-size="11.00" fill="gray">schema</text>
</g>
<g id="clust4" class="cluster"><title>cluster_\acdhOeaw\schema\dissemination</title>
<path fill="none" stroke="gray" d="M430.5,-2628C430.5,-2628 723.5,-2628 723.5,-2628 729.5,-2628 735.5,-2634 735.5,-2640 735.5,-2640 735.5,-2796 735.5,-2796 735.5,-2802 729.5,-2808 723.5,-2808 723.5,-2808 430.5,-2808 430.5,-2808 424.5,-2808 418.5,-2802 418.5,-2796 418.5,-2796 418.5,-2640 418.5,-2640 418.5,-2634 424.5,-2628 430.5,-2628"/>
<text text-anchor="middle" x="577" y="-2795.2" font-family="Times,serif" font-size="11.00" fill="gray">dissemination</text>
</g>
<g id="clust5" class="cluster"><title>cluster_\acdhOeaw\schema\redmine</title>
<path fill="none" stroke="gray" d="M420.5,-2440C420.5,-2440 703.5,-2440 703.5,-2440 709.5,-2440 715.5,-2446 715.5,-2452 715.5,-2452 715.5,-2608 715.5,-2608 715.5,-2614 709.5,-2620 703.5,-2620 703.5,-2620 420.5,-2620 420.5,-2620 414.5,-2620 408.5,-2614 408.5,-2608 408.5,-2608 408.5,-2452 408.5,-2452 408.5,-2446 414.5,-2440 420.5,-2440"/>
<text text-anchor="middle" x="562" y="-2607.2" font-family="Times,serif" font-size="11.00" fill="gray">redmine</text>
</g>
<g id="clust6" class="cluster"><title>cluster_\acdhOeaw\schema\file</title>
<path fill="none" stroke="gray" d="M435.5,-2360C435.5,-2360 707,-2360 707,-2360 713,-2360 719,-2366 719,-2372 719,-2372 719,-2420 719,-2420 719,-2426 713,-2432 707,-2432 707,-2432 435.5,-2432 435.5,-2432 429.5,-2432 423.5,-2426 423.5,-2420 423.5,-2420 423.5,-2372 423.5,-2372 423.5,-2366 429.5,-2360 435.5,-2360"/>
<text text-anchor="middle" x="571.25" y="-2419.2" font-family="Times,serif" font-size="11.00" fill="gray">file</text>
</g>
<g id="clust7" class="cluster"><title>cluster_\acdhOeaw\util</title>
<path fill="none" stroke="gray" d="M382,-1678C382,-1678 752,-1678 752,-1678 758,-1678 764,-1684 764,-1690 764,-1690 764,-2332 764,-2332 764,-2338 758,-2344 752,-2344 752,-2344 382,-2344 382,-2344 376,-2344 370,-2338 370,-2332 370,-2332 370,-1690 370,-1690 370,-1684 376,-1678 382,-1678"/>
<text text-anchor="middle" x="567" y="-2331.2" font-family="Times,serif" font-size="11.00" fill="gray">util</text>
</g>
<g id="clust8" class="cluster"><title>cluster_\acdhOeaw\util\metaLookup</title>
<path fill="none" stroke="gray" d="M390,-2136C390,-2136 744,-2136 744,-2136 750,-2136 756,-2142 756,-2148 756,-2148 756,-2304 756,-2304 756,-2310 750,-2316 744,-2316 744,-2316 390,-2316 390,-2316 384,-2316 378,-2310 378,-2304 378,-2304 378,-2148 378,-2148 378,-2142 384,-2136 390,-2136"/>
<text text-anchor="middle" x="567" y="-2303.2" font-family="Times,serif" font-size="11.00" fill="gray">metaLookup</text>
</g>
<g id="clust9" class="cluster"><title>cluster_\acdhOeaw\util\metadataValidator</title>
<path fill="none" stroke="gray" d="M614,-1948C614,-1948 737,-1948 737,-1948 743,-1948 749,-1954 749,-1960 749,-1960 749,-2116 749,-2116 749,-2122 743,-2128 737,-2128 737,-2128 614,-2128 614,-2128 608,-2128 602,-2122 602,-2116 602,-2116 602,-1960 602,-1960 602,-1954 608,-1948 614,-1948"/>
<text text-anchor="middle" x="675.5" y="-2115.2" font-family="Times,serif" font-size="11.00" fill="gray">metadataValidator</text>
</g>
<g id="clust10" class="cluster"><title>cluster_\acdhOeaw\fedora</title>
<path fill="none" stroke="gray" d="M36,-114C36,-114 745,-114 745,-114 751,-114 757,-120 757,-126 757,-126 757,-1658 757,-1658 757,-1664 751,-1670 745,-1670 745,-1670 36,-1670 36,-1670 30,-1670 24,-1664 24,-1658 24,-1658 24,-126 24,-126 24,-120 30,-114 36,-114"/>
<text text-anchor="middle" x="390.5" y="-1657.2" font-family="Times,serif" font-size="11.00" fill="gray">fedora</text>
</g>
<g id="clust11" class="cluster"><title>cluster_\acdhOeaw\fedora\dissemination</title>
<path fill="none" stroke="gray" d="M395.5,-1110C395.5,-1110 728.5,-1110 728.5,-1110 734.5,-1110 740.5,-1116 740.5,-1122 740.5,-1122 740.5,-1630 740.5,-1630 740.5,-1636 734.5,-1642 728.5,-1642 728.5,-1642 395.5,-1642 395.5,-1642 389.5,-1642 383.5,-1636 383.5,-1630 383.5,-1630 383.5,-1122 383.5,-1122 383.5,-1116 389.5,-1110 395.5,-1110"/>
<text text-anchor="middle" x="562" y="-1629.2" font-family="Times,serif" font-size="11.00" fill="gray">dissemination</text>
</g>
<g id="clust12" class="cluster"><title>cluster_\acdhOeaw\fedora\dissemination\parameter</title>
<path fill="none" stroke="gray" d="M403.5,-1272C403.5,-1272 720.5,-1272 720.5,-1272 726.5,-1272 732.5,-1278 732.5,-1284 732.5,-1284 732.5,-1602 732.5,-1602 732.5,-1608 726.5,-1614 720.5,-1614 720.5,-1614 403.5,-1614 403.5,-1614 397.5,-1614 391.5,-1608 391.5,-1602 391.5,-1602 391.5,-1284 391.5,-1284 391.5,-1278 397.5,-1272 403.5,-1272"/>
<text text-anchor="middle" x="562" y="-1601.2" font-family="Times,serif" font-size="11.00" fill="gray">parameter</text>
</g>
<g id="clust13" class="cluster"><title>cluster_\acdhOeaw\fedora\exceptions</title>
<path fill="none" stroke="gray" d="M614,-276C614,-276 737,-276 737,-276 743,-276 749,-282 749,-288 749,-288 749,-768 749,-768 749,-774 743,-780 737,-780 737,-780 614,-780 614,-780 608,-780 602,-774 602,-768 602,-768 602,-288 602,-288 602,-282 608,-276 614,-276"/>
<text text-anchor="middle" x="675.5" y="-767.2" font-family="Times,serif" font-size="11.00" fill="gray">exceptions</text>
</g>
<g id="clust14" class="cluster"><title>cluster_\acdhOeaw\fedora\acl</title>
<path fill="none" stroke="gray" d="M637.5,-976C637.5,-976 713.5,-976 713.5,-976 719.5,-976 725.5,-982 725.5,-988 725.5,-988 725.5,-1090 725.5,-1090 725.5,-1096 719.5,-1102 713.5,-1102 713.5,-1102 637.5,-1102 637.5,-1102 631.5,-1102 625.5,-1096 625.5,-1090 625.5,-1090 625.5,-988 625.5,-988 625.5,-982 631.5,-976 637.5,-976"/>
<text text-anchor="middle" x="675.5" y="-1089.2" font-family="Times,serif" font-size="11.00" fill="gray">acl</text>
</g>
<g id="clust15" class="cluster"><title>cluster_\acdhOeaw\fedora\metadataQuery</title>
<path fill="none" stroke="gray" d="M44,-788C44,-788 720.5,-788 720.5,-788 726.5,-788 732.5,-794 732.5,-800 732.5,-800 732.5,-956 732.5,-956 732.5,-962 726.5,-968 720.5,-968 720.5,-968 44,-968 44,-968 38,-968 32,-962 32,-956 32,-956 32,-800 32,-800 32,-794 38,-788 44,-788"/>
<text text-anchor="middle" x="382.25" y="-955.2" font-family="Times,serif" font-size="11.00" fill="gray">metadataQuery</text>
</g>
<!-- \\acdhOeaw\\schema\\dissemination\\Match -->
<g id="node1" class="node"><title>\\acdhOeaw\\schema\\dissemination\\Match</title>
<polygon fill="none" stroke="black" points="702.5,-2672 648.5,-2672 648.5,-2636 702.5,-2636 702.5,-2672"/>
<text text-anchor="middle" x="675.5" y="-2651.2" font-family="Courier,monospace" font-size="11.00">Match</text>
</g>
<!-- \\acdhOeaw\\schema\\Object -->
<g id="node11" class="node"><title>\\acdhOeaw\\schema\\Object</title>
<polygon fill="none" stroke="black" points="310.5,-2627 226.5,-2627 226.5,-2591 310.5,-2591 310.5,-2627"/>
<text text-anchor="start" x="234.5" y="-2612.2" font-family="Courier,monospace" font-size="11.00">«abstract»</text>
<text text-anchor="start" x="248" y="-2600.2" font-family="Courier,monospace" font-size="11.00">Object</text>
</g>
<!-- \\acdhOeaw\\schema\\dissemination\\Match&#45;&gt;\\acdhOeaw\\schema\\Object -->
<g id="edge1" class="edge"><title>\\acdhOeaw\\schema\\dissemination\\Match&#45;&gt;\\acdhOeaw\\schema\\Object</title>
<path fill="none" stroke="black" d="M648.472,-2660.56C607.821,-2669.83 526.929,-2684.33 459.5,-2672"/>
<path fill="none" stroke="black" d="M457.5,-2672C409.786,-2663.28 357.64,-2645.07 320.397,-2630.46"/>
<polygon fill="none" stroke="black" points="321.369,-2627.08 310.784,-2626.64 318.784,-2633.59 321.369,-2627.08"/>
</g>
<!-- \\acdhOeaw\\schema\\dissemination\\Parameter -->
<g id="node2" class="node"><title>\\acdhOeaw\\schema\\dissemination\\Parameter</title>
<polygon fill="none" stroke="black" points="714,-2726 637,-2726 637,-2690 714,-2690 714,-2726"/>
<text text-anchor="middle" x="675.5" y="-2705.2" font-family="Courier,monospace" font-size="11.00">Parameter</text>
</g>
<!-- \\acdhOeaw\\schema\\dissemination\\Parameter&#45;&gt;\\acdhOeaw\\schema\\Object -->
<g id="edge5" class="edge"><title>\\acdhOeaw\\schema\\dissemination\\Parameter&#45;&gt;\\acdhOeaw\\schema\\Object</title>
<path fill="none" stroke="black" d="M636.768,-2702.03C593.789,-2695.15 521.486,-2683.33 459.5,-2672"/>
</g>
<!-- \\acdhOeaw\\schema\\dissemination\\CiriloService -->
<g id="node3" class="node"><title>\\acdhOeaw\\schema\\dissemination\\CiriloService</title>
<polygon fill="none" stroke="black" points="727.5,-2780 623.5,-2780 623.5,-2744 727.5,-2744 727.5,-2780"/>
<text text-anchor="middle" x="675.5" y="-2759.2" font-family="Courier,monospace" font-size="11.00">CiriloService</text>
</g>
<!-- \\acdhOeaw\\schema\\dissemination\\Service -->
<g id="node4" class="node"><title>\\acdhOeaw\\schema\\dissemination\\Service</title>
<polygon fill="none" stroke="black" points="490.5,-2762 426.5,-2762 426.5,-2726 490.5,-2726 490.5,-2762"/>
<text text-anchor="middle" x="458.5" y="-2741.2" font-family="Courier,monospace" font-size="11.00">Service</text>
</g>
<!-- \\acdhOeaw\\schema\\dissemination\\CiriloService&#45;&gt;\\acdhOeaw\\schema\\dissemination\\Service -->
<g id="edge10" class="edge"><title>\\acdhOeaw\\schema\\dissemination\\CiriloService&#45;&gt;\\acdhOeaw\\schema\\dissemination\\Service</title>
<path fill="none" stroke="black" d="M623.275,-2757.71C585.905,-2754.58 535.9,-2750.4 501.014,-2747.48"/>
<polygon fill="none" stroke="black" points="500.961,-2743.96 490.704,-2746.61 500.377,-2750.93 500.961,-2743.96"/>
</g>
<!-- \\acdhOeaw\\schema\\dissemination\\Service&#45;&gt;\\acdhOeaw\\schema\\Object -->
<g id="edge28" class="edge"><title>\\acdhOeaw\\schema\\dissemination\\Service&#45;&gt;\\acdhOeaw\\schema\\Object</title>
<path fill="none" stroke="black" d="M426.195,-2740.73C408.677,-2737.81 387.01,-2732.31 370,-2722 334.254,-2700.32 304.096,-2661.9 286.402,-2635.94"/>
<polygon fill="none" stroke="black" points="289.127,-2633.72 280.675,-2627.33 283.298,-2637.59 289.127,-2633.72"/>
</g>
<!-- \\acdhOeaw\\schema\\redmine\\Redmine -->
<g id="node5" class="node"><title>\\acdhOeaw\\schema\\redmine\\Redmine</title>
<polygon fill="none" stroke="black" points="500.5,-2565 416.5,-2565 416.5,-2529 500.5,-2529 500.5,-2565"/>
<text text-anchor="start" x="424.5" y="-2550.2" font-family="Courier,monospace" font-size="11.00">«abstract»</text>
<text text-anchor="start" x="434.5" y="-2538.2" font-family="Courier,monospace" font-size="11.00">Redmine</text>
</g>
<!-- \\acdhOeaw\\schema\\redmine\\Redmine&#45;&gt;\\acdhOeaw\\schema\\Object -->
<g id="edge7" class="edge"><title>\\acdhOeaw\\schema\\redmine\\Redmine&#45;&gt;\\acdhOeaw\\schema\\Object</title>
<path fill="none" stroke="black" d="M416.243,-2560.61C388.081,-2569.89 350.581,-2582.26 320.539,-2592.17"/>
<polygon fill="none" stroke="black" points="319.062,-2588.97 310.661,-2595.43 321.254,-2595.62 319.062,-2588.97"/>
</g>
<!-- \\acdhOeaw\\schema\\redmine\\Issue -->
<g id="node6" class="node"><title>\\acdhOeaw\\schema\\redmine\\Issue</title>
<polygon fill="none" stroke="black" points="702.5,-2592 648.5,-2592 648.5,-2556 702.5,-2556 702.5,-2592"/>
<text text-anchor="middle" x="675.5" y="-2571.2" font-family="Courier,monospace" font-size="11.00">Issue</text>
</g>
<!-- \\acdhOeaw\\schema\\redmine\\Issue&#45;&gt;\\acdhOeaw\\schema\\redmine\\Redmine -->
<g id="edge11" class="edge"><title>\\acdhOeaw\\schema\\redmine\\Issue&#45;&gt;\\acdhOeaw\\schema\\redmine\\Redmine</title>
<path fill="none" stroke="black" d="M648.137,-2570.69C614.087,-2566.41 554.074,-2558.88 510.871,-2553.45"/>
<polygon fill="none" stroke="black" points="511.185,-2549.96 500.827,-2552.19 510.313,-2556.91 511.185,-2549.96"/>
</g>
<!-- \\acdhOeaw\\schema\\redmine\\Project -->
<g id="node7" class="node"><title>\\acdhOeaw\\schema\\redmine\\Project</title>
<polygon fill="none" stroke="black" points="707.5,-2538 643.5,-2538 643.5,-2502 707.5,-2502 707.5,-2538"/>
<text text-anchor="middle" x="675.5" y="-2517.2" font-family="Courier,monospace" font-size="11.00">Project</text>
</g>
<!-- \\acdhOeaw\\schema\\redmine\\Project&#45;&gt;\\acdhOeaw\\schema\\redmine\\Redmine -->
<g id="edge19" class="edge"><title>\\acdhOeaw\\schema\\redmine\\Project&#45;&gt;\\acdhOeaw\\schema\\redmine\\Redmine</title>
<path fill="none" stroke="black" d="M643.237,-2523.93C608.558,-2528.28 552.071,-2535.37 510.871,-2540.55"/>
<polygon fill="none" stroke="black" points="510.234,-2537.1 500.748,-2541.82 511.107,-2544.05 510.234,-2537.1"/>
</g>
<!-- \\acdhOeaw\\schema\\redmine\\User -->
<g id="node8" class="node"><title>\\acdhOeaw\\schema\\redmine\\User</title>
<polygon fill="none" stroke="black" points="702.5,-2484 648.5,-2484 648.5,-2448 702.5,-2448 702.5,-2484"/>
<text text-anchor="middle" x="675.5" y="-2463.2" font-family="Courier,monospace" font-size="11.00">User</text>
</g>
<!-- \\acdhOeaw\\schema\\redmine\\User&#45;&gt;\\acdhOeaw\\schema\\redmine\\Redmine -->
<g id="edge38" class="edge"><title>\\acdhOeaw\\schema\\redmine\\User&#45;&gt;\\acdhOeaw\\schema\\redmine\\Redmine</title>
<path fill="none" stroke="black" d="M648.311,-2475.71C634.524,-2480.84 617.339,-2487.24 602,-2493 571.561,-2504.44 537.503,-2517.34 510.318,-2527.66"/>
<polygon fill="none" stroke="black" points="508.738,-2524.52 500.633,-2531.34 511.224,-2531.06 508.738,-2524.52"/>
</g>
<!-- \\acdhOeaw\\schema\\file\\CmdiFile -->
<g id="node9" class="node"><title>\\acdhOeaw\\schema\\file\\CmdiFile</title>
<polygon fill="none" stroke="black" points="711,-2404 640,-2404 640,-2368 711,-2368 711,-2404"/>
<text text-anchor="middle" x="675.5" y="-2383.2" font-family="Courier,monospace" font-size="11.00">CmdiFile</text>
</g>
<!-- \\acdhOeaw\\schema\\file\\File -->
<g id="node10" class="node"><title>\\acdhOeaw\\schema\\file\\File</title>
<polygon fill="none" stroke="black" points="485.5,-2404 431.5,-2404 431.5,-2368 485.5,-2368 485.5,-2404"/>
<text text-anchor="middle" x="458.5" y="-2383.2" font-family="Courier,monospace" font-size="11.00">File</text>
</g>
<!-- \\acdhOeaw\\schema\\file\\CmdiFile&#45;&gt;\\acdhOeaw\\schema\\file\\File -->
<g id="edge17" class="edge"><title>\\acdhOeaw\\schema\\file\\CmdiFile&#45;&gt;\\acdhOeaw\\schema\\file\\File</title>
<path fill="none" stroke="black" d="M639.957,-2386C600.402,-2386 535.897,-2386 495.673,-2386"/>
<polygon fill="none" stroke="black" points="495.506,-2382.5 485.506,-2386 495.506,-2389.5 495.506,-2382.5"/>
</g>
<!-- \\acdhOeaw\\schema\\file\\File&#45;&gt;\\acdhOeaw\\schema\\Object -->
<g id="edge20" class="edge"><title>\\acdhOeaw\\schema\\file\\File&#45;&gt;\\acdhOeaw\\schema\\Object</title>
<path fill="none" stroke="black" d="M431.388,-2396.5C412.624,-2405.03 387.63,-2418.49 370,-2436 326.742,-2478.95 295.562,-2544.32 280.23,-2581.18"/>
<polygon fill="none" stroke="black" points="276.852,-2580.2 276.33,-2590.78 283.337,-2582.83 276.852,-2580.2"/>
</g>
<!-- \\acdhOeaw\\util\\metaLookup\\MetaLookupException -->
<g id="node12" class="node"><title>\\acdhOeaw\\util\\metaLookup\\MetaLookupException</title>
<polygon fill="none" stroke="black" points="748,-2180 603,-2180 603,-2144 748,-2144 748,-2180"/>
<text text-anchor="middle" x="675.5" y="-2159.2" font-family="Courier,monospace" font-size="11.00">MetaLookupException</text>
</g>
<!-- \\Exception -->
<g id="node56" class="node"><title>\\Exception</title>
<ellipse fill="none" stroke="black" cx="458.5" cy="-18" rx="48.9926" ry="18"/>
<text text-anchor="middle" x="458.5" y="-14.3" font-family="Times,serif" font-size="14.00" fill="gray">\Exception</text>
</g>
<!-- \\acdhOeaw\\util\\metaLookup\\MetaLookupException&#45;&gt;\\Exception -->
<g id="edge8" class="edge"><title>\\acdhOeaw\\util\\metaLookup\\MetaLookupException&#45;&gt;\\Exception</title>
<path fill="none" stroke="black" d="M613.717,-2143.77C609.205,-2140.48 605.182,-2136.59 602,-2132 469.799,-1941.32 666.166,-233.586 531,-45 526.272,-38.4028 519.72,-33.4167 512.487,-29.6486"/>
<polygon fill="none" stroke="black" points="513.61,-26.3188 503.047,-25.4973 510.792,-32.7267 513.61,-26.3188"/>
</g>
<!-- \\acdhOeaw\\util\\metaLookup\\MetaLookupFile -->
<g id="node13" class="node"><title>\\acdhOeaw\\util\\metaLookup\\MetaLookupFile</title>
<polygon fill="none" stroke="black" points="731,-2288 620,-2288 620,-2252 731,-2252 731,-2288"/>
<text text-anchor="middle" x="675.5" y="-2267.2" font-family="Courier,monospace" font-size="11.00">MetaLookupFile</text>
</g>
<!-- \\acdhOeaw\\util\\metaLookup\\MetaLookupInterface -->
<g id="node15" class="node"><title>\\acdhOeaw\\util\\metaLookup\\MetaLookupInterface</title>
<polygon fill="none" stroke="black" points="531,-2261 386,-2261 386,-2225 531,-2225 531,-2261"/>
<text text-anchor="middle" x="458.5" y="-2240.2" font-family="Courier,monospace" font-size="11.00">MetaLookupInterface</text>
</g>
<!-- \\acdhOeaw\\util\\metaLookup\\MetaLookupFile&#45;&gt;\\acdhOeaw\\util\\metaLookup\\MetaLookupInterface -->
<g id="edge9" class="edge"><title>\\acdhOeaw\\util\\metaLookup\\MetaLookupFile&#45;&gt;\\acdhOeaw\\util\\metaLookup\\MetaLookupInterface</title>
<path fill="none" stroke="black" stroke-dasharray="1,5" d="M619.968,-2263.15C596.03,-2260.15 567.421,-2256.55 541.032,-2253.24"/>
<polygon fill="none" stroke="black" points="541.399,-2249.76 531.041,-2251.98 540.527,-2256.7 541.399,-2249.76"/>
</g>
<!-- \\acdhOeaw\\util\\metaLookup\\MetaLookupGraph -->
<g id="node14" class="node"><title>\\acdhOeaw\\util\\metaLookup\\MetaLookupGraph</title>
<polygon fill="none" stroke="black" points="734.5,-2234 616.5,-2234 616.5,-2198 734.5,-2198 734.5,-2234"/>
<text text-anchor="middle" x="675.5" y="-2213.2" font-family="Courier,monospace" font-size="11.00">MetaLookupGraph</text>
</g>
<!-- \\acdhOeaw\\util\\metaLookup\\MetaLookupGraph&#45;&gt;\\acdhOeaw\\util\\metaLookup\\MetaLookupInterface -->
<g id="edge21" class="edge"><title>\\acdhOeaw\\util\\metaLookup\\MetaLookupGraph&#45;&gt;\\acdhOeaw\\util\\metaLookup\\MetaLookupInterface</title>
<path fill="none" stroke="black" stroke-dasharray="1,5" d="M616.318,-2223.31C593.255,-2226.2 566.326,-2229.58 541.357,-2232.72"/>
<polygon fill="none" stroke="black" points="540.649,-2229.28 531.163,-2234 541.521,-2236.23 540.649,-2229.28"/>
</g>
<!-- \\acdhOeaw\\util\\metadataValidator\\MetadataValidator -->
<g id="node16" class="node"><title>\\acdhOeaw\\util\\metadataValidator\\MetadataValidator</title>
<polygon fill="none" stroke="black" points="741,-2100 610,-2100 610,-2064 741,-2064 741,-2100"/>
<text text-anchor="middle" x="675.5" y="-2079.2" font-family="Courier,monospace" font-size="11.00">MetadataValidator</text>
</g>
<!-- \\acdhOeaw\\util\\metadataValidator\\Error -->
<g id="node17" class="node"><title>\\acdhOeaw\\util\\metadataValidator\\Error</title>
<polygon fill="none" stroke="black" points="702.5,-2046 648.5,-2046 648.5,-2010 702.5,-2010 702.5,-2046"/>
<text text-anchor="middle" x="675.5" y="-2025.2" font-family="Courier,monospace" font-size="11.00">Error</text>
</g>
<!-- \\acdhOeaw\\util\\metadataValidator\\OntologyProperty -->
<g id="node18" class="node"><title>\\acdhOeaw\\util\\metadataValidator\\OntologyProperty</title>
<polygon fill="none" stroke="black" points="738,-1992 613,-1992 613,-1956 738,-1956 738,-1992"/>
<text text-anchor="middle" x="675.5" y="-1971.2" font-family="Courier,monospace" font-size="11.00">OntologyProperty</text>
</g>
<!-- \\acdhOeaw\\util\\RepoConfig -->
<g id="node19" class="node"><title>\\acdhOeaw\\util\\RepoConfig</title>
<polygon fill="none" stroke="black" points="717.5,-1938 633.5,-1938 633.5,-1902 717.5,-1902 717.5,-1938"/>
<text text-anchor="middle" x="675.5" y="-1917.2" font-family="Courier,monospace" font-size="11.00">RepoConfig</text>
</g>
<!-- \\acdhOeaw\\util\\Indexer -->
<g id="node20" class="node"><title>\\acdhOeaw\\util\\Indexer</title>
<polygon fill="none" stroke="black" points="707.5,-1884 643.5,-1884 643.5,-1848 707.5,-1848 707.5,-1884"/>
<text text-anchor="middle" x="675.5" y="-1863.2" font-family="Courier,monospace" font-size="11.00">Indexer</text>
</g>
<!-- \\acdhOeaw\\util\\ResourceFactory -->
<g id="node21" class="node"><title>\\acdhOeaw\\util\\ResourceFactory</title>
<polygon fill="none" stroke="black" points="734.5,-1830 616.5,-1830 616.5,-1794 734.5,-1794 734.5,-1830"/>
<text text-anchor="middle" x="675.5" y="-1809.2" font-family="Courier,monospace" font-size="11.00">ResourceFactory</text>
</g>
<!-- \\acdhOeaw\\util\\IndexerException -->
<g id="node22" class="node"><title>\\acdhOeaw\\util\\IndexerException</title>
<polygon fill="none" stroke="black" points="738,-1722 613,-1722 613,-1686 738,-1686 738,-1722"/>
<text text-anchor="middle" x="675.5" y="-1701.2" font-family="Courier,monospace" font-size="11.00">IndexerException</text>
</g>
<!-- \\acdhOeaw\\util\\IndexerException&#45;&gt;\\Exception -->
<g id="edge14" class="edge"><title>\\acdhOeaw\\util\\IndexerException&#45;&gt;\\Exception</title>
<path fill="none" stroke="black" d="M652.645,-1685.69C635.419,-1669.79 612.597,-1645.1 602,-1618 538.282,-1455.06 633.709,-186.635 531,-45 526.235,-38.4291 519.665,-33.4568 512.424,-29.6944"/>
<polygon fill="none" stroke="black" points="513.542,-26.363 502.979,-25.5463 510.728,-32.7721 513.542,-26.363"/>
</g>
<!-- \\acdhOeaw\\util\\MetadataCollection -->
<g id="node23" class="node"><title>\\acdhOeaw\\util\\MetadataCollection</title>
<polygon fill="none" stroke="black" points="744.5,-1776 606.5,-1776 606.5,-1740 744.5,-1740 744.5,-1776"/>
<text text-anchor="middle" x="675.5" y="-1755.2" font-family="Courier,monospace" font-size="11.00">MetadataCollection</text>
</g>
<!-- \\EasyRdf\\Graph -->
<g id="node57" class="node"><title>\\EasyRdf\\Graph</title>
<ellipse fill="none" stroke="black" cx="458.5" cy="-72" rx="67.6881" ry="18"/>
<text text-anchor="middle" x="458.5" y="-68.3" font-family="Times,serif" font-size="14.00" fill="gray">\EasyRdf\Graph</text>
</g>
<!-- \\acdhOeaw\\util\\MetadataCollection&#45;&gt;\\EasyRdf\\Graph -->
<g id="edge31" class="edge"><title>\\acdhOeaw\\util\\MetadataCollection&#45;&gt;\\EasyRdf\\Graph</title>
<path fill="none" stroke="black" d="M610.73,-1739.8C607.461,-1737.25 604.502,-1734.33 602,-1731 538.6,-1646.65 540.217,-889.114 531,-784 507.647,-517.665 473.029,-195.955 462.589,-100.188"/>
<polygon fill="none" stroke="black" points="466.057,-99.6995 461.492,-90.1385 459.098,-100.459 466.057,-99.6995"/>
</g>
<!-- \\acdhOeaw\\fedora\\dissemination\\parameter\\UriPart -->
<g id="node24" class="node"><title>\\acdhOeaw\\fedora\\dissemination\\parameter\\UriPart</title>
<polygon fill="none" stroke="black" points="707.5,-1586 643.5,-1586 643.5,-1550 707.5,-1550 707.5,-1586"/>
<text text-anchor="middle" x="675.5" y="-1565.2" font-family="Courier,monospace" font-size="11.00">UriPart</text>
</g>
<!-- \\acdhOeaw\\fedora\\dissemination\\parameter\\iTransformation -->
<g id="node30" class="node"><title>\\acdhOeaw\\fedora\\dissemination\\parameter\\iTransformation</title>
<polygon fill="none" stroke="black" points="517.5,-1451 399.5,-1451 399.5,-1415 517.5,-1415 517.5,-1451"/>
<text text-anchor="middle" x="458.5" y="-1430.2" font-family="Courier,monospace" font-size="11.00">iTransformation</text>
</g>
<!-- \\acdhOeaw\\fedora\\dissemination\\parameter\\UriPart&#45;&gt;\\acdhOeaw\\fedora\\dissemination\\parameter\\iTransformation -->
<g id="edge6" class="edge"><title>\\acdhOeaw\\fedora\\dissemination\\parameter\\UriPart&#45;&gt;\\acdhOeaw\\fedora\\dissemination\\parameter\\iTransformation</title>
<path fill="none" stroke="black" stroke-dasharray="1,5" d="M643.288,-1558.61C630.154,-1554.1 614.948,-1548.12 602,-1541 558.917,-1517.32 514.605,-1481.61 487.071,-1457.81"/>
<polygon fill="none" stroke="black" points="489.26,-1455.08 479.425,-1451.14 484.656,-1460.35 489.26,-1455.08"/>
</g>
<!-- \\acdhOeaw\\fedora\\dissemination\\parameter\\SetParam -->
<g id="node25" class="node"><title>\\acdhOeaw\\fedora\\dissemination\\parameter\\SetParam</title>
<polygon fill="none" stroke="black" points="711,-1532 640,-1532 640,-1496 711,-1496 711,-1532"/>
<text text-anchor="middle" x="675.5" y="-1511.2" font-family="Courier,monospace" font-size="11.00">SetParam</text>
</g>
<!-- \\acdhOeaw\\fedora\\dissemination\\parameter\\SetParam&#45;&gt;\\acdhOeaw\\fedora\\dissemination\\parameter\\iTransformation -->
<g id="edge12" class="edge"><title>\\acdhOeaw\\fedora\\dissemination\\parameter\\SetParam&#45;&gt;\\acdhOeaw\\fedora\\dissemination\\parameter\\iTransformation</title>
<path fill="none" stroke="black" stroke-dasharray="1,5" d="M639.82,-1501.13C627.834,-1496.67 614.322,-1491.63 602,-1487 573.766,-1476.39 542.42,-1464.52 516.332,-1454.62"/>
<polygon fill="none" stroke="black" points="517.566,-1451.35 506.974,-1451.07 515.08,-1457.89 517.566,-1451.35"/>
</g>
<!-- \\acdhOeaw\\fedora\\dissemination\\parameter\\Base64Encode -->
<g id="node26" class="node"><title>\\acdhOeaw\\fedora\\dissemination\\parameter\\Base64Encode</title>
<polygon fill="none" stroke="black" points="724.5,-1478 626.5,-1478 626.5,-1442 724.5,-1442 724.5,-1478"/>
<text text-anchor="middle" x="675.5" y="-1457.2" font-family="Courier,monospace" font-size="11.00">Base64Encode</text>
</g>
<!-- \\acdhOeaw\\fedora\\dissemination\\parameter\\Base64Encode&#45;&gt;\\acdhOeaw\\fedora\\dissemination\\parameter\\iTransformation -->
<g id="edge24" class="edge"><title>\\acdhOeaw\\fedora\\dissemination\\parameter\\Base64Encode&#45;&gt;\\acdhOeaw\\fedora\\dissemination\\parameter\\iTransformation</title>
<path fill="none" stroke="black" stroke-dasharray="1,5" d="M626.25,-1453.94C597.204,-1450.29 559.765,-1445.59 527.723,-1441.57"/>
<polygon fill="none" stroke="black" points="527.885,-1438.06 517.527,-1440.29 527.013,-1445.01 527.885,-1438.06"/>
</g>
<!-- \\acdhOeaw\\fedora\\dissemination\\parameter\\AddParam -->
<g id="node27" class="node"><title>\\acdhOeaw\\fedora\\dissemination\\parameter\\AddParam</title>
<polygon fill="none" stroke="black" points="711,-1424 640,-1424 640,-1388 711,-1388 711,-1424"/>
<text text-anchor="middle" x="675.5" y="-1403.2" font-family="Courier,monospace" font-size="11.00">AddParam</text>
</g>
<!-- \\acdhOeaw\\fedora\\dissemination\\parameter\\AddParam&#45;&gt;\\acdhOeaw\\fedora\\dissemination\\parameter\\iTransformation -->
<g id="edge25" class="edge"><title>\\acdhOeaw\\fedora\\dissemination\\parameter\\AddParam&#45;&gt;\\acdhOeaw\\fedora\\dissemination\\parameter\\iTransformation</title>
<path fill="none" stroke="black" stroke-dasharray="1,5" d="M639.957,-1410.34C609.902,-1414.11 565.441,-1419.7 528.173,-1424.38"/>
<polygon fill="none" stroke="black" points="527.356,-1420.95 517.87,-1425.67 528.229,-1427.9 527.356,-1420.95"/>
</g>
<!-- \\acdhOeaw\\fedora\\dissemination\\parameter\\Substr -->
<g id="node28" class="node"><title>\\acdhOeaw\\fedora\\dissemination\\parameter\\Substr</title>
<polygon fill="none" stroke="black" points="704,-1370 647,-1370 647,-1334 704,-1334 704,-1370"/>
<text text-anchor="middle" x="675.5" y="-1349.2" font-family="Courier,monospace" font-size="11.00">Substr</text>
</g>
<!-- \\acdhOeaw\\fedora\\dissemination\\parameter\\Substr&#45;&gt;\\acdhOeaw\\fedora\\dissemination\\parameter\\iTransformation -->
<g id="edge33" class="edge"><title>\\acdhOeaw\\fedora\\dissemination\\parameter\\Substr&#45;&gt;\\acdhOeaw\\fedora\\dissemination\\parameter\\iTransformation</title>
<path fill="none" stroke="black" stroke-dasharray="1,5" d="M646.79,-1361.83C633.208,-1366.77 616.659,-1372.97 602,-1379 569.986,-1392.16 563.382,-1398.78 531,-1411 529.804,-1411.45 528.594,-1411.9 527.373,-1412.35"/>
<polygon fill="none" stroke="black" points="526.112,-1409.08 517.848,-1415.71 528.443,-1415.68 526.112,-1409.08"/>
</g>
<!-- \\acdhOeaw\\fedora\\dissemination\\parameter\\UrlEncode -->
<g id="node29" class="node"><title>\\acdhOeaw\\fedora\\dissemination\\parameter\\UrlEncode</title>
<polygon fill="none" stroke="black" points="714,-1316 637,-1316 637,-1280 714,-1280 714,-1316"/>
<text text-anchor="middle" x="675.5" y="-1295.2" font-family="Courier,monospace" font-size="11.00">UrlEncode</text>
</g>
<!-- \\acdhOeaw\\fedora\\dissemination\\parameter\\UrlEncode&#45;&gt;\\acdhOeaw\\fedora\\dissemination\\parameter\\iTransformation -->
<g id="edge35" class="edge"><title>\\acdhOeaw\\fedora\\dissemination\\parameter\\UrlEncode&#45;&gt;\\acdhOeaw\\fedora\\dissemination\\parameter\\iTransformation</title>
<path fill="none" stroke="black" stroke-dasharray="1,5" d="M636.877,-1307.83C625.06,-1311.98 612.395,-1317.6 602,-1325 561.619,-1353.74 572.197,-1383.44 531,-1411 529.718,-1411.86 528.401,-1412.68 527.056,-1413.48"/>
<polygon fill="none" stroke="black" points="525.076,-1410.56 517.818,-1418.28 528.305,-1416.77 525.076,-1410.56"/>
</g>
<!-- \\acdhOeaw\\fedora\\dissemination\\Parameter -->
<g id="node31" class="node"><title>\\acdhOeaw\\fedora\\dissemination\\Parameter</title>
<polygon fill="none" stroke="black" points="714,-1262 637,-1262 637,-1226 714,-1226 714,-1262"/>
<text text-anchor="middle" x="675.5" y="-1241.2" font-family="Courier,monospace" font-size="11.00">Parameter</text>
</g>
<!-- \\acdhOeaw\\fedora\\FedoraResource -->
<g id="node53" class="node"><title>\\acdhOeaw\\fedora\\FedoraResource</title>
<polygon fill="none" stroke="black" points="514,-1102 403,-1102 403,-1066 514,-1066 514,-1102"/>
<text text-anchor="middle" x="458.5" y="-1081.2" font-family="Courier,monospace" font-size="11.00">FedoraResource</text>
</g>
<!-- \\acdhOeaw\\fedora\\dissemination\\Parameter&#45;&gt;\\acdhOeaw\\fedora\\FedoraResource -->
<g id="edge2" class="edge"><title>\\acdhOeaw\\fedora\\dissemination\\Parameter&#45;&gt;\\acdhOeaw\\fedora\\FedoraResource</title>
<path fill="none" stroke="black" d="M636.674,-1233.09C625.098,-1228.93 612.625,-1223.57 602,-1217 553.852,-1187.23 507.785,-1139.58 481.636,-1110.13"/>
<polygon fill="none" stroke="black" points="484.027,-1107.55 474.804,-1102.33 478.763,-1112.16 484.027,-1107.55"/>
</g>
<!-- \\acdhOeaw\\fedora\\dissemination\\Format -->
<g id="node32" class="node"><title>\\acdhOeaw\\fedora\\dissemination\\Format</title>
<polygon fill="none" stroke="black" points="704,-1208 647,-1208 647,-1172 704,-1172 704,-1208"/>
<text text-anchor="middle" x="675.5" y="-1187.2" font-family="Courier,monospace" font-size="11.00">Format</text>
</g>
<!-- \\acdhOeaw\\fedora\\dissemination\\Service -->
<g id="node33" class="node"><title>\\acdhOeaw\\fedora\\dissemination\\Service</title>
<polygon fill="none" stroke="black" points="707.5,-1154 643.5,-1154 643.5,-1118 707.5,-1118 707.5,-1154"/>
<text text-anchor="middle" x="675.5" y="-1133.2" font-family="Courier,monospace" font-size="11.00">Service</text>
</g>
<!-- \\acdhOeaw\\fedora\\dissemination\\Service&#45;&gt;\\acdhOeaw\\fedora\\FedoraResource -->
<g id="edge34" class="edge"><title>\\acdhOeaw\\fedora\\dissemination\\Service&#45;&gt;\\acdhOeaw\\fedora\\FedoraResource</title>
<path fill="none" stroke="black" d="M643.237,-1128.44C612.101,-1120.91 563.386,-1109.13 523.938,-1099.59"/>
<polygon fill="none" stroke="black" points="524.668,-1096.16 514.125,-1097.21 523.022,-1102.96 524.668,-1096.16"/>
</g>
<!-- \\acdhOeaw\\fedora\\exceptions\\ManyAcdhIds -->
<g id="node34" class="node"><title>\\acdhOeaw\\fedora\\exceptions\\ManyAcdhIds</title>
<polygon fill="none" stroke="black" points="721,-482 630,-482 630,-446 721,-446 721,-482"/>
<text text-anchor="middle" x="675.5" y="-461.2" font-family="Courier,monospace" font-size="11.00">ManyAcdhIds</text>
</g>
<!-- \\acdhOeaw\\fedora\\exceptions\\ManyAcdhIds&#45;&gt;\\Exception -->
<g id="edge3" class="edge"><title>\\acdhOeaw\\fedora\\exceptions\\ManyAcdhIds&#45;&gt;\\Exception</title>
<path fill="none" stroke="black" d="M629.722,-455.388C619.29,-451.394 609.154,-445.55 602,-437 488.379,-301.208 644.31,-181.051 531,-45 525.806,-38.7631 519.011,-33.9651 511.678,-30.2746"/>
<polygon fill="none" stroke="black" points="512.748,-26.9244 502.181,-26.1673 509.97,-33.3493 512.748,-26.9244"/>
</g>
<!-- \\acdhOeaw\\fedora\\exceptions\\Deleted -->
<g id="node35" class="node"><title>\\acdhOeaw\\fedora\\exceptions\\Deleted</title>
<polygon fill="none" stroke="black" points="707.5,-428 643.5,-428 643.5,-392 707.5,-392 707.5,-428"/>
<text text-anchor="middle" x="675.5" y="-407.2" font-family="Courier,monospace" font-size="11.00">Deleted</text>
</g>
<!-- \\acdhOeaw\\fedora\\exceptions\\Deleted&#45;&gt;\\Exception -->
<g id="edge4" class="edge"><title>\\acdhOeaw\\fedora\\exceptions\\Deleted&#45;&gt;\\Exception</title>
<path fill="none" stroke="black" d="M643.391,-405.487C628.825,-401.8 612.427,-395.114 602,-383 501.865,-266.658 630.869,-161.57 531,-45 525.719,-38.836 518.88,-34.0762 511.528,-30.4014"/>
<polygon fill="none" stroke="black" points="512.589,-27.0475 502.02,-26.303 509.818,-33.4757 512.589,-27.0475"/>
</g>
<!-- \\acdhOeaw\\fedora\\exceptions\\NoAcdhId -->
<g id="node36" class="node"><title>\\acdhOeaw\\fedora\\exceptions\\NoAcdhId</title>
<polygon fill="none" stroke="black" points="711,-374 640,-374 640,-338 711,-338 711,-374"/>
<text text-anchor="middle" x="675.5" y="-353.2" font-family="Courier,monospace" font-size="11.00">NoAcdhId</text>
</g>
<!-- \\acdhOeaw\\fedora\\exceptions\\NoAcdhId&#45;&gt;\\Exception -->
<g id="edge15" class="edge"><title>\\acdhOeaw\\fedora\\exceptions\\NoAcdhId&#45;&gt;\\Exception</title>
<path fill="none" stroke="black" d="M639.892,-350.311C626.351,-346.428 611.759,-339.913 602,-329 515.271,-232.016 617.507,-142.182 531,-45 525.603,-38.9373 518.703,-34.2303 511.326,-30.5774"/>
<polygon fill="none" stroke="black" points="512.374,-27.2185 501.804,-26.4913 509.614,-33.6512 512.374,-27.2185"/>
</g>
<!-- \\acdhOeaw\\fedora\\exceptions\\NotFound -->
<g id="node37" class="node"><title>\\acdhOeaw\\fedora\\exceptions\\NotFound</title>
<polygon fill="none" stroke="black" points="711,-320 640,-320 640,-284 711,-284 711,-320"/>
<text text-anchor="middle" x="675.5" y="-299.2" font-family="Courier,monospace" font-size="11.00">NotFound</text>
</g>
<!-- \\acdhOeaw\\fedora\\exceptions\\NotFound&#45;&gt;\\Exception -->
<g id="edge16" class="edge"><title>\\acdhOeaw\\fedora\\exceptions\\NotFound&#45;&gt;\\Exception</title>
<path fill="none" stroke="black" d="M639.889,-298.521C626.511,-295.537 612.039,-290.051 602,-280 524.896,-202.803 605.497,-124.716 531,-45 525.458,-39.0697 518.482,-34.4319 511.074,-30.8075"/>
<polygon fill="none" stroke="black" points="512.106,-27.4426 501.534,-26.7375 509.359,-33.8811 512.106,-27.4426"/>
</g>
<!-- \\acdhOeaw\\fedora\\exceptions\\CacheInconsistent -->
<g id="node38" class="node"><title>\\acdhOeaw\\fedora\\exceptions\\CacheInconsistent</title>
<polygon fill="none" stroke="black" points="741,-752 610,-752 610,-716 741,-716 741,-752"/>
<text text-anchor="middle" x="675.5" y="-731.2" font-family="Courier,monospace" font-size="11.00">CacheInconsistent</text>
</g>
<!-- \\acdhOeaw\\fedora\\exceptions\\CacheInconsistent&#45;&gt;\\Exception -->
<g id="edge22" class="edge"><title>\\acdhOeaw\\fedora\\exceptions\\CacheInconsistent&#45;&gt;\\Exception</title>
<path fill="none" stroke="black" d="M611.172,-715.956C607.748,-713.361 604.637,-710.394 602,-707 420.44,-473.337 712.026,-279.077 531,-45 526.034,-38.5793 519.359,-33.6854 512.075,-29.9553"/>
<polygon fill="none" stroke="black" points="513.172,-26.6151 502.606,-25.8256 510.373,-33.0314 513.172,-26.6151"/>
</g>
<!-- \\acdhOeaw\\fedora\\exceptions\\NotInCache -->
<g id="node39" class="node"><title>\\acdhOeaw\\fedora\\exceptions\\NotInCache</title>
<polygon fill="none" stroke="black" points="717.5,-698 633.5,-698 633.5,-662 717.5,-662 717.5,-698"/>
<text text-anchor="middle" x="675.5" y="-677.2" font-family="Courier,monospace" font-size="11.00">NotInCache</text>
</g>
<!-- \\acdhOeaw\\fedora\\exceptions\\NotInCache&#45;&gt;\\Exception -->
<g id="edge26" class="edge"><title>\\acdhOeaw\\fedora\\exceptions\\NotInCache&#45;&gt;\\Exception</title>
<path fill="none" stroke="black" d="M633.13,-673.053C621.387,-669.078 609.71,-662.827 602,-653 434.066,-438.958 698.445,-259.424 531,-45 526.004,-38.6027 519.314,-33.7211 512.023,-29.996"/>
<polygon fill="none" stroke="black" points="513.116,-26.6544 502.55,-25.8692 510.32,-33.0719 513.116,-26.6544"/>
</g>
<!-- \\acdhOeaw\\fedora\\exceptions\\AmbiguousMatch -->
<g id="node40" class="node"><title>\\acdhOeaw\\fedora\\exceptions\\AmbiguousMatch</title>
<polygon fill="none" stroke="black" points="731,-644 620,-644 620,-608 731,-608 731,-644"/>
<text text-anchor="middle" x="675.5" y="-623.2" font-family="Courier,monospace" font-size="11.00">AmbiguousMatch</text>
</g>
<!-- \\acdhOeaw\\fedora\\exceptions\\AmbiguousMatch&#45;&gt;\\Exception -->
<g id="edge27" class="edge"><title>\\acdhOeaw\\fedora\\exceptions\\AmbiguousMatch&#45;&gt;\\Exception</title>
<path fill="none" stroke="black" d="M619.81,-613.29C612.994,-609.661 606.759,-604.997 602,-599 447.678,-404.563 684.878,-239.789 531,-45 525.969,-38.6308 519.259,-33.7639 511.961,-30.0449"/>
<polygon fill="none" stroke="black" points="513.05,-26.7017 502.484,-25.9214 510.257,-33.1205 513.05,-26.7017"/>
</g>
<!-- \\acdhOeaw\\fedora\\exceptions\\AlreadyInCache -->
<g id="node41" class="node"><title>\\acdhOeaw\\fedora\\exceptions\\AlreadyInCache</title>
<polygon fill="none" stroke="black" points="731,-590 620,-590 620,-554 731,-554 731,-590"/>
<text text-anchor="middle" x="675.5" y="-569.2" font-family="Courier,monospace" font-size="11.00">AlreadyInCache</text>
</g>
<!-- \\acdhOeaw\\fedora\\exceptions\\AlreadyInCache&#45;&gt;\\Exception -->
<g id="edge30" class="edge"><title>\\acdhOeaw\\fedora\\exceptions\\AlreadyInCache&#45;&gt;\\Exception</title>
<path fill="none" stroke="black" d="M619.884,-559.231C613.057,-555.611 606.8,-550.964 602,-545 461.272,-370.145 671.328,-220.176 531,-45 525.925,-38.6652 519.193,-33.8162 511.886,-30.1046"/>
<polygon fill="none" stroke="black" points="512.97,-26.7595 502.403,-25.9853 510.181,-33.1799 512.97,-26.7595"/>
</g>
<!-- \\acdhOeaw\\fedora\\exceptions\\AclException -->
<g id="node42" class="node"><title>\\acdhOeaw\\fedora\\exceptions\\AclException</title>
<polygon fill="none" stroke="black" points="724.5,-536 626.5,-536 626.5,-500 724.5,-500 724.5,-536"/>
<text text-anchor="middle" x="675.5" y="-515.2" font-family="Courier,monospace" font-size="11.00">AclException</text>
</g>
<!-- \\acdhOeaw\\fedora\\exceptions\\AclException&#45;&gt;\\Exception -->
<g id="edge36" class="edge"><title>\\acdhOeaw\\fedora\\exceptions\\AclException&#45;&gt;\\Exception</title>
<path fill="none" stroke="black" d="M626.219,-508.125C617.011,-504.191 608.297,-498.69 602,-491 474.843,-335.697 657.802,-200.592 531,-45 525.872,-38.7081 519.113,-33.8814 511.794,-30.1791"/>
<polygon fill="none" stroke="black" points="512.872,-26.8317 502.305,-26.065 510.087,-33.2541 512.872,-26.8317"/>
</g>
<!-- \\acdhOeaw\\fedora\\acl\\WebAclRule -->
<g id="node43" class="node"><title>\\acdhOeaw\\fedora\\acl\\WebAclRule</title>
<polygon fill="none" stroke="black" points="717.5,-1074 633.5,-1074 633.5,-1038 717.5,-1038 717.5,-1074"/>
<text text-anchor="middle" x="675.5" y="-1053.2" font-family="Courier,monospace" font-size="11.00">WebAclRule</text>
</g>
<!-- \\acdhOeaw\\fedora\\acl\\WebAclRule&#45;&gt;\\acdhOeaw\\fedora\\FedoraResource -->
<g id="edge13" class="edge"><title>\\acdhOeaw\\fedora\\acl\\WebAclRule&#45;&gt;\\acdhOeaw\\fedora\\FedoraResource</title>
<path fill="none" stroke="black" d="M633.3,-1061.37C602.56,-1065.37 559.952,-1070.92 524.618,-1075.52"/>
<polygon fill="none" stroke="black" points="523.85,-1072.09 514.386,-1076.85 524.754,-1079.03 523.85,-1072.09"/>
</g>
<!-- \\acdhOeaw\\fedora\\acl\\WebAcl -->
<g id="node44" class="node"><title>\\acdhOeaw\\fedora\\acl\\WebAcl</title>
<polygon fill="none" stroke="black" points="704,-1020 647,-1020 647,-984 704,-984 704,-1020"/>
<text text-anchor="middle" x="675.5" y="-999.2" font-family="Courier,monospace" font-size="11.00">WebAcl</text>
</g>
<!-- \\acdhOeaw\\fedora\\metadataQuery\\Query -->
<g id="node45" class="node"><title>\\acdhOeaw\\fedora\\metadataQuery\\Query</title>
<polygon fill="none" stroke="black" points="485.5,-886 431.5,-886 431.5,-850 485.5,-850 485.5,-886"/>
<text text-anchor="middle" x="458.5" y="-865.2" font-family="Courier,monospace" font-size="11.00">Query</text>
</g>
<!-- \\acdhOeaw\\fedora\\metadataQuery\\HasValue -->
<g id="node46" class="node"><title>\\acdhOeaw\\fedora\\metadataQuery\\HasValue</title>
<polygon fill="none" stroke="black" points="494,-940 423,-940 423,-904 494,-904 494,-940"/>
<text text-anchor="middle" x="458.5" y="-919.2" font-family="Courier,monospace" font-size="11.00">HasValue</text>
</g>
<!-- \\acdhOeaw\\fedora\\metadataQuery\\HasProperty -->
<g id="node51" class="node"><title>\\acdhOeaw\\fedora\\metadataQuery\\HasProperty</title>
<polygon fill="none" stroke="black" points="314,-886 223,-886 223,-850 314,-850 314,-886"/>
<text text-anchor="middle" x="268.5" y="-865.2" font-family="Courier,monospace" font-size="11.00">HasProperty</text>
</g>
<!-- \\acdhOeaw\\fedora\\metadataQuery\\HasValue&#45;&gt;\\acdhOeaw\\fedora\\metadataQuery\\HasProperty -->
<g id="edge18" class="edge"><title>\\acdhOeaw\\fedora\\metadataQuery\\HasValue&#45;&gt;\\acdhOeaw\\fedora\\metadataQuery\\HasProperty</title>
<path fill="none" stroke="black" d="M422.579,-911.97C394.864,-904.009 355.626,-892.738 323.815,-883.601"/>
<polygon fill="none" stroke="black" points="324.78,-880.237 314.202,-880.84 322.847,-886.965 324.78,-880.237"/>
</g>
<!-- \\acdhOeaw\\fedora\\metadataQuery\\QueryParameter -->
<g id="node47" class="node"><title>\\acdhOeaw\\fedora\\metadataQuery\\QueryParameter</title>
<polygon fill="none" stroke="black" points="151,-886 40,-886 40,-850 151,-850 151,-886"/>
<text text-anchor="start" x="61.5" y="-871.2" font-family="Courier,monospace" font-size="11.00">«abstract»</text>
<text text-anchor="start" x="48" y="-859.2" font-family="Courier,monospace" font-size="11.00">QueryParameter</text>
</g>
<!-- \\acdhOeaw\\fedora\\metadataQuery\\MatchesRegEx -->
<g id="node48" class="node"><title>\\acdhOeaw\\fedora\\metadataQuery\\MatchesRegEx</title>
<polygon fill="none" stroke="black" points="724.5,-940 626.5,-940 626.5,-904 724.5,-904 724.5,-940"/>
<text text-anchor="middle" x="675.5" y="-919.2" font-family="Courier,monospace" font-size="11.00">MatchesRegEx</text>
</g>
<!-- \\acdhOeaw\\fedora\\metadataQuery\\MatchesRegEx&#45;&gt;\\acdhOeaw\\fedora\\metadataQuery\\HasValue -->
<g id="edge23" class="edge"><title>\\acdhOeaw\\fedora\\metadataQuery\\MatchesRegEx&#45;&gt;\\acdhOeaw\\fedora\\metadataQuery\\HasValue</title>
<path fill="none" stroke="black" d="M626.25,-922C589.74,-922 539.971,-922 504.328,-922"/>
<polygon fill="none" stroke="black" points="504.211,-918.5 494.211,-922 504.211,-925.5 504.211,-918.5"/>
</g>
<!-- \\acdhOeaw\\fedora\\metadataQuery\\SimpleQuery -->
<g id="node49" class="node"><title>\\acdhOeaw\\fedora\\metadataQuery\\SimpleQuery</title>
<polygon fill="none" stroke="black" points="721,-886 630,-886 630,-850 721,-850 721,-886"/>
<text text-anchor="middle" x="675.5" y="-865.2" font-family="Courier,monospace" font-size="11.00">SimpleQuery</text>
</g>
<!-- \\acdhOeaw\\fedora\\metadataQuery\\SimpleQuery&#45;&gt;\\acdhOeaw\\fedora\\metadataQuery\\Query -->
<g id="edge29" class="edge"><title>\\acdhOeaw\\fedora\\metadataQuery\\SimpleQuery&#45;&gt;\\acdhOeaw\\fedora\\metadataQuery\\Query</title>
<path fill="none" stroke="black" d="M629.952,-868C590.323,-868 533.07,-868 496.068,-868"/>
<polygon fill="none" stroke="black" points="495.739,-864.5 485.739,-868 495.739,-871.5 495.739,-864.5"/>
</g>
<!-- \\acdhOeaw\\fedora\\metadataQuery\\HasTriple -->
<g id="node50" class="node"><title>\\acdhOeaw\\fedora\\metadataQuery\\HasTriple</title>
<polygon fill="none" stroke="black" points="497,-832 420,-832 420,-796 497,-796 497,-832"/>
<text text-anchor="middle" x="458.5" y="-811.2" font-family="Courier,monospace" font-size="11.00">HasTriple</text>
</g>
<!-- \\acdhOeaw\\fedora\\metadataQuery\\HasTriple&#45;&gt;\\acdhOeaw\\fedora\\metadataQuery\\HasProperty -->
<g id="edge32" class="edge"><title>\\acdhOeaw\\fedora\\metadataQuery\\HasTriple&#45;&gt;\\acdhOeaw\\fedora\\metadataQuery\\HasProperty</title>
<path fill="none" stroke="black" d="M419.907,-824.798C392.447,-832.685 354.796,-843.5 324.034,-852.336"/>
<polygon fill="none" stroke="black" points="322.956,-849.004 314.31,-855.129 324.888,-855.732 322.956,-849.004"/>
</g>
<!-- \\acdhOeaw\\fedora\\metadataQuery\\HasProperty&#45;&gt;\\acdhOeaw\\fedora\\metadataQuery\\QueryParameter -->
<g id="edge37" class="edge"><title>\\acdhOeaw\\fedora\\metadataQuery\\HasProperty&#45;&gt;\\acdhOeaw\\fedora\\metadataQuery\\QueryParameter</title>
<path fill="none" stroke="black" d="M222.572,-868C203.864,-868 181.782,-868 161.369,-868"/>
<polygon fill="none" stroke="black" points="161.19,-864.5 151.19,-868 161.19,-871.5 161.19,-864.5"/>
</g>
<!-- \\acdhOeaw\\fedora\\Fedora -->
<g id="node52" class="node"><title>\\acdhOeaw\\fedora\\Fedora</title>
<polygon fill="none" stroke="black" points="704,-266 647,-266 647,-230 704,-230 704,-266"/>
<text text-anchor="middle" x="675.5" y="-245.2" font-family="Courier,monospace" font-size="11.00">Fedora</text>
</g>
<!-- \\acdhOeaw\\fedora\\SparqlClient -->
<g id="node54" class="node"><title>\\acdhOeaw\\fedora\\SparqlClient</title>
<polygon fill="none" stroke="black" points="724.5,-212 626.5,-212 626.5,-176 724.5,-176 724.5,-212"/>
<text text-anchor="middle" x="675.5" y="-191.2" font-family="Courier,monospace" font-size="11.00">SparqlClient</text>
</g>
<!-- \\acdhOeaw\\fedora\\FedoraCache -->
<g id="node55" class="node"><title>\\acdhOeaw\\fedora\\FedoraCache</title>
<polygon fill="none" stroke="black" points="721,-158 630,-158 630,-122 721,-122 721,-158"/>
<text text-anchor="middle" x="675.5" y="-137.2" font-family="Courier,monospace" font-size="11.00">FedoraCache</text>
</g>
</g>
</svg>
