<?xml version="1.0" encoding="UTF-8" standalone="no"?>
<!DOCTYPE svg PUBLIC "-//W3C//DTD SVG 1.1//EN"
 "http://www.w3.org/Graphics/SVG/1.1/DTD/svg11.dtd">
<!-- Generated by graphviz version 2.38.0 (20140413.2041)
 -->
<!-- Title: G Pages: 1 -->
<svg width="919pt" height="1146pt"
 viewBox="0.00 0.00 919.37 1146.00" xmlns="http://www.w3.org/2000/svg" xmlns:xlink="http://www.w3.org/1999/xlink">
<g id="graph0" class="graph" transform="scale(1 1) rotate(0) translate(4 1142)">
<title>G</title>
<polygon fill="white" stroke="none" points="-4,4 -4,-1142 915.367,-1142 915.367,4 -4,4"/>
<g id="clust1" class="cluster"><title>cluster_Global</title>
<path fill="none" stroke="gray" d="M20,-44C20,-44 891.367,-44 891.367,-44 897.367,-44 903.367,-50 903.367,-56 903.367,-56 903.367,-1118 903.367,-1118 903.367,-1124 897.367,-1130 891.367,-1130 891.367,-1130 20,-1130 20,-1130 14,-1130 8,-1124 8,-1118 8,-1118 8,-56 8,-56 8,-50 14,-44 20,-44"/>
<text text-anchor="middle" x="455.683" y="-1117.2" font-family="Times,serif" font-size="11.00" fill="gray">Global</text>
</g>
<g id="clust2" class="cluster"><title>cluster_\acdhOeaw</title>
<path fill="none" stroke="gray" d="M28,-52C28,-52 883.367,-52 883.367,-52 889.367,-52 895.367,-58 895.367,-64 895.367,-64 895.367,-1090 895.367,-1090 895.367,-1096 889.367,-1102 883.367,-1102 883.367,-1102 28,-1102 28,-1102 22,-1102 16,-1096 16,-1090 16,-1090 16,-64 16,-64 16,-58 22,-52 28,-52"/>
<text text-anchor="middle" x="455.683" y="-1089.2" font-family="Times,serif" font-size="11.00" fill="gray">acdhOeaw</text>
</g>
<g id="clust3" class="cluster"><title>cluster_\acdhOeaw\schema</title>
<path fill="none" stroke="gray" d="M304.589,-564C304.589,-564 849.867,-564 849.867,-564 855.867,-564 861.867,-570 861.867,-576 861.867,-576 861.867,-1062 861.867,-1062 861.867,-1068 855.867,-1074 849.867,-1074 849.867,-1074 304.589,-1074 304.589,-1074 298.589,-1074 292.589,-1068 292.589,-1062 292.589,-1062 292.589,-576 292.589,-576 292.589,-570 298.589,-564 304.589,-564"/>
<text text-anchor="middle" x="577.228" y="-1061.2" font-family="Times,serif" font-size="11.00" fill="gray">schema</text>
</g>
<g id="clust4" class="cluster"><title>cluster_\acdhOeaw\schema\dissemination</title>
<path fill="none" stroke="gray" d="M567.273,-652C567.273,-652 636.273,-652 636.273,-652 642.273,-652 648.273,-658 648.273,-664 648.273,-664 648.273,-766 648.273,-766 648.273,-772 642.273,-778 636.273,-778 636.273,-778 567.273,-778 567.273,-778 561.273,-778 555.273,-772 555.273,-766 555.273,-766 555.273,-664 555.273,-664 555.273,-658 561.273,-652 567.273,-652"/>
<text text-anchor="middle" x="601.773" y="-765.2" font-family="Times,serif" font-size="11.00" fill="gray">dissemination</text>
</g>
<g id="clust5" class="cluster"><title>cluster_\acdhOeaw\schema\redmine</title>
<path fill="none" stroke="gray" d="M563.773,-866C563.773,-866 838.367,-866 838.367,-866 844.367,-866 850.367,-872 850.367,-878 850.367,-878 850.367,-1034 850.367,-1034 850.367,-1040 844.367,-1046 838.367,-1046 838.367,-1046 563.773,-1046 563.773,-1046 557.773,-1046 551.773,-1040 551.773,-1034 551.773,-1034 551.773,-878 551.773,-878 551.773,-872 557.773,-866 563.773,-866"/>
<text text-anchor="middle" x="701.07" y="-1033.2" font-family="Times,serif" font-size="11.00" fill="gray">redmine</text>
</g>
<g id="clust6" class="cluster"><title>cluster_\acdhOeaw\schema\cirilo</title>
<path fill="none" stroke="gray" d="M573.773,-786C573.773,-786 629.773,-786 629.773,-786 635.773,-786 641.773,-792 641.773,-798 641.773,-798 641.773,-846 641.773,-846 641.773,-852 635.773,-858 629.773,-858 629.773,-858 573.773,-858 573.773,-858 567.773,-858 561.773,-852 561.773,-846 561.773,-846 561.773,-798 561.773,-798 561.773,-792 567.773,-786 573.773,-786"/>
<text text-anchor="middle" x="601.773" y="-845.2" font-family="Times,serif" font-size="11.00" fill="gray">cirilo</text>
</g>
<g id="clust7" class="cluster"><title>cluster_\acdhOeaw\schema\file</title>
<path fill="none" stroke="gray" d="M578.773,-572C578.773,-572 841.867,-572 841.867,-572 847.867,-572 853.867,-578 853.867,-584 853.867,-584 853.867,-632 853.867,-632 853.867,-638 847.867,-644 841.867,-644 841.867,-644 578.773,-644 578.773,-644 572.773,-644 566.773,-638 566.773,-632 566.773,-632 566.773,-584 566.773,-584 566.773,-578 572.773,-572 578.773,-572"/>
<text text-anchor="middle" x="710.32" y="-631.2" font-family="Times,serif" font-size="11.00" fill="gray">file</text>
</g>
<g id="clust8" class="cluster"><title>cluster_\acdhOeaw\util</title>
<path fill="none" stroke="gray" d="M745.367,-106C745.367,-106 875.367,-106 875.367,-106 881.367,-106 887.367,-112 887.367,-118 887.367,-118 887.367,-220 887.367,-220 887.367,-226 881.367,-232 875.367,-232 875.367,-232 745.367,-232 745.367,-232 739.367,-232 733.367,-226 733.367,-220 733.367,-220 733.367,-118 733.367,-118 733.367,-112 739.367,-106 745.367,-106"/>
<text text-anchor="middle" x="810.367" y="-219.2" font-family="Times,serif" font-size="11.00" fill="gray">util</text>
</g>
<g id="clust9" class="cluster"><title>cluster_\acdhOeaw\fedora</title>
<path fill="none" stroke="gray" d="M36,-240C36,-240 863.367,-240 863.367,-240 869.367,-240 875.367,-246 875.367,-252 875.367,-252 875.367,-544 875.367,-544 875.367,-550 869.367,-556 863.367,-556 863.367,-556 36,-556 36,-556 30,-556 24,-550 24,-544 24,-544 24,-252 24,-252 24,-246 30,-240 36,-240"/>
<text text-anchor="middle" x="449.683" y="-543.2" font-family="Times,serif" font-size="11.00" fill="gray">fedora</text>
</g>
<g id="clust10" class="cluster"><title>cluster_\acdhOeaw\fedora\metadataQuery</title>
<path fill="none" stroke="gray" d="M44,-402C44,-402 855.367,-402 855.367,-402 861.367,-402 867.367,-408 867.367,-414 867.367,-414 867.367,-516 867.367,-516 867.367,-522 861.367,-528 855.367,-528 855.367,-528 44,-528 44,-528 38,-528 32,-522 32,-516 32,-516 32,-414 32,-414 32,-408 38,-402 44,-402"/>
<text text-anchor="middle" x="449.683" y="-515.2" font-family="Times,serif" font-size="11.00" fill="gray">metadataQuery</text>
</g>
<!-- \\acdhOeaw\\schema\\dissemination\\Parameter -->
<g id="node1" class="node"><title>\\acdhOeaw\\schema\\dissemination\\Parameter</title>
<polygon fill="none" stroke="black" points="640.273,-750 563.273,-750 563.273,-714 640.273,-714 640.273,-750"/>
<text text-anchor="middle" x="601.773" y="-729.2" font-family="Courier,monospace" font-size="11.00">Parameter</text>
</g>
<!-- \\acdhOeaw\\schema\\Object -->
<g id="node10" class="node"><title>\\acdhOeaw\\schema\\Object</title>
<polygon fill="none" stroke="black" points="384.589,-790 300.589,-790 300.589,-754 384.589,-754 384.589,-790"/>
<text text-anchor="start" x="308.589" y="-775.2" font-family="Courier,monospace" font-size="11.00">«abstract»</text>
<text text-anchor="start" x="322.089" y="-763.2" font-family="Courier,monospace" font-size="11.00">Object</text>
</g>
<!-- \\acdhOeaw\\schema\\dissemination\\Parameter&#45;&gt;\\acdhOeaw\\schema\\Object -->
<g id="edge1" class="edge"><title>\\acdhOeaw\\schema\\dissemination\\Parameter&#45;&gt;\\acdhOeaw\\schema\\Object</title>
<path fill="none" stroke="black" d="M563.101,-737.859C518.59,-744.782 444.325,-756.333 394.665,-764.056"/>
<polygon fill="none" stroke="black" points="394.113,-760.6 384.769,-765.595 395.188,-767.517 394.113,-760.6"/>
</g>
<!-- \\acdhOeaw\\schema\\dissemination\\Service -->
<g id="node2" class="node"><title>\\acdhOeaw\\schema\\dissemination\\Service</title>
<polygon fill="none" stroke="black" points="633.773,-696 569.773,-696 569.773,-660 633.773,-660 633.773,-696"/>
<text text-anchor="middle" x="601.773" y="-675.2" font-family="Courier,monospace" font-size="11.00">Service</text>
</g>
<!-- \\acdhOeaw\\schema\\dissemination\\Service&#45;&gt;\\acdhOeaw\\schema\\Object -->
<g id="edge10" class="edge"><title>\\acdhOeaw\\schema\\dissemination\\Service&#45;&gt;\\acdhOeaw\\schema\\Object</title>
<path fill="none" stroke="black" d="M569.75,-689.339C526.234,-705.244 446.552,-734.367 394.333,-753.453"/>
<polygon fill="none" stroke="black" points="393.108,-750.175 384.917,-756.895 395.511,-756.749 393.108,-750.175"/>
</g>
<!-- \\acdhOeaw\\schema\\redmine\\Redmine -->
<g id="node3" class="node"><title>\\acdhOeaw\\schema\\redmine\\Redmine</title>
<polygon fill="none" stroke="black" points="643.773,-937 559.773,-937 559.773,-901 643.773,-901 643.773,-937"/>
<text text-anchor="start" x="567.773" y="-922.2" font-family="Courier,monospace" font-size="11.00">«abstract»</text>
<text text-anchor="start" x="577.773" y="-910.2" font-family="Courier,monospace" font-size="11.00">Redmine</text>
</g>
<!-- \\acdhOeaw\\schema\\redmine\\Redmine&#45;&gt;\\acdhOeaw\\schema\\Object -->
<g id="edge2" class="edge"><title>\\acdhOeaw\\schema\\redmine\\Redmine&#45;&gt;\\acdhOeaw\\schema\\Object</title>
<path fill="none" stroke="black" d="M569.237,-900.975C522.672,-874.36 435.514,-824.542 384.218,-795.223"/>
<polygon fill="none" stroke="black" points="385.802,-792.096 375.383,-790.173 382.328,-798.174 385.802,-792.096"/>
</g>
<!-- \\acdhOeaw\\schema\\redmine\\Issue -->
<g id="node4" class="node"><title>\\acdhOeaw\\schema\\redmine\\Issue</title>
<polygon fill="none" stroke="black" points="837.367,-1018 783.367,-1018 783.367,-982 837.367,-982 837.367,-1018"/>
<text text-anchor="middle" x="810.367" y="-997.2" font-family="Courier,monospace" font-size="11.00">Issue</text>
</g>
<!-- \\acdhOeaw\\schema\\redmine\\Issue&#45;&gt;\\acdhOeaw\\schema\\redmine\\Redmine -->
<g id="edge3" class="edge"><title>\\acdhOeaw\\schema\\redmine\\Issue&#45;&gt;\\acdhOeaw\\schema\\redmine\\Redmine</title>
<path fill="none" stroke="black" d="M783.218,-991.078C768.505,-985.966 749.837,-979.326 733.367,-973 706.779,-962.788 677.449,-950.733 653.332,-940.607"/>
<polygon fill="none" stroke="black" points="654.597,-937.341 644.023,-936.685 651.879,-943.792 654.597,-937.341"/>
</g>
<!-- \\acdhOeaw\\schema\\redmine\\Project -->
<g id="node5" class="node"><title>\\acdhOeaw\\schema\\redmine\\Project</title>
<polygon fill="none" stroke="black" points="842.367,-964 778.367,-964 778.367,-928 842.367,-928 842.367,-964"/>
<text text-anchor="middle" x="810.367" y="-943.2" font-family="Courier,monospace" font-size="11.00">Project</text>
</g>
<!-- \\acdhOeaw\\schema\\redmine\\Project&#45;&gt;\\acdhOeaw\\schema\\redmine\\Redmine -->
<g id="edge7" class="edge"><title>\\acdhOeaw\\schema\\redmine\\Project&#45;&gt;\\acdhOeaw\\schema\\redmine\\Redmine</title>
<path fill="none" stroke="black" d="M777.99,-941.899C745.142,-937.606 693.033,-930.796 654.168,-925.717"/>
<polygon fill="none" stroke="black" points="654.459,-922.225 644.089,-924.4 653.552,-929.166 654.459,-922.225"/>
</g>
<!-- \\acdhOeaw\\schema\\redmine\\User -->
<g id="node6" class="node"><title>\\acdhOeaw\\schema\\redmine\\User</title>
<polygon fill="none" stroke="black" points="837.367,-910 783.367,-910 783.367,-874 837.367,-874 837.367,-910"/>
<text text-anchor="middle" x="810.367" y="-889.2" font-family="Courier,monospace" font-size="11.00">User</text>
</g>
<!-- \\acdhOeaw\\schema\\redmine\\User&#45;&gt;\\acdhOeaw\\schema\\redmine\\Redmine -->
<g id="edge14" class="edge"><title>\\acdhOeaw\\schema\\redmine\\User&#45;&gt;\\acdhOeaw\\schema\\redmine\\Redmine</title>
<path fill="none" stroke="black" d="M783.202,-895.42C750.871,-899.645 695.12,-906.931 654.124,-912.289"/>
<polygon fill="none" stroke="black" points="653.505,-908.84 644.043,-913.606 654.412,-915.781 653.505,-908.84"/>
</g>
<!-- \\acdhOeaw\\schema\\cirilo\\Service -->
<g id="node7" class="node"><title>\\acdhOeaw\\schema\\cirilo\\Service</title>
<polygon fill="none" stroke="black" points="633.773,-830 569.773,-830 569.773,-794 633.773,-794 633.773,-830"/>
<text text-anchor="middle" x="601.773" y="-809.2" font-family="Courier,monospace" font-size="11.00">Service</text>
</g>
<!-- \\acdhOeaw\\schema\\cirilo\\Service&#45;&gt;\\acdhOeaw\\schema\\Object -->
<g id="edge4" class="edge"><title>\\acdhOeaw\\schema\\cirilo\\Service&#45;&gt;\\acdhOeaw\\schema\\Object</title>
<path fill="none" stroke="black" d="M569.75,-807.175C526.414,-800.435 447.212,-788.117 394.984,-779.994"/>
<polygon fill="none" stroke="black" points="395.336,-776.506 384.917,-778.428 394.26,-783.423 395.336,-776.506"/>
</g>
<!-- \\acdhOeaw\\schema\\file\\CmdiFile -->
<g id="node8" class="node"><title>\\acdhOeaw\\schema\\file\\CmdiFile</title>
<polygon fill="none" stroke="black" points="845.867,-616 774.867,-616 774.867,-580 845.867,-580 845.867,-616"/>
<text text-anchor="middle" x="810.367" y="-595.2" font-family="Courier,monospace" font-size="11.00">CmdiFile</text>
</g>
<!-- \\acdhOeaw\\schema\\file\\File -->
<g id="node9" class="node"><title>\\acdhOeaw\\schema\\file\\File</title>
<polygon fill="none" stroke="black" points="628.773,-616 574.773,-616 574.773,-580 628.773,-580 628.773,-616"/>
<text text-anchor="middle" x="601.773" y="-595.2" font-family="Courier,monospace" font-size="11.00">File</text>
</g>
<!-- \\acdhOeaw\\schema\\file\\CmdiFile&#45;&gt;\\acdhOeaw\\schema\\file\\File -->
<g id="edge5" class="edge"><title>\\acdhOeaw\\schema\\file\\CmdiFile&#45;&gt;\\acdhOeaw\\schema\\file\\File</title>
<path fill="none" stroke="black" d="M774.788,-598C737.199,-598 677.393,-598 639.123,-598"/>
<polygon fill="none" stroke="black" points="638.936,-594.5 628.936,-598 638.936,-601.5 638.936,-594.5"/>
</g>
<!-- \\acdhOeaw\\schema\\file\\Object -->
<g id="node23" class="node"><title>\\acdhOeaw\\schema\\file\\Object</title>
<ellipse fill="none" stroke="black" cx="342.589" cy="-18" rx="119.679" ry="18"/>
<text text-anchor="middle" x="342.589" y="-14.3" font-family="Times,serif" font-size="14.00" fill="gray">\acdhOeaw\schema\file\Object</text>
</g>
<!-- \\acdhOeaw\\schema\\file\\File&#45;&gt;\\acdhOeaw\\schema\\file\\Object -->
<g id="edge8" class="edge"><title>\\acdhOeaw\\schema\\file\\File&#45;&gt;\\acdhOeaw\\schema\\file\\Object</title>
<path fill="none" stroke="black" d="M577.866,-579.81C563.687,-567.558 545.995,-550.334 534.179,-532 426.121,-364.331 367.25,-126.679 349.456,-46.0224"/>
<polygon fill="none" stroke="black" points="352.849,-45.1575 347.307,-36.1283 346.009,-46.6434 352.849,-45.1575"/>
</g>
<!-- \\acdhOeaw\\util\\Indexer -->
<g id="node11" class="node"><title>\\acdhOeaw\\util\\Indexer</title>
<polygon fill="none" stroke="black" points="842.367,-204 778.367,-204 778.367,-168 842.367,-168 842.367,-204"/>
<text text-anchor="middle" x="810.367" y="-183.2" font-family="Courier,monospace" font-size="11.00">Indexer</text>
</g>
<!-- \\acdhOeaw\\util\\MetadataCollection -->
<g id="node12" class="node"><title>\\acdhOeaw\\util\\MetadataCollection</title>
<polygon fill="none" stroke="black" points="879.367,-150 741.367,-150 741.367,-114 879.367,-114 879.367,-150"/>
<text text-anchor="middle" x="810.367" y="-129.2" font-family="Courier,monospace" font-size="11.00">MetadataCollection</text>
</g>
<!-- \\EasyRdf\\Graph -->
<g id="node24" class="node"><title>\\EasyRdf\\Graph</title>
<ellipse fill="none" stroke="black" cx="601.773" cy="-18" rx="67.6881" ry="18"/>
<text text-anchor="middle" x="601.773" y="-14.3" font-family="Times,serif" font-size="14.00" fill="gray">\EasyRdf\Graph</text>
</g>
<!-- \\acdhOeaw\\util\\MetadataCollection&#45;&gt;\\EasyRdf\\Graph -->
<g id="edge11" class="edge"><title>\\acdhOeaw\\util\\MetadataCollection&#45;&gt;\\EasyRdf\\Graph</title>
<path fill="none" stroke="black" d="M742.174,-113.9C739.164,-112.667 736.215,-111.368 733.367,-110 695.183,-91.6613 656.076,-62.4573 630.739,-41.8806"/>
<polygon fill="none" stroke="black" points="632.642,-38.9132 622.696,-35.2613 628.194,-44.3182 632.642,-38.9132"/>
</g>
<!-- \\acdhOeaw\\fedora\\metadataQuery\\Query -->
<g id="node13" class="node"><title>\\acdhOeaw\\fedora\\metadataQuery\\Query</title>
<polygon fill="none" stroke="black" points="837.367,-500 783.367,-500 783.367,-464 837.367,-464 837.367,-500"/>
<text text-anchor="middle" x="810.367" y="-479.2" font-family="Courier,monospace" font-size="11.00">Query</text>
</g>
<!-- \\acdhOeaw\\fedora\\metadataQuery\\HasValue -->
<g id="node14" class="node"><title>\\acdhOeaw\\fedora\\metadataQuery\\HasValue</title>
<polygon fill="none" stroke="black" points="637.273,-500 566.273,-500 566.273,-464 637.273,-464 637.273,-500"/>
<text text-anchor="middle" x="601.773" y="-479.2" font-family="Courier,monospace" font-size="11.00">HasValue</text>
</g>
<!-- \\acdhOeaw\\fedora\\metadataQuery\\HasProperty -->
<g id="node18" class="node"><title>\\acdhOeaw\\fedora\\metadataQuery\\HasProperty</title>
<polygon fill="none" stroke="black" points="388.089,-473 297.089,-473 297.089,-437 388.089,-437 388.089,-473"/>
<text text-anchor="middle" x="342.589" y="-452.2" font-family="Courier,monospace" font-size="11.00">HasProperty</text>
</g>
<!-- \\acdhOeaw\\fedora\\metadataQuery\\HasValue&#45;&gt;\\acdhOeaw\\fedora\\metadataQuery\\HasProperty -->
<g id="edge6" class="edge"><title>\\acdhOeaw\\fedora\\metadataQuery\\HasValue&#45;&gt;\\acdhOeaw\\fedora\\metadataQuery\\HasProperty</title>
<path fill="none" stroke="black" d="M566.088,-478.359C523.117,-473.847 449.383,-466.107 398.65,-460.78"/>
<polygon fill="none" stroke="black" points="398.82,-457.279 388.509,-459.716 398.089,-464.241 398.82,-457.279"/>
</g>
<!-- \\acdhOeaw\\fedora\\metadataQuery\\QueryParameter -->
<g id="node15" class="node"><title>\\acdhOeaw\\fedora\\metadataQuery\\QueryParameter</title>
<polygon fill="none" stroke="black" points="151,-473 40,-473 40,-437 151,-437 151,-473"/>
<text text-anchor="start" x="61.5" y="-458.2" font-family="Courier,monospace" font-size="11.00">«abstract»</text>
<text text-anchor="start" x="48" y="-446.2" font-family="Courier,monospace" font-size="11.00">QueryParameter</text>
</g>
<!-- \\acdhOeaw\\fedora\\metadataQuery\\MatchesRegEx -->
<g id="node16" class="node"><title>\\acdhOeaw\\fedora\\metadataQuery\\MatchesRegEx</title>
<polygon fill="none" stroke="black" points="859.367,-446 761.367,-446 761.367,-410 859.367,-410 859.367,-446"/>
<text text-anchor="middle" x="810.367" y="-425.2" font-family="Courier,monospace" font-size="11.00">MatchesRegEx</text>
</g>
<!-- \\acdhOeaw\\fedora\\metadataQuery\\MatchesRegEx&#45;&gt;\\acdhOeaw\\fedora\\metadataQuery\\HasValue -->
<g id="edge9" class="edge"><title>\\acdhOeaw\\fedora\\metadataQuery\\MatchesRegEx&#45;&gt;\\acdhOeaw\\fedora\\metadataQuery\\HasValue</title>
<path fill="none" stroke="black" d="M761.19,-440.592C726.829,-449.574 680.96,-461.563 647.424,-470.329"/>
<polygon fill="none" stroke="black" points="646.228,-467.024 637.438,-472.939 647.998,-473.796 646.228,-467.024"/>
</g>
<!-- \\acdhOeaw\\fedora\\metadataQuery\\HasTriple -->
<g id="node17" class="node"><title>\\acdhOeaw\\fedora\\metadataQuery\\HasTriple</title>
<polygon fill="none" stroke="black" points="640.273,-446 563.273,-446 563.273,-410 640.273,-410 640.273,-446"/>
<text text-anchor="middle" x="601.773" y="-425.2" font-family="Courier,monospace" font-size="11.00">HasTriple</text>
</g>
<!-- \\acdhOeaw\\fedora\\metadataQuery\\HasTriple&#45;&gt;\\acdhOeaw\\fedora\\metadataQuery\\HasProperty -->
<g id="edge12" class="edge"><title>\\acdhOeaw\\fedora\\metadataQuery\\HasTriple&#45;&gt;\\acdhOeaw\\fedora\\metadataQuery\\HasProperty</title>
<path fill="none" stroke="black" d="M563.101,-431.955C519.725,-436.509 448.093,-444.029 398.511,-449.234"/>
<polygon fill="none" stroke="black" points="397.863,-445.783 388.283,-450.308 398.594,-452.745 397.863,-445.783"/>
</g>
<!-- \\acdhOeaw\\fedora\\metadataQuery\\HasProperty&#45;&gt;\\acdhOeaw\\fedora\\metadataQuery\\QueryParameter -->
<g id="edge13" class="edge"><title>\\acdhOeaw\\fedora\\metadataQuery\\HasProperty&#45;&gt;\\acdhOeaw\\fedora\\metadataQuery\\QueryParameter</title>
<path fill="none" stroke="black" d="M296.921,-455C258.958,-455 203.968,-455 161.188,-455"/>
<polygon fill="none" stroke="black" points="161.15,-451.5 151.15,-455 161.15,-458.5 161.15,-451.5"/>
</g>
<!-- \\acdhOeaw\\fedora\\Fedora -->
<g id="node19" class="node"><title>\\acdhOeaw\\fedora\\Fedora</title>
<polygon fill="none" stroke="black" points="838.867,-392 781.867,-392 781.867,-356 838.867,-356 838.867,-392"/>
<text text-anchor="middle" x="810.367" y="-371.2" font-family="Courier,monospace" font-size="11.00">Fedora</text>
</g>
<!-- \\acdhOeaw\\fedora\\FedoraResource -->
<g id="node20" class="node"><title>\\acdhOeaw\\fedora\\FedoraResource</title>
<polygon fill="none" stroke="black" points="865.867,-338 754.867,-338 754.867,-302 865.867,-302 865.867,-338"/>
<text text-anchor="middle" x="810.367" y="-317.2" font-family="Courier,monospace" font-size="11.00">FedoraResource</text>
</g>
<!-- \\acdhOeaw\\fedora\\SparqlClient -->
<g id="node21" class="node"><title>\\acdhOeaw\\fedora\\SparqlClient</title>
<polygon fill="none" stroke="black" points="859.367,-284 761.367,-284 761.367,-248 859.367,-248 859.367,-284"/>
<text text-anchor="middle" x="810.367" y="-263.2" font-family="Courier,monospace" font-size="11.00">SparqlClient</text>
</g>
<!-- \\acdhOeaw\\RepoConfig -->
<g id="node22" class="node"><title>\\acdhOeaw\\RepoConfig</title>
<polygon fill="none" stroke="black" points="852.367,-96 768.367,-96 768.367,-60 852.367,-60 852.367,-96"/>
<text text-anchor="middle" x="810.367" y="-75.2" font-family="Courier,monospace" font-size="11.00">RepoConfig</text>
</g>
</g>
</svg>
