<?xml version="1.0" encoding="UTF-8" standalone="no"?>
<!DOCTYPE svg PUBLIC "-//W3C//DTD SVG 1.1//EN"
 "http://www.w3.org/Graphics/SVG/1.1/DTD/svg11.dtd">
<!-- Generated by graphviz version 2.38.0 (20140413.2041)
 -->
<!-- Title: G Pages: 1 -->
<svg width="781pt" height="1156pt"
 viewBox="0.00 0.00 781.00 1156.00" xmlns="http://www.w3.org/2000/svg" xmlns:xlink="http://www.w3.org/1999/xlink">
<g id="graph0" class="graph" transform="scale(1 1) rotate(0) translate(4 1152)">
<title>G</title>
<polygon fill="white" stroke="none" points="-4,4 -4,-1152 777,-1152 777,4 -4,4"/>
<g id="clust1" class="cluster"><title>cluster_Global</title>
<path fill="none" stroke="gray" d="M20,-44C20,-44 753,-44 753,-44 759,-44 765,-50 765,-56 765,-56 765,-1128 765,-1128 765,-1134 759,-1140 753,-1140 753,-1140 20,-1140 20,-1140 14,-1140 8,-1134 8,-1128 8,-1128 8,-56 8,-56 8,-50 14,-44 20,-44"/>
<text text-anchor="middle" x="386.5" y="-1127.2" font-family="Times,serif" font-size="11.00" fill="gray">Global</text>
</g>
<g id="clust2" class="cluster"><title>cluster_\acdhOeaw</title>
<path fill="none" stroke="gray" d="M28,-52C28,-52 745,-52 745,-52 751,-52 757,-58 757,-64 757,-64 757,-1100 757,-1100 757,-1106 751,-1112 745,-1112 745,-1112 28,-1112 28,-1112 22,-1112 16,-1106 16,-1100 16,-1100 16,-64 16,-64 16,-58 22,-52 28,-52"/>
<text text-anchor="middle" x="386.5" y="-1099.2" font-family="Times,serif" font-size="11.00" fill="gray">acdhOeaw</text>
</g>
<g id="clust3" class="cluster"><title>cluster_\acdhOeaw\util</title>
<path fill="none" stroke="gray" d="M382,-822C382,-822 737,-822 737,-822 743,-822 749,-828 749,-834 749,-834 749,-1072 749,-1072 749,-1078 743,-1084 737,-1084 737,-1084 382,-1084 382,-1084 376,-1084 370,-1078 370,-1072 370,-1072 370,-834 370,-834 370,-828 376,-822 382,-822"/>
<text text-anchor="middle" x="559.5" y="-1071.2" font-family="Times,serif" font-size="11.00" fill="gray">util</text>
</g>
<g id="clust4" class="cluster"><title>cluster_\acdhOeaw\util\metaLookup</title>
<path fill="none" stroke="gray" d="M390,-984C390,-984 723.5,-984 723.5,-984 729.5,-984 735.5,-990 735.5,-996 735.5,-996 735.5,-1044 735.5,-1044 735.5,-1050 729.5,-1056 723.5,-1056 723.5,-1056 390,-1056 390,-1056 384,-1056 378,-1050 378,-1044 378,-1044 378,-996 378,-996 378,-990 384,-984 390,-984"/>
<text text-anchor="middle" x="556.75" y="-1043.2" font-family="Times,serif" font-size="11.00" fill="gray">metaLookup</text>
</g>
<g id="clust5" class="cluster"><title>cluster_\acdhOeaw\schema</title>
<path fill="none" stroke="gray" d="M230.5,-384C230.5,-384 728,-384 728,-384 734,-384 740,-390 740,-396 740,-396 740,-802 740,-802 740,-808 734,-814 728,-814 728,-814 230.5,-814 230.5,-814 224.5,-814 218.5,-808 218.5,-802 218.5,-802 218.5,-396 218.5,-396 218.5,-390 224.5,-384 230.5,-384"/>
<text text-anchor="middle" x="479.25" y="-801.2" font-family="Times,serif" font-size="11.00" fill="gray">schema</text>
</g>
<g id="clust6" class="cluster"><title>cluster_\acdhOeaw\schema\dissemination</title>
<path fill="none" stroke="gray" d="M430.5,-660C430.5,-660 720,-660 720,-660 726,-660 732,-666 732,-672 732,-672 732,-774 732,-774 732,-780 726,-786 720,-786 720,-786 430.5,-786 430.5,-786 424.5,-786 418.5,-780 418.5,-774 418.5,-774 418.5,-672 418.5,-672 418.5,-666 424.5,-660 430.5,-660"/>
<text text-anchor="middle" x="575.25" y="-773.2" font-family="Times,serif" font-size="11.00" fill="gray">dissemination</text>
</g>
<g id="clust7" class="cluster"><title>cluster_\acdhOeaw\schema\redmine</title>
<path fill="none" stroke="gray" d="M420.5,-472C420.5,-472 700,-472 700,-472 706,-472 712,-478 712,-484 712,-484 712,-640 712,-640 712,-646 706,-652 700,-652 700,-652 420.5,-652 420.5,-652 414.5,-652 408.5,-646 408.5,-640 408.5,-640 408.5,-484 408.5,-484 408.5,-478 414.5,-472 420.5,-472"/>
<text text-anchor="middle" x="560.25" y="-639.2" font-family="Times,serif" font-size="11.00" fill="gray">redmine</text>
</g>
<g id="clust8" class="cluster"><title>cluster_\acdhOeaw\schema\file</title>
<path fill="none" stroke="gray" d="M435.5,-392C435.5,-392 703.5,-392 703.5,-392 709.5,-392 715.5,-398 715.5,-404 715.5,-404 715.5,-452 715.5,-452 715.5,-458 709.5,-464 703.5,-464 703.5,-464 435.5,-464 435.5,-464 429.5,-464 423.5,-458 423.5,-452 423.5,-452 423.5,-404 423.5,-404 423.5,-398 429.5,-392 435.5,-392"/>
<text text-anchor="middle" x="569.5" y="-451.2" font-family="Times,serif" font-size="11.00" fill="gray">file</text>
</g>
<g id="clust9" class="cluster"><title>cluster_\acdhOeaw\fedora</title>
<path fill="none" stroke="gray" d="M36,-60C36,-60 725,-60 725,-60 731,-60 737,-66 737,-72 737,-72 737,-364 737,-364 737,-370 731,-376 725,-376 725,-376 36,-376 36,-376 30,-376 24,-370 24,-364 24,-364 24,-72 24,-72 24,-66 30,-60 36,-60"/>
<text text-anchor="middle" x="380.5" y="-363.2" font-family="Times,serif" font-size="11.00" fill="gray">fedora</text>
</g>
<g id="clust10" class="cluster"><title>cluster_\acdhOeaw\fedora\metadataQuery</title>
<path fill="none" stroke="gray" d="M44,-222C44,-222 717,-222 717,-222 723,-222 729,-228 729,-234 729,-234 729,-336 729,-336 729,-342 723,-348 717,-348 717,-348 44,-348 44,-348 38,-348 32,-342 32,-336 32,-336 32,-234 32,-234 32,-228 38,-222 44,-222"/>
<text text-anchor="middle" x="380.5" y="-335.2" font-family="Times,serif" font-size="11.00" fill="gray">metadataQuery</text>
</g>
<!-- \\acdhOeaw\\util\\metaLookup\\MetaLookupFile -->
<g id="node1" class="node"><title>\\acdhOeaw\\util\\metaLookup\\MetaLookupFile</title>
<polygon fill="none" stroke="black" points="727.5,-1028 616.5,-1028 616.5,-992 727.5,-992 727.5,-1028"/>
<text text-anchor="middle" x="672" y="-1007.2" font-family="Courier,monospace" font-size="11.00">MetaLookupFile</text>
</g>
<!-- \\acdhOeaw\\util\\metaLookup\\MetaLookupInterface -->
<g id="node2" class="node"><title>\\acdhOeaw\\util\\metaLookup\\MetaLookupInterface</title>
<polygon fill="none" stroke="black" points="531,-1028 386,-1028 386,-992 531,-992 531,-1028"/>
<text text-anchor="middle" x="458.5" y="-1007.2" font-family="Courier,monospace" font-size="11.00">MetaLookupInterface</text>
</g>
<!-- \\acdhOeaw\\util\\metaLookup\\MetaLookupFile&#45;&gt;\\acdhOeaw\\util\\metaLookup\\MetaLookupInterface -->
<g id="edge3" class="edge"><title>\\acdhOeaw\\util\\metaLookup\\MetaLookupFile&#45;&gt;\\acdhOeaw\\util\\metaLookup\\MetaLookupInterface</title>
<path fill="none" stroke="black" stroke-dasharray="1,5" d="M616.258,-1010C593.453,-1010 566.485,-1010 541.405,-1010"/>
<polygon fill="none" stroke="black" points="541.162,-1006.5 531.162,-1010 541.162,-1013.5 541.162,-1006.5"/>
</g>
<!-- \\acdhOeaw\\util\\RepoConfig -->
<g id="node3" class="node"><title>\\acdhOeaw\\util\\RepoConfig</title>
<polygon fill="none" stroke="black" points="714,-974 630,-974 630,-938 714,-938 714,-974"/>
<text text-anchor="middle" x="672" y="-953.2" font-family="Courier,monospace" font-size="11.00">RepoConfig</text>
</g>
<!-- \\acdhOeaw\\util\\Indexer -->
<g id="node4" class="node"><title>\\acdhOeaw\\util\\Indexer</title>
<polygon fill="none" stroke="black" points="704,-920 640,-920 640,-884 704,-884 704,-920"/>
<text text-anchor="middle" x="672" y="-899.2" font-family="Courier,monospace" font-size="11.00">Indexer</text>
</g>
<!-- \\acdhOeaw\\util\\MetadataCollection -->
<g id="node5" class="node"><title>\\acdhOeaw\\util\\MetadataCollection</title>
<polygon fill="none" stroke="black" points="741,-866 603,-866 603,-830 741,-830 741,-866"/>
<text text-anchor="middle" x="672" y="-845.2" font-family="Courier,monospace" font-size="11.00">MetadataCollection</text>
</g>
<!-- \\EasyRdf\\Graph -->
<g id="node25" class="node"><title>\\EasyRdf\\Graph</title>
<ellipse fill="none" stroke="black" cx="458.5" cy="-18" rx="67.6881" ry="18"/>
<text text-anchor="middle" x="458.5" y="-14.3" font-family="Times,serif" font-size="14.00" fill="gray">\EasyRdf\Graph</text>
</g>
<!-- \\acdhOeaw\\util\\MetadataCollection&#45;&gt;\\EasyRdf\\Graph -->
<g id="edge12" class="edge"><title>\\acdhOeaw\\util\\MetadataCollection&#45;&gt;\\EasyRdf\\Graph</title>
<path fill="none" stroke="black" d="M640.955,-829.907C627.08,-819.924 611.77,-806.249 603,-790 481.305,-564.516 590.481,-467.229 531,-218 515.874,-154.62 487.562,-83.444 471.475,-45.4337"/>
<polygon fill="none" stroke="black" points="474.621,-43.8882 467.474,-36.0674 468.184,-46.6384 474.621,-43.8882"/>
</g>
<!-- \\acdhOeaw\\schema\\dissemination\\Parameter -->
<g id="node6" class="node"><title>\\acdhOeaw\\schema\\dissemination\\Parameter</title>
<polygon fill="none" stroke="black" points="710.5,-758 633.5,-758 633.5,-722 710.5,-722 710.5,-758"/>
<text text-anchor="middle" x="672" y="-737.2" font-family="Courier,monospace" font-size="11.00">Parameter</text>
</g>
<!-- \\acdhOeaw\\schema\\Object -->
<g id="node15" class="node"><title>\\acdhOeaw\\schema\\Object</title>
<polygon fill="none" stroke="black" points="310.5,-650 226.5,-650 226.5,-614 310.5,-614 310.5,-650"/>
<text text-anchor="start" x="234.5" y="-635.2" font-family="Courier,monospace" font-size="11.00">«abstract»</text>
<text text-anchor="start" x="248" y="-623.2" font-family="Courier,monospace" font-size="11.00">Object</text>
</g>
<!-- \\acdhOeaw\\schema\\dissemination\\Parameter&#45;&gt;\\acdhOeaw\\schema\\Object -->
<g id="edge1" class="edge"><title>\\acdhOeaw\\schema\\dissemination\\Parameter&#45;&gt;\\acdhOeaw\\schema\\Object</title>
<path fill="none" stroke="black" d="M633.249,-743.438C574.583,-747.307 459.025,-748.963 370,-713 339.734,-700.774 311.372,-676.236 292.547,-657.356"/>
<polygon fill="none" stroke="black" points="295.052,-654.911 285.573,-650.179 290.032,-659.789 295.052,-654.911"/>
</g>
<!-- \\acdhOeaw\\schema\\dissemination\\CiriloService -->
<g id="node7" class="node"><title>\\acdhOeaw\\schema\\dissemination\\CiriloService</title>
<polygon fill="none" stroke="black" points="724,-704 620,-704 620,-668 724,-668 724,-704"/>
<text text-anchor="middle" x="672" y="-683.2" font-family="Courier,monospace" font-size="11.00">CiriloService</text>
</g>
<!-- \\acdhOeaw\\schema\\dissemination\\Service -->
<g id="node8" class="node"><title>\\acdhOeaw\\schema\\dissemination\\Service</title>
<polygon fill="none" stroke="black" points="490.5,-704 426.5,-704 426.5,-668 490.5,-668 490.5,-704"/>
<text text-anchor="middle" x="458.5" y="-683.2" font-family="Courier,monospace" font-size="11.00">Service</text>
</g>
<!-- \\acdhOeaw\\schema\\dissemination\\CiriloService&#45;&gt;\\acdhOeaw\\schema\\dissemination\\Service -->
<g id="edge4" class="edge"><title>\\acdhOeaw\\schema\\dissemination\\CiriloService&#45;&gt;\\acdhOeaw\\schema\\dissemination\\Service</title>
<path fill="none" stroke="black" d="M619.802,-686C583.24,-686 534.699,-686 500.646,-686"/>
<polygon fill="none" stroke="black" points="500.573,-682.5 490.573,-686 500.573,-689.5 500.573,-682.5"/>
</g>
<!-- \\acdhOeaw\\schema\\dissemination\\Service&#45;&gt;\\acdhOeaw\\schema\\Object -->
<g id="edge11" class="edge"><title>\\acdhOeaw\\schema\\dissemination\\Service&#45;&gt;\\acdhOeaw\\schema\\Object</title>
<path fill="none" stroke="black" d="M426.456,-677.083C397.694,-668.822 354.38,-656.381 320.535,-646.659"/>
<polygon fill="none" stroke="black" points="321.39,-643.263 310.812,-643.866 319.457,-649.991 321.39,-643.263"/>
</g>
<!-- \\acdhOeaw\\schema\\redmine\\Redmine -->
<g id="node9" class="node"><title>\\acdhOeaw\\schema\\redmine\\Redmine</title>
<polygon fill="none" stroke="black" points="500.5,-597 416.5,-597 416.5,-561 500.5,-561 500.5,-597"/>
<text text-anchor="start" x="424.5" y="-582.2" font-family="Courier,monospace" font-size="11.00">«abstract»</text>
<text text-anchor="start" x="434.5" y="-570.2" font-family="Courier,monospace" font-size="11.00">Redmine</text>
</g>
<!-- \\acdhOeaw\\schema\\redmine\\Redmine&#45;&gt;\\acdhOeaw\\schema\\Object -->
<g id="edge2" class="edge"><title>\\acdhOeaw\\schema\\redmine\\Redmine&#45;&gt;\\acdhOeaw\\schema\\Object</title>
<path fill="none" stroke="black" d="M416.243,-590.631C388.081,-598.57 350.581,-609.142 320.539,-617.611"/>
<polygon fill="none" stroke="black" points="319.336,-614.314 310.661,-620.396 321.236,-621.051 319.336,-614.314"/>
</g>
<!-- \\acdhOeaw\\schema\\redmine\\Issue -->
<g id="node10" class="node"><title>\\acdhOeaw\\schema\\redmine\\Issue</title>
<polygon fill="none" stroke="black" points="699,-624 645,-624 645,-588 699,-588 699,-624"/>
<text text-anchor="middle" x="672" y="-603.2" font-family="Courier,monospace" font-size="11.00">Issue</text>
</g>
<!-- \\acdhOeaw\\schema\\redmine\\Issue&#45;&gt;\\acdhOeaw\\schema\\redmine\\Redmine -->
<g id="edge5" class="edge"><title>\\acdhOeaw\\schema\\redmine\\Issue&#45;&gt;\\acdhOeaw\\schema\\redmine\\Redmine</title>
<path fill="none" stroke="black" d="M644.641,-602.635C611.291,-598.378 553.116,-590.951 510.861,-585.557"/>
<polygon fill="none" stroke="black" points="511.119,-582.061 500.756,-584.267 510.232,-589.005 511.119,-582.061"/>
</g>
<!-- \\acdhOeaw\\schema\\redmine\\Project -->
<g id="node11" class="node"><title>\\acdhOeaw\\schema\\redmine\\Project</title>
<polygon fill="none" stroke="black" points="704,-570 640,-570 640,-534 704,-534 704,-570"/>
<text text-anchor="middle" x="672" y="-549.2" font-family="Courier,monospace" font-size="11.00">Project</text>
</g>
<!-- \\acdhOeaw\\schema\\redmine\\Project&#45;&gt;\\acdhOeaw\\schema\\redmine\\Redmine -->
<g id="edge8" class="edge"><title>\\acdhOeaw\\schema\\redmine\\Project&#45;&gt;\\acdhOeaw\\schema\\redmine\\Redmine</title>
<path fill="none" stroke="black" d="M639.792,-555.984C605.861,-560.316 551.097,-567.307 510.818,-572.449"/>
<polygon fill="none" stroke="black" points="510.128,-569.008 500.652,-573.747 511.015,-575.952 510.128,-569.008"/>
</g>
<!-- \\acdhOeaw\\schema\\redmine\\User -->
<g id="node12" class="node"><title>\\acdhOeaw\\schema\\redmine\\User</title>
<polygon fill="none" stroke="black" points="699,-516 645,-516 645,-480 699,-480 699,-516"/>
<text text-anchor="middle" x="672" y="-495.2" font-family="Courier,monospace" font-size="11.00">User</text>
</g>
<!-- \\acdhOeaw\\schema\\redmine\\User&#45;&gt;\\acdhOeaw\\schema\\redmine\\Redmine -->
<g id="edge15" class="edge"><title>\\acdhOeaw\\schema\\redmine\\User&#45;&gt;\\acdhOeaw\\schema\\redmine\\Redmine</title>
<path fill="none" stroke="black" d="M644.641,-508.095C611.15,-520.921 552.624,-543.336 510.325,-559.535"/>
<polygon fill="none" stroke="black" points="508.843,-556.355 500.756,-563.2 511.346,-562.892 508.843,-556.355"/>
</g>
<!-- \\acdhOeaw\\schema\\file\\CmdiFile -->
<g id="node13" class="node"><title>\\acdhOeaw\\schema\\file\\CmdiFile</title>
<polygon fill="none" stroke="black" points="707.5,-436 636.5,-436 636.5,-400 707.5,-400 707.5,-436"/>
<text text-anchor="middle" x="672" y="-415.2" font-family="Courier,monospace" font-size="11.00">CmdiFile</text>
</g>
<!-- \\acdhOeaw\\schema\\file\\File -->
<g id="node14" class="node"><title>\\acdhOeaw\\schema\\file\\File</title>
<polygon fill="none" stroke="black" points="485.5,-436 431.5,-436 431.5,-400 485.5,-400 485.5,-436"/>
<text text-anchor="middle" x="458.5" y="-415.2" font-family="Courier,monospace" font-size="11.00">File</text>
</g>
<!-- \\acdhOeaw\\schema\\file\\CmdiFile&#45;&gt;\\acdhOeaw\\schema\\file\\File -->
<g id="edge6" class="edge"><title>\\acdhOeaw\\schema\\file\\CmdiFile&#45;&gt;\\acdhOeaw\\schema\\file\\File</title>
<path fill="none" stroke="black" d="M636.075,-418C597.384,-418 535.284,-418 495.98,-418"/>
<polygon fill="none" stroke="black" points="495.779,-414.5 485.779,-418 495.779,-421.5 495.779,-414.5"/>
</g>
<!-- \\acdhOeaw\\schema\\file\\File&#45;&gt;\\acdhOeaw\\schema\\Object -->
<g id="edge9" class="edge"><title>\\acdhOeaw\\schema\\file\\File&#45;&gt;\\acdhOeaw\\schema\\Object</title>
<path fill="none" stroke="black" d="M431.113,-428.807C412.455,-437.401 387.709,-450.825 370,-468 328.259,-508.482 296.804,-569.769 280.955,-604.829"/>
<polygon fill="none" stroke="black" points="277.75,-603.422 276.902,-613.983 284.151,-606.256 277.75,-603.422"/>
</g>
<!-- \\acdhOeaw\\fedora\\metadataQuery\\Query -->
<g id="node16" class="node"><title>\\acdhOeaw\\fedora\\metadataQuery\\Query</title>
<polygon fill="none" stroke="black" points="699,-320 645,-320 645,-284 699,-284 699,-320"/>
<text text-anchor="middle" x="672" y="-299.2" font-family="Courier,monospace" font-size="11.00">Query</text>
</g>
<!-- \\acdhOeaw\\fedora\\metadataQuery\\HasValue -->
<g id="node17" class="node"><title>\\acdhOeaw\\fedora\\metadataQuery\\HasValue</title>
<polygon fill="none" stroke="black" points="494,-320 423,-320 423,-284 494,-284 494,-320"/>
<text text-anchor="middle" x="458.5" y="-299.2" font-family="Courier,monospace" font-size="11.00">HasValue</text>
</g>
<!-- \\acdhOeaw\\fedora\\metadataQuery\\HasProperty -->
<g id="node21" class="node"><title>\\acdhOeaw\\fedora\\metadataQuery\\HasProperty</title>
<polygon fill="none" stroke="black" points="314,-293 223,-293 223,-257 314,-257 314,-293"/>
<text text-anchor="middle" x="268.5" y="-272.2" font-family="Courier,monospace" font-size="11.00">HasProperty</text>
</g>
<!-- \\acdhOeaw\\fedora\\metadataQuery\\HasValue&#45;&gt;\\acdhOeaw\\fedora\\metadataQuery\\HasProperty -->
<g id="edge7" class="edge"><title>\\acdhOeaw\\fedora\\metadataQuery\\HasValue&#45;&gt;\\acdhOeaw\\fedora\\metadataQuery\\HasProperty</title>
<path fill="none" stroke="black" d="M422.579,-296.985C394.984,-293.022 355.964,-287.418 324.227,-282.86"/>
<polygon fill="none" stroke="black" points="324.598,-279.377 314.202,-281.42 323.603,-286.306 324.598,-279.377"/>
</g>
<!-- \\acdhOeaw\\fedora\\metadataQuery\\QueryParameter -->
<g id="node18" class="node"><title>\\acdhOeaw\\fedora\\metadataQuery\\QueryParameter</title>
<polygon fill="none" stroke="black" points="151,-293 40,-293 40,-257 151,-257 151,-293"/>
<text text-anchor="start" x="61.5" y="-278.2" font-family="Courier,monospace" font-size="11.00">«abstract»</text>
<text text-anchor="start" x="48" y="-266.2" font-family="Courier,monospace" font-size="11.00">QueryParameter</text>
</g>
<!-- \\acdhOeaw\\fedora\\metadataQuery\\MatchesRegEx -->
<g id="node19" class="node"><title>\\acdhOeaw\\fedora\\metadataQuery\\MatchesRegEx</title>
<polygon fill="none" stroke="black" points="721,-266 623,-266 623,-230 721,-230 721,-266"/>
<text text-anchor="middle" x="672" y="-245.2" font-family="Courier,monospace" font-size="11.00">MatchesRegEx</text>
</g>
<!-- \\acdhOeaw\\fedora\\metadataQuery\\MatchesRegEx&#45;&gt;\\acdhOeaw\\fedora\\metadataQuery\\HasValue -->
<g id="edge10" class="edge"><title>\\acdhOeaw\\fedora\\metadataQuery\\MatchesRegEx&#45;&gt;\\acdhOeaw\\fedora\\metadataQuery\\HasValue</title>
<path fill="none" stroke="black" d="M622.743,-260.321C587.012,-269.444 538.7,-281.779 503.918,-290.659"/>
<polygon fill="none" stroke="black" points="502.861,-287.317 494.038,-293.182 504.593,-294.099 502.861,-287.317"/>
</g>
<!-- \\acdhOeaw\\fedora\\metadataQuery\\HasTriple -->
<g id="node20" class="node"><title>\\acdhOeaw\\fedora\\metadataQuery\\HasTriple</title>
<polygon fill="none" stroke="black" points="497,-266 420,-266 420,-230 497,-230 497,-266"/>
<text text-anchor="middle" x="458.5" y="-245.2" font-family="Courier,monospace" font-size="11.00">HasTriple</text>
</g>
<!-- \\acdhOeaw\\fedora\\metadataQuery\\HasTriple&#45;&gt;\\acdhOeaw\\fedora\\metadataQuery\\HasProperty -->
<g id="edge13" class="edge"><title>\\acdhOeaw\\fedora\\metadataQuery\\HasTriple&#45;&gt;\\acdhOeaw\\fedora\\metadataQuery\\HasProperty</title>
<path fill="none" stroke="black" d="M419.907,-253.399C392.566,-257.326 355.122,-262.703 324.434,-267.111"/>
<polygon fill="none" stroke="black" points="323.711,-263.678 314.31,-268.564 324.707,-270.607 323.711,-263.678"/>
</g>
<!-- \\acdhOeaw\\fedora\\metadataQuery\\HasProperty&#45;&gt;\\acdhOeaw\\fedora\\metadataQuery\\QueryParameter -->
<g id="edge14" class="edge"><title>\\acdhOeaw\\fedora\\metadataQuery\\HasProperty&#45;&gt;\\acdhOeaw\\fedora\\metadataQuery\\QueryParameter</title>
<path fill="none" stroke="black" d="M222.572,-275C203.864,-275 181.782,-275 161.369,-275"/>
<polygon fill="none" stroke="black" points="161.19,-271.5 151.19,-275 161.19,-278.5 161.19,-271.5"/>
</g>
<!-- \\acdhOeaw\\fedora\\Fedora -->
<g id="node22" class="node"><title>\\acdhOeaw\\fedora\\Fedora</title>
<polygon fill="none" stroke="black" points="700.5,-212 643.5,-212 643.5,-176 700.5,-176 700.5,-212"/>
<text text-anchor="middle" x="672" y="-191.2" font-family="Courier,monospace" font-size="11.00">Fedora</text>
</g>
<!-- \\acdhOeaw\\fedora\\FedoraResource -->
<g id="node23" class="node"><title>\\acdhOeaw\\fedora\\FedoraResource</title>
<polygon fill="none" stroke="black" points="727.5,-158 616.5,-158 616.5,-122 727.5,-122 727.5,-158"/>
<text text-anchor="middle" x="672" y="-137.2" font-family="Courier,monospace" font-size="11.00">FedoraResource</text>
</g>
<!-- \\acdhOeaw\\fedora\\SparqlClient -->
<g id="node24" class="node"><title>\\acdhOeaw\\fedora\\SparqlClient</title>
<polygon fill="none" stroke="black" points="721,-104 623,-104 623,-68 721,-68 721,-104"/>
<text text-anchor="middle" x="672" y="-83.2" font-family="Courier,monospace" font-size="11.00">SparqlClient</text>
</g>
</g>
</svg>
