<?xml version="1.0" encoding="UTF-8" standalone="no"?>
<!DOCTYPE svg PUBLIC "-//W3C//DTD SVG 1.1//EN"
 "http://www.w3.org/Graphics/SVG/1.1/DTD/svg11.dtd">
<!-- Generated by graphviz version 2.38.0 (20140413.2041)
 -->
<!-- Title: G Pages: 1 -->
<svg width="786pt" height="1908pt"
 viewBox="0.00 0.00 785.50 1908.00" xmlns="http://www.w3.org/2000/svg" xmlns:xlink="http://www.w3.org/1999/xlink">
<g id="graph0" class="graph" transform="scale(1 1) rotate(0) translate(4 1904)">
<title>G</title>
<polygon fill="white" stroke="none" points="-4,4 -4,-1904 781.5,-1904 781.5,4 -4,4"/>
<g id="clust1" class="cluster"><title>cluster_Global</title>
<path fill="none" stroke="gray" d="M20,-98C20,-98 757.5,-98 757.5,-98 763.5,-98 769.5,-104 769.5,-110 769.5,-110 769.5,-1880 769.5,-1880 769.5,-1886 763.5,-1892 757.5,-1892 757.5,-1892 20,-1892 20,-1892 14,-1892 8,-1886 8,-1880 8,-1880 8,-110 8,-110 8,-104 14,-98 20,-98"/>
<text text-anchor="middle" x="388.75" y="-1879.2" font-family="Times,serif" font-size="11.00" fill="gray">Global</text>
</g>
<g id="clust2" class="cluster"><title>cluster_\acdhOeaw</title>
<path fill="none" stroke="gray" d="M28,-106C28,-106 749.5,-106 749.5,-106 755.5,-106 761.5,-112 761.5,-118 761.5,-118 761.5,-1852 761.5,-1852 761.5,-1858 755.5,-1864 749.5,-1864 749.5,-1864 28,-1864 28,-1864 22,-1864 16,-1858 16,-1852 16,-1852 16,-118 16,-118 16,-112 22,-106 28,-106"/>
<text text-anchor="middle" x="388.75" y="-1851.2" font-family="Times,serif" font-size="11.00" fill="gray">acdhOeaw</text>
</g>
<g id="clust3" class="cluster"><title>cluster_\acdhOeaw\util</title>
<path fill="none" stroke="gray" d="M382,-1520C382,-1520 737,-1520 737,-1520 743,-1520 749,-1526 749,-1532 749,-1532 749,-1824 749,-1824 749,-1830 743,-1836 737,-1836 737,-1836 382,-1836 382,-1836 376,-1836 370,-1830 370,-1824 370,-1824 370,-1532 370,-1532 370,-1526 376,-1520 382,-1520"/>
<text text-anchor="middle" x="559.5" y="-1823.2" font-family="Times,serif" font-size="11.00" fill="gray">util</text>
</g>
<g id="clust4" class="cluster"><title>cluster_\acdhOeaw\util\metaLookup</title>
<path fill="none" stroke="gray" d="M390,-1682C390,-1682 727,-1682 727,-1682 733,-1682 739,-1688 739,-1694 739,-1694 739,-1796 739,-1796 739,-1802 733,-1808 727,-1808 727,-1808 390,-1808 390,-1808 384,-1808 378,-1802 378,-1796 378,-1796 378,-1694 378,-1694 378,-1688 384,-1682 390,-1682"/>
<text text-anchor="middle" x="558.5" y="-1795.2" font-family="Times,serif" font-size="11.00" fill="gray">metaLookup</text>
</g>
<g id="clust5" class="cluster"><title>cluster_\acdhOeaw\fedora</title>
<path fill="none" stroke="gray" d="M36,-552C36,-552 741.5,-552 741.5,-552 747.5,-552 753.5,-558 753.5,-564 753.5,-564 753.5,-1500 753.5,-1500 753.5,-1506 747.5,-1512 741.5,-1512 741.5,-1512 36,-1512 36,-1512 30,-1512 24,-1506 24,-1500 24,-1500 24,-564 24,-564 24,-558 30,-552 36,-552"/>
<text text-anchor="middle" x="388.75" y="-1499.2" font-family="Times,serif" font-size="11.00" fill="gray">fedora</text>
</g>
<g id="clust6" class="cluster"><title>cluster_\acdhOeaw\fedora\exceptions</title>
<path fill="none" stroke="gray" d="M610.5,-1034C610.5,-1034 733.5,-1034 733.5,-1034 739.5,-1034 745.5,-1040 745.5,-1046 745.5,-1046 745.5,-1472 745.5,-1472 745.5,-1478 739.5,-1484 733.5,-1484 733.5,-1484 610.5,-1484 610.5,-1484 604.5,-1484 598.5,-1478 598.5,-1472 598.5,-1472 598.5,-1046 598.5,-1046 598.5,-1040 604.5,-1034 610.5,-1034"/>
<text text-anchor="middle" x="672" y="-1471.2" font-family="Times,serif" font-size="11.00" fill="gray">exceptions</text>
</g>
<g id="clust7" class="cluster"><title>cluster_\acdhOeaw\fedora\acl</title>
<path fill="none" stroke="gray" d="M634,-954C634,-954 710,-954 710,-954 716,-954 722,-960 722,-966 722,-966 722,-1014 722,-1014 722,-1020 716,-1026 710,-1026 710,-1026 634,-1026 634,-1026 628,-1026 622,-1020 622,-1014 622,-1014 622,-966 622,-966 622,-960 628,-954 634,-954"/>
<text text-anchor="middle" x="672" y="-1013.2" font-family="Times,serif" font-size="11.00" fill="gray">acl</text>
</g>
<g id="clust8" class="cluster"><title>cluster_\acdhOeaw\fedora\metadataQuery</title>
<path fill="none" stroke="gray" d="M44,-766C44,-766 717,-766 717,-766 723,-766 729,-772 729,-778 729,-778 729,-934 729,-934 729,-940 723,-946 717,-946 717,-946 44,-946 44,-946 38,-946 32,-940 32,-934 32,-934 32,-778 32,-778 32,-772 38,-766 44,-766"/>
<text text-anchor="middle" x="380.5" y="-933.2" font-family="Times,serif" font-size="11.00" fill="gray">metadataQuery</text>
</g>
<g id="clust9" class="cluster"><title>cluster_\acdhOeaw\schema</title>
<path fill="none" stroke="gray" d="M230.5,-114C230.5,-114 728,-114 728,-114 734,-114 740,-120 740,-126 740,-126 740,-532 740,-532 740,-538 734,-544 728,-544 728,-544 230.5,-544 230.5,-544 224.5,-544 218.5,-538 218.5,-532 218.5,-532 218.5,-126 218.5,-126 218.5,-120 224.5,-114 230.5,-114"/>
<text text-anchor="middle" x="479.25" y="-531.2" font-family="Times,serif" font-size="11.00" fill="gray">schema</text>
</g>
<g id="clust10" class="cluster"><title>cluster_\acdhOeaw\schema\dissemination</title>
<path fill="none" stroke="gray" d="M430.5,-390C430.5,-390 720,-390 720,-390 726,-390 732,-396 732,-402 732,-402 732,-504 732,-504 732,-510 726,-516 720,-516 720,-516 430.5,-516 430.5,-516 424.5,-516 418.5,-510 418.5,-504 418.5,-504 418.5,-402 418.5,-402 418.5,-396 424.5,-390 430.5,-390"/>
<text text-anchor="middle" x="575.25" y="-503.2" font-family="Times,serif" font-size="11.00" fill="gray">dissemination</text>
</g>
<g id="clust11" class="cluster"><title>cluster_\acdhOeaw\schema\redmine</title>
<path fill="none" stroke="gray" d="M420.5,-202C420.5,-202 700,-202 700,-202 706,-202 712,-208 712,-214 712,-214 712,-370 712,-370 712,-376 706,-382 700,-382 700,-382 420.5,-382 420.5,-382 414.5,-382 408.5,-376 408.5,-370 408.5,-370 408.5,-214 408.5,-214 408.5,-208 414.5,-202 420.5,-202"/>
<text text-anchor="middle" x="560.25" y="-369.2" font-family="Times,serif" font-size="11.00" fill="gray">redmine</text>
</g>
<g id="clust12" class="cluster"><title>cluster_\acdhOeaw\schema\file</title>
<path fill="none" stroke="gray" d="M435.5,-122C435.5,-122 703.5,-122 703.5,-122 709.5,-122 715.5,-128 715.5,-134 715.5,-134 715.5,-182 715.5,-182 715.5,-188 709.5,-194 703.5,-194 703.5,-194 435.5,-194 435.5,-194 429.5,-194 423.5,-188 423.5,-182 423.5,-182 423.5,-134 423.5,-134 423.5,-128 429.5,-122 435.5,-122"/>
<text text-anchor="middle" x="569.5" y="-181.2" font-family="Times,serif" font-size="11.00" fill="gray">file</text>
</g>
<!-- \\acdhOeaw\\util\\metaLookup\\MetaLookupFile -->
<g id="node1" class="node"><title>\\acdhOeaw\\util\\metaLookup\\MetaLookupFile</title>
<polygon fill="none" stroke="black" points="727.5,-1780 616.5,-1780 616.5,-1744 727.5,-1744 727.5,-1780"/>
<text text-anchor="middle" x="672" y="-1759.2" font-family="Courier,monospace" font-size="11.00">MetaLookupFile</text>
</g>
<!-- \\acdhOeaw\\util\\metaLookup\\MetaLookupInterface -->
<g id="node3" class="node"><title>\\acdhOeaw\\util\\metaLookup\\MetaLookupInterface</title>
<polygon fill="none" stroke="black" points="531,-1753 386,-1753 386,-1717 531,-1717 531,-1753"/>
<text text-anchor="middle" x="458.5" y="-1732.2" font-family="Courier,monospace" font-size="11.00">MetaLookupInterface</text>
</g>
<!-- \\acdhOeaw\\util\\metaLookup\\MetaLookupFile&#45;&gt;\\acdhOeaw\\util\\metaLookup\\MetaLookupInterface -->
<g id="edge5" class="edge"><title>\\acdhOeaw\\util\\metaLookup\\MetaLookupFile&#45;&gt;\\acdhOeaw\\util\\metaLookup\\MetaLookupInterface</title>
<path fill="none" stroke="black" stroke-dasharray="1,5" d="M616.258,-1755.01C593.453,-1752.1 566.485,-1748.66 541.405,-1745.46"/>
<polygon fill="none" stroke="black" points="541.525,-1741.94 531.162,-1744.15 540.638,-1748.89 541.525,-1741.94"/>
</g>
<!-- \\acdhOeaw\\util\\metaLookup\\MetaLookupGraph -->
<g id="node2" class="node"><title>\\acdhOeaw\\util\\metaLookup\\MetaLookupGraph</title>
<polygon fill="none" stroke="black" points="731,-1726 613,-1726 613,-1690 731,-1690 731,-1726"/>
<text text-anchor="middle" x="672" y="-1705.2" font-family="Courier,monospace" font-size="11.00">MetaLookupGraph</text>
</g>
<!-- \\acdhOeaw\\util\\metaLookup\\MetaLookupGraph&#45;&gt;\\acdhOeaw\\util\\metaLookup\\MetaLookupInterface -->
<g id="edge14" class="edge"><title>\\acdhOeaw\\util\\metaLookup\\MetaLookupGraph&#45;&gt;\\acdhOeaw\\util\\metaLookup\\MetaLookupInterface</title>
<path fill="none" stroke="black" stroke-dasharray="1,5" d="M612.927,-1715.41C590.777,-1718.24 565.098,-1721.52 541.159,-1724.58"/>
<polygon fill="none" stroke="black" points="540.497,-1721.13 531.021,-1725.87 541.383,-1728.08 540.497,-1721.13"/>
</g>
<!-- \\acdhOeaw\\util\\RepoConfig -->
<g id="node4" class="node"><title>\\acdhOeaw\\util\\RepoConfig</title>
<polygon fill="none" stroke="black" points="714,-1672 630,-1672 630,-1636 714,-1636 714,-1672"/>
<text text-anchor="middle" x="672" y="-1651.2" font-family="Courier,monospace" font-size="11.00">RepoConfig</text>
</g>
<!-- \\acdhOeaw\\util\\Indexer -->
<g id="node5" class="node"><title>\\acdhOeaw\\util\\Indexer</title>
<polygon fill="none" stroke="black" points="704,-1618 640,-1618 640,-1582 704,-1582 704,-1618"/>
<text text-anchor="middle" x="672" y="-1597.2" font-family="Courier,monospace" font-size="11.00">Indexer</text>
</g>
<!-- \\acdhOeaw\\util\\MetadataCollection -->
<g id="node6" class="node"><title>\\acdhOeaw\\util\\MetadataCollection</title>
<polygon fill="none" stroke="black" points="741,-1564 603,-1564 603,-1528 741,-1528 741,-1564"/>
<text text-anchor="middle" x="672" y="-1543.2" font-family="Courier,monospace" font-size="11.00">MetadataCollection</text>
</g>
<!-- \\EasyRdf\\Graph -->
<g id="node38" class="node"><title>\\EasyRdf\\Graph</title>
<ellipse fill="none" stroke="black" cx="458.5" cy="-72" rx="67.6881" ry="18"/>
<text text-anchor="middle" x="458.5" y="-68.3" font-family="Times,serif" font-size="14.00" fill="gray">\EasyRdf\Graph</text>
</g>
<!-- \\acdhOeaw\\util\\MetadataCollection&#45;&gt;\\EasyRdf\\Graph -->
<g id="edge22" class="edge"><title>\\acdhOeaw\\util\\MetadataCollection&#45;&gt;\\EasyRdf\\Graph</title>
<path fill="none" stroke="black" d="M637.304,-1527.87C622.696,-1518.12 607.012,-1504.65 598.5,-1488 459.736,-1216.6 683.557,-381.89 531,-118 524.94,-107.518 515.422,-99.0298 505.285,-92.3347"/>
<polygon fill="none" stroke="black" points="507.053,-89.3137 496.686,-87.128 503.427,-95.3016 507.053,-89.3137"/>
</g>
<!-- \\acdhOeaw\\fedora\\exceptions\\ManyAcdhIds -->
<g id="node7" class="node"><title>\\acdhOeaw\\fedora\\exceptions\\ManyAcdhIds</title>
<polygon fill="none" stroke="black" points="717.5,-1240 626.5,-1240 626.5,-1204 717.5,-1204 717.5,-1240"/>
<text text-anchor="middle" x="672" y="-1219.2" font-family="Courier,monospace" font-size="11.00">ManyAcdhIds</text>
</g>
<!-- \\Exception -->
<g id="node37" class="node"><title>\\Exception</title>
<ellipse fill="none" stroke="black" cx="458.5" cy="-18" rx="48.9926" ry="18"/>
<text text-anchor="middle" x="458.5" y="-14.3" font-family="Times,serif" font-size="14.00" fill="gray">\Exception</text>
</g>
<!-- \\acdhOeaw\\fedora\\exceptions\\ManyAcdhIds&#45;&gt;\\Exception -->
<g id="edge1" class="edge"><title>\\acdhOeaw\\fedora\\exceptions\\ManyAcdhIds&#45;&gt;\\Exception</title>
<path fill="none" stroke="black" d="M626.253,-1214.24C615.558,-1210.24 605.286,-1204.18 598.5,-1195 446.348,-989.128 682.681,-251.219 531,-45 526.191,-38.4615 519.597,-33.5061 512.347,-29.7506"/>
<polygon fill="none" stroke="black" points="513.46,-26.4172 502.897,-25.6065 510.649,-32.8279 513.46,-26.4172"/>
</g>
<!-- \\acdhOeaw\\fedora\\exceptions\\Deleted -->
<g id="node8" class="node"><title>\\acdhOeaw\\fedora\\exceptions\\Deleted</title>
<polygon fill="none" stroke="black" points="704,-1186 640,-1186 640,-1150 704,-1150 704,-1186"/>
<text text-anchor="middle" x="672" y="-1165.2" font-family="Courier,monospace" font-size="11.00">Deleted</text>
</g>
<!-- \\acdhOeaw\\fedora\\exceptions\\Deleted&#45;&gt;\\Exception -->
<g id="edge2" class="edge"><title>\\acdhOeaw\\fedora\\exceptions\\Deleted&#45;&gt;\\Exception</title>
<path fill="none" stroke="black" d="M639.854,-1164.29C624.904,-1160.8 608.178,-1154.06 598.5,-1141 453.185,-944.97 675.867,-241.362 531,-45 526.181,-38.4684 519.583,-33.5167 512.331,-29.7627"/>
<polygon fill="none" stroke="black" points="513.443,-26.4289 502.879,-25.6194 510.633,-32.8399 513.443,-26.4289"/>
</g>
<!-- \\acdhOeaw\\fedora\\exceptions\\NoAcdhId -->
<g id="node9" class="node"><title>\\acdhOeaw\\fedora\\exceptions\\NoAcdhId</title>
<polygon fill="none" stroke="black" points="707.5,-1132 636.5,-1132 636.5,-1096 707.5,-1096 707.5,-1132"/>
<text text-anchor="middle" x="672" y="-1111.2" font-family="Courier,monospace" font-size="11.00">NoAcdhId</text>
</g>
<!-- \\acdhOeaw\\fedora\\exceptions\\NoAcdhId&#45;&gt;\\Exception -->
<g id="edge8" class="edge"><title>\\acdhOeaw\\fedora\\exceptions\\NoAcdhId&#45;&gt;\\Exception</title>
<path fill="none" stroke="black" d="M636.134,-1109.34C622.209,-1105.63 607.397,-1098.96 598.5,-1087 460.021,-900.811 669.054,-231.505 531,-45 526.171,-38.4761 519.567,-33.5283 512.313,-29.776"/>
<polygon fill="none" stroke="black" points="513.424,-26.4417 502.86,-25.6337 510.614,-32.8531 513.424,-26.4417"/>
</g>
<!-- \\acdhOeaw\\fedora\\exceptions\\NotFound -->
<g id="node10" class="node"><title>\\acdhOeaw\\fedora\\exceptions\\NotFound</title>
<polygon fill="none" stroke="black" points="707.5,-1078 636.5,-1078 636.5,-1042 707.5,-1042 707.5,-1078"/>
<text text-anchor="middle" x="672" y="-1057.2" font-family="Courier,monospace" font-size="11.00">NotFound</text>
</g>
<!-- \\acdhOeaw\\fedora\\exceptions\\NotFound&#45;&gt;\\Exception -->
<g id="edge9" class="edge"><title>\\acdhOeaw\\fedora\\exceptions\\NotFound&#45;&gt;\\Exception</title>
<path fill="none" stroke="black" d="M636.443,-1053.96C622.398,-1049.68 607.407,-1042.39 598.5,-1030 470.406,-851.873 661.863,-221.103 531,-45 526.159,-38.4851 519.549,-33.5421 512.291,-29.7917"/>
<polygon fill="none" stroke="black" points="513.401,-26.4569 502.837,-25.6504 510.593,-32.8687 513.401,-26.4569"/>
</g>
<!-- \\acdhOeaw\\fedora\\exceptions\\CacheInconsistent -->
<g id="node11" class="node"><title>\\acdhOeaw\\fedora\\exceptions\\CacheInconsistent</title>
<polygon fill="none" stroke="black" points="737.5,-1456 606.5,-1456 606.5,-1420 737.5,-1420 737.5,-1456"/>
<text text-anchor="middle" x="672" y="-1435.2" font-family="Courier,monospace" font-size="11.00">CacheInconsistent</text>
</g>
<!-- \\acdhOeaw\\fedora\\exceptions\\CacheInconsistent&#45;&gt;\\Exception -->
<g id="edge15" class="edge"><title>\\acdhOeaw\\fedora\\exceptions\\CacheInconsistent&#45;&gt;\\Exception</title>
<path fill="none" stroke="black" d="M607.131,-1419.88C603.886,-1417.3 600.959,-1414.36 598.5,-1411 418.993,-1165.75 709.946,-290.661 531,-45 526.221,-38.4393 519.643,-33.4723 512.4,-29.7121"/>
<polygon fill="none" stroke="black" points="513.517,-26.38 502.953,-25.5653 510.703,-32.7897 513.517,-26.38"/>
</g>
<!-- \\acdhOeaw\\fedora\\exceptions\\NotInCache -->
<g id="node12" class="node"><title>\\acdhOeaw\\fedora\\exceptions\\NotInCache</title>
<polygon fill="none" stroke="black" points="714,-1402 630,-1402 630,-1366 714,-1366 714,-1402"/>
<text text-anchor="middle" x="672" y="-1381.2" font-family="Courier,monospace" font-size="11.00">NotInCache</text>
</g>
<!-- \\acdhOeaw\\fedora\\exceptions\\NotInCache&#45;&gt;\\Exception -->
<g id="edge17" class="edge"><title>\\acdhOeaw\\fedora\\exceptions\\NotInCache&#45;&gt;\\Exception</title>
<path fill="none" stroke="black" d="M629.997,-1377.6C617.976,-1373.66 606.047,-1367.29 598.5,-1357 425.833,-1121.59 703.129,-280.799 531,-45 526.214,-38.4441 519.633,-33.4797 512.388,-29.7205"/>
<polygon fill="none" stroke="black" points="513.504,-26.3882 502.941,-25.5743 510.691,-32.798 513.504,-26.3882"/>
</g>
<!-- \\acdhOeaw\\fedora\\exceptions\\AmbiguousMatch -->
<g id="node13" class="node"><title>\\acdhOeaw\\fedora\\exceptions\\AmbiguousMatch</title>
<polygon fill="none" stroke="black" points="727.5,-1348 616.5,-1348 616.5,-1312 727.5,-1312 727.5,-1348"/>
<text text-anchor="middle" x="672" y="-1327.2" font-family="Courier,monospace" font-size="11.00">AmbiguousMatch</text>
</g>
<!-- \\acdhOeaw\\fedora\\exceptions\\AmbiguousMatch&#45;&gt;\\Exception -->
<g id="edge18" class="edge"><title>\\acdhOeaw\\fedora\\exceptions\\AmbiguousMatch&#45;&gt;\\Exception</title>
<path fill="none" stroke="black" d="M616.259,-1317.79C609.359,-1314.09 603.114,-1309.28 598.5,-1303 432.672,-1077.44 696.312,-270.938 531,-45 526.207,-38.4494 519.622,-33.4877 512.375,-29.7296"/>
<polygon fill="none" stroke="black" points="513.491,-26.397 502.927,-25.5841 510.678,-32.8071 513.491,-26.397"/>
</g>
<!-- \\acdhOeaw\\fedora\\exceptions\\AlreadyInCache -->
<g id="node14" class="node"><title>\\acdhOeaw\\fedora\\exceptions\\AlreadyInCache</title>
<polygon fill="none" stroke="black" points="727.5,-1294 616.5,-1294 616.5,-1258 727.5,-1258 727.5,-1294"/>
<text text-anchor="middle" x="672" y="-1273.2" font-family="Courier,monospace" font-size="11.00">AlreadyInCache</text>
</g>
<!-- \\acdhOeaw\\fedora\\exceptions\\AlreadyInCache&#45;&gt;\\Exception -->
<g id="edge21" class="edge"><title>\\acdhOeaw\\fedora\\exceptions\\AlreadyInCache&#45;&gt;\\Exception</title>
<path fill="none" stroke="black" d="M616.273,-1263.78C609.371,-1260.09 603.122,-1255.27 598.5,-1249 439.511,-1033.28 689.497,-261.078 531,-45 526.199,-38.4552 519.61,-33.4965 512.362,-29.7396"/>
<polygon fill="none" stroke="black" points="513.476,-26.4067 502.913,-25.5948 510.664,-32.8171 513.476,-26.4067"/>
</g>
<!-- \\acdhOeaw\\fedora\\acl\\WebAclRule -->
<g id="node15" class="node"><title>\\acdhOeaw\\fedora\\acl\\WebAclRule</title>
<polygon fill="none" stroke="black" points="714,-998 630,-998 630,-962 714,-962 714,-998"/>
<text text-anchor="middle" x="672" y="-977.2" font-family="Courier,monospace" font-size="11.00">WebAclRule</text>
</g>
<!-- \\acdhOeaw\\fedora\\metadataQuery\\Query -->
<g id="node16" class="node"><title>\\acdhOeaw\\fedora\\metadataQuery\\Query</title>
<polygon fill="none" stroke="black" points="485.5,-864 431.5,-864 431.5,-828 485.5,-828 485.5,-864"/>
<text text-anchor="middle" x="458.5" y="-843.2" font-family="Courier,monospace" font-size="11.00">Query</text>
</g>
<!-- \\acdhOeaw\\fedora\\metadataQuery\\HasValue -->
<g id="node17" class="node"><title>\\acdhOeaw\\fedora\\metadataQuery\\HasValue</title>
<polygon fill="none" stroke="black" points="494,-918 423,-918 423,-882 494,-882 494,-918"/>
<text text-anchor="middle" x="458.5" y="-897.2" font-family="Courier,monospace" font-size="11.00">HasValue</text>
</g>
<!-- \\acdhOeaw\\fedora\\metadataQuery\\HasProperty -->
<g id="node22" class="node"><title>\\acdhOeaw\\fedora\\metadataQuery\\HasProperty</title>
<polygon fill="none" stroke="black" points="314,-864 223,-864 223,-828 314,-828 314,-864"/>
<text text-anchor="middle" x="268.5" y="-843.2" font-family="Courier,monospace" font-size="11.00">HasProperty</text>
</g>
<!-- \\acdhOeaw\\fedora\\metadataQuery\\HasValue&#45;&gt;\\acdhOeaw\\fedora\\metadataQuery\\HasProperty -->
<g id="edge11" class="edge"><title>\\acdhOeaw\\fedora\\metadataQuery\\HasValue&#45;&gt;\\acdhOeaw\\fedora\\metadataQuery\\HasProperty</title>
<path fill="none" stroke="black" d="M422.579,-889.97C394.864,-882.009 355.626,-870.738 323.815,-861.601"/>
<polygon fill="none" stroke="black" points="324.78,-858.237 314.202,-858.84 322.847,-864.965 324.78,-858.237"/>
</g>
<!-- \\acdhOeaw\\fedora\\metadataQuery\\QueryParameter -->
<g id="node18" class="node"><title>\\acdhOeaw\\fedora\\metadataQuery\\QueryParameter</title>
<polygon fill="none" stroke="black" points="151,-864 40,-864 40,-828 151,-828 151,-864"/>
<text text-anchor="start" x="61.5" y="-849.2" font-family="Courier,monospace" font-size="11.00">«abstract»</text>
<text text-anchor="start" x="48" y="-837.2" font-family="Courier,monospace" font-size="11.00">QueryParameter</text>
</g>
<!-- \\acdhOeaw\\fedora\\metadataQuery\\MatchesRegEx -->
<g id="node19" class="node"><title>\\acdhOeaw\\fedora\\metadataQuery\\MatchesRegEx</title>
<polygon fill="none" stroke="black" points="721,-918 623,-918 623,-882 721,-882 721,-918"/>
<text text-anchor="middle" x="672" y="-897.2" font-family="Courier,monospace" font-size="11.00">MatchesRegEx</text>
</g>
<!-- \\acdhOeaw\\fedora\\metadataQuery\\MatchesRegEx&#45;&gt;\\acdhOeaw\\fedora\\metadataQuery\\HasValue -->
<g id="edge16" class="edge"><title>\\acdhOeaw\\fedora\\metadataQuery\\MatchesRegEx&#45;&gt;\\acdhOeaw\\fedora\\metadataQuery\\HasValue</title>
<path fill="none" stroke="black" d="M622.743,-900C587.165,-900 539.115,-900 504.366,-900"/>
<polygon fill="none" stroke="black" points="504.038,-896.5 494.038,-900 504.038,-903.5 504.038,-896.5"/>
</g>
<!-- \\acdhOeaw\\fedora\\metadataQuery\\SimpleQuery -->
<g id="node20" class="node"><title>\\acdhOeaw\\fedora\\metadataQuery\\SimpleQuery</title>
<polygon fill="none" stroke="black" points="717.5,-864 626.5,-864 626.5,-828 717.5,-828 717.5,-864"/>
<text text-anchor="middle" x="672" y="-843.2" font-family="Courier,monospace" font-size="11.00">SimpleQuery</text>
</g>
<!-- \\acdhOeaw\\fedora\\metadataQuery\\SimpleQuery&#45;&gt;\\acdhOeaw\\fedora\\metadataQuery\\Query -->
<g id="edge20" class="edge"><title>\\acdhOeaw\\fedora\\metadataQuery\\SimpleQuery&#45;&gt;\\acdhOeaw\\fedora\\metadataQuery\\Query</title>
<path fill="none" stroke="black" d="M626.405,-846C587.577,-846 531.991,-846 495.821,-846"/>
<polygon fill="none" stroke="black" points="495.713,-842.5 485.713,-846 495.713,-849.5 495.713,-842.5"/>
</g>
<!-- \\acdhOeaw\\fedora\\metadataQuery\\HasTriple -->
<g id="node21" class="node"><title>\\acdhOeaw\\fedora\\metadataQuery\\HasTriple</title>
<polygon fill="none" stroke="black" points="497,-810 420,-810 420,-774 497,-774 497,-810"/>
<text text-anchor="middle" x="458.5" y="-789.2" font-family="Courier,monospace" font-size="11.00">HasTriple</text>
</g>
<!-- \\acdhOeaw\\fedora\\metadataQuery\\HasTriple&#45;&gt;\\acdhOeaw\\fedora\\metadataQuery\\HasProperty -->
<g id="edge23" class="edge"><title>\\acdhOeaw\\fedora\\metadataQuery\\HasTriple&#45;&gt;\\acdhOeaw\\fedora\\metadataQuery\\HasProperty</title>
<path fill="none" stroke="black" d="M419.907,-802.798C392.447,-810.685 354.796,-821.5 324.034,-830.336"/>
<polygon fill="none" stroke="black" points="322.956,-827.004 314.31,-833.129 324.888,-833.732 322.956,-827.004"/>
</g>
<!-- \\acdhOeaw\\fedora\\metadataQuery\\HasProperty&#45;&gt;\\acdhOeaw\\fedora\\metadataQuery\\QueryParameter -->
<g id="edge24" class="edge"><title>\\acdhOeaw\\fedora\\metadataQuery\\HasProperty&#45;&gt;\\acdhOeaw\\fedora\\metadataQuery\\QueryParameter</title>
<path fill="none" stroke="black" d="M222.572,-846C203.864,-846 181.782,-846 161.369,-846"/>
<polygon fill="none" stroke="black" points="161.19,-842.5 151.19,-846 161.19,-849.5 161.19,-842.5"/>
</g>
<!-- \\acdhOeaw\\fedora\\Fedora -->
<g id="node23" class="node"><title>\\acdhOeaw\\fedora\\Fedora</title>
<polygon fill="none" stroke="black" points="700.5,-758 643.5,-758 643.5,-722 700.5,-722 700.5,-758"/>
<text text-anchor="middle" x="672" y="-737.2" font-family="Courier,monospace" font-size="11.00">Fedora</text>
</g>
<!-- \\acdhOeaw\\fedora\\FedoraResource -->
<g id="node24" class="node"><title>\\acdhOeaw\\fedora\\FedoraResource</title>
<polygon fill="none" stroke="black" points="727.5,-704 616.5,-704 616.5,-668 727.5,-668 727.5,-704"/>
<text text-anchor="middle" x="672" y="-683.2" font-family="Courier,monospace" font-size="11.00">FedoraResource</text>
</g>
<!-- \\acdhOeaw\\fedora\\SparqlClient -->
<g id="node25" class="node"><title>\\acdhOeaw\\fedora\\SparqlClient</title>
<polygon fill="none" stroke="black" points="721,-650 623,-650 623,-614 721,-614 721,-650"/>
<text text-anchor="middle" x="672" y="-629.2" font-family="Courier,monospace" font-size="11.00">SparqlClient</text>
</g>
<!-- \\acdhOeaw\\fedora\\FedoraCache -->
<g id="node26" class="node"><title>\\acdhOeaw\\fedora\\FedoraCache</title>
<polygon fill="none" stroke="black" points="717.5,-596 626.5,-596 626.5,-560 717.5,-560 717.5,-596"/>
<text text-anchor="middle" x="672" y="-575.2" font-family="Courier,monospace" font-size="11.00">FedoraCache</text>
</g>
<!-- \\acdhOeaw\\schema\\dissemination\\Parameter -->
<g id="node27" class="node"><title>\\acdhOeaw\\schema\\dissemination\\Parameter</title>
<polygon fill="none" stroke="black" points="710.5,-488 633.5,-488 633.5,-452 710.5,-452 710.5,-488"/>
<text text-anchor="middle" x="672" y="-467.2" font-family="Courier,monospace" font-size="11.00">Parameter</text>
</g>
<!-- \\acdhOeaw\\schema\\Object -->
<g id="node36" class="node"><title>\\acdhOeaw\\schema\\Object</title>
<polygon fill="none" stroke="black" points="310.5,-380 226.5,-380 226.5,-344 310.5,-344 310.5,-380"/>
<text text-anchor="start" x="234.5" y="-365.2" font-family="Courier,monospace" font-size="11.00">«abstract»</text>
<text text-anchor="start" x="248" y="-353.2" font-family="Courier,monospace" font-size="11.00">Object</text>
</g>
<!-- \\acdhOeaw\\schema\\dissemination\\Parameter&#45;&gt;\\acdhOeaw\\schema\\Object -->
<g id="edge3" class="edge"><title>\\acdhOeaw\\schema\\dissemination\\Parameter&#45;&gt;\\acdhOeaw\\schema\\Object</title>
<path fill="none" stroke="black" d="M633.249,-473.438C574.583,-477.307 459.025,-478.963 370,-443 339.734,-430.774 311.372,-406.236 292.547,-387.356"/>
<polygon fill="none" stroke="black" points="295.052,-384.911 285.573,-380.179 290.032,-389.789 295.052,-384.911"/>
</g>
<!-- \\acdhOeaw\\schema\\dissemination\\CiriloService -->
<g id="node28" class="node"><title>\\acdhOeaw\\schema\\dissemination\\CiriloService</title>
<polygon fill="none" stroke="black" points="724,-434 620,-434 620,-398 724,-398 724,-434"/>
<text text-anchor="middle" x="672" y="-413.2" font-family="Courier,monospace" font-size="11.00">CiriloService</text>
</g>
<!-- \\acdhOeaw\\schema\\dissemination\\Service -->
<g id="node29" class="node"><title>\\acdhOeaw\\schema\\dissemination\\Service</title>
<polygon fill="none" stroke="black" points="490.5,-434 426.5,-434 426.5,-398 490.5,-398 490.5,-434"/>
<text text-anchor="middle" x="458.5" y="-413.2" font-family="Courier,monospace" font-size="11.00">Service</text>
</g>
<!-- \\acdhOeaw\\schema\\dissemination\\CiriloService&#45;&gt;\\acdhOeaw\\schema\\dissemination\\Service -->
<g id="edge6" class="edge"><title>\\acdhOeaw\\schema\\dissemination\\CiriloService&#45;&gt;\\acdhOeaw\\schema\\dissemination\\Service</title>
<path fill="none" stroke="black" d="M619.802,-416C583.24,-416 534.699,-416 500.646,-416"/>
<polygon fill="none" stroke="black" points="500.573,-412.5 490.573,-416 500.573,-419.5 500.573,-412.5"/>
</g>
<!-- \\acdhOeaw\\schema\\dissemination\\Service&#45;&gt;\\acdhOeaw\\schema\\Object -->
<g id="edge19" class="edge"><title>\\acdhOeaw\\schema\\dissemination\\Service&#45;&gt;\\acdhOeaw\\schema\\Object</title>
<path fill="none" stroke="black" d="M426.456,-407.083C397.694,-398.822 354.38,-386.381 320.535,-376.659"/>
<polygon fill="none" stroke="black" points="321.39,-373.263 310.812,-373.866 319.457,-379.991 321.39,-373.263"/>
</g>
<!-- \\acdhOeaw\\schema\\redmine\\Redmine -->
<g id="node30" class="node"><title>\\acdhOeaw\\schema\\redmine\\Redmine</title>
<polygon fill="none" stroke="black" points="500.5,-327 416.5,-327 416.5,-291 500.5,-291 500.5,-327"/>
<text text-anchor="start" x="424.5" y="-312.2" font-family="Courier,monospace" font-size="11.00">«abstract»</text>
<text text-anchor="start" x="434.5" y="-300.2" font-family="Courier,monospace" font-size="11.00">Redmine</text>
</g>
<!-- \\acdhOeaw\\schema\\redmine\\Redmine&#45;&gt;\\acdhOeaw\\schema\\Object -->
<g id="edge4" class="edge"><title>\\acdhOeaw\\schema\\redmine\\Redmine&#45;&gt;\\acdhOeaw\\schema\\Object</title>
<path fill="none" stroke="black" d="M416.243,-320.631C388.081,-328.57 350.581,-339.142 320.539,-347.611"/>
<polygon fill="none" stroke="black" points="319.336,-344.314 310.661,-350.396 321.236,-351.051 319.336,-344.314"/>
</g>
<!-- \\acdhOeaw\\schema\\redmine\\Issue -->
<g id="node31" class="node"><title>\\acdhOeaw\\schema\\redmine\\Issue</title>
<polygon fill="none" stroke="black" points="699,-300 645,-300 645,-264 699,-264 699,-300"/>
<text text-anchor="middle" x="672" y="-279.2" font-family="Courier,monospace" font-size="11.00">Issue</text>
</g>
<!-- \\acdhOeaw\\schema\\redmine\\Issue&#45;&gt;\\acdhOeaw\\schema\\redmine\\Redmine -->
<g id="edge7" class="edge"><title>\\acdhOeaw\\schema\\redmine\\Issue&#45;&gt;\\acdhOeaw\\schema\\redmine\\Redmine</title>
<path fill="none" stroke="black" d="M644.641,-285.365C611.291,-289.622 553.116,-297.049 510.861,-302.443"/>
<polygon fill="none" stroke="black" points="510.232,-298.995 500.756,-303.733 511.119,-305.939 510.232,-298.995"/>
</g>
<!-- \\acdhOeaw\\schema\\redmine\\Project -->
<g id="node32" class="node"><title>\\acdhOeaw\\schema\\redmine\\Project</title>
<polygon fill="none" stroke="black" points="704,-246 640,-246 640,-210 704,-210 704,-246"/>
<text text-anchor="middle" x="672" y="-225.2" font-family="Courier,monospace" font-size="11.00">Project</text>
</g>
<!-- \\acdhOeaw\\schema\\redmine\\Project&#45;&gt;\\acdhOeaw\\schema\\redmine\\Redmine -->
<g id="edge12" class="edge"><title>\\acdhOeaw\\schema\\redmine\\Project&#45;&gt;\\acdhOeaw\\schema\\redmine\\Redmine</title>
<path fill="none" stroke="black" d="M639.917,-239.467C627.08,-244.231 612.058,-249.842 598.5,-255 569.191,-266.15 536.5,-278.838 510.188,-289.112"/>
<polygon fill="none" stroke="black" points="508.84,-285.88 500.8,-292.78 511.388,-292.4 508.84,-285.88"/>
</g>
<!-- \\acdhOeaw\\schema\\redmine\\User -->
<g id="node33" class="node"><title>\\acdhOeaw\\schema\\redmine\\User</title>
<polygon fill="none" stroke="black" points="699,-354 645,-354 645,-318 699,-318 699,-354"/>
<text text-anchor="middle" x="672" y="-333.2" font-family="Courier,monospace" font-size="11.00">User</text>
</g>
<!-- \\acdhOeaw\\schema\\redmine\\User&#45;&gt;\\acdhOeaw\\schema\\redmine\\Redmine -->
<g id="edge25" class="edge"><title>\\acdhOeaw\\schema\\redmine\\User&#45;&gt;\\acdhOeaw\\schema\\redmine\\Redmine</title>
<path fill="none" stroke="black" d="M644.641,-332.635C611.291,-328.378 553.116,-320.951 510.861,-315.557"/>
<polygon fill="none" stroke="black" points="511.119,-312.061 500.756,-314.267 510.232,-319.005 511.119,-312.061"/>
</g>
<!-- \\acdhOeaw\\schema\\file\\CmdiFile -->
<g id="node34" class="node"><title>\\acdhOeaw\\schema\\file\\CmdiFile</title>
<polygon fill="none" stroke="black" points="707.5,-166 636.5,-166 636.5,-130 707.5,-130 707.5,-166"/>
<text text-anchor="middle" x="672" y="-145.2" font-family="Courier,monospace" font-size="11.00">CmdiFile</text>
</g>
<!-- \\acdhOeaw\\schema\\file\\File -->
<g id="node35" class="node"><title>\\acdhOeaw\\schema\\file\\File</title>
<polygon fill="none" stroke="black" points="485.5,-166 431.5,-166 431.5,-130 485.5,-130 485.5,-166"/>
<text text-anchor="middle" x="458.5" y="-145.2" font-family="Courier,monospace" font-size="11.00">File</text>
</g>
<!-- \\acdhOeaw\\schema\\file\\CmdiFile&#45;&gt;\\acdhOeaw\\schema\\file\\File -->
<g id="edge10" class="edge"><title>\\acdhOeaw\\schema\\file\\CmdiFile&#45;&gt;\\acdhOeaw\\schema\\file\\File</title>
<path fill="none" stroke="black" d="M636.075,-148C597.384,-148 535.284,-148 495.98,-148"/>
<polygon fill="none" stroke="black" points="495.779,-144.5 485.779,-148 495.779,-151.5 495.779,-144.5"/>
</g>
<!-- \\acdhOeaw\\schema\\file\\File&#45;&gt;\\acdhOeaw\\schema\\Object -->
<g id="edge13" class="edge"><title>\\acdhOeaw\\schema\\file\\File&#45;&gt;\\acdhOeaw\\schema\\Object</title>
<path fill="none" stroke="black" d="M431.113,-158.807C412.455,-167.401 387.709,-180.825 370,-198 328.259,-238.482 296.804,-299.769 280.955,-334.829"/>
<polygon fill="none" stroke="black" points="277.75,-333.422 276.902,-343.983 284.151,-336.256 277.75,-333.422"/>
</g>
</g>
</svg>
