<?xml version="1.0" encoding="UTF-8" standalone="no"?>
<!DOCTYPE svg PUBLIC "-//W3C//DTD SVG 1.1//EN"
 "http://www.w3.org/Graphics/SVG/1.1/DTD/svg11.dtd">
<!-- Generated by graphviz version 2.38.0 (20140413.2041)
 -->
<!-- Title: G Pages: 1 -->
<svg width="786pt" height="1748pt"
 viewBox="0.00 0.00 785.50 1748.00" xmlns="http://www.w3.org/2000/svg" xmlns:xlink="http://www.w3.org/1999/xlink">
<g id="graph0" class="graph" transform="scale(1 1) rotate(0) translate(4 1744)">
<title>G</title>
<polygon fill="white" stroke="none" points="-4,4 -4,-1744 781.5,-1744 781.5,4 -4,4"/>
<g id="clust1" class="cluster"><title>cluster_Global</title>
<path fill="none" stroke="gray" d="M20,-98C20,-98 757.5,-98 757.5,-98 763.5,-98 769.5,-104 769.5,-110 769.5,-110 769.5,-1720 769.5,-1720 769.5,-1726 763.5,-1732 757.5,-1732 757.5,-1732 20,-1732 20,-1732 14,-1732 8,-1726 8,-1720 8,-1720 8,-110 8,-110 8,-104 14,-98 20,-98"/>
<text text-anchor="middle" x="388.75" y="-1719.2" font-family="Times,serif" font-size="11.00" fill="gray">Global</text>
</g>
<g id="clust2" class="cluster"><title>cluster_\acdhOeaw</title>
<path fill="none" stroke="gray" d="M28,-106C28,-106 749.5,-106 749.5,-106 755.5,-106 761.5,-112 761.5,-118 761.5,-118 761.5,-1692 761.5,-1692 761.5,-1698 755.5,-1704 749.5,-1704 749.5,-1704 28,-1704 28,-1704 22,-1704 16,-1698 16,-1692 16,-1692 16,-118 16,-118 16,-112 22,-106 28,-106"/>
<text text-anchor="middle" x="388.75" y="-1691.2" font-family="Times,serif" font-size="11.00" fill="gray">acdhOeaw</text>
</g>
<g id="clust3" class="cluster"><title>cluster_\acdhOeaw\util</title>
<path fill="none" stroke="gray" d="M382,-1360C382,-1360 737,-1360 737,-1360 743,-1360 749,-1366 749,-1372 749,-1372 749,-1664 749,-1664 749,-1670 743,-1676 737,-1676 737,-1676 382,-1676 382,-1676 376,-1676 370,-1670 370,-1664 370,-1664 370,-1372 370,-1372 370,-1366 376,-1360 382,-1360"/>
<text text-anchor="middle" x="559.5" y="-1663.2" font-family="Times,serif" font-size="11.00" fill="gray">util</text>
</g>
<g id="clust4" class="cluster"><title>cluster_\acdhOeaw\util\metaLookup</title>
<path fill="none" stroke="gray" d="M390,-1522C390,-1522 727,-1522 727,-1522 733,-1522 739,-1528 739,-1534 739,-1534 739,-1636 739,-1636 739,-1642 733,-1648 727,-1648 727,-1648 390,-1648 390,-1648 384,-1648 378,-1642 378,-1636 378,-1636 378,-1534 378,-1534 378,-1528 384,-1522 390,-1522"/>
<text text-anchor="middle" x="558.5" y="-1635.2" font-family="Times,serif" font-size="11.00" fill="gray">metaLookup</text>
</g>
<g id="clust5" class="cluster"><title>cluster_\acdhOeaw\fedora</title>
<path fill="none" stroke="gray" d="M36,-552C36,-552 741.5,-552 741.5,-552 747.5,-552 753.5,-558 753.5,-564 753.5,-564 753.5,-1340 753.5,-1340 753.5,-1346 747.5,-1352 741.5,-1352 741.5,-1352 36,-1352 36,-1352 30,-1352 24,-1346 24,-1340 24,-1340 24,-564 24,-564 24,-558 30,-552 36,-552"/>
<text text-anchor="middle" x="388.75" y="-1339.2" font-family="Times,serif" font-size="11.00" fill="gray">fedora</text>
</g>
<g id="clust6" class="cluster"><title>cluster_\acdhOeaw\fedora\exceptions</title>
<path fill="none" stroke="gray" d="M610.5,-982C610.5,-982 733.5,-982 733.5,-982 739.5,-982 745.5,-988 745.5,-994 745.5,-994 745.5,-1312 745.5,-1312 745.5,-1318 739.5,-1324 733.5,-1324 733.5,-1324 610.5,-1324 610.5,-1324 604.5,-1324 598.5,-1318 598.5,-1312 598.5,-1312 598.5,-994 598.5,-994 598.5,-988 604.5,-982 610.5,-982"/>
<text text-anchor="middle" x="672" y="-1311.2" font-family="Times,serif" font-size="11.00" fill="gray">exceptions</text>
</g>
<g id="clust7" class="cluster"><title>cluster_\acdhOeaw\fedora\acl</title>
<path fill="none" stroke="gray" d="M649,-902C649,-902 695,-902 695,-902 701,-902 707,-908 707,-914 707,-914 707,-962 707,-962 707,-968 701,-974 695,-974 695,-974 649,-974 649,-974 643,-974 637,-968 637,-962 637,-962 637,-914 637,-914 637,-908 643,-902 649,-902"/>
<text text-anchor="middle" x="672" y="-961.2" font-family="Times,serif" font-size="11.00" fill="gray">acl</text>
</g>
<g id="clust8" class="cluster"><title>cluster_\acdhOeaw\fedora\metadataQuery</title>
<path fill="none" stroke="gray" d="M44,-768C44,-768 717,-768 717,-768 723,-768 729,-774 729,-780 729,-780 729,-882 729,-882 729,-888 723,-894 717,-894 717,-894 44,-894 44,-894 38,-894 32,-888 32,-882 32,-882 32,-780 32,-780 32,-774 38,-768 44,-768"/>
<text text-anchor="middle" x="380.5" y="-881.2" font-family="Times,serif" font-size="11.00" fill="gray">metadataQuery</text>
</g>
<g id="clust9" class="cluster"><title>cluster_\acdhOeaw\schema</title>
<path fill="none" stroke="gray" d="M230.5,-114C230.5,-114 728,-114 728,-114 734,-114 740,-120 740,-126 740,-126 740,-532 740,-532 740,-538 734,-544 728,-544 728,-544 230.5,-544 230.5,-544 224.5,-544 218.5,-538 218.5,-532 218.5,-532 218.5,-126 218.5,-126 218.5,-120 224.5,-114 230.5,-114"/>
<text text-anchor="middle" x="479.25" y="-531.2" font-family="Times,serif" font-size="11.00" fill="gray">schema</text>
</g>
<g id="clust10" class="cluster"><title>cluster_\acdhOeaw\schema\dissemination</title>
<path fill="none" stroke="gray" d="M430.5,-390C430.5,-390 720,-390 720,-390 726,-390 732,-396 732,-402 732,-402 732,-504 732,-504 732,-510 726,-516 720,-516 720,-516 430.5,-516 430.5,-516 424.5,-516 418.5,-510 418.5,-504 418.5,-504 418.5,-402 418.5,-402 418.5,-396 424.5,-390 430.5,-390"/>
<text text-anchor="middle" x="575.25" y="-503.2" font-family="Times,serif" font-size="11.00" fill="gray">dissemination</text>
</g>
<g id="clust11" class="cluster"><title>cluster_\acdhOeaw\schema\redmine</title>
<path fill="none" stroke="gray" d="M420.5,-202C420.5,-202 700,-202 700,-202 706,-202 712,-208 712,-214 712,-214 712,-370 712,-370 712,-376 706,-382 700,-382 700,-382 420.5,-382 420.5,-382 414.5,-382 408.5,-376 408.5,-370 408.5,-370 408.5,-214 408.5,-214 408.5,-208 414.5,-202 420.5,-202"/>
<text text-anchor="middle" x="560.25" y="-369.2" font-family="Times,serif" font-size="11.00" fill="gray">redmine</text>
</g>
<g id="clust12" class="cluster"><title>cluster_\acdhOeaw\schema\file</title>
<path fill="none" stroke="gray" d="M435.5,-122C435.5,-122 703.5,-122 703.5,-122 709.5,-122 715.5,-128 715.5,-134 715.5,-134 715.5,-182 715.5,-182 715.5,-188 709.5,-194 703.5,-194 703.5,-194 435.5,-194 435.5,-194 429.5,-194 423.5,-188 423.5,-182 423.5,-182 423.5,-134 423.5,-134 423.5,-128 429.5,-122 435.5,-122"/>
<text text-anchor="middle" x="569.5" y="-181.2" font-family="Times,serif" font-size="11.00" fill="gray">file</text>
</g>
<!-- \\acdhOeaw\\util\\metaLookup\\MetaLookupFile -->
<g id="node1" class="node"><title>\\acdhOeaw\\util\\metaLookup\\MetaLookupFile</title>
<polygon fill="none" stroke="black" points="727.5,-1620 616.5,-1620 616.5,-1584 727.5,-1584 727.5,-1620"/>
<text text-anchor="middle" x="672" y="-1599.2" font-family="Courier,monospace" font-size="11.00">MetaLookupFile</text>
</g>
<!-- \\acdhOeaw\\util\\metaLookup\\MetaLookupInterface -->
<g id="node3" class="node"><title>\\acdhOeaw\\util\\metaLookup\\MetaLookupInterface</title>
<polygon fill="none" stroke="black" points="531,-1593 386,-1593 386,-1557 531,-1557 531,-1593"/>
<text text-anchor="middle" x="458.5" y="-1572.2" font-family="Courier,monospace" font-size="11.00">MetaLookupInterface</text>
</g>
<!-- \\acdhOeaw\\util\\metaLookup\\MetaLookupFile&#45;&gt;\\acdhOeaw\\util\\metaLookup\\MetaLookupInterface -->
<g id="edge4" class="edge"><title>\\acdhOeaw\\util\\metaLookup\\MetaLookupFile&#45;&gt;\\acdhOeaw\\util\\metaLookup\\MetaLookupInterface</title>
<path fill="none" stroke="black" stroke-dasharray="1,5" d="M616.258,-1595.01C593.453,-1592.1 566.485,-1588.66 541.405,-1585.46"/>
<polygon fill="none" stroke="black" points="541.525,-1581.94 531.162,-1584.15 540.638,-1588.89 541.525,-1581.94"/>
</g>
<!-- \\acdhOeaw\\util\\metaLookup\\MetaLookupGraph -->
<g id="node2" class="node"><title>\\acdhOeaw\\util\\metaLookup\\MetaLookupGraph</title>
<polygon fill="none" stroke="black" points="731,-1566 613,-1566 613,-1530 731,-1530 731,-1566"/>
<text text-anchor="middle" x="672" y="-1545.2" font-family="Courier,monospace" font-size="11.00">MetaLookupGraph</text>
</g>
<!-- \\acdhOeaw\\util\\metaLookup\\MetaLookupGraph&#45;&gt;\\acdhOeaw\\util\\metaLookup\\MetaLookupInterface -->
<g id="edge12" class="edge"><title>\\acdhOeaw\\util\\metaLookup\\MetaLookupGraph&#45;&gt;\\acdhOeaw\\util\\metaLookup\\MetaLookupInterface</title>
<path fill="none" stroke="black" stroke-dasharray="1,5" d="M612.927,-1555.41C590.777,-1558.24 565.098,-1561.52 541.159,-1564.58"/>
<polygon fill="none" stroke="black" points="540.497,-1561.13 531.021,-1565.87 541.383,-1568.08 540.497,-1561.13"/>
</g>
<!-- \\acdhOeaw\\util\\RepoConfig -->
<g id="node4" class="node"><title>\\acdhOeaw\\util\\RepoConfig</title>
<polygon fill="none" stroke="black" points="714,-1512 630,-1512 630,-1476 714,-1476 714,-1512"/>
<text text-anchor="middle" x="672" y="-1491.2" font-family="Courier,monospace" font-size="11.00">RepoConfig</text>
</g>
<!-- \\acdhOeaw\\util\\Indexer -->
<g id="node5" class="node"><title>\\acdhOeaw\\util\\Indexer</title>
<polygon fill="none" stroke="black" points="704,-1458 640,-1458 640,-1422 704,-1422 704,-1458"/>
<text text-anchor="middle" x="672" y="-1437.2" font-family="Courier,monospace" font-size="11.00">Indexer</text>
</g>
<!-- \\acdhOeaw\\util\\MetadataCollection -->
<g id="node6" class="node"><title>\\acdhOeaw\\util\\MetadataCollection</title>
<polygon fill="none" stroke="black" points="741,-1404 603,-1404 603,-1368 741,-1368 741,-1404"/>
<text text-anchor="middle" x="672" y="-1383.2" font-family="Courier,monospace" font-size="11.00">MetadataCollection</text>
</g>
<!-- \\EasyRdf\\Graph -->
<g id="node35" class="node"><title>\\EasyRdf\\Graph</title>
<ellipse fill="none" stroke="black" cx="458.5" cy="-72" rx="67.6881" ry="18"/>
<text text-anchor="middle" x="458.5" y="-68.3" font-family="Times,serif" font-size="14.00" fill="gray">\EasyRdf\Graph</text>
</g>
<!-- \\acdhOeaw\\util\\MetadataCollection&#45;&gt;\\EasyRdf\\Graph -->
<g id="edge19" class="edge"><title>\\acdhOeaw\\util\\MetadataCollection&#45;&gt;\\EasyRdf\\Graph</title>
<path fill="none" stroke="black" d="M637.353,-1367.85C622.755,-1358.09 607.066,-1344.62 598.5,-1328 475.122,-1088.62 666.543,-350.711 531,-118 524.848,-107.438 515.194,-98.8953 504.948,-92.1713"/>
<polygon fill="none" stroke="black" points="506.638,-89.1037 496.265,-86.9464 503.029,-95.1015 506.638,-89.1037"/>
</g>
<!-- \\acdhOeaw\\fedora\\exceptions\\Deleted -->
<g id="node7" class="node"><title>\\acdhOeaw\\fedora\\exceptions\\Deleted</title>
<polygon fill="none" stroke="black" points="704,-1296 640,-1296 640,-1260 704,-1260 704,-1296"/>
<text text-anchor="middle" x="672" y="-1275.2" font-family="Courier,monospace" font-size="11.00">Deleted</text>
</g>
<!-- \\Exception -->
<g id="node34" class="node"><title>\\Exception</title>
<ellipse fill="none" stroke="black" cx="458.5" cy="-18" rx="48.9926" ry="18"/>
<text text-anchor="middle" x="458.5" y="-14.3" font-family="Times,serif" font-size="14.00" fill="gray">\Exception</text>
</g>
<!-- \\acdhOeaw\\fedora\\exceptions\\Deleted&#45;&gt;\\Exception -->
<g id="edge1" class="edge"><title>\\acdhOeaw\\fedora\\exceptions\\Deleted&#45;&gt;\\Exception</title>
<path fill="none" stroke="black" d="M639.823,-1274.31C624.866,-1270.83 608.142,-1264.08 598.5,-1251 439.257,-1034.92 689.749,-261.443 531,-45 526.2,-38.455 519.611,-33.4962 512.362,-29.7393"/>
<polygon fill="none" stroke="black" points="513.477,-26.4063 502.913,-25.5944 510.665,-32.8167 513.477,-26.4063"/>
</g>
<!-- \\acdhOeaw\\fedora\\exceptions\\NotFound -->
<g id="node8" class="node"><title>\\acdhOeaw\\fedora\\exceptions\\NotFound</title>
<polygon fill="none" stroke="black" points="707.5,-1242 636.5,-1242 636.5,-1206 707.5,-1206 707.5,-1242"/>
<text text-anchor="middle" x="672" y="-1221.2" font-family="Courier,monospace" font-size="11.00">NotFound</text>
</g>
<!-- \\acdhOeaw\\fedora\\exceptions\\NotFound&#45;&gt;\\Exception -->
<g id="edge7" class="edge"><title>\\acdhOeaw\\fedora\\exceptions\\NotFound&#45;&gt;\\Exception</title>
<path fill="none" stroke="black" d="M636.475,-1219.47C622.435,-1215.78 607.44,-1209.1 598.5,-1197 446.095,-990.763 682.934,-251.584 531,-45 526.191,-38.4612 519.598,-33.5057 512.347,-29.7502"/>
<polygon fill="none" stroke="black" points="513.461,-26.4168 502.897,-25.6061 510.65,-32.8275 513.461,-26.4168"/>
</g>
<!-- \\acdhOeaw\\fedora\\exceptions\\CacheInconsistent -->
<g id="node9" class="node"><title>\\acdhOeaw\\fedora\\exceptions\\CacheInconsistent</title>
<polygon fill="none" stroke="black" points="737.5,-1188 606.5,-1188 606.5,-1152 737.5,-1152 737.5,-1188"/>
<text text-anchor="middle" x="672" y="-1167.2" font-family="Courier,monospace" font-size="11.00">CacheInconsistent</text>
</g>
<!-- \\acdhOeaw\\fedora\\exceptions\\CacheInconsistent&#45;&gt;\\Exception -->
<g id="edge13" class="edge"><title>\\acdhOeaw\\fedora\\exceptions\\CacheInconsistent&#45;&gt;\\Exception</title>
<path fill="none" stroke="black" d="M607.178,-1151.84C603.921,-1149.28 600.979,-1146.35 598.5,-1143 452.932,-946.605 676.119,-241.727 531,-45 526.182,-38.4681 519.583,-33.5162 512.331,-29.7622"/>
<polygon fill="none" stroke="black" points="513.444,-26.4284 502.88,-25.6189 510.633,-32.8394 513.444,-26.4284"/>
</g>
<!-- \\acdhOeaw\\fedora\\exceptions\\NotInCache -->
<g id="node10" class="node"><title>\\acdhOeaw\\fedora\\exceptions\\NotInCache</title>
<polygon fill="none" stroke="black" points="714,-1134 630,-1134 630,-1098 714,-1098 714,-1134"/>
<text text-anchor="middle" x="672" y="-1113.2" font-family="Courier,monospace" font-size="11.00">NotInCache</text>
</g>
<!-- \\acdhOeaw\\fedora\\exceptions\\NotInCache&#45;&gt;\\Exception -->
<g id="edge15" class="edge"><title>\\acdhOeaw\\fedora\\exceptions\\NotInCache&#45;&gt;\\Exception</title>
<path fill="none" stroke="black" d="M629.697,-1109.42C617.81,-1105.46 606.034,-1099.13 598.5,-1089 459.768,-902.446 669.306,-231.87 531,-45 526.171,-38.4758 519.568,-33.5279 512.313,-29.7755"/>
<polygon fill="none" stroke="black" points="513.425,-26.4412 502.861,-25.6331 510.615,-32.8526 513.425,-26.4412"/>
</g>
<!-- \\acdhOeaw\\fedora\\exceptions\\AmbiguousMatch -->
<g id="node11" class="node"><title>\\acdhOeaw\\fedora\\exceptions\\AmbiguousMatch</title>
<polygon fill="none" stroke="black" points="727.5,-1080 616.5,-1080 616.5,-1044 727.5,-1044 727.5,-1080"/>
<text text-anchor="middle" x="672" y="-1059.2" font-family="Courier,monospace" font-size="11.00">AmbiguousMatch</text>
</g>
<!-- \\acdhOeaw\\fedora\\exceptions\\AmbiguousMatch&#45;&gt;\\Exception -->
<g id="edge16" class="edge"><title>\\acdhOeaw\\fedora\\exceptions\\AmbiguousMatch&#45;&gt;\\Exception</title>
<path fill="none" stroke="black" d="M616.34,-1049.73C609.429,-1046.04 603.16,-1041.24 598.5,-1035 466.602,-858.286 662.494,-222.015 531,-45 526.16,-38.4843 519.55,-33.5408 512.293,-29.7902"/>
<polygon fill="none" stroke="black" points="513.403,-26.4555 502.839,-25.6489 510.595,-32.8673 513.403,-26.4555"/>
</g>
<!-- \\acdhOeaw\\fedora\\exceptions\\AlreadyInCache -->
<g id="node12" class="node"><title>\\acdhOeaw\\fedora\\exceptions\\AlreadyInCache</title>
<polygon fill="none" stroke="black" points="727.5,-1026 616.5,-1026 616.5,-990 727.5,-990 727.5,-1026"/>
<text text-anchor="middle" x="672" y="-1005.2" font-family="Courier,monospace" font-size="11.00">AlreadyInCache</text>
</g>
<!-- \\acdhOeaw\\fedora\\exceptions\\AlreadyInCache&#45;&gt;\\Exception -->
<g id="edge18" class="edge"><title>\\acdhOeaw\\fedora\\exceptions\\AlreadyInCache&#45;&gt;\\Exception</title>
<path fill="none" stroke="black" d="M616.278,-993.418C609.375,-989.449 603.125,-984.406 598.5,-978 476.816,-809.462 655.305,-211.615 531,-45 526.146,-38.4943 519.53,-33.5561 512.27,-29.8077"/>
<polygon fill="none" stroke="black" points="513.379,-26.4723 502.814,-25.6676 510.571,-32.8846 513.379,-26.4723"/>
</g>
<!-- \\acdhOeaw\\fedora\\acl\\WebAC -->
<g id="node13" class="node"><title>\\acdhOeaw\\fedora\\acl\\WebAC</title>
<polygon fill="none" stroke="black" points="699,-946 645,-946 645,-910 699,-910 699,-946"/>
<text text-anchor="middle" x="672" y="-925.2" font-family="Courier,monospace" font-size="11.00">WebAC</text>
</g>
<!-- \\acdhOeaw\\fedora\\metadataQuery\\Query -->
<g id="node14" class="node"><title>\\acdhOeaw\\fedora\\metadataQuery\\Query</title>
<polygon fill="none" stroke="black" points="699,-866 645,-866 645,-830 699,-830 699,-866"/>
<text text-anchor="middle" x="672" y="-845.2" font-family="Courier,monospace" font-size="11.00">Query</text>
</g>
<!-- \\acdhOeaw\\fedora\\metadataQuery\\HasValue -->
<g id="node15" class="node"><title>\\acdhOeaw\\fedora\\metadataQuery\\HasValue</title>
<polygon fill="none" stroke="black" points="494,-866 423,-866 423,-830 494,-830 494,-866"/>
<text text-anchor="middle" x="458.5" y="-845.2" font-family="Courier,monospace" font-size="11.00">HasValue</text>
</g>
<!-- \\acdhOeaw\\fedora\\metadataQuery\\HasProperty -->
<g id="node19" class="node"><title>\\acdhOeaw\\fedora\\metadataQuery\\HasProperty</title>
<polygon fill="none" stroke="black" points="314,-839 223,-839 223,-803 314,-803 314,-839"/>
<text text-anchor="middle" x="268.5" y="-818.2" font-family="Courier,monospace" font-size="11.00">HasProperty</text>
</g>
<!-- \\acdhOeaw\\fedora\\metadataQuery\\HasValue&#45;&gt;\\acdhOeaw\\fedora\\metadataQuery\\HasProperty -->
<g id="edge9" class="edge"><title>\\acdhOeaw\\fedora\\metadataQuery\\HasValue&#45;&gt;\\acdhOeaw\\fedora\\metadataQuery\\HasProperty</title>
<path fill="none" stroke="black" d="M422.579,-842.985C394.984,-839.022 355.964,-833.418 324.227,-828.86"/>
<polygon fill="none" stroke="black" points="324.598,-825.377 314.202,-827.42 323.603,-832.306 324.598,-825.377"/>
</g>
<!-- \\acdhOeaw\\fedora\\metadataQuery\\QueryParameter -->
<g id="node16" class="node"><title>\\acdhOeaw\\fedora\\metadataQuery\\QueryParameter</title>
<polygon fill="none" stroke="black" points="151,-839 40,-839 40,-803 151,-803 151,-839"/>
<text text-anchor="start" x="61.5" y="-824.2" font-family="Courier,monospace" font-size="11.00">«abstract»</text>
<text text-anchor="start" x="48" y="-812.2" font-family="Courier,monospace" font-size="11.00">QueryParameter</text>
</g>
<!-- \\acdhOeaw\\fedora\\metadataQuery\\MatchesRegEx -->
<g id="node17" class="node"><title>\\acdhOeaw\\fedora\\metadataQuery\\MatchesRegEx</title>
<polygon fill="none" stroke="black" points="721,-812 623,-812 623,-776 721,-776 721,-812"/>
<text text-anchor="middle" x="672" y="-791.2" font-family="Courier,monospace" font-size="11.00">MatchesRegEx</text>
</g>
<!-- \\acdhOeaw\\fedora\\metadataQuery\\MatchesRegEx&#45;&gt;\\acdhOeaw\\fedora\\metadataQuery\\HasValue -->
<g id="edge14" class="edge"><title>\\acdhOeaw\\fedora\\metadataQuery\\MatchesRegEx&#45;&gt;\\acdhOeaw\\fedora\\metadataQuery\\HasValue</title>
<path fill="none" stroke="black" d="M622.743,-806.321C587.012,-815.444 538.7,-827.779 503.918,-836.659"/>
<polygon fill="none" stroke="black" points="502.861,-833.317 494.038,-839.182 504.593,-840.099 502.861,-833.317"/>
</g>
<!-- \\acdhOeaw\\fedora\\metadataQuery\\HasTriple -->
<g id="node18" class="node"><title>\\acdhOeaw\\fedora\\metadataQuery\\HasTriple</title>
<polygon fill="none" stroke="black" points="497,-812 420,-812 420,-776 497,-776 497,-812"/>
<text text-anchor="middle" x="458.5" y="-791.2" font-family="Courier,monospace" font-size="11.00">HasTriple</text>
</g>
<!-- \\acdhOeaw\\fedora\\metadataQuery\\HasTriple&#45;&gt;\\acdhOeaw\\fedora\\metadataQuery\\HasProperty -->
<g id="edge20" class="edge"><title>\\acdhOeaw\\fedora\\metadataQuery\\HasTriple&#45;&gt;\\acdhOeaw\\fedora\\metadataQuery\\HasProperty</title>
<path fill="none" stroke="black" d="M419.907,-799.399C392.566,-803.326 355.122,-808.703 324.434,-813.111"/>
<polygon fill="none" stroke="black" points="323.711,-809.678 314.31,-814.564 324.707,-816.607 323.711,-809.678"/>
</g>
<!-- \\acdhOeaw\\fedora\\metadataQuery\\HasProperty&#45;&gt;\\acdhOeaw\\fedora\\metadataQuery\\QueryParameter -->
<g id="edge21" class="edge"><title>\\acdhOeaw\\fedora\\metadataQuery\\HasProperty&#45;&gt;\\acdhOeaw\\fedora\\metadataQuery\\QueryParameter</title>
<path fill="none" stroke="black" d="M222.572,-821C203.864,-821 181.782,-821 161.369,-821"/>
<polygon fill="none" stroke="black" points="161.19,-817.5 151.19,-821 161.19,-824.5 161.19,-817.5"/>
</g>
<!-- \\acdhOeaw\\fedora\\Fedora -->
<g id="node20" class="node"><title>\\acdhOeaw\\fedora\\Fedora</title>
<polygon fill="none" stroke="black" points="700.5,-758 643.5,-758 643.5,-722 700.5,-722 700.5,-758"/>
<text text-anchor="middle" x="672" y="-737.2" font-family="Courier,monospace" font-size="11.00">Fedora</text>
</g>
<!-- \\acdhOeaw\\fedora\\FedoraResource -->
<g id="node21" class="node"><title>\\acdhOeaw\\fedora\\FedoraResource</title>
<polygon fill="none" stroke="black" points="727.5,-704 616.5,-704 616.5,-668 727.5,-668 727.5,-704"/>
<text text-anchor="middle" x="672" y="-683.2" font-family="Courier,monospace" font-size="11.00">FedoraResource</text>
</g>
<!-- \\acdhOeaw\\fedora\\SparqlClient -->
<g id="node22" class="node"><title>\\acdhOeaw\\fedora\\SparqlClient</title>
<polygon fill="none" stroke="black" points="721,-650 623,-650 623,-614 721,-614 721,-650"/>
<text text-anchor="middle" x="672" y="-629.2" font-family="Courier,monospace" font-size="11.00">SparqlClient</text>
</g>
<!-- \\acdhOeaw\\fedora\\FedoraCache -->
<g id="node23" class="node"><title>\\acdhOeaw\\fedora\\FedoraCache</title>
<polygon fill="none" stroke="black" points="717.5,-596 626.5,-596 626.5,-560 717.5,-560 717.5,-596"/>
<text text-anchor="middle" x="672" y="-575.2" font-family="Courier,monospace" font-size="11.00">FedoraCache</text>
</g>
<!-- \\acdhOeaw\\schema\\dissemination\\Parameter -->
<g id="node24" class="node"><title>\\acdhOeaw\\schema\\dissemination\\Parameter</title>
<polygon fill="none" stroke="black" points="710.5,-488 633.5,-488 633.5,-452 710.5,-452 710.5,-488"/>
<text text-anchor="middle" x="672" y="-467.2" font-family="Courier,monospace" font-size="11.00">Parameter</text>
</g>
<!-- \\acdhOeaw\\schema\\Object -->
<g id="node33" class="node"><title>\\acdhOeaw\\schema\\Object</title>
<polygon fill="none" stroke="black" points="310.5,-380 226.5,-380 226.5,-344 310.5,-344 310.5,-380"/>
<text text-anchor="start" x="234.5" y="-365.2" font-family="Courier,monospace" font-size="11.00">«abstract»</text>
<text text-anchor="start" x="248" y="-353.2" font-family="Courier,monospace" font-size="11.00">Object</text>
</g>
<!-- \\acdhOeaw\\schema\\dissemination\\Parameter&#45;&gt;\\acdhOeaw\\schema\\Object -->
<g id="edge2" class="edge"><title>\\acdhOeaw\\schema\\dissemination\\Parameter&#45;&gt;\\acdhOeaw\\schema\\Object</title>
<path fill="none" stroke="black" d="M633.249,-473.438C574.583,-477.307 459.025,-478.963 370,-443 339.734,-430.774 311.372,-406.236 292.547,-387.356"/>
<polygon fill="none" stroke="black" points="295.052,-384.911 285.573,-380.179 290.032,-389.789 295.052,-384.911"/>
</g>
<!-- \\acdhOeaw\\schema\\dissemination\\CiriloService -->
<g id="node25" class="node"><title>\\acdhOeaw\\schema\\dissemination\\CiriloService</title>
<polygon fill="none" stroke="black" points="724,-434 620,-434 620,-398 724,-398 724,-434"/>
<text text-anchor="middle" x="672" y="-413.2" font-family="Courier,monospace" font-size="11.00">CiriloService</text>
</g>
<!-- \\acdhOeaw\\schema\\dissemination\\Service -->
<g id="node26" class="node"><title>\\acdhOeaw\\schema\\dissemination\\Service</title>
<polygon fill="none" stroke="black" points="490.5,-434 426.5,-434 426.5,-398 490.5,-398 490.5,-434"/>
<text text-anchor="middle" x="458.5" y="-413.2" font-family="Courier,monospace" font-size="11.00">Service</text>
</g>
<!-- \\acdhOeaw\\schema\\dissemination\\CiriloService&#45;&gt;\\acdhOeaw\\schema\\dissemination\\Service -->
<g id="edge5" class="edge"><title>\\acdhOeaw\\schema\\dissemination\\CiriloService&#45;&gt;\\acdhOeaw\\schema\\dissemination\\Service</title>
<path fill="none" stroke="black" d="M619.802,-416C583.24,-416 534.699,-416 500.646,-416"/>
<polygon fill="none" stroke="black" points="500.573,-412.5 490.573,-416 500.573,-419.5 500.573,-412.5"/>
</g>
<!-- \\acdhOeaw\\schema\\dissemination\\Service&#45;&gt;\\acdhOeaw\\schema\\Object -->
<g id="edge17" class="edge"><title>\\acdhOeaw\\schema\\dissemination\\Service&#45;&gt;\\acdhOeaw\\schema\\Object</title>
<path fill="none" stroke="black" d="M426.456,-407.083C397.694,-398.822 354.38,-386.381 320.535,-376.659"/>
<polygon fill="none" stroke="black" points="321.39,-373.263 310.812,-373.866 319.457,-379.991 321.39,-373.263"/>
</g>
<!-- \\acdhOeaw\\schema\\redmine\\Redmine -->
<g id="node27" class="node"><title>\\acdhOeaw\\schema\\redmine\\Redmine</title>
<polygon fill="none" stroke="black" points="500.5,-327 416.5,-327 416.5,-291 500.5,-291 500.5,-327"/>
<text text-anchor="start" x="424.5" y="-312.2" font-family="Courier,monospace" font-size="11.00">«abstract»</text>
<text text-anchor="start" x="434.5" y="-300.2" font-family="Courier,monospace" font-size="11.00">Redmine</text>
</g>
<!-- \\acdhOeaw\\schema\\redmine\\Redmine&#45;&gt;\\acdhOeaw\\schema\\Object -->
<g id="edge3" class="edge"><title>\\acdhOeaw\\schema\\redmine\\Redmine&#45;&gt;\\acdhOeaw\\schema\\Object</title>
<path fill="none" stroke="black" d="M416.243,-320.631C388.081,-328.57 350.581,-339.142 320.539,-347.611"/>
<polygon fill="none" stroke="black" points="319.336,-344.314 310.661,-350.396 321.236,-351.051 319.336,-344.314"/>
</g>
<!-- \\acdhOeaw\\schema\\redmine\\Issue -->
<g id="node28" class="node"><title>\\acdhOeaw\\schema\\redmine\\Issue</title>
<polygon fill="none" stroke="black" points="699,-354 645,-354 645,-318 699,-318 699,-354"/>
<text text-anchor="middle" x="672" y="-333.2" font-family="Courier,monospace" font-size="11.00">Issue</text>
</g>
<!-- \\acdhOeaw\\schema\\redmine\\Issue&#45;&gt;\\acdhOeaw\\schema\\redmine\\Redmine -->
<g id="edge6" class="edge"><title>\\acdhOeaw\\schema\\redmine\\Issue&#45;&gt;\\acdhOeaw\\schema\\redmine\\Redmine</title>
<path fill="none" stroke="black" d="M644.641,-332.635C611.291,-328.378 553.116,-320.951 510.861,-315.557"/>
<polygon fill="none" stroke="black" points="511.119,-312.061 500.756,-314.267 510.232,-319.005 511.119,-312.061"/>
</g>
<!-- \\acdhOeaw\\schema\\redmine\\Project -->
<g id="node29" class="node"><title>\\acdhOeaw\\schema\\redmine\\Project</title>
<polygon fill="none" stroke="black" points="704,-300 640,-300 640,-264 704,-264 704,-300"/>
<text text-anchor="middle" x="672" y="-279.2" font-family="Courier,monospace" font-size="11.00">Project</text>
</g>
<!-- \\acdhOeaw\\schema\\redmine\\Project&#45;&gt;\\acdhOeaw\\schema\\redmine\\Redmine -->
<g id="edge10" class="edge"><title>\\acdhOeaw\\schema\\redmine\\Project&#45;&gt;\\acdhOeaw\\schema\\redmine\\Redmine</title>
<path fill="none" stroke="black" d="M639.792,-285.984C605.861,-290.316 551.097,-297.307 510.818,-302.449"/>
<polygon fill="none" stroke="black" points="510.128,-299.008 500.652,-303.747 511.015,-305.952 510.128,-299.008"/>
</g>
<!-- \\acdhOeaw\\schema\\redmine\\User -->
<g id="node30" class="node"><title>\\acdhOeaw\\schema\\redmine\\User</title>
<polygon fill="none" stroke="black" points="699,-246 645,-246 645,-210 699,-210 699,-246"/>
<text text-anchor="middle" x="672" y="-225.2" font-family="Courier,monospace" font-size="11.00">User</text>
</g>
<!-- \\acdhOeaw\\schema\\redmine\\User&#45;&gt;\\acdhOeaw\\schema\\redmine\\Redmine -->
<g id="edge22" class="edge"><title>\\acdhOeaw\\schema\\redmine\\User&#45;&gt;\\acdhOeaw\\schema\\redmine\\Redmine</title>
<path fill="none" stroke="black" d="M644.792,-237.659C630.999,-242.768 613.815,-249.174 598.5,-255 569.191,-266.15 536.5,-278.838 510.188,-289.112"/>
<polygon fill="none" stroke="black" points="508.84,-285.88 500.8,-292.78 511.388,-292.4 508.84,-285.88"/>
</g>
<!-- \\acdhOeaw\\schema\\file\\CmdiFile -->
<g id="node31" class="node"><title>\\acdhOeaw\\schema\\file\\CmdiFile</title>
<polygon fill="none" stroke="black" points="707.5,-166 636.5,-166 636.5,-130 707.5,-130 707.5,-166"/>
<text text-anchor="middle" x="672" y="-145.2" font-family="Courier,monospace" font-size="11.00">CmdiFile</text>
</g>
<!-- \\acdhOeaw\\schema\\file\\File -->
<g id="node32" class="node"><title>\\acdhOeaw\\schema\\file\\File</title>
<polygon fill="none" stroke="black" points="485.5,-166 431.5,-166 431.5,-130 485.5,-130 485.5,-166"/>
<text text-anchor="middle" x="458.5" y="-145.2" font-family="Courier,monospace" font-size="11.00">File</text>
</g>
<!-- \\acdhOeaw\\schema\\file\\CmdiFile&#45;&gt;\\acdhOeaw\\schema\\file\\File -->
<g id="edge8" class="edge"><title>\\acdhOeaw\\schema\\file\\CmdiFile&#45;&gt;\\acdhOeaw\\schema\\file\\File</title>
<path fill="none" stroke="black" d="M636.075,-148C597.384,-148 535.284,-148 495.98,-148"/>
<polygon fill="none" stroke="black" points="495.779,-144.5 485.779,-148 495.779,-151.5 495.779,-144.5"/>
</g>
<!-- \\acdhOeaw\\schema\\file\\File&#45;&gt;\\acdhOeaw\\schema\\Object -->
<g id="edge11" class="edge"><title>\\acdhOeaw\\schema\\file\\File&#45;&gt;\\acdhOeaw\\schema\\Object</title>
<path fill="none" stroke="black" d="M431.113,-158.807C412.455,-167.401 387.709,-180.825 370,-198 328.259,-238.482 296.804,-299.769 280.955,-334.829"/>
<polygon fill="none" stroke="black" points="277.75,-333.422 276.902,-343.983 284.151,-336.256 277.75,-333.422"/>
</g>
</g>
</svg>
