<?xml version="1.0" encoding="UTF-8" standalone="no"?>
<!DOCTYPE svg PUBLIC "-//W3C//DTD SVG 1.1//EN"
 "http://www.w3.org/Graphics/SVG/1.1/DTD/svg11.dtd">
<!-- Generated by graphviz version 2.38.0 (20140413.2041)
 -->
<!-- Title: G Pages: 1 -->
<svg width="786pt" height="2340pt"
 viewBox="0.00 0.00 785.50 2340.00" xmlns="http://www.w3.org/2000/svg" xmlns:xlink="http://www.w3.org/1999/xlink">
<g id="graph0" class="graph" transform="scale(1 1) rotate(0) translate(4 2336)">
<title>G</title>
<polygon fill="white" stroke="none" points="-4,4 -4,-2336 781.5,-2336 781.5,4 -4,4"/>
<g id="clust1" class="cluster"><title>cluster_Global</title>
<path fill="none" stroke="gray" d="M20,-98C20,-98 757.5,-98 757.5,-98 763.5,-98 769.5,-104 769.5,-110 769.5,-110 769.5,-2312 769.5,-2312 769.5,-2318 763.5,-2324 757.5,-2324 757.5,-2324 20,-2324 20,-2324 14,-2324 8,-2318 8,-2312 8,-2312 8,-110 8,-110 8,-104 14,-98 20,-98"/>
<text text-anchor="middle" x="388.75" y="-2311.2" font-family="Times,serif" font-size="11.00" fill="gray">Global</text>
</g>
<g id="clust2" class="cluster"><title>cluster_\acdhOeaw</title>
<path fill="none" stroke="gray" d="M28,-106C28,-106 749.5,-106 749.5,-106 755.5,-106 761.5,-112 761.5,-118 761.5,-118 761.5,-2284 761.5,-2284 761.5,-2290 755.5,-2296 749.5,-2296 749.5,-2296 28,-2296 28,-2296 22,-2296 16,-2290 16,-2284 16,-2284 16,-118 16,-118 16,-112 22,-106 28,-106"/>
<text text-anchor="middle" x="388.75" y="-2283.2" font-family="Times,serif" font-size="11.00" fill="gray">acdhOeaw</text>
</g>
<g id="clust3" class="cluster"><title>cluster_\acdhOeaw\schema</title>
<path fill="none" stroke="gray" d="M230.5,-1784C230.5,-1784 728,-1784 728,-1784 734,-1784 740,-1790 740,-1796 740,-1796 740,-2256 740,-2256 740,-2262 734,-2268 728,-2268 728,-2268 230.5,-2268 230.5,-2268 224.5,-2268 218.5,-2262 218.5,-2256 218.5,-2256 218.5,-1796 218.5,-1796 218.5,-1790 224.5,-1784 230.5,-1784"/>
<text text-anchor="middle" x="479.25" y="-2255.2" font-family="Times,serif" font-size="11.00" fill="gray">schema</text>
</g>
<g id="clust4" class="cluster"><title>cluster_\acdhOeaw\schema\dissemination</title>
<path fill="none" stroke="gray" d="M430.5,-2060C430.5,-2060 720,-2060 720,-2060 726,-2060 732,-2066 732,-2072 732,-2072 732,-2228 732,-2228 732,-2234 726,-2240 720,-2240 720,-2240 430.5,-2240 430.5,-2240 424.5,-2240 418.5,-2234 418.5,-2228 418.5,-2228 418.5,-2072 418.5,-2072 418.5,-2066 424.5,-2060 430.5,-2060"/>
<text text-anchor="middle" x="575.25" y="-2227.2" font-family="Times,serif" font-size="11.00" fill="gray">dissemination</text>
</g>
<g id="clust5" class="cluster"><title>cluster_\acdhOeaw\schema\redmine</title>
<path fill="none" stroke="gray" d="M420.5,-1872C420.5,-1872 700,-1872 700,-1872 706,-1872 712,-1878 712,-1884 712,-1884 712,-2040 712,-2040 712,-2046 706,-2052 700,-2052 700,-2052 420.5,-2052 420.5,-2052 414.5,-2052 408.5,-2046 408.5,-2040 408.5,-2040 408.5,-1884 408.5,-1884 408.5,-1878 414.5,-1872 420.5,-1872"/>
<text text-anchor="middle" x="560.25" y="-2039.2" font-family="Times,serif" font-size="11.00" fill="gray">redmine</text>
</g>
<g id="clust6" class="cluster"><title>cluster_\acdhOeaw\schema\file</title>
<path fill="none" stroke="gray" d="M435.5,-1792C435.5,-1792 703.5,-1792 703.5,-1792 709.5,-1792 715.5,-1798 715.5,-1804 715.5,-1804 715.5,-1852 715.5,-1852 715.5,-1858 709.5,-1864 703.5,-1864 703.5,-1864 435.5,-1864 435.5,-1864 429.5,-1864 423.5,-1858 423.5,-1852 423.5,-1852 423.5,-1804 423.5,-1804 423.5,-1798 429.5,-1792 435.5,-1792"/>
<text text-anchor="middle" x="569.5" y="-1851.2" font-family="Times,serif" font-size="11.00" fill="gray">file</text>
</g>
<g id="clust7" class="cluster"><title>cluster_\acdhOeaw\util</title>
<path fill="none" stroke="gray" d="M382,-1272C382,-1272 741.5,-1272 741.5,-1272 747.5,-1272 753.5,-1278 753.5,-1284 753.5,-1284 753.5,-1764 753.5,-1764 753.5,-1770 747.5,-1776 741.5,-1776 741.5,-1776 382,-1776 382,-1776 376,-1776 370,-1770 370,-1764 370,-1764 370,-1284 370,-1284 370,-1278 376,-1272 382,-1272"/>
<text text-anchor="middle" x="561.75" y="-1763.2" font-family="Times,serif" font-size="11.00" fill="gray">util</text>
</g>
<g id="clust8" class="cluster"><title>cluster_\acdhOeaw\util\metaLookup</title>
<path fill="none" stroke="gray" d="M390,-1622C390,-1622 727,-1622 727,-1622 733,-1622 739,-1628 739,-1634 739,-1634 739,-1736 739,-1736 739,-1742 733,-1748 727,-1748 727,-1748 390,-1748 390,-1748 384,-1748 378,-1742 378,-1736 378,-1736 378,-1634 378,-1634 378,-1628 384,-1622 390,-1622"/>
<text text-anchor="middle" x="558.5" y="-1735.2" font-family="Times,serif" font-size="11.00" fill="gray">metaLookup</text>
</g>
<g id="clust9" class="cluster"><title>cluster_\acdhOeaw\util\metadataValidator</title>
<path fill="none" stroke="gray" d="M610.5,-1434C610.5,-1434 733.5,-1434 733.5,-1434 739.5,-1434 745.5,-1440 745.5,-1446 745.5,-1446 745.5,-1602 745.5,-1602 745.5,-1608 739.5,-1614 733.5,-1614 733.5,-1614 610.5,-1614 610.5,-1614 604.5,-1614 598.5,-1608 598.5,-1602 598.5,-1602 598.5,-1446 598.5,-1446 598.5,-1440 604.5,-1434 610.5,-1434"/>
<text text-anchor="middle" x="672" y="-1601.2" font-family="Times,serif" font-size="11.00" fill="gray">metadataValidator</text>
</g>
<g id="clust10" class="cluster"><title>cluster_\acdhOeaw\fedora</title>
<path fill="none" stroke="gray" d="M36,-114C36,-114 741.5,-114 741.5,-114 747.5,-114 753.5,-120 753.5,-126 753.5,-126 753.5,-1252 753.5,-1252 753.5,-1258 747.5,-1264 741.5,-1264 741.5,-1264 36,-1264 36,-1264 30,-1264 24,-1258 24,-1252 24,-1252 24,-126 24,-126 24,-120 30,-114 36,-114"/>
<text text-anchor="middle" x="388.75" y="-1251.2" font-family="Times,serif" font-size="11.00" fill="gray">fedora</text>
</g>
<g id="clust11" class="cluster"><title>cluster_\acdhOeaw\fedora\dissemination</title>
<path fill="none" stroke="gray" d="M637.5,-1110C637.5,-1110 706.5,-1110 706.5,-1110 712.5,-1110 718.5,-1116 718.5,-1122 718.5,-1122 718.5,-1224 718.5,-1224 718.5,-1230 712.5,-1236 706.5,-1236 706.5,-1236 637.5,-1236 637.5,-1236 631.5,-1236 625.5,-1230 625.5,-1224 625.5,-1224 625.5,-1122 625.5,-1122 625.5,-1116 631.5,-1110 637.5,-1110"/>
<text text-anchor="middle" x="672" y="-1223.2" font-family="Times,serif" font-size="11.00" fill="gray">dissemination</text>
</g>
<g id="clust12" class="cluster"><title>cluster_\acdhOeaw\fedora\exceptions</title>
<path fill="none" stroke="gray" d="M610.5,-276C610.5,-276 733.5,-276 733.5,-276 739.5,-276 745.5,-282 745.5,-288 745.5,-288 745.5,-768 745.5,-768 745.5,-774 739.5,-780 733.5,-780 733.5,-780 610.5,-780 610.5,-780 604.5,-780 598.5,-774 598.5,-768 598.5,-768 598.5,-288 598.5,-288 598.5,-282 604.5,-276 610.5,-276"/>
<text text-anchor="middle" x="672" y="-767.2" font-family="Times,serif" font-size="11.00" fill="gray">exceptions</text>
</g>
<g id="clust13" class="cluster"><title>cluster_\acdhOeaw\fedora\acl</title>
<path fill="none" stroke="gray" d="M634,-976C634,-976 710,-976 710,-976 716,-976 722,-982 722,-988 722,-988 722,-1090 722,-1090 722,-1096 716,-1102 710,-1102 710,-1102 634,-1102 634,-1102 628,-1102 622,-1096 622,-1090 622,-1090 622,-988 622,-988 622,-982 628,-976 634,-976"/>
<text text-anchor="middle" x="672" y="-1089.2" font-family="Times,serif" font-size="11.00" fill="gray">acl</text>
</g>
<g id="clust14" class="cluster"><title>cluster_\acdhOeaw\fedora\metadataQuery</title>
<path fill="none" stroke="gray" d="M44,-788C44,-788 717,-788 717,-788 723,-788 729,-794 729,-800 729,-800 729,-956 729,-956 729,-962 723,-968 717,-968 717,-968 44,-968 44,-968 38,-968 32,-962 32,-956 32,-956 32,-800 32,-800 32,-794 38,-788 44,-788"/>
<text text-anchor="middle" x="380.5" y="-955.2" font-family="Times,serif" font-size="11.00" fill="gray">metadataQuery</text>
</g>
<!-- \\acdhOeaw\\schema\\dissemination\\Match -->
<g id="node1" class="node"><title>\\acdhOeaw\\schema\\dissemination\\Match</title>
<polygon fill="none" stroke="black" points="699,-2104 645,-2104 645,-2068 699,-2068 699,-2104"/>
<text text-anchor="middle" x="672" y="-2083.2" font-family="Courier,monospace" font-size="11.00">Match</text>
</g>
<!-- \\acdhOeaw\\schema\\Object -->
<g id="node11" class="node"><title>\\acdhOeaw\\schema\\Object</title>
<polygon fill="none" stroke="black" points="310.5,-2059 226.5,-2059 226.5,-2023 310.5,-2023 310.5,-2059"/>
<text text-anchor="start" x="234.5" y="-2044.2" font-family="Courier,monospace" font-size="11.00">«abstract»</text>
<text text-anchor="start" x="248" y="-2032.2" font-family="Courier,monospace" font-size="11.00">Object</text>
</g>
<!-- \\acdhOeaw\\schema\\dissemination\\Match&#45;&gt;\\acdhOeaw\\schema\\Object -->
<g id="edge1" class="edge"><title>\\acdhOeaw\\schema\\dissemination\\Match&#45;&gt;\\acdhOeaw\\schema\\Object</title>
<path fill="none" stroke="black" d="M644.737,-2092.67C604.539,-2101.89 525.472,-2116.08 459.5,-2104"/>
<path fill="none" stroke="black" d="M457.5,-2104C409.789,-2095.26 357.643,-2077.06 320.399,-2062.45"/>
<polygon fill="none" stroke="black" points="321.371,-2059.07 310.785,-2058.63 318.787,-2065.58 321.371,-2059.07"/>
</g>
<!-- \\acdhOeaw\\schema\\dissemination\\Parameter -->
<g id="node2" class="node"><title>\\acdhOeaw\\schema\\dissemination\\Parameter</title>
<polygon fill="none" stroke="black" points="710.5,-2158 633.5,-2158 633.5,-2122 710.5,-2122 710.5,-2158"/>
<text text-anchor="middle" x="672" y="-2137.2" font-family="Courier,monospace" font-size="11.00">Parameter</text>
</g>
<!-- \\acdhOeaw\\schema\\dissemination\\Parameter&#45;&gt;\\acdhOeaw\\schema\\Object -->
<g id="edge5" class="edge"><title>\\acdhOeaw\\schema\\dissemination\\Parameter&#45;&gt;\\acdhOeaw\\schema\\Object</title>
<path fill="none" stroke="black" d="M633.126,-2133.85C590.766,-2126.9 520.135,-2115.11 459.5,-2104"/>
</g>
<!-- \\acdhOeaw\\schema\\dissemination\\CiriloService -->
<g id="node3" class="node"><title>\\acdhOeaw\\schema\\dissemination\\CiriloService</title>
<polygon fill="none" stroke="black" points="724,-2212 620,-2212 620,-2176 724,-2176 724,-2212"/>
<text text-anchor="middle" x="672" y="-2191.2" font-family="Courier,monospace" font-size="11.00">CiriloService</text>
</g>
<!-- \\acdhOeaw\\schema\\dissemination\\Service -->
<g id="node4" class="node"><title>\\acdhOeaw\\schema\\dissemination\\Service</title>
<polygon fill="none" stroke="black" points="490.5,-2194 426.5,-2194 426.5,-2158 490.5,-2158 490.5,-2194"/>
<text text-anchor="middle" x="458.5" y="-2173.2" font-family="Courier,monospace" font-size="11.00">Service</text>
</g>
<!-- \\acdhOeaw\\schema\\dissemination\\CiriloService&#45;&gt;\\acdhOeaw\\schema\\dissemination\\Service -->
<g id="edge8" class="edge"><title>\\acdhOeaw\\schema\\dissemination\\CiriloService&#45;&gt;\\acdhOeaw\\schema\\dissemination\\Service</title>
<path fill="none" stroke="black" d="M619.802,-2189.64C583.24,-2186.53 534.699,-2182.4 500.646,-2179.5"/>
<polygon fill="none" stroke="black" points="500.833,-2176.01 490.573,-2178.64 500.24,-2182.98 500.833,-2176.01"/>
</g>
<!-- \\acdhOeaw\\schema\\dissemination\\Service&#45;&gt;\\acdhOeaw\\schema\\Object -->
<g id="edge22" class="edge"><title>\\acdhOeaw\\schema\\dissemination\\Service&#45;&gt;\\acdhOeaw\\schema\\Object</title>
<path fill="none" stroke="black" d="M426.195,-2172.73C408.677,-2169.81 387.01,-2164.31 370,-2154 334.254,-2132.32 304.096,-2093.9 286.402,-2067.94"/>
<polygon fill="none" stroke="black" points="289.127,-2065.72 280.675,-2059.33 283.298,-2069.59 289.127,-2065.72"/>
</g>
<!-- \\acdhOeaw\\schema\\redmine\\Redmine -->
<g id="node5" class="node"><title>\\acdhOeaw\\schema\\redmine\\Redmine</title>
<polygon fill="none" stroke="black" points="500.5,-1997 416.5,-1997 416.5,-1961 500.5,-1961 500.5,-1997"/>
<text text-anchor="start" x="424.5" y="-1982.2" font-family="Courier,monospace" font-size="11.00">«abstract»</text>
<text text-anchor="start" x="434.5" y="-1970.2" font-family="Courier,monospace" font-size="11.00">Redmine</text>
</g>
<!-- \\acdhOeaw\\schema\\redmine\\Redmine&#45;&gt;\\acdhOeaw\\schema\\Object -->
<g id="edge6" class="edge"><title>\\acdhOeaw\\schema\\redmine\\Redmine&#45;&gt;\\acdhOeaw\\schema\\Object</title>
<path fill="none" stroke="black" d="M416.243,-1992.61C388.081,-2001.89 350.581,-2014.26 320.539,-2024.17"/>
<polygon fill="none" stroke="black" points="319.062,-2020.97 310.661,-2027.43 321.254,-2027.62 319.062,-2020.97"/>
</g>
<!-- \\acdhOeaw\\schema\\redmine\\Issue -->
<g id="node6" class="node"><title>\\acdhOeaw\\schema\\redmine\\Issue</title>
<polygon fill="none" stroke="black" points="699,-2024 645,-2024 645,-1988 699,-1988 699,-2024"/>
<text text-anchor="middle" x="672" y="-2003.2" font-family="Courier,monospace" font-size="11.00">Issue</text>
</g>
<!-- \\acdhOeaw\\schema\\redmine\\Issue&#45;&gt;\\acdhOeaw\\schema\\redmine\\Redmine -->
<g id="edge9" class="edge"><title>\\acdhOeaw\\schema\\redmine\\Issue&#45;&gt;\\acdhOeaw\\schema\\redmine\\Redmine</title>
<path fill="none" stroke="black" d="M644.641,-2002.64C611.291,-1998.38 553.116,-1990.95 510.861,-1985.56"/>
<polygon fill="none" stroke="black" points="511.119,-1982.06 500.756,-1984.27 510.232,-1989 511.119,-1982.06"/>
</g>
<!-- \\acdhOeaw\\schema\\redmine\\Project -->
<g id="node7" class="node"><title>\\acdhOeaw\\schema\\redmine\\Project</title>
<polygon fill="none" stroke="black" points="704,-1970 640,-1970 640,-1934 704,-1934 704,-1970"/>
<text text-anchor="middle" x="672" y="-1949.2" font-family="Courier,monospace" font-size="11.00">Project</text>
</g>
<!-- \\acdhOeaw\\schema\\redmine\\Project&#45;&gt;\\acdhOeaw\\schema\\redmine\\Redmine -->
<g id="edge15" class="edge"><title>\\acdhOeaw\\schema\\redmine\\Project&#45;&gt;\\acdhOeaw\\schema\\redmine\\Redmine</title>
<path fill="none" stroke="black" d="M639.792,-1955.98C605.861,-1960.32 551.097,-1967.31 510.818,-1972.45"/>
<polygon fill="none" stroke="black" points="510.128,-1969.01 500.652,-1973.75 511.015,-1975.95 510.128,-1969.01"/>
</g>
<!-- \\acdhOeaw\\schema\\redmine\\User -->
<g id="node8" class="node"><title>\\acdhOeaw\\schema\\redmine\\User</title>
<polygon fill="none" stroke="black" points="699,-1916 645,-1916 645,-1880 699,-1880 699,-1916"/>
<text text-anchor="middle" x="672" y="-1895.2" font-family="Courier,monospace" font-size="11.00">User</text>
</g>
<!-- \\acdhOeaw\\schema\\redmine\\User&#45;&gt;\\acdhOeaw\\schema\\redmine\\Redmine -->
<g id="edge30" class="edge"><title>\\acdhOeaw\\schema\\redmine\\User&#45;&gt;\\acdhOeaw\\schema\\redmine\\Redmine</title>
<path fill="none" stroke="black" d="M644.792,-1907.66C630.999,-1912.77 613.815,-1919.17 598.5,-1925 569.191,-1936.15 536.5,-1948.84 510.188,-1959.11"/>
<polygon fill="none" stroke="black" points="508.84,-1955.88 500.8,-1962.78 511.388,-1962.4 508.84,-1955.88"/>
</g>
<!-- \\acdhOeaw\\schema\\file\\CmdiFile -->
<g id="node9" class="node"><title>\\acdhOeaw\\schema\\file\\CmdiFile</title>
<polygon fill="none" stroke="black" points="707.5,-1836 636.5,-1836 636.5,-1800 707.5,-1800 707.5,-1836"/>
<text text-anchor="middle" x="672" y="-1815.2" font-family="Courier,monospace" font-size="11.00">CmdiFile</text>
</g>
<!-- \\acdhOeaw\\schema\\file\\File -->
<g id="node10" class="node"><title>\\acdhOeaw\\schema\\file\\File</title>
<polygon fill="none" stroke="black" points="485.5,-1836 431.5,-1836 431.5,-1800 485.5,-1800 485.5,-1836"/>
<text text-anchor="middle" x="458.5" y="-1815.2" font-family="Courier,monospace" font-size="11.00">File</text>
</g>
<!-- \\acdhOeaw\\schema\\file\\CmdiFile&#45;&gt;\\acdhOeaw\\schema\\file\\File -->
<g id="edge13" class="edge"><title>\\acdhOeaw\\schema\\file\\CmdiFile&#45;&gt;\\acdhOeaw\\schema\\file\\File</title>
<path fill="none" stroke="black" d="M636.075,-1818C597.384,-1818 535.284,-1818 495.98,-1818"/>
<polygon fill="none" stroke="black" points="495.779,-1814.5 485.779,-1818 495.779,-1821.5 495.779,-1814.5"/>
</g>
<!-- \\acdhOeaw\\schema\\file\\File&#45;&gt;\\acdhOeaw\\schema\\Object -->
<g id="edge16" class="edge"><title>\\acdhOeaw\\schema\\file\\File&#45;&gt;\\acdhOeaw\\schema\\Object</title>
<path fill="none" stroke="black" d="M431.388,-1828.5C412.624,-1837.03 387.63,-1850.49 370,-1868 326.742,-1910.95 295.562,-1976.32 280.23,-2013.18"/>
<polygon fill="none" stroke="black" points="276.852,-2012.2 276.33,-2022.78 283.337,-2014.83 276.852,-2012.2"/>
</g>
<!-- \\acdhOeaw\\util\\metaLookup\\MetaLookupFile -->
<g id="node12" class="node"><title>\\acdhOeaw\\util\\metaLookup\\MetaLookupFile</title>
<polygon fill="none" stroke="black" points="727.5,-1720 616.5,-1720 616.5,-1684 727.5,-1684 727.5,-1720"/>
<text text-anchor="middle" x="672" y="-1699.2" font-family="Courier,monospace" font-size="11.00">MetaLookupFile</text>
</g>
<!-- \\acdhOeaw\\util\\metaLookup\\MetaLookupInterface -->
<g id="node14" class="node"><title>\\acdhOeaw\\util\\metaLookup\\MetaLookupInterface</title>
<polygon fill="none" stroke="black" points="531,-1693 386,-1693 386,-1657 531,-1657 531,-1693"/>
<text text-anchor="middle" x="458.5" y="-1672.2" font-family="Courier,monospace" font-size="11.00">MetaLookupInterface</text>
</g>
<!-- \\acdhOeaw\\util\\metaLookup\\MetaLookupFile&#45;&gt;\\acdhOeaw\\util\\metaLookup\\MetaLookupInterface -->
<g id="edge7" class="edge"><title>\\acdhOeaw\\util\\metaLookup\\MetaLookupFile&#45;&gt;\\acdhOeaw\\util\\metaLookup\\MetaLookupInterface</title>
<path fill="none" stroke="black" stroke-dasharray="1,5" d="M616.258,-1695.01C593.453,-1692.1 566.485,-1688.66 541.405,-1685.46"/>
<polygon fill="none" stroke="black" points="541.525,-1681.94 531.162,-1684.15 540.638,-1688.89 541.525,-1681.94"/>
</g>
<!-- \\acdhOeaw\\util\\metaLookup\\MetaLookupGraph -->
<g id="node13" class="node"><title>\\acdhOeaw\\util\\metaLookup\\MetaLookupGraph</title>
<polygon fill="none" stroke="black" points="731,-1666 613,-1666 613,-1630 731,-1630 731,-1666"/>
<text text-anchor="middle" x="672" y="-1645.2" font-family="Courier,monospace" font-size="11.00">MetaLookupGraph</text>
</g>
<!-- \\acdhOeaw\\util\\metaLookup\\MetaLookupGraph&#45;&gt;\\acdhOeaw\\util\\metaLookup\\MetaLookupInterface -->
<g id="edge17" class="edge"><title>\\acdhOeaw\\util\\metaLookup\\MetaLookupGraph&#45;&gt;\\acdhOeaw\\util\\metaLookup\\MetaLookupInterface</title>
<path fill="none" stroke="black" stroke-dasharray="1,5" d="M612.927,-1655.41C590.777,-1658.24 565.098,-1661.52 541.159,-1664.58"/>
<polygon fill="none" stroke="black" points="540.497,-1661.13 531.021,-1665.87 541.383,-1668.08 540.497,-1661.13"/>
</g>
<!-- \\acdhOeaw\\util\\metadataValidator\\MetadataValidator -->
<g id="node15" class="node"><title>\\acdhOeaw\\util\\metadataValidator\\MetadataValidator</title>
<polygon fill="none" stroke="black" points="737.5,-1586 606.5,-1586 606.5,-1550 737.5,-1550 737.5,-1586"/>
<text text-anchor="middle" x="672" y="-1565.2" font-family="Courier,monospace" font-size="11.00">MetadataValidator</text>
</g>
<!-- \\acdhOeaw\\util\\metadataValidator\\Error -->
<g id="node16" class="node"><title>\\acdhOeaw\\util\\metadataValidator\\Error</title>
<polygon fill="none" stroke="black" points="699,-1532 645,-1532 645,-1496 699,-1496 699,-1532"/>
<text text-anchor="middle" x="672" y="-1511.2" font-family="Courier,monospace" font-size="11.00">Error</text>
</g>
<!-- \\acdhOeaw\\util\\metadataValidator\\OntologyProperty -->
<g id="node17" class="node"><title>\\acdhOeaw\\util\\metadataValidator\\OntologyProperty</title>
<polygon fill="none" stroke="black" points="734.5,-1478 609.5,-1478 609.5,-1442 734.5,-1442 734.5,-1478"/>
<text text-anchor="middle" x="672" y="-1457.2" font-family="Courier,monospace" font-size="11.00">OntologyProperty</text>
</g>
<!-- \\acdhOeaw\\util\\RepoConfig -->
<g id="node18" class="node"><title>\\acdhOeaw\\util\\RepoConfig</title>
<polygon fill="none" stroke="black" points="714,-1424 630,-1424 630,-1388 714,-1388 714,-1424"/>
<text text-anchor="middle" x="672" y="-1403.2" font-family="Courier,monospace" font-size="11.00">RepoConfig</text>
</g>
<!-- \\acdhOeaw\\util\\Indexer -->
<g id="node19" class="node"><title>\\acdhOeaw\\util\\Indexer</title>
<polygon fill="none" stroke="black" points="704,-1370 640,-1370 640,-1334 704,-1334 704,-1370"/>
<text text-anchor="middle" x="672" y="-1349.2" font-family="Courier,monospace" font-size="11.00">Indexer</text>
</g>
<!-- \\acdhOeaw\\util\\MetadataCollection -->
<g id="node20" class="node"><title>\\acdhOeaw\\util\\MetadataCollection</title>
<polygon fill="none" stroke="black" points="741,-1316 603,-1316 603,-1280 741,-1280 741,-1316"/>
<text text-anchor="middle" x="672" y="-1295.2" font-family="Courier,monospace" font-size="11.00">MetadataCollection</text>
</g>
<!-- \\EasyRdf\\Graph -->
<g id="node46" class="node"><title>\\EasyRdf\\Graph</title>
<ellipse fill="none" stroke="black" cx="458.5" cy="-72" rx="67.6881" ry="18"/>
<text text-anchor="middle" x="458.5" y="-68.3" font-family="Times,serif" font-size="14.00" fill="gray">\EasyRdf\Graph</text>
</g>
<!-- \\acdhOeaw\\util\\MetadataCollection&#45;&gt;\\EasyRdf\\Graph -->
<g id="edge25" class="edge"><title>\\acdhOeaw\\util\\MetadataCollection&#45;&gt;\\EasyRdf\\Graph</title>
<path fill="none" stroke="black" d="M638.191,-1279.85C623.592,-1270.02 607.661,-1256.48 598.5,-1240 569.79,-1188.34 479.311,-274.707 462.279,-100.549"/>
<polygon fill="none" stroke="black" points="465.742,-99.9923 461.286,-90.3798 458.775,-100.673 465.742,-99.9923"/>
</g>
<!-- \\acdhOeaw\\fedora\\dissemination\\Parameter -->
<g id="node21" class="node"><title>\\acdhOeaw\\fedora\\dissemination\\Parameter</title>
<polygon fill="none" stroke="black" points="710.5,-1208 633.5,-1208 633.5,-1172 710.5,-1172 710.5,-1208"/>
<text text-anchor="middle" x="672" y="-1187.2" font-family="Courier,monospace" font-size="11.00">Parameter</text>
</g>
<!-- \\acdhOeaw\\fedora\\FedoraResource -->
<g id="node42" class="node"><title>\\acdhOeaw\\fedora\\FedoraResource</title>
<polygon fill="none" stroke="black" points="514,-1154 403,-1154 403,-1118 514,-1118 514,-1154"/>
<text text-anchor="middle" x="458.5" y="-1133.2" font-family="Courier,monospace" font-size="11.00">FedoraResource</text>
</g>
<!-- \\acdhOeaw\\fedora\\dissemination\\Parameter&#45;&gt;\\acdhOeaw\\fedora\\FedoraResource -->
<g id="edge2" class="edge"><title>\\acdhOeaw\\fedora\\dissemination\\Parameter&#45;&gt;\\acdhOeaw\\fedora\\FedoraResource</title>
<path fill="none" stroke="black" d="M633.188,-1180.35C602.887,-1172.61 559.68,-1161.58 523.941,-1152.45"/>
<polygon fill="none" stroke="black" points="524.631,-1149.02 514.076,-1149.93 522.899,-1155.8 524.631,-1149.02"/>
</g>
<!-- \\acdhOeaw\\fedora\\dissemination\\Service -->
<g id="node22" class="node"><title>\\acdhOeaw\\fedora\\dissemination\\Service</title>
<polygon fill="none" stroke="black" points="704,-1154 640,-1154 640,-1118 704,-1118 704,-1154"/>
<text text-anchor="middle" x="672" y="-1133.2" font-family="Courier,monospace" font-size="11.00">Service</text>
</g>
<!-- \\acdhOeaw\\fedora\\dissemination\\Service&#45;&gt;\\acdhOeaw\\fedora\\FedoraResource -->
<g id="edge27" class="edge"><title>\\acdhOeaw\\fedora\\dissemination\\Service&#45;&gt;\\acdhOeaw\\fedora\\FedoraResource</title>
<path fill="none" stroke="black" d="M639.792,-1136C609.519,-1136 562.664,-1136 524.307,-1136"/>
<polygon fill="none" stroke="black" points="524.246,-1132.5 514.246,-1136 524.246,-1139.5 524.246,-1132.5"/>
</g>
<!-- \\acdhOeaw\\fedora\\exceptions\\ManyAcdhIds -->
<g id="node23" class="node"><title>\\acdhOeaw\\fedora\\exceptions\\ManyAcdhIds</title>
<polygon fill="none" stroke="black" points="717.5,-590 626.5,-590 626.5,-554 717.5,-554 717.5,-590"/>
<text text-anchor="middle" x="672" y="-569.2" font-family="Courier,monospace" font-size="11.00">ManyAcdhIds</text>
</g>
<!-- \\Exception -->
<g id="node45" class="node"><title>\\Exception</title>
<ellipse fill="none" stroke="black" cx="458.5" cy="-18" rx="48.9926" ry="18"/>
<text text-anchor="middle" x="458.5" y="-14.3" font-family="Times,serif" font-size="14.00" fill="gray">\Exception</text>
</g>
<!-- \\acdhOeaw\\fedora\\exceptions\\ManyAcdhIds&#45;&gt;\\Exception -->
<g id="edge3" class="edge"><title>\\acdhOeaw\\fedora\\exceptions\\ManyAcdhIds&#45;&gt;\\Exception</title>
<path fill="none" stroke="black" d="M626.334,-563.749C615.771,-559.75 605.544,-553.814 598.5,-545 458.507,-369.83 670.593,-220.49 531,-45 525.947,-38.6478 519.227,-33.7897 511.924,-30.0743"/>
<polygon fill="none" stroke="black" points="513.01,-26.7302 502.444,-25.953 510.219,-33.1498 513.01,-26.7302"/>
</g>
<!-- \\acdhOeaw\\fedora\\exceptions\\Deleted -->
<g id="node24" class="node"><title>\\acdhOeaw\\fedora\\exceptions\\Deleted</title>
<polygon fill="none" stroke="black" points="704,-536 640,-536 640,-500 704,-500 704,-536"/>
<text text-anchor="middle" x="672" y="-515.2" font-family="Courier,monospace" font-size="11.00">Deleted</text>
</g>
<!-- \\acdhOeaw\\fedora\\exceptions\\Deleted&#45;&gt;\\Exception -->
<g id="edge4" class="edge"><title>\\acdhOeaw\\fedora\\exceptions\\Deleted&#45;&gt;\\Exception</title>
<path fill="none" stroke="black" d="M639.961,-513.828C625.228,-510.224 608.663,-503.51 598.5,-491 472.089,-335.397 657.055,-200.892 531,-45 525.896,-38.6885 519.149,-33.8516 511.836,-30.145"/>
<polygon fill="none" stroke="black" points="512.916,-26.7987 502.35,-26.0286 510.13,-33.2202 512.916,-26.7987"/>
</g>
<!-- \\acdhOeaw\\fedora\\exceptions\\NoAcdhId -->
<g id="node25" class="node"><title>\\acdhOeaw\\fedora\\exceptions\\NoAcdhId</title>
<polygon fill="none" stroke="black" points="707.5,-482 636.5,-482 636.5,-446 707.5,-446 707.5,-482"/>
<text text-anchor="middle" x="672" y="-461.2" font-family="Courier,monospace" font-size="11.00">NoAcdhId</text>
</g>
<!-- \\acdhOeaw\\fedora\\exceptions\\NoAcdhId&#45;&gt;\\Exception -->
<g id="edge11" class="edge"><title>\\acdhOeaw\\fedora\\exceptions\\NoAcdhId&#45;&gt;\\Exception</title>
<path fill="none" stroke="black" d="M636.357,-458.768C622.644,-454.956 607.932,-448.372 598.5,-437 485.641,-300.926 643.548,-181.332 531,-45 525.833,-38.7406 519.052,-33.931 511.725,-30.2357"/>
<polygon fill="none" stroke="black" points="512.798,-26.8866 502.231,-26.1256 510.017,-33.3104 512.798,-26.8866"/>
</g>
<!-- \\acdhOeaw\\fedora\\exceptions\\NotFound -->
<g id="node26" class="node"><title>\\acdhOeaw\\fedora\\exceptions\\NotFound</title>
<polygon fill="none" stroke="black" points="707.5,-428 636.5,-428 636.5,-392 707.5,-392 707.5,-428"/>
<text text-anchor="middle" x="672" y="-407.2" font-family="Courier,monospace" font-size="11.00">NotFound</text>
</g>
<!-- \\acdhOeaw\\fedora\\exceptions\\NotFound&#45;&gt;\\Exception -->
<g id="edge12" class="edge"><title>\\acdhOeaw\\fedora\\exceptions\\NotFound&#45;&gt;\\Exception</title>
<path fill="none" stroke="black" d="M636.13,-404.539C622.548,-400.692 607.995,-394.143 598.5,-383 499.147,-266.4 630.087,-161.827 531,-45 525.75,-38.8099 518.926,-34.0364 511.581,-30.356"/>
<polygon fill="none" stroke="black" points="512.645,-27.0034 502.077,-26.2543 509.872,-33.4304 512.645,-27.0034"/>
</g>
<!-- \\acdhOeaw\\fedora\\exceptions\\CacheInconsistent -->
<g id="node27" class="node"><title>\\acdhOeaw\\fedora\\exceptions\\CacheInconsistent</title>
<polygon fill="none" stroke="black" points="737.5,-374 606.5,-374 606.5,-338 737.5,-338 737.5,-374"/>
<text text-anchor="middle" x="672" y="-353.2" font-family="Courier,monospace" font-size="11.00">CacheInconsistent</text>
</g>
<!-- \\acdhOeaw\\fedora\\exceptions\\CacheInconsistent&#45;&gt;\\Exception -->
<g id="edge18" class="edge"><title>\\acdhOeaw\\fedora\\exceptions\\CacheInconsistent&#45;&gt;\\Exception</title>
<path fill="none" stroke="black" d="M608.486,-337.79C604.819,-335.235 601.435,-332.321 598.5,-329 512.58,-231.789 616.697,-142.406 531,-45 525.639,-38.906 518.757,-34.1827 511.388,-30.523"/>
<polygon fill="none" stroke="black" points="512.44,-27.1656 501.87,-26.4331 509.676,-33.597 512.44,-27.1656"/>
</g>
<!-- \\acdhOeaw\\fedora\\exceptions\\NotInCache -->
<g id="node28" class="node"><title>\\acdhOeaw\\fedora\\exceptions\\NotInCache</title>
<polygon fill="none" stroke="black" points="714,-320 630,-320 630,-284 714,-284 714,-320"/>
<text text-anchor="middle" x="672" y="-299.2" font-family="Courier,monospace" font-size="11.00">NotInCache</text>
</g>
<!-- \\acdhOeaw\\fedora\\exceptions\\NotInCache&#45;&gt;\\Exception -->
<g id="edge20" class="edge"><title>\\acdhOeaw\\fedora\\exceptions\\NotInCache&#45;&gt;\\Exception</title>
<path fill="none" stroke="black" d="M629.939,-296.99C618.49,-293.771 606.901,-288.527 598.5,-280 522.236,-202.59 604.651,-124.901 531,-45 525.499,-39.0319 518.544,-34.3744 511.145,-30.7418"/>
<polygon fill="none" stroke="black" points="512.181,-27.3785 501.61,-26.6672 509.43,-33.8154 512.181,-27.3785"/>
</g>
<!-- \\acdhOeaw\\fedora\\exceptions\\AmbiguousMatch -->
<g id="node29" class="node"><title>\\acdhOeaw\\fedora\\exceptions\\AmbiguousMatch</title>
<polygon fill="none" stroke="black" points="727.5,-752 616.5,-752 616.5,-716 727.5,-716 727.5,-752"/>
<text text-anchor="middle" x="672" y="-731.2" font-family="Courier,monospace" font-size="11.00">AmbiguousMatch</text>
</g>
<!-- \\acdhOeaw\\fedora\\exceptions\\AmbiguousMatch&#45;&gt;\\Exception -->
<g id="edge21" class="edge"><title>\\acdhOeaw\\fedora\\exceptions\\AmbiguousMatch&#45;&gt;\\Exception</title>
<path fill="none" stroke="black" d="M616.169,-721.401C609.373,-717.756 603.182,-713.058 598.5,-707 417.651,-472.991 711.315,-279.421 531,-45 526.051,-38.5663 519.385,-33.6657 512.105,-29.9328"/>
<polygon fill="none" stroke="black" points="513.203,-26.5933 502.637,-25.8015 510.403,-33.009 513.203,-26.5933"/>
</g>
<!-- \\acdhOeaw\\fedora\\exceptions\\AlreadyInCache -->
<g id="node30" class="node"><title>\\acdhOeaw\\fedora\\exceptions\\AlreadyInCache</title>
<polygon fill="none" stroke="black" points="727.5,-698 616.5,-698 616.5,-662 727.5,-662 727.5,-698"/>
<text text-anchor="middle" x="672" y="-677.2" font-family="Courier,monospace" font-size="11.00">AlreadyInCache</text>
</g>
<!-- \\acdhOeaw\\fedora\\exceptions\\AlreadyInCache&#45;&gt;\\Exception -->
<g id="edge24" class="edge"><title>\\acdhOeaw\\fedora\\exceptions\\AlreadyInCache&#45;&gt;\\Exception</title>
<path fill="none" stroke="black" d="M616.218,-667.363C609.415,-663.724 603.209,-659.037 598.5,-653 431.283,-438.621 697.727,-259.76 531,-45 526.023,-38.5886 519.341,-33.6995 512.055,-29.9714"/>
<polygon fill="none" stroke="black" points="513.15,-26.6306 502.584,-25.8428 510.352,-33.0474 513.15,-26.6306"/>
</g>
<!-- \\acdhOeaw\\fedora\\exceptions\\AclException -->
<g id="node31" class="node"><title>\\acdhOeaw\\fedora\\exceptions\\AclException</title>
<polygon fill="none" stroke="black" points="721,-644 623,-644 623,-608 721,-608 721,-644"/>
<text text-anchor="middle" x="672" y="-623.2" font-family="Courier,monospace" font-size="11.00">AclException</text>
</g>
<!-- \\acdhOeaw\\fedora\\exceptions\\AclException&#45;&gt;\\Exception -->
<g id="edge28" class="edge"><title>\\acdhOeaw\\fedora\\exceptions\\AclException&#45;&gt;\\Exception</title>
<path fill="none" stroke="black" d="M622.877,-616.457C613.543,-612.502 604.738,-606.91 598.5,-599 444.903,-404.235 684.152,-240.115 531,-45 525.988,-38.6152 519.289,-33.7401 511.995,-30.0178"/>
<polygon fill="none" stroke="black" points="513.086,-26.6754 502.521,-25.8924 510.292,-33.0935 513.086,-26.6754"/>
</g>
<!-- \\acdhOeaw\\fedora\\acl\\WebAclRule -->
<g id="node32" class="node"><title>\\acdhOeaw\\fedora\\acl\\WebAclRule</title>
<polygon fill="none" stroke="black" points="714,-1074 630,-1074 630,-1038 714,-1038 714,-1074"/>
<text text-anchor="middle" x="672" y="-1053.2" font-family="Courier,monospace" font-size="11.00">WebAclRule</text>
</g>
<!-- \\acdhOeaw\\fedora\\acl\\WebAclRule&#45;&gt;\\acdhOeaw\\fedora\\FedoraResource -->
<g id="edge10" class="edge"><title>\\acdhOeaw\\fedora\\acl\\WebAclRule&#45;&gt;\\acdhOeaw\\fedora\\FedoraResource</title>
<path fill="none" stroke="black" d="M629.97,-1071.52C597.907,-1083.65 552.947,-1100.65 517.25,-1114.16"/>
<polygon fill="none" stroke="black" points="515.56,-1111.05 507.445,-1117.86 518.037,-1117.6 515.56,-1111.05"/>
</g>
<!-- \\acdhOeaw\\fedora\\acl\\WebAcl -->
<g id="node33" class="node"><title>\\acdhOeaw\\fedora\\acl\\WebAcl</title>
<polygon fill="none" stroke="black" points="700.5,-1020 643.5,-1020 643.5,-984 700.5,-984 700.5,-1020"/>
<text text-anchor="middle" x="672" y="-999.2" font-family="Courier,monospace" font-size="11.00">WebAcl</text>
</g>
<!-- \\acdhOeaw\\fedora\\metadataQuery\\Query -->
<g id="node34" class="node"><title>\\acdhOeaw\\fedora\\metadataQuery\\Query</title>
<polygon fill="none" stroke="black" points="485.5,-886 431.5,-886 431.5,-850 485.5,-850 485.5,-886"/>
<text text-anchor="middle" x="458.5" y="-865.2" font-family="Courier,monospace" font-size="11.00">Query</text>
</g>
<!-- \\acdhOeaw\\fedora\\metadataQuery\\HasValue -->
<g id="node35" class="node"><title>\\acdhOeaw\\fedora\\metadataQuery\\HasValue</title>
<polygon fill="none" stroke="black" points="494,-940 423,-940 423,-904 494,-904 494,-940"/>
<text text-anchor="middle" x="458.5" y="-919.2" font-family="Courier,monospace" font-size="11.00">HasValue</text>
</g>
<!-- \\acdhOeaw\\fedora\\metadataQuery\\HasProperty -->
<g id="node40" class="node"><title>\\acdhOeaw\\fedora\\metadataQuery\\HasProperty</title>
<polygon fill="none" stroke="black" points="314,-886 223,-886 223,-850 314,-850 314,-886"/>
<text text-anchor="middle" x="268.5" y="-865.2" font-family="Courier,monospace" font-size="11.00">HasProperty</text>
</g>
<!-- \\acdhOeaw\\fedora\\metadataQuery\\HasValue&#45;&gt;\\acdhOeaw\\fedora\\metadataQuery\\HasProperty -->
<g id="edge14" class="edge"><title>\\acdhOeaw\\fedora\\metadataQuery\\HasValue&#45;&gt;\\acdhOeaw\\fedora\\metadataQuery\\HasProperty</title>
<path fill="none" stroke="black" d="M422.579,-911.97C394.864,-904.009 355.626,-892.738 323.815,-883.601"/>
<polygon fill="none" stroke="black" points="324.78,-880.237 314.202,-880.84 322.847,-886.965 324.78,-880.237"/>
</g>
<!-- \\acdhOeaw\\fedora\\metadataQuery\\QueryParameter -->
<g id="node36" class="node"><title>\\acdhOeaw\\fedora\\metadataQuery\\QueryParameter</title>
<polygon fill="none" stroke="black" points="151,-886 40,-886 40,-850 151,-850 151,-886"/>
<text text-anchor="start" x="61.5" y="-871.2" font-family="Courier,monospace" font-size="11.00">«abstract»</text>
<text text-anchor="start" x="48" y="-859.2" font-family="Courier,monospace" font-size="11.00">QueryParameter</text>
</g>
<!-- \\acdhOeaw\\fedora\\metadataQuery\\MatchesRegEx -->
<g id="node37" class="node"><title>\\acdhOeaw\\fedora\\metadataQuery\\MatchesRegEx</title>
<polygon fill="none" stroke="black" points="721,-940 623,-940 623,-904 721,-904 721,-940"/>
<text text-anchor="middle" x="672" y="-919.2" font-family="Courier,monospace" font-size="11.00">MatchesRegEx</text>
</g>
<!-- \\acdhOeaw\\fedora\\metadataQuery\\MatchesRegEx&#45;&gt;\\acdhOeaw\\fedora\\metadataQuery\\HasValue -->
<g id="edge19" class="edge"><title>\\acdhOeaw\\fedora\\metadataQuery\\MatchesRegEx&#45;&gt;\\acdhOeaw\\fedora\\metadataQuery\\HasValue</title>
<path fill="none" stroke="black" d="M622.743,-922C587.165,-922 539.115,-922 504.366,-922"/>
<polygon fill="none" stroke="black" points="504.038,-918.5 494.038,-922 504.038,-925.5 504.038,-918.5"/>
</g>
<!-- \\acdhOeaw\\fedora\\metadataQuery\\SimpleQuery -->
<g id="node38" class="node"><title>\\acdhOeaw\\fedora\\metadataQuery\\SimpleQuery</title>
<polygon fill="none" stroke="black" points="717.5,-886 626.5,-886 626.5,-850 717.5,-850 717.5,-886"/>
<text text-anchor="middle" x="672" y="-865.2" font-family="Courier,monospace" font-size="11.00">SimpleQuery</text>
</g>
<!-- \\acdhOeaw\\fedora\\metadataQuery\\SimpleQuery&#45;&gt;\\acdhOeaw\\fedora\\metadataQuery\\Query -->
<g id="edge23" class="edge"><title>\\acdhOeaw\\fedora\\metadataQuery\\SimpleQuery&#45;&gt;\\acdhOeaw\\fedora\\metadataQuery\\Query</title>
<path fill="none" stroke="black" d="M626.405,-868C587.577,-868 531.991,-868 495.821,-868"/>
<polygon fill="none" stroke="black" points="495.713,-864.5 485.713,-868 495.713,-871.5 495.713,-864.5"/>
</g>
<!-- \\acdhOeaw\\fedora\\metadataQuery\\HasTriple -->
<g id="node39" class="node"><title>\\acdhOeaw\\fedora\\metadataQuery\\HasTriple</title>
<polygon fill="none" stroke="black" points="497,-832 420,-832 420,-796 497,-796 497,-832"/>
<text text-anchor="middle" x="458.5" y="-811.2" font-family="Courier,monospace" font-size="11.00">HasTriple</text>
</g>
<!-- \\acdhOeaw\\fedora\\metadataQuery\\HasTriple&#45;&gt;\\acdhOeaw\\fedora\\metadataQuery\\HasProperty -->
<g id="edge26" class="edge"><title>\\acdhOeaw\\fedora\\metadataQuery\\HasTriple&#45;&gt;\\acdhOeaw\\fedora\\metadataQuery\\HasProperty</title>
<path fill="none" stroke="black" d="M419.907,-824.798C392.447,-832.685 354.796,-843.5 324.034,-852.336"/>
<polygon fill="none" stroke="black" points="322.956,-849.004 314.31,-855.129 324.888,-855.732 322.956,-849.004"/>
</g>
<!-- \\acdhOeaw\\fedora\\metadataQuery\\HasProperty&#45;&gt;\\acdhOeaw\\fedora\\metadataQuery\\QueryParameter -->
<g id="edge29" class="edge"><title>\\acdhOeaw\\fedora\\metadataQuery\\HasProperty&#45;&gt;\\acdhOeaw\\fedora\\metadataQuery\\QueryParameter</title>
<path fill="none" stroke="black" d="M222.572,-868C203.864,-868 181.782,-868 161.369,-868"/>
<polygon fill="none" stroke="black" points="161.19,-864.5 151.19,-868 161.19,-871.5 161.19,-864.5"/>
</g>
<!-- \\acdhOeaw\\fedora\\Fedora -->
<g id="node41" class="node"><title>\\acdhOeaw\\fedora\\Fedora</title>
<polygon fill="none" stroke="black" points="700.5,-266 643.5,-266 643.5,-230 700.5,-230 700.5,-266"/>
<text text-anchor="middle" x="672" y="-245.2" font-family="Courier,monospace" font-size="11.00">Fedora</text>
</g>
<!-- \\acdhOeaw\\fedora\\SparqlClient -->
<g id="node43" class="node"><title>\\acdhOeaw\\fedora\\SparqlClient</title>
<polygon fill="none" stroke="black" points="721,-212 623,-212 623,-176 721,-176 721,-212"/>
<text text-anchor="middle" x="672" y="-191.2" font-family="Courier,monospace" font-size="11.00">SparqlClient</text>
</g>
<!-- \\acdhOeaw\\fedora\\FedoraCache -->
<g id="node44" class="node"><title>\\acdhOeaw\\fedora\\FedoraCache</title>
<polygon fill="none" stroke="black" points="717.5,-158 626.5,-158 626.5,-122 717.5,-122 717.5,-158"/>
<text text-anchor="middle" x="672" y="-137.2" font-family="Courier,monospace" font-size="11.00">FedoraCache</text>
</g>
</g>
</svg>
