<?xml version="1.0" encoding="UTF-8" standalone="no"?>
<!DOCTYPE svg PUBLIC "-//W3C//DTD SVG 1.1//EN"
 "http://www.w3.org/Graphics/SVG/1.1/DTD/svg11.dtd">
<!-- Generated by graphviz version 2.38.0 (20140413.2041)
 -->
<!-- Title: G Pages: 1 -->
<svg width="771pt" height="1154pt"
 viewBox="0.00 0.00 771.19 1154.00" xmlns="http://www.w3.org/2000/svg" xmlns:xlink="http://www.w3.org/1999/xlink">
<g id="graph0" class="graph" transform="scale(1 1) rotate(0) translate(4 1150)">
<title>G</title>
<polygon fill="white" stroke="none" points="-4,4 -4,-1150 767.188,-1150 767.188,4 -4,4"/>
<g id="clust1" class="cluster"><title>cluster_Global</title>
<path fill="none" stroke="gray" d="M20,-44C20,-44 743.188,-44 743.188,-44 749.188,-44 755.188,-50 755.188,-56 755.188,-56 755.188,-1126 755.188,-1126 755.188,-1132 749.188,-1138 743.188,-1138 743.188,-1138 20,-1138 20,-1138 14,-1138 8,-1132 8,-1126 8,-1126 8,-56 8,-56 8,-50 14,-44 20,-44"/>
<text text-anchor="middle" x="381.594" y="-1125.2" font-family="Times,serif" font-size="11.00" fill="gray">Global</text>
</g>
<g id="clust2" class="cluster"><title>cluster_\acdhOeaw</title>
<path fill="none" stroke="gray" d="M28,-52C28,-52 735.188,-52 735.188,-52 741.188,-52 747.188,-58 747.188,-64 747.188,-64 747.188,-1098 747.188,-1098 747.188,-1104 741.188,-1110 735.188,-1110 735.188,-1110 28,-1110 28,-1110 22,-1110 16,-1104 16,-1098 16,-1098 16,-64 16,-64 16,-58 22,-52 28,-52"/>
<text text-anchor="middle" x="381.594" y="-1097.2" font-family="Times,serif" font-size="11.00" fill="gray">acdhOeaw</text>
</g>
<g id="clust3" class="cluster"><title>cluster_\acdhOeaw\util</title>
<path fill="none" stroke="gray" d="M597.188,-60C597.188,-60 727.188,-60 727.188,-60 733.188,-60 739.188,-66 739.188,-72 739.188,-72 739.188,-228 739.188,-228 739.188,-234 733.188,-240 727.188,-240 727.188,-240 597.188,-240 597.188,-240 591.188,-240 585.188,-234 585.188,-228 585.188,-228 585.188,-72 585.188,-72 585.188,-66 591.188,-60 597.188,-60"/>
<text text-anchor="middle" x="662.188" y="-227.2" font-family="Times,serif" font-size="11.00" fill="gray">util</text>
</g>
<g id="clust4" class="cluster"><title>cluster_\acdhOeaw\schema</title>
<path fill="none" stroke="gray" d="M230.5,-572C230.5,-572 701.688,-572 701.688,-572 707.688,-572 713.688,-578 713.688,-584 713.688,-584 713.688,-1070 713.688,-1070 713.688,-1076 707.688,-1082 701.688,-1082 701.688,-1082 230.5,-1082 230.5,-1082 224.5,-1082 218.5,-1076 218.5,-1070 218.5,-1070 218.5,-584 218.5,-584 218.5,-578 224.5,-572 230.5,-572"/>
<text text-anchor="middle" x="466.094" y="-1069.2" font-family="Times,serif" font-size="11.00" fill="gray">schema</text>
</g>
<g id="clust5" class="cluster"><title>cluster_\acdhOeaw\schema\dissemination</title>
<path fill="none" stroke="gray" d="M419.094,-928C419.094,-928 488.094,-928 488.094,-928 494.094,-928 500.094,-934 500.094,-940 500.094,-940 500.094,-1042 500.094,-1042 500.094,-1048 494.094,-1054 488.094,-1054 488.094,-1054 419.094,-1054 419.094,-1054 413.094,-1054 407.094,-1048 407.094,-1042 407.094,-1042 407.094,-940 407.094,-940 407.094,-934 413.094,-928 419.094,-928"/>
<text text-anchor="middle" x="453.594" y="-1041.2" font-family="Times,serif" font-size="11.00" fill="gray">dissemination</text>
</g>
<g id="clust6" class="cluster"><title>cluster_\acdhOeaw\schema\redmine</title>
<path fill="none" stroke="gray" d="M415.594,-740C415.594,-740 690.188,-740 690.188,-740 696.188,-740 702.188,-746 702.188,-752 702.188,-752 702.188,-908 702.188,-908 702.188,-914 696.188,-920 690.188,-920 690.188,-920 415.594,-920 415.594,-920 409.594,-920 403.594,-914 403.594,-908 403.594,-908 403.594,-752 403.594,-752 403.594,-746 409.594,-740 415.594,-740"/>
<text text-anchor="middle" x="552.891" y="-907.2" font-family="Times,serif" font-size="11.00" fill="gray">redmine</text>
</g>
<g id="clust7" class="cluster"><title>cluster_\acdhOeaw\schema\cirilo</title>
<path fill="none" stroke="gray" d="M425.594,-660C425.594,-660 481.594,-660 481.594,-660 487.594,-660 493.594,-666 493.594,-672 493.594,-672 493.594,-720 493.594,-720 493.594,-726 487.594,-732 481.594,-732 481.594,-732 425.594,-732 425.594,-732 419.594,-732 413.594,-726 413.594,-720 413.594,-720 413.594,-672 413.594,-672 413.594,-666 419.594,-660 425.594,-660"/>
<text text-anchor="middle" x="453.594" y="-719.2" font-family="Times,serif" font-size="11.00" fill="gray">cirilo</text>
</g>
<g id="clust8" class="cluster"><title>cluster_\acdhOeaw\schema\file</title>
<path fill="none" stroke="gray" d="M430.594,-580C430.594,-580 693.688,-580 693.688,-580 699.688,-580 705.688,-586 705.688,-592 705.688,-592 705.688,-640 705.688,-640 705.688,-646 699.688,-652 693.688,-652 693.688,-652 430.594,-652 430.594,-652 424.594,-652 418.594,-646 418.594,-640 418.594,-640 418.594,-592 418.594,-592 418.594,-586 424.594,-580 430.594,-580"/>
<text text-anchor="middle" x="562.141" y="-639.2" font-family="Times,serif" font-size="11.00" fill="gray">file</text>
</g>
<g id="clust9" class="cluster"><title>cluster_\acdhOeaw\fedora</title>
<path fill="none" stroke="gray" d="M36,-248C36,-248 715.188,-248 715.188,-248 721.188,-248 727.188,-254 727.188,-260 727.188,-260 727.188,-552 727.188,-552 727.188,-558 721.188,-564 715.188,-564 715.188,-564 36,-564 36,-564 30,-564 24,-558 24,-552 24,-552 24,-260 24,-260 24,-254 30,-248 36,-248"/>
<text text-anchor="middle" x="375.594" y="-551.2" font-family="Times,serif" font-size="11.00" fill="gray">fedora</text>
</g>
<g id="clust10" class="cluster"><title>cluster_\acdhOeaw\fedora\metadataQuery</title>
<path fill="none" stroke="gray" d="M44,-410C44,-410 707.188,-410 707.188,-410 713.188,-410 719.188,-416 719.188,-422 719.188,-422 719.188,-524 719.188,-524 719.188,-530 713.188,-536 707.188,-536 707.188,-536 44,-536 44,-536 38,-536 32,-530 32,-524 32,-524 32,-422 32,-422 32,-416 38,-410 44,-410"/>
<text text-anchor="middle" x="375.594" y="-523.2" font-family="Times,serif" font-size="11.00" fill="gray">metadataQuery</text>
</g>
<!-- \\acdhOeaw\\util\\RepoConfig -->
<g id="node1" class="node"><title>\\acdhOeaw\\util\\RepoConfig</title>
<polygon fill="none" stroke="black" points="704.188,-212 620.188,-212 620.188,-176 704.188,-176 704.188,-212"/>
<text text-anchor="middle" x="662.188" y="-191.2" font-family="Courier,monospace" font-size="11.00">RepoConfig</text>
</g>
<!-- \\acdhOeaw\\util\\Indexer -->
<g id="node2" class="node"><title>\\acdhOeaw\\util\\Indexer</title>
<polygon fill="none" stroke="black" points="694.188,-158 630.188,-158 630.188,-122 694.188,-122 694.188,-158"/>
<text text-anchor="middle" x="662.188" y="-137.2" font-family="Courier,monospace" font-size="11.00">Indexer</text>
</g>
<!-- \\acdhOeaw\\util\\MetadataCollection -->
<g id="node3" class="node"><title>\\acdhOeaw\\util\\MetadataCollection</title>
<polygon fill="none" stroke="black" points="731.188,-104 593.188,-104 593.188,-68 731.188,-68 731.188,-104"/>
<text text-anchor="middle" x="662.188" y="-83.2" font-family="Courier,monospace" font-size="11.00">MetadataCollection</text>
</g>
<!-- \\EasyRdf\\Graph -->
<g id="node23" class="node"><title>\\EasyRdf\\Graph</title>
<ellipse fill="none" stroke="black" cx="453.594" cy="-18" rx="67.6881" ry="18"/>
<text text-anchor="middle" x="453.594" y="-14.3" font-family="Times,serif" font-size="14.00" fill="gray">\EasyRdf\Graph</text>
</g>
<!-- \\acdhOeaw\\util\\MetadataCollection&#45;&gt;\\EasyRdf\\Graph -->
<g id="edge11" class="edge"><title>\\acdhOeaw\\util\\MetadataCollection&#45;&gt;\\EasyRdf\\Graph</title>
<path fill="none" stroke="black" d="M606.367,-67.9558C575.409,-57.7661 536.939,-45.1038 506.477,-35.0771"/>
<polygon fill="none" stroke="black" points="507.48,-31.7227 496.887,-31.9207 505.292,-38.3718 507.48,-31.7227"/>
</g>
<!-- \\acdhOeaw\\schema\\dissemination\\Parameter -->
<g id="node4" class="node"><title>\\acdhOeaw\\schema\\dissemination\\Parameter</title>
<polygon fill="none" stroke="black" points="492.094,-1026 415.094,-1026 415.094,-990 492.094,-990 492.094,-1026"/>
<text text-anchor="middle" x="453.594" y="-1005.2" font-family="Courier,monospace" font-size="11.00">Parameter</text>
</g>
<!-- \\acdhOeaw\\schema\\Object -->
<g id="node13" class="node"><title>\\acdhOeaw\\schema\\Object</title>
<polygon fill="none" stroke="black" points="310.5,-838 226.5,-838 226.5,-802 310.5,-802 310.5,-838"/>
<text text-anchor="start" x="234.5" y="-823.2" font-family="Courier,monospace" font-size="11.00">«abstract»</text>
<text text-anchor="start" x="248" y="-811.2" font-family="Courier,monospace" font-size="11.00">Object</text>
</g>
<!-- \\acdhOeaw\\schema\\dissemination\\Parameter&#45;&gt;\\acdhOeaw\\schema\\Object -->
<g id="edge1" class="edge"><title>\\acdhOeaw\\schema\\dissemination\\Parameter&#45;&gt;\\acdhOeaw\\schema\\Object</title>
<path fill="none" stroke="black" d="M415.014,-996.99C404.97,-992.959 394.542,-987.696 386,-981 338.593,-943.841 301.663,-882.485 282.97,-847.219"/>
<polygon fill="none" stroke="black" points="285.901,-845.268 278.187,-838.005 279.688,-848.493 285.901,-845.268"/>
</g>
<!-- \\acdhOeaw\\schema\\dissemination\\Service -->
<g id="node5" class="node"><title>\\acdhOeaw\\schema\\dissemination\\Service</title>
<polygon fill="none" stroke="black" points="485.594,-972 421.594,-972 421.594,-936 485.594,-936 485.594,-972"/>
<text text-anchor="middle" x="453.594" y="-951.2" font-family="Courier,monospace" font-size="11.00">Service</text>
</g>
<!-- \\acdhOeaw\\schema\\dissemination\\Service&#45;&gt;\\acdhOeaw\\schema\\Object -->
<g id="edge10" class="edge"><title>\\acdhOeaw\\schema\\dissemination\\Service&#45;&gt;\\acdhOeaw\\schema\\Object</title>
<path fill="none" stroke="black" d="M421.403,-942.285C409.873,-937.36 396.953,-931.114 386,-924 350.863,-901.179 315.696,-868.014 293.338,-845.308"/>
<polygon fill="none" stroke="black" points="295.748,-842.766 286.266,-838.039 290.731,-847.647 295.748,-842.766"/>
</g>
<!-- \\acdhOeaw\\schema\\redmine\\Redmine -->
<g id="node6" class="node"><title>\\acdhOeaw\\schema\\redmine\\Redmine</title>
<polygon fill="none" stroke="black" points="495.594,-838 411.594,-838 411.594,-802 495.594,-802 495.594,-838"/>
<text text-anchor="start" x="419.594" y="-823.2" font-family="Courier,monospace" font-size="11.00">«abstract»</text>
<text text-anchor="start" x="429.594" y="-811.2" font-family="Courier,monospace" font-size="11.00">Redmine</text>
</g>
<!-- \\acdhOeaw\\schema\\redmine\\Redmine&#45;&gt;\\acdhOeaw\\schema\\Object -->
<g id="edge2" class="edge"><title>\\acdhOeaw\\schema\\redmine\\Redmine&#45;&gt;\\acdhOeaw\\schema\\Object</title>
<path fill="none" stroke="black" d="M411.504,-820C384.742,-820 349.614,-820 320.992,-820"/>
<polygon fill="none" stroke="black" points="320.769,-816.5 310.769,-820 320.769,-823.5 320.769,-816.5"/>
</g>
<!-- \\acdhOeaw\\schema\\redmine\\Issue -->
<g id="node7" class="node"><title>\\acdhOeaw\\schema\\redmine\\Issue</title>
<polygon fill="none" stroke="black" points="689.188,-892 635.188,-892 635.188,-856 689.188,-856 689.188,-892"/>
<text text-anchor="middle" x="662.188" y="-871.2" font-family="Courier,monospace" font-size="11.00">Issue</text>
</g>
<!-- \\acdhOeaw\\schema\\redmine\\Issue&#45;&gt;\\acdhOeaw\\schema\\redmine\\Redmine -->
<g id="edge3" class="edge"><title>\\acdhOeaw\\schema\\redmine\\Issue&#45;&gt;\\acdhOeaw\\schema\\redmine\\Redmine</title>
<path fill="none" stroke="black" d="M635.023,-867.161C602.624,-858.692 546.704,-844.076 505.685,-833.354"/>
<polygon fill="none" stroke="black" points="506.424,-829.93 495.864,-830.787 504.654,-836.702 506.424,-829.93"/>
</g>
<!-- \\acdhOeaw\\schema\\redmine\\Project -->
<g id="node8" class="node"><title>\\acdhOeaw\\schema\\redmine\\Project</title>
<polygon fill="none" stroke="black" points="694.188,-838 630.188,-838 630.188,-802 694.188,-802 694.188,-838"/>
<text text-anchor="middle" x="662.188" y="-817.2" font-family="Courier,monospace" font-size="11.00">Project</text>
</g>
<!-- \\acdhOeaw\\schema\\redmine\\Project&#45;&gt;\\acdhOeaw\\schema\\redmine\\Redmine -->
<g id="edge7" class="edge"><title>\\acdhOeaw\\schema\\redmine\\Project&#45;&gt;\\acdhOeaw\\schema\\redmine\\Redmine</title>
<path fill="none" stroke="black" d="M629.811,-820C596.963,-820 544.855,-820 505.989,-820"/>
<polygon fill="none" stroke="black" points="505.911,-816.5 495.911,-820 505.911,-823.5 505.911,-816.5"/>
</g>
<!-- \\acdhOeaw\\schema\\redmine\\User -->
<g id="node9" class="node"><title>\\acdhOeaw\\schema\\redmine\\User</title>
<polygon fill="none" stroke="black" points="689.188,-784 635.188,-784 635.188,-748 689.188,-748 689.188,-784"/>
<text text-anchor="middle" x="662.188" y="-763.2" font-family="Courier,monospace" font-size="11.00">User</text>
</g>
<!-- \\acdhOeaw\\schema\\redmine\\User&#45;&gt;\\acdhOeaw\\schema\\redmine\\Redmine -->
<g id="edge14" class="edge"><title>\\acdhOeaw\\schema\\redmine\\User&#45;&gt;\\acdhOeaw\\schema\\redmine\\Redmine</title>
<path fill="none" stroke="black" d="M635.023,-772.839C602.624,-781.308 546.704,-795.924 505.685,-806.646"/>
<polygon fill="none" stroke="black" points="504.654,-803.298 495.864,-809.213 506.424,-810.07 504.654,-803.298"/>
</g>
<!-- \\acdhOeaw\\schema\\cirilo\\Service -->
<g id="node10" class="node"><title>\\acdhOeaw\\schema\\cirilo\\Service</title>
<polygon fill="none" stroke="black" points="485.594,-704 421.594,-704 421.594,-668 485.594,-668 485.594,-704"/>
<text text-anchor="middle" x="453.594" y="-683.2" font-family="Courier,monospace" font-size="11.00">Service</text>
</g>
<!-- \\acdhOeaw\\schema\\cirilo\\Service&#45;&gt;\\acdhOeaw\\schema\\Object -->
<g id="edge4" class="edge"><title>\\acdhOeaw\\schema\\cirilo\\Service&#45;&gt;\\acdhOeaw\\schema\\Object</title>
<path fill="none" stroke="black" d="M427.901,-704.072C395.55,-727.749 338.708,-769.349 302.638,-795.748"/>
<polygon fill="none" stroke="black" points="300.389,-793.056 294.386,-801.787 304.523,-798.705 300.389,-793.056"/>
</g>
<!-- \\acdhOeaw\\schema\\file\\CmdiFile -->
<g id="node11" class="node"><title>\\acdhOeaw\\schema\\file\\CmdiFile</title>
<polygon fill="none" stroke="black" points="697.688,-624 626.688,-624 626.688,-588 697.688,-588 697.688,-624"/>
<text text-anchor="middle" x="662.188" y="-603.2" font-family="Courier,monospace" font-size="11.00">CmdiFile</text>
</g>
<!-- \\acdhOeaw\\schema\\file\\File -->
<g id="node12" class="node"><title>\\acdhOeaw\\schema\\file\\File</title>
<polygon fill="none" stroke="black" points="480.594,-624 426.594,-624 426.594,-588 480.594,-588 480.594,-624"/>
<text text-anchor="middle" x="453.594" y="-603.2" font-family="Courier,monospace" font-size="11.00">File</text>
</g>
<!-- \\acdhOeaw\\schema\\file\\CmdiFile&#45;&gt;\\acdhOeaw\\schema\\file\\File -->
<g id="edge5" class="edge"><title>\\acdhOeaw\\schema\\file\\CmdiFile&#45;&gt;\\acdhOeaw\\schema\\file\\File</title>
<path fill="none" stroke="black" d="M626.609,-606C589.02,-606 529.214,-606 490.944,-606"/>
<polygon fill="none" stroke="black" points="490.758,-602.5 480.758,-606 490.758,-609.5 490.758,-602.5"/>
</g>
<!-- \\acdhOeaw\\schema\\file\\File&#45;&gt;\\acdhOeaw\\schema\\Object -->
<g id="edge8" class="edge"><title>\\acdhOeaw\\schema\\file\\File&#45;&gt;\\acdhOeaw\\schema\\Object</title>
<path fill="none" stroke="black" d="M426.428,-622.818C413.494,-631.809 398.105,-643.572 386,-656 343.903,-699.223 305.569,-758.795 285.09,-792.967"/>
<polygon fill="none" stroke="black" points="281.885,-791.509 279.799,-801.896 287.907,-795.077 281.885,-791.509"/>
</g>
<!-- \\acdhOeaw\\fedora\\metadataQuery\\Query -->
<g id="node14" class="node"><title>\\acdhOeaw\\fedora\\metadataQuery\\Query</title>
<polygon fill="none" stroke="black" points="689.188,-508 635.188,-508 635.188,-472 689.188,-472 689.188,-508"/>
<text text-anchor="middle" x="662.188" y="-487.2" font-family="Courier,monospace" font-size="11.00">Query</text>
</g>
<!-- \\acdhOeaw\\fedora\\metadataQuery\\HasValue -->
<g id="node15" class="node"><title>\\acdhOeaw\\fedora\\metadataQuery\\HasValue</title>
<polygon fill="none" stroke="black" points="489.094,-508 418.094,-508 418.094,-472 489.094,-472 489.094,-508"/>
<text text-anchor="middle" x="453.594" y="-487.2" font-family="Courier,monospace" font-size="11.00">HasValue</text>
</g>
<!-- \\acdhOeaw\\fedora\\metadataQuery\\HasProperty -->
<g id="node19" class="node"><title>\\acdhOeaw\\fedora\\metadataQuery\\HasProperty</title>
<polygon fill="none" stroke="black" points="314,-481 223,-481 223,-445 314,-445 314,-481"/>
<text text-anchor="middle" x="268.5" y="-460.2" font-family="Courier,monospace" font-size="11.00">HasProperty</text>
</g>
<!-- \\acdhOeaw\\fedora\\metadataQuery\\HasValue&#45;&gt;\\acdhOeaw\\fedora\\metadataQuery\\HasProperty -->
<g id="edge6" class="edge"><title>\\acdhOeaw\\fedora\\metadataQuery\\HasValue&#45;&gt;\\acdhOeaw\\fedora\\metadataQuery\\HasProperty</title>
<path fill="none" stroke="black" d="M417.724,-484.858C391.344,-480.968 354.611,-475.551 324.313,-471.083"/>
<polygon fill="none" stroke="black" points="324.713,-467.604 314.309,-469.608 323.691,-474.529 324.713,-467.604"/>
</g>
<!-- \\acdhOeaw\\fedora\\metadataQuery\\QueryParameter -->
<g id="node16" class="node"><title>\\acdhOeaw\\fedora\\metadataQuery\\QueryParameter</title>
<polygon fill="none" stroke="black" points="151,-481 40,-481 40,-445 151,-445 151,-481"/>
<text text-anchor="start" x="61.5" y="-466.2" font-family="Courier,monospace" font-size="11.00">«abstract»</text>
<text text-anchor="start" x="48" y="-454.2" font-family="Courier,monospace" font-size="11.00">QueryParameter</text>
</g>
<!-- \\acdhOeaw\\fedora\\metadataQuery\\MatchesRegEx -->
<g id="node17" class="node"><title>\\acdhOeaw\\fedora\\metadataQuery\\MatchesRegEx</title>
<polygon fill="none" stroke="black" points="711.188,-454 613.188,-454 613.188,-418 711.188,-418 711.188,-454"/>
<text text-anchor="middle" x="662.188" y="-433.2" font-family="Courier,monospace" font-size="11.00">MatchesRegEx</text>
</g>
<!-- \\acdhOeaw\\fedora\\metadataQuery\\MatchesRegEx&#45;&gt;\\acdhOeaw\\fedora\\metadataQuery\\HasValue -->
<g id="edge9" class="edge"><title>\\acdhOeaw\\fedora\\metadataQuery\\MatchesRegEx&#45;&gt;\\acdhOeaw\\fedora\\metadataQuery\\HasValue</title>
<path fill="none" stroke="black" d="M613.012,-448.592C578.65,-457.574 532.781,-469.563 499.245,-478.329"/>
<polygon fill="none" stroke="black" points="498.049,-475.024 489.26,-480.939 499.82,-481.796 498.049,-475.024"/>
</g>
<!-- \\acdhOeaw\\fedora\\metadataQuery\\HasTriple -->
<g id="node18" class="node"><title>\\acdhOeaw\\fedora\\metadataQuery\\HasTriple</title>
<polygon fill="none" stroke="black" points="492.094,-454 415.094,-454 415.094,-418 492.094,-418 492.094,-454"/>
<text text-anchor="middle" x="453.594" y="-433.2" font-family="Courier,monospace" font-size="11.00">HasTriple</text>
</g>
<!-- \\acdhOeaw\\fedora\\metadataQuery\\HasTriple&#45;&gt;\\acdhOeaw\\fedora\\metadataQuery\\HasProperty -->
<g id="edge12" class="edge"><title>\\acdhOeaw\\fedora\\metadataQuery\\HasTriple&#45;&gt;\\acdhOeaw\\fedora\\metadataQuery\\HasProperty</title>
<path fill="none" stroke="black" d="M414.657,-441.594C388.515,-445.449 353.369,-450.632 324.208,-454.933"/>
<polygon fill="none" stroke="black" points="323.55,-451.492 314.167,-456.413 324.571,-458.417 323.55,-451.492"/>
</g>
<!-- \\acdhOeaw\\fedora\\metadataQuery\\HasProperty&#45;&gt;\\acdhOeaw\\fedora\\metadataQuery\\QueryParameter -->
<g id="edge13" class="edge"><title>\\acdhOeaw\\fedora\\metadataQuery\\HasProperty&#45;&gt;\\acdhOeaw\\fedora\\metadataQuery\\QueryParameter</title>
<path fill="none" stroke="black" d="M222.572,-463C203.864,-463 181.782,-463 161.369,-463"/>
<polygon fill="none" stroke="black" points="161.19,-459.5 151.19,-463 161.19,-466.5 161.19,-459.5"/>
</g>
<!-- \\acdhOeaw\\fedora\\Fedora -->
<g id="node20" class="node"><title>\\acdhOeaw\\fedora\\Fedora</title>
<polygon fill="none" stroke="black" points="690.688,-400 633.688,-400 633.688,-364 690.688,-364 690.688,-400"/>
<text text-anchor="middle" x="662.188" y="-379.2" font-family="Courier,monospace" font-size="11.00">Fedora</text>
</g>
<!-- \\acdhOeaw\\fedora\\FedoraResource -->
<g id="node21" class="node"><title>\\acdhOeaw\\fedora\\FedoraResource</title>
<polygon fill="none" stroke="black" points="717.688,-346 606.688,-346 606.688,-310 717.688,-310 717.688,-346"/>
<text text-anchor="middle" x="662.188" y="-325.2" font-family="Courier,monospace" font-size="11.00">FedoraResource</text>
</g>
<!-- \\acdhOeaw\\fedora\\SparqlClient -->
<g id="node22" class="node"><title>\\acdhOeaw\\fedora\\SparqlClient</title>
<polygon fill="none" stroke="black" points="711.188,-292 613.188,-292 613.188,-256 711.188,-256 711.188,-292"/>
<text text-anchor="middle" x="662.188" y="-271.2" font-family="Courier,monospace" font-size="11.00">SparqlClient</text>
</g>
</g>
</svg>
