<?xml version="1.0" encoding="UTF-8" standalone="no"?>
<!DOCTYPE svg PUBLIC "-//W3C//DTD SVG 1.1//EN"
 "http://www.w3.org/Graphics/SVG/1.1/DTD/svg11.dtd">
<!-- Generated by graphviz version 2.38.0 (20140413.2041)
 -->
<!-- Title: G Pages: 1 -->
<svg width="786pt" height="2340pt"
 viewBox="0.00 0.00 785.50 2340.00" xmlns="http://www.w3.org/2000/svg" xmlns:xlink="http://www.w3.org/1999/xlink">
<g id="graph0" class="graph" transform="scale(1 1) rotate(0) translate(4 2336)">
<title>G</title>
<polygon fill="white" stroke="none" points="-4,4 -4,-2336 781.5,-2336 781.5,4 -4,4"/>
<g id="clust1" class="cluster"><title>cluster_Global</title>
<path fill="none" stroke="gray" d="M20,-98C20,-98 757.5,-98 757.5,-98 763.5,-98 769.5,-104 769.5,-110 769.5,-110 769.5,-2312 769.5,-2312 769.5,-2318 763.5,-2324 757.5,-2324 757.5,-2324 20,-2324 20,-2324 14,-2324 8,-2318 8,-2312 8,-2312 8,-110 8,-110 8,-104 14,-98 20,-98"/>
<text text-anchor="middle" x="388.75" y="-2311.2" font-family="Times,serif" font-size="11.00" fill="gray">Global</text>
</g>
<g id="clust2" class="cluster"><title>cluster_\acdhOeaw</title>
<path fill="none" stroke="gray" d="M28,-106C28,-106 749.5,-106 749.5,-106 755.5,-106 761.5,-112 761.5,-118 761.5,-118 761.5,-2284 761.5,-2284 761.5,-2290 755.5,-2296 749.5,-2296 749.5,-2296 28,-2296 28,-2296 22,-2296 16,-2290 16,-2284 16,-2284 16,-118 16,-118 16,-112 22,-106 28,-106"/>
<text text-anchor="middle" x="388.75" y="-2283.2" font-family="Times,serif" font-size="11.00" fill="gray">acdhOeaw</text>
</g>
<g id="clust3" class="cluster"><title>cluster_\acdhOeaw\fedora</title>
<path fill="none" stroke="gray" d="M36,-1118C36,-1118 741.5,-1118 741.5,-1118 747.5,-1118 753.5,-1124 753.5,-1130 753.5,-1130 753.5,-2256 753.5,-2256 753.5,-2262 747.5,-2268 741.5,-2268 741.5,-2268 36,-2268 36,-2268 30,-2268 24,-2262 24,-2256 24,-2256 24,-1130 24,-1130 24,-1124 30,-1118 36,-1118"/>
<text text-anchor="middle" x="388.75" y="-2255.2" font-family="Times,serif" font-size="11.00" fill="gray">fedora</text>
</g>
<g id="clust4" class="cluster"><title>cluster_\acdhOeaw\fedora\dissemination</title>
<path fill="none" stroke="gray" d="M637.5,-2114C637.5,-2114 706.5,-2114 706.5,-2114 712.5,-2114 718.5,-2120 718.5,-2126 718.5,-2126 718.5,-2228 718.5,-2228 718.5,-2234 712.5,-2240 706.5,-2240 706.5,-2240 637.5,-2240 637.5,-2240 631.5,-2240 625.5,-2234 625.5,-2228 625.5,-2228 625.5,-2126 625.5,-2126 625.5,-2120 631.5,-2114 637.5,-2114"/>
<text text-anchor="middle" x="672" y="-2227.2" font-family="Times,serif" font-size="11.00" fill="gray">dissemination</text>
</g>
<g id="clust5" class="cluster"><title>cluster_\acdhOeaw\fedora\exceptions</title>
<path fill="none" stroke="gray" d="M610.5,-1280C610.5,-1280 733.5,-1280 733.5,-1280 739.5,-1280 745.5,-1286 745.5,-1292 745.5,-1292 745.5,-1772 745.5,-1772 745.5,-1778 739.5,-1784 733.5,-1784 733.5,-1784 610.5,-1784 610.5,-1784 604.5,-1784 598.5,-1778 598.5,-1772 598.5,-1772 598.5,-1292 598.5,-1292 598.5,-1286 604.5,-1280 610.5,-1280"/>
<text text-anchor="middle" x="672" y="-1771.2" font-family="Times,serif" font-size="11.00" fill="gray">exceptions</text>
</g>
<g id="clust6" class="cluster"><title>cluster_\acdhOeaw\fedora\metadataQuery</title>
<path fill="none" stroke="gray" d="M44,-1792C44,-1792 717,-1792 717,-1792 723,-1792 729,-1798 729,-1804 729,-1804 729,-1960 729,-1960 729,-1966 723,-1972 717,-1972 717,-1972 44,-1972 44,-1972 38,-1972 32,-1966 32,-1960 32,-1960 32,-1804 32,-1804 32,-1798 38,-1792 44,-1792"/>
<text text-anchor="middle" x="380.5" y="-1959.2" font-family="Times,serif" font-size="11.00" fill="gray">metadataQuery</text>
</g>
<g id="clust7" class="cluster"><title>cluster_\acdhOeaw\fedora\acl</title>
<path fill="none" stroke="gray" d="M634,-1980C634,-1980 710,-1980 710,-1980 716,-1980 722,-1986 722,-1992 722,-1992 722,-2094 722,-2094 722,-2100 716,-2106 710,-2106 710,-2106 634,-2106 634,-2106 628,-2106 622,-2100 622,-2094 622,-2094 622,-1992 622,-1992 622,-1986 628,-1980 634,-1980"/>
<text text-anchor="middle" x="672" y="-2093.2" font-family="Times,serif" font-size="11.00" fill="gray">acl</text>
</g>
<g id="clust8" class="cluster"><title>cluster_\acdhOeaw\util</title>
<path fill="none" stroke="gray" d="M382,-606C382,-606 741.5,-606 741.5,-606 747.5,-606 753.5,-612 753.5,-618 753.5,-618 753.5,-1098 753.5,-1098 753.5,-1104 747.5,-1110 741.5,-1110 741.5,-1110 382,-1110 382,-1110 376,-1110 370,-1104 370,-1098 370,-1098 370,-618 370,-618 370,-612 376,-606 382,-606"/>
<text text-anchor="middle" x="561.75" y="-1097.2" font-family="Times,serif" font-size="11.00" fill="gray">util</text>
</g>
<g id="clust9" class="cluster"><title>cluster_\acdhOeaw\util\metadataValidator</title>
<path fill="none" stroke="gray" d="M610.5,-902C610.5,-902 733.5,-902 733.5,-902 739.5,-902 745.5,-908 745.5,-914 745.5,-914 745.5,-1070 745.5,-1070 745.5,-1076 739.5,-1082 733.5,-1082 733.5,-1082 610.5,-1082 610.5,-1082 604.5,-1082 598.5,-1076 598.5,-1070 598.5,-1070 598.5,-914 598.5,-914 598.5,-908 604.5,-902 610.5,-902"/>
<text text-anchor="middle" x="672" y="-1069.2" font-family="Times,serif" font-size="11.00" fill="gray">metadataValidator</text>
</g>
<g id="clust10" class="cluster"><title>cluster_\acdhOeaw\util\metaLookup</title>
<path fill="none" stroke="gray" d="M390,-768C390,-768 727,-768 727,-768 733,-768 739,-774 739,-780 739,-780 739,-882 739,-882 739,-888 733,-894 727,-894 727,-894 390,-894 390,-894 384,-894 378,-888 378,-882 378,-882 378,-780 378,-780 378,-774 384,-768 390,-768"/>
<text text-anchor="middle" x="558.5" y="-881.2" font-family="Times,serif" font-size="11.00" fill="gray">metaLookup</text>
</g>
<g id="clust11" class="cluster"><title>cluster_\acdhOeaw\schema</title>
<path fill="none" stroke="gray" d="M230.5,-114C230.5,-114 728,-114 728,-114 734,-114 740,-120 740,-126 740,-126 740,-586 740,-586 740,-592 734,-598 728,-598 728,-598 230.5,-598 230.5,-598 224.5,-598 218.5,-592 218.5,-586 218.5,-586 218.5,-126 218.5,-126 218.5,-120 224.5,-114 230.5,-114"/>
<text text-anchor="middle" x="479.25" y="-585.2" font-family="Times,serif" font-size="11.00" fill="gray">schema</text>
</g>
<g id="clust12" class="cluster"><title>cluster_\acdhOeaw\schema\file</title>
<path fill="none" stroke="gray" d="M435.5,-498C435.5,-498 703.5,-498 703.5,-498 709.5,-498 715.5,-504 715.5,-510 715.5,-510 715.5,-558 715.5,-558 715.5,-564 709.5,-570 703.5,-570 703.5,-570 435.5,-570 435.5,-570 429.5,-570 423.5,-564 423.5,-558 423.5,-558 423.5,-510 423.5,-510 423.5,-504 429.5,-498 435.5,-498"/>
<text text-anchor="middle" x="569.5" y="-557.2" font-family="Times,serif" font-size="11.00" fill="gray">file</text>
</g>
<g id="clust13" class="cluster"><title>cluster_\acdhOeaw\schema\dissemination</title>
<path fill="none" stroke="gray" d="M430.5,-310C430.5,-310 720,-310 720,-310 726,-310 732,-316 732,-322 732,-322 732,-478 732,-478 732,-484 726,-490 720,-490 720,-490 430.5,-490 430.5,-490 424.5,-490 418.5,-484 418.5,-478 418.5,-478 418.5,-322 418.5,-322 418.5,-316 424.5,-310 430.5,-310"/>
<text text-anchor="middle" x="575.25" y="-477.2" font-family="Times,serif" font-size="11.00" fill="gray">dissemination</text>
</g>
<g id="clust14" class="cluster"><title>cluster_\acdhOeaw\schema\redmine</title>
<path fill="none" stroke="gray" d="M420.5,-122C420.5,-122 700,-122 700,-122 706,-122 712,-128 712,-134 712,-134 712,-290 712,-290 712,-296 706,-302 700,-302 700,-302 420.5,-302 420.5,-302 414.5,-302 408.5,-296 408.5,-290 408.5,-290 408.5,-134 408.5,-134 408.5,-128 414.5,-122 420.5,-122"/>
<text text-anchor="middle" x="560.25" y="-289.2" font-family="Times,serif" font-size="11.00" fill="gray">redmine</text>
</g>
<!-- \\acdhOeaw\\fedora\\dissemination\\Service -->
<g id="node1" class="node"><title>\\acdhOeaw\\fedora\\dissemination\\Service</title>
<polygon fill="none" stroke="black" points="704,-2212 640,-2212 640,-2176 704,-2176 704,-2212"/>
<text text-anchor="middle" x="672" y="-2191.2" font-family="Courier,monospace" font-size="11.00">Service</text>
</g>
<!-- \\acdhOeaw\\fedora\\FedoraResource -->
<g id="node23" class="node"><title>\\acdhOeaw\\fedora\\FedoraResource</title>
<polygon fill="none" stroke="black" points="514,-2158 403,-2158 403,-2122 514,-2122 514,-2158"/>
<text text-anchor="middle" x="458.5" y="-2137.2" font-family="Courier,monospace" font-size="11.00">FedoraResource</text>
</g>
<!-- \\acdhOeaw\\fedora\\dissemination\\Service&#45;&gt;\\acdhOeaw\\fedora\\FedoraResource -->
<g id="edge1" class="edge"><title>\\acdhOeaw\\fedora\\dissemination\\Service&#45;&gt;\\acdhOeaw\\fedora\\FedoraResource</title>
<path fill="none" stroke="black" d="M639.792,-2186.03C609.519,-2178.3 562.664,-2166.34 524.307,-2156.55"/>
<polygon fill="none" stroke="black" points="524.801,-2153.06 514.246,-2153.98 523.069,-2159.84 524.801,-2153.06"/>
</g>
<!-- \\acdhOeaw\\fedora\\dissemination\\Parameter -->
<g id="node2" class="node"><title>\\acdhOeaw\\fedora\\dissemination\\Parameter</title>
<polygon fill="none" stroke="black" points="710.5,-2158 633.5,-2158 633.5,-2122 710.5,-2122 710.5,-2158"/>
<text text-anchor="middle" x="672" y="-2137.2" font-family="Courier,monospace" font-size="11.00">Parameter</text>
</g>
<!-- \\acdhOeaw\\fedora\\dissemination\\Parameter&#45;&gt;\\acdhOeaw\\fedora\\FedoraResource -->
<g id="edge2" class="edge"><title>\\acdhOeaw\\fedora\\dissemination\\Parameter&#45;&gt;\\acdhOeaw\\fedora\\FedoraResource</title>
<path fill="none" stroke="black" d="M633.188,-2140C603.016,-2140 560.049,-2140 524.4,-2140"/>
<polygon fill="none" stroke="black" points="524.076,-2136.5 514.076,-2140 524.076,-2143.5 524.076,-2136.5"/>
</g>
<!-- \\acdhOeaw\\fedora\\exceptions\\NotInCache -->
<g id="node3" class="node"><title>\\acdhOeaw\\fedora\\exceptions\\NotInCache</title>
<polygon fill="none" stroke="black" points="714,-1756 630,-1756 630,-1720 714,-1720 714,-1756"/>
<text text-anchor="middle" x="672" y="-1735.2" font-family="Courier,monospace" font-size="11.00">NotInCache</text>
</g>
<!-- \\Exception -->
<g id="node45" class="node"><title>\\Exception</title>
<ellipse fill="none" stroke="black" cx="458.5" cy="-72" rx="48.9926" ry="18"/>
<text text-anchor="middle" x="458.5" y="-68.3" font-family="Times,serif" font-size="14.00" fill="gray">\Exception</text>
</g>
<!-- \\acdhOeaw\\fedora\\exceptions\\NotInCache&#45;&gt;\\Exception -->
<g id="edge3" class="edge"><title>\\acdhOeaw\\fedora\\exceptions\\NotInCache&#45;&gt;\\Exception</title>
<path fill="none" stroke="black" d="M629.941,-1731.64C617.918,-1727.7 606,-1721.32 598.5,-1711 494.368,-1567.68 619.138,-271.678 531,-118 524.212,-106.164 513.004,-96.8785 501.452,-89.8442"/>
<polygon fill="none" stroke="black" points="503.055,-86.7303 492.62,-84.899 499.635,-92.8382 503.055,-86.7303"/>
</g>
<!-- \\acdhOeaw\\fedora\\exceptions\\NoAcdhId -->
<g id="node4" class="node"><title>\\acdhOeaw\\fedora\\exceptions\\NoAcdhId</title>
<polygon fill="none" stroke="black" points="707.5,-1702 636.5,-1702 636.5,-1666 707.5,-1666 707.5,-1702"/>
<text text-anchor="middle" x="672" y="-1681.2" font-family="Courier,monospace" font-size="11.00">NoAcdhId</text>
</g>
<!-- \\acdhOeaw\\fedora\\exceptions\\NoAcdhId&#45;&gt;\\Exception -->
<g id="edge4" class="edge"><title>\\acdhOeaw\\fedora\\exceptions\\NoAcdhId&#45;&gt;\\Exception</title>
<path fill="none" stroke="black" d="M636.39,-1679.53C622.335,-1675.85 607.351,-1669.16 598.5,-1657 497.789,-1518.6 616.266,-266.415 531,-118 524.203,-106.169 512.993,-96.885 501.442,-89.8504"/>
<polygon fill="none" stroke="black" points="503.045,-86.7369 492.61,-84.9046 499.625,-92.8445 503.045,-86.7369"/>
</g>
<!-- \\acdhOeaw\\fedora\\exceptions\\CacheInconsistent -->
<g id="node5" class="node"><title>\\acdhOeaw\\fedora\\exceptions\\CacheInconsistent</title>
<polygon fill="none" stroke="black" points="737.5,-1648 606.5,-1648 606.5,-1612 737.5,-1612 737.5,-1648"/>
<text text-anchor="middle" x="672" y="-1627.2" font-family="Courier,monospace" font-size="11.00">CacheInconsistent</text>
</g>
<!-- \\acdhOeaw\\fedora\\exceptions\\CacheInconsistent&#45;&gt;\\Exception -->
<g id="edge5" class="edge"><title>\\acdhOeaw\\fedora\\exceptions\\CacheInconsistent&#45;&gt;\\Exception</title>
<path fill="none" stroke="black" d="M607.115,-1611.89C603.874,-1609.31 600.953,-1606.36 598.5,-1603 501.21,-1469.52 613.394,-261.152 531,-118 524.194,-106.175 512.98,-96.8919 501.43,-89.857"/>
<polygon fill="none" stroke="black" points="503.034,-86.7439 492.599,-84.9107 499.614,-92.8512 503.034,-86.7439"/>
</g>
<!-- \\acdhOeaw\\fedora\\exceptions\\ManyAcdhIds -->
<g id="node6" class="node"><title>\\acdhOeaw\\fedora\\exceptions\\ManyAcdhIds</title>
<polygon fill="none" stroke="black" points="717.5,-1594 626.5,-1594 626.5,-1558 717.5,-1558 717.5,-1594"/>
<text text-anchor="middle" x="672" y="-1573.2" font-family="Courier,monospace" font-size="11.00">ManyAcdhIds</text>
</g>
<!-- \\acdhOeaw\\fedora\\exceptions\\ManyAcdhIds&#45;&gt;\\Exception -->
<g id="edge6" class="edge"><title>\\acdhOeaw\\fedora\\exceptions\\ManyAcdhIds&#45;&gt;\\Exception</title>
<path fill="none" stroke="black" d="M626.182,-1568.29C615.487,-1564.29 605.233,-1558.22 598.5,-1549 504.63,-1420.45 610.522,-255.889 531,-118 524.184,-106.181 512.968,-96.8993 501.418,-89.8641"/>
<polygon fill="none" stroke="black" points="503.023,-86.7515 492.588,-84.9173 499.601,-92.8584 503.023,-86.7515"/>
</g>
<!-- \\acdhOeaw\\fedora\\exceptions\\AclException -->
<g id="node7" class="node"><title>\\acdhOeaw\\fedora\\exceptions\\AclException</title>
<polygon fill="none" stroke="black" points="721,-1540 623,-1540 623,-1504 721,-1504 721,-1540"/>
<text text-anchor="middle" x="672" y="-1519.2" font-family="Courier,monospace" font-size="11.00">AclException</text>
</g>
<!-- \\acdhOeaw\\fedora\\exceptions\\AclException&#45;&gt;\\Exception -->
<g id="edge7" class="edge"><title>\\acdhOeaw\\fedora\\exceptions\\AclException&#45;&gt;\\Exception</title>
<path fill="none" stroke="black" d="M622.815,-1512.94C613.366,-1508.96 604.527,-1503.24 598.5,-1495 417.6,-1247.74 684.302,-383.254 531,-118 524.173,-106.187 512.954,-96.9074 501.404,-89.8718"/>
<polygon fill="none" stroke="black" points="503.01,-86.7597 492.576,-84.9244 499.588,-92.8663 503.01,-86.7597"/>
</g>
<!-- \\acdhOeaw\\fedora\\exceptions\\NotFound -->
<g id="node8" class="node"><title>\\acdhOeaw\\fedora\\exceptions\\NotFound</title>
<polygon fill="none" stroke="black" points="707.5,-1486 636.5,-1486 636.5,-1450 707.5,-1450 707.5,-1486"/>
<text text-anchor="middle" x="672" y="-1465.2" font-family="Courier,monospace" font-size="11.00">NotFound</text>
</g>
<!-- \\acdhOeaw\\fedora\\exceptions\\NotFound&#45;&gt;\\Exception -->
<g id="edge8" class="edge"><title>\\acdhOeaw\\fedora\\exceptions\\NotFound&#45;&gt;\\Exception</title>
<path fill="none" stroke="black" d="M636.431,-1463.5C622.383,-1459.82 607.395,-1453.13 598.5,-1441 424.44,-1203.59 678.559,-372.73 531,-118 524.161,-106.194 512.939,-96.9161 501.39,-89.8802"/>
<polygon fill="none" stroke="black" points="502.997,-86.7686 492.562,-84.9321 499.574,-92.8747 502.997,-86.7686"/>
</g>
<!-- \\acdhOeaw\\fedora\\exceptions\\AmbiguousMatch -->
<g id="node9" class="node"><title>\\acdhOeaw\\fedora\\exceptions\\AmbiguousMatch</title>
<polygon fill="none" stroke="black" points="727.5,-1432 616.5,-1432 616.5,-1396 727.5,-1396 727.5,-1432"/>
<text text-anchor="middle" x="672" y="-1411.2" font-family="Courier,monospace" font-size="11.00">AmbiguousMatch</text>
</g>
<!-- \\acdhOeaw\\fedora\\exceptions\\AmbiguousMatch&#45;&gt;\\Exception -->
<g id="edge9" class="edge"><title>\\acdhOeaw\\fedora\\exceptions\\AmbiguousMatch&#45;&gt;\\Exception</title>
<path fill="none" stroke="black" d="M616.257,-1401.8C609.357,-1398.1 603.113,-1393.28 598.5,-1387 431.279,-1159.43 672.816,-362.207 531,-118 524.148,-106.201 512.922,-96.9256 501.374,-89.8893"/>
<polygon fill="none" stroke="black" points="502.982,-86.7782 492.548,-84.9404 499.559,-92.884 502.982,-86.7782"/>
</g>
<!-- \\acdhOeaw\\fedora\\exceptions\\Deleted -->
<g id="node10" class="node"><title>\\acdhOeaw\\fedora\\exceptions\\Deleted</title>
<polygon fill="none" stroke="black" points="704,-1378 640,-1378 640,-1342 704,-1342 704,-1378"/>
<text text-anchor="middle" x="672" y="-1357.2" font-family="Courier,monospace" font-size="11.00">Deleted</text>
</g>
<!-- \\acdhOeaw\\fedora\\exceptions\\Deleted&#45;&gt;\\Exception -->
<g id="edge10" class="edge"><title>\\acdhOeaw\\fedora\\exceptions\\Deleted&#45;&gt;\\Exception</title>
<path fill="none" stroke="black" d="M639.821,-1356.31C624.863,-1352.83 608.139,-1346.08 598.5,-1333 438.118,-1115.28 667.074,-351.685 531,-118 524.134,-106.209 512.904,-96.9359 501.357,-89.8992"/>
<polygon fill="none" stroke="black" points="502.966,-86.7887 492.532,-84.9495 499.542,-92.894 502.966,-86.7887"/>
</g>
<!-- \\acdhOeaw\\fedora\\exceptions\\AlreadyInCache -->
<g id="node11" class="node"><title>\\acdhOeaw\\fedora\\exceptions\\AlreadyInCache</title>
<polygon fill="none" stroke="black" points="727.5,-1324 616.5,-1324 616.5,-1288 727.5,-1288 727.5,-1324"/>
<text text-anchor="middle" x="672" y="-1303.2" font-family="Courier,monospace" font-size="11.00">AlreadyInCache</text>
</g>
<!-- \\acdhOeaw\\fedora\\exceptions\\AlreadyInCache&#45;&gt;\\Exception -->
<g id="edge11" class="edge"><title>\\acdhOeaw\\fedora\\exceptions\\AlreadyInCache&#45;&gt;\\Exception</title>
<path fill="none" stroke="black" d="M616.448,-1297.63C609.522,-1294.4 603.22,-1289.99 598.5,-1284 437.937,-1080.08 661.865,-342.138 531,-118 524.121,-106.217 512.887,-96.9461 501.341,-89.909"/>
<polygon fill="none" stroke="black" points="502.951,-86.7991 492.517,-84.9585 499.526,-92.9039 502.951,-86.7991"/>
</g>
<!-- \\acdhOeaw\\fedora\\metadataQuery\\Query -->
<g id="node12" class="node"><title>\\acdhOeaw\\fedora\\metadataQuery\\Query</title>
<polygon fill="none" stroke="black" points="485.5,-1944 431.5,-1944 431.5,-1908 485.5,-1908 485.5,-1944"/>
<text text-anchor="middle" x="458.5" y="-1923.2" font-family="Courier,monospace" font-size="11.00">Query</text>
</g>
<!-- \\acdhOeaw\\fedora\\metadataQuery\\HasValue -->
<g id="node13" class="node"><title>\\acdhOeaw\\fedora\\metadataQuery\\HasValue</title>
<polygon fill="none" stroke="black" points="494,-1890 423,-1890 423,-1854 494,-1854 494,-1890"/>
<text text-anchor="middle" x="458.5" y="-1869.2" font-family="Courier,monospace" font-size="11.00">HasValue</text>
</g>
<!-- \\acdhOeaw\\fedora\\metadataQuery\\HasProperty -->
<g id="node17" class="node"><title>\\acdhOeaw\\fedora\\metadataQuery\\HasProperty</title>
<polygon fill="none" stroke="black" points="314,-1863 223,-1863 223,-1827 314,-1827 314,-1863"/>
<text text-anchor="middle" x="268.5" y="-1842.2" font-family="Courier,monospace" font-size="11.00">HasProperty</text>
</g>
<!-- \\acdhOeaw\\fedora\\metadataQuery\\HasValue&#45;&gt;\\acdhOeaw\\fedora\\metadataQuery\\HasProperty -->
<g id="edge12" class="edge"><title>\\acdhOeaw\\fedora\\metadataQuery\\HasValue&#45;&gt;\\acdhOeaw\\fedora\\metadataQuery\\HasProperty</title>
<path fill="none" stroke="black" d="M422.579,-1866.98C394.984,-1863.02 355.964,-1857.42 324.227,-1852.86"/>
<polygon fill="none" stroke="black" points="324.598,-1849.38 314.202,-1851.42 323.603,-1856.31 324.598,-1849.38"/>
</g>
<!-- \\acdhOeaw\\fedora\\metadataQuery\\QueryParameter -->
<g id="node14" class="node"><title>\\acdhOeaw\\fedora\\metadataQuery\\QueryParameter</title>
<polygon fill="none" stroke="black" points="151,-1863 40,-1863 40,-1827 151,-1827 151,-1863"/>
<text text-anchor="start" x="61.5" y="-1848.2" font-family="Courier,monospace" font-size="11.00">«abstract»</text>
<text text-anchor="start" x="48" y="-1836.2" font-family="Courier,monospace" font-size="11.00">QueryParameter</text>
</g>
<!-- \\acdhOeaw\\fedora\\metadataQuery\\SimpleQuery -->
<g id="node15" class="node"><title>\\acdhOeaw\\fedora\\metadataQuery\\SimpleQuery</title>
<polygon fill="none" stroke="black" points="717.5,-1944 626.5,-1944 626.5,-1908 717.5,-1908 717.5,-1944"/>
<text text-anchor="middle" x="672" y="-1923.2" font-family="Courier,monospace" font-size="11.00">SimpleQuery</text>
</g>
<!-- \\acdhOeaw\\fedora\\metadataQuery\\SimpleQuery&#45;&gt;\\acdhOeaw\\fedora\\metadataQuery\\Query -->
<g id="edge13" class="edge"><title>\\acdhOeaw\\fedora\\metadataQuery\\SimpleQuery&#45;&gt;\\acdhOeaw\\fedora\\metadataQuery\\Query</title>
<path fill="none" stroke="black" d="M626.405,-1926C587.577,-1926 531.991,-1926 495.821,-1926"/>
<polygon fill="none" stroke="black" points="495.713,-1922.5 485.713,-1926 495.713,-1929.5 495.713,-1922.5"/>
</g>
<!-- \\acdhOeaw\\fedora\\metadataQuery\\MatchesRegEx -->
<g id="node16" class="node"><title>\\acdhOeaw\\fedora\\metadataQuery\\MatchesRegEx</title>
<polygon fill="none" stroke="black" points="721,-1890 623,-1890 623,-1854 721,-1854 721,-1890"/>
<text text-anchor="middle" x="672" y="-1869.2" font-family="Courier,monospace" font-size="11.00">MatchesRegEx</text>
</g>
<!-- \\acdhOeaw\\fedora\\metadataQuery\\MatchesRegEx&#45;&gt;\\acdhOeaw\\fedora\\metadataQuery\\HasValue -->
<g id="edge14" class="edge"><title>\\acdhOeaw\\fedora\\metadataQuery\\MatchesRegEx&#45;&gt;\\acdhOeaw\\fedora\\metadataQuery\\HasValue</title>
<path fill="none" stroke="black" d="M622.743,-1872C587.165,-1872 539.115,-1872 504.366,-1872"/>
<polygon fill="none" stroke="black" points="504.038,-1868.5 494.038,-1872 504.038,-1875.5 504.038,-1868.5"/>
</g>
<!-- \\acdhOeaw\\fedora\\metadataQuery\\HasProperty&#45;&gt;\\acdhOeaw\\fedora\\metadataQuery\\QueryParameter -->
<g id="edge15" class="edge"><title>\\acdhOeaw\\fedora\\metadataQuery\\HasProperty&#45;&gt;\\acdhOeaw\\fedora\\metadataQuery\\QueryParameter</title>
<path fill="none" stroke="black" d="M222.572,-1845C203.864,-1845 181.782,-1845 161.369,-1845"/>
<polygon fill="none" stroke="black" points="161.19,-1841.5 151.19,-1845 161.19,-1848.5 161.19,-1841.5"/>
</g>
<!-- \\acdhOeaw\\fedora\\metadataQuery\\HasTriple -->
<g id="node18" class="node"><title>\\acdhOeaw\\fedora\\metadataQuery\\HasTriple</title>
<polygon fill="none" stroke="black" points="497,-1836 420,-1836 420,-1800 497,-1800 497,-1836"/>
<text text-anchor="middle" x="458.5" y="-1815.2" font-family="Courier,monospace" font-size="11.00">HasTriple</text>
</g>
<!-- \\acdhOeaw\\fedora\\metadataQuery\\HasTriple&#45;&gt;\\acdhOeaw\\fedora\\metadataQuery\\HasProperty -->
<g id="edge16" class="edge"><title>\\acdhOeaw\\fedora\\metadataQuery\\HasTriple&#45;&gt;\\acdhOeaw\\fedora\\metadataQuery\\HasProperty</title>
<path fill="none" stroke="black" d="M419.907,-1823.4C392.566,-1827.33 355.122,-1832.7 324.434,-1837.11"/>
<polygon fill="none" stroke="black" points="323.711,-1833.68 314.31,-1838.56 324.707,-1840.61 323.711,-1833.68"/>
</g>
<!-- \\acdhOeaw\\fedora\\acl\\WebAclRule -->
<g id="node19" class="node"><title>\\acdhOeaw\\fedora\\acl\\WebAclRule</title>
<polygon fill="none" stroke="black" points="714,-2078 630,-2078 630,-2042 714,-2042 714,-2078"/>
<text text-anchor="middle" x="672" y="-2057.2" font-family="Courier,monospace" font-size="11.00">WebAclRule</text>
</g>
<!-- \\acdhOeaw\\fedora\\acl\\WebAclRule&#45;&gt;\\acdhOeaw\\fedora\\FedoraResource -->
<g id="edge17" class="edge"><title>\\acdhOeaw\\fedora\\acl\\WebAclRule&#45;&gt;\\acdhOeaw\\fedora\\FedoraResource</title>
<path fill="none" stroke="black" d="M629.97,-2075.52C597.907,-2087.65 552.947,-2104.65 517.25,-2118.16"/>
<polygon fill="none" stroke="black" points="515.56,-2115.05 507.445,-2121.86 518.037,-2121.6 515.56,-2115.05"/>
</g>
<!-- \\acdhOeaw\\fedora\\acl\\WebAcl -->
<g id="node20" class="node"><title>\\acdhOeaw\\fedora\\acl\\WebAcl</title>
<polygon fill="none" stroke="black" points="700.5,-2024 643.5,-2024 643.5,-1988 700.5,-1988 700.5,-2024"/>
<text text-anchor="middle" x="672" y="-2003.2" font-family="Courier,monospace" font-size="11.00">WebAcl</text>
</g>
<!-- \\acdhOeaw\\fedora\\Fedora -->
<g id="node21" class="node"><title>\\acdhOeaw\\fedora\\Fedora</title>
<polygon fill="none" stroke="black" points="700.5,-1270 643.5,-1270 643.5,-1234 700.5,-1234 700.5,-1270"/>
<text text-anchor="middle" x="672" y="-1249.2" font-family="Courier,monospace" font-size="11.00">Fedora</text>
</g>
<!-- \\acdhOeaw\\fedora\\SparqlClient -->
<g id="node22" class="node"><title>\\acdhOeaw\\fedora\\SparqlClient</title>
<polygon fill="none" stroke="black" points="721,-1216 623,-1216 623,-1180 721,-1180 721,-1216"/>
<text text-anchor="middle" x="672" y="-1195.2" font-family="Courier,monospace" font-size="11.00">SparqlClient</text>
</g>
<!-- \\acdhOeaw\\fedora\\FedoraCache -->
<g id="node24" class="node"><title>\\acdhOeaw\\fedora\\FedoraCache</title>
<polygon fill="none" stroke="black" points="717.5,-1162 626.5,-1162 626.5,-1126 717.5,-1126 717.5,-1162"/>
<text text-anchor="middle" x="672" y="-1141.2" font-family="Courier,monospace" font-size="11.00">FedoraCache</text>
</g>
<!-- \\acdhOeaw\\util\\metadataValidator\\MetadataValidator -->
<g id="node25" class="node"><title>\\acdhOeaw\\util\\metadataValidator\\MetadataValidator</title>
<polygon fill="none" stroke="black" points="737.5,-1054 606.5,-1054 606.5,-1018 737.5,-1018 737.5,-1054"/>
<text text-anchor="middle" x="672" y="-1033.2" font-family="Courier,monospace" font-size="11.00">MetadataValidator</text>
</g>
<!-- \\acdhOeaw\\util\\metadataValidator\\Error -->
<g id="node26" class="node"><title>\\acdhOeaw\\util\\metadataValidator\\Error</title>
<polygon fill="none" stroke="black" points="699,-1000 645,-1000 645,-964 699,-964 699,-1000"/>
<text text-anchor="middle" x="672" y="-979.2" font-family="Courier,monospace" font-size="11.00">Error</text>
</g>
<!-- \\acdhOeaw\\util\\metadataValidator\\OntologyProperty -->
<g id="node27" class="node"><title>\\acdhOeaw\\util\\metadataValidator\\OntologyProperty</title>
<polygon fill="none" stroke="black" points="734.5,-946 609.5,-946 609.5,-910 734.5,-910 734.5,-946"/>
<text text-anchor="middle" x="672" y="-925.2" font-family="Courier,monospace" font-size="11.00">OntologyProperty</text>
</g>
<!-- \\acdhOeaw\\util\\metaLookup\\MetaLookupGraph -->
<g id="node28" class="node"><title>\\acdhOeaw\\util\\metaLookup\\MetaLookupGraph</title>
<polygon fill="none" stroke="black" points="731,-866 613,-866 613,-830 731,-830 731,-866"/>
<text text-anchor="middle" x="672" y="-845.2" font-family="Courier,monospace" font-size="11.00">MetaLookupGraph</text>
</g>
<!-- \\acdhOeaw\\util\\metaLookup\\MetaLookupInterface -->
<g id="node30" class="node"><title>\\acdhOeaw\\util\\metaLookup\\MetaLookupInterface</title>
<polygon fill="none" stroke="black" points="531,-839 386,-839 386,-803 531,-803 531,-839"/>
<text text-anchor="middle" x="458.5" y="-818.2" font-family="Courier,monospace" font-size="11.00">MetaLookupInterface</text>
</g>
<!-- \\acdhOeaw\\util\\metaLookup\\MetaLookupGraph&#45;&gt;\\acdhOeaw\\util\\metaLookup\\MetaLookupInterface -->
<g id="edge19" class="edge"><title>\\acdhOeaw\\util\\metaLookup\\MetaLookupGraph&#45;&gt;\\acdhOeaw\\util\\metaLookup\\MetaLookupInterface</title>
<path fill="none" stroke="black" stroke-dasharray="1,5" d="M612.927,-840.586C590.777,-837.759 565.098,-834.481 541.159,-831.425"/>
<polygon fill="none" stroke="black" points="541.383,-827.925 531.021,-830.13 540.497,-834.869 541.383,-827.925"/>
</g>
<!-- \\acdhOeaw\\util\\metaLookup\\MetaLookupFile -->
<g id="node29" class="node"><title>\\acdhOeaw\\util\\metaLookup\\MetaLookupFile</title>
<polygon fill="none" stroke="black" points="727.5,-812 616.5,-812 616.5,-776 727.5,-776 727.5,-812"/>
<text text-anchor="middle" x="672" y="-791.2" font-family="Courier,monospace" font-size="11.00">MetaLookupFile</text>
</g>
<!-- \\acdhOeaw\\util\\metaLookup\\MetaLookupFile&#45;&gt;\\acdhOeaw\\util\\metaLookup\\MetaLookupInterface -->
<g id="edge20" class="edge"><title>\\acdhOeaw\\util\\metaLookup\\MetaLookupFile&#45;&gt;\\acdhOeaw\\util\\metaLookup\\MetaLookupInterface</title>
<path fill="none" stroke="black" stroke-dasharray="1,5" d="M616.258,-800.988C593.453,-803.9 566.485,-807.342 541.405,-810.544"/>
<polygon fill="none" stroke="black" points="540.638,-807.113 531.162,-811.852 541.525,-814.057 540.638,-807.113"/>
</g>
<!-- \\acdhOeaw\\util\\RepoConfig -->
<g id="node31" class="node"><title>\\acdhOeaw\\util\\RepoConfig</title>
<polygon fill="none" stroke="black" points="714,-758 630,-758 630,-722 714,-722 714,-758"/>
<text text-anchor="middle" x="672" y="-737.2" font-family="Courier,monospace" font-size="11.00">RepoConfig</text>
</g>
<!-- \\acdhOeaw\\util\\MetadataCollection -->
<g id="node32" class="node"><title>\\acdhOeaw\\util\\MetadataCollection</title>
<polygon fill="none" stroke="black" points="741,-704 603,-704 603,-668 741,-668 741,-704"/>
<text text-anchor="middle" x="672" y="-683.2" font-family="Courier,monospace" font-size="11.00">MetadataCollection</text>
</g>
<!-- \\EasyRdf\\Graph -->
<g id="node46" class="node"><title>\\EasyRdf\\Graph</title>
<ellipse fill="none" stroke="black" cx="458.5" cy="-18" rx="67.6881" ry="18"/>
<text text-anchor="middle" x="458.5" y="-14.3" font-family="Times,serif" font-size="14.00" fill="gray">\EasyRdf\Graph</text>
</g>
<!-- \\acdhOeaw\\util\\MetadataCollection&#45;&gt;\\EasyRdf\\Graph -->
<g id="edge18" class="edge"><title>\\acdhOeaw\\util\\MetadataCollection&#45;&gt;\\EasyRdf\\Graph</title>
<path fill="none" stroke="black" d="M607.683,-667.947C604.256,-665.355 601.142,-662.39 598.5,-659 429.769,-442.44 699.237,-261.944 531,-45 527.829,-40.9107 523.964,-37.4407 519.692,-34.4963"/>
<polygon fill="none" stroke="black" points="521.448,-31.4691 511.046,-29.457 517.923,-37.5168 521.448,-31.4691"/>
</g>
<!-- \\acdhOeaw\\util\\Indexer -->
<g id="node33" class="node"><title>\\acdhOeaw\\util\\Indexer</title>
<polygon fill="none" stroke="black" points="704,-650 640,-650 640,-614 704,-614 704,-650"/>
<text text-anchor="middle" x="672" y="-629.2" font-family="Courier,monospace" font-size="11.00">Indexer</text>
</g>
<!-- \\acdhOeaw\\schema\\file\\File -->
<g id="node34" class="node"><title>\\acdhOeaw\\schema\\file\\File</title>
<polygon fill="none" stroke="black" points="485.5,-542 431.5,-542 431.5,-506 485.5,-506 485.5,-542"/>
<text text-anchor="middle" x="458.5" y="-521.2" font-family="Courier,monospace" font-size="11.00">File</text>
</g>
<!-- \\acdhOeaw\\schema\\Object -->
<g id="node44" class="node"><title>\\acdhOeaw\\schema\\Object</title>
<polygon fill="none" stroke="black" points="310.5,-430 226.5,-430 226.5,-394 310.5,-394 310.5,-430"/>
<text text-anchor="start" x="234.5" y="-415.2" font-family="Courier,monospace" font-size="11.00">«abstract»</text>
<text text-anchor="start" x="248" y="-403.2" font-family="Courier,monospace" font-size="11.00">Object</text>
</g>
<!-- \\acdhOeaw\\schema\\file\\File&#45;&gt;\\acdhOeaw\\schema\\Object -->
<g id="edge21" class="edge"><title>\\acdhOeaw\\schema\\file\\File&#45;&gt;\\acdhOeaw\\schema\\Object</title>
<path fill="none" stroke="black" d="M431.213,-517.617C413.283,-512.644 389.37,-504.767 370,-494 342.149,-478.518 314.381,-455.098 295.114,-437.245"/>
<polygon fill="none" stroke="black" points="297.335,-434.529 287.656,-430.219 292.534,-439.624 297.335,-434.529"/>
</g>
<!-- \\acdhOeaw\\schema\\file\\CmdiFile -->
<g id="node35" class="node"><title>\\acdhOeaw\\schema\\file\\CmdiFile</title>
<polygon fill="none" stroke="black" points="707.5,-542 636.5,-542 636.5,-506 707.5,-506 707.5,-542"/>
<text text-anchor="middle" x="672" y="-521.2" font-family="Courier,monospace" font-size="11.00">CmdiFile</text>
</g>
<!-- \\acdhOeaw\\schema\\file\\CmdiFile&#45;&gt;\\acdhOeaw\\schema\\file\\File -->
<g id="edge22" class="edge"><title>\\acdhOeaw\\schema\\file\\CmdiFile&#45;&gt;\\acdhOeaw\\schema\\file\\File</title>
<path fill="none" stroke="black" d="M636.075,-524C597.384,-524 535.284,-524 495.98,-524"/>
<polygon fill="none" stroke="black" points="495.779,-520.5 485.779,-524 495.779,-527.5 495.779,-520.5"/>
</g>
<!-- \\acdhOeaw\\schema\\dissemination\\Service -->
<g id="node36" class="node"><title>\\acdhOeaw\\schema\\dissemination\\Service</title>
<polygon fill="none" stroke="black" points="490.5,-453 426.5,-453 426.5,-417 490.5,-417 490.5,-453"/>
<text text-anchor="middle" x="458.5" y="-432.2" font-family="Courier,monospace" font-size="11.00">Service</text>
</g>
<!-- \\acdhOeaw\\schema\\dissemination\\Service&#45;&gt;\\acdhOeaw\\schema\\Object -->
<g id="edge23" class="edge"><title>\\acdhOeaw\\schema\\dissemination\\Service&#45;&gt;\\acdhOeaw\\schema\\Object</title>
<path fill="none" stroke="black" d="M426.456,-431.202C397.818,-427.698 354.752,-422.43 320.971,-418.297"/>
<polygon fill="none" stroke="black" points="321.163,-414.794 310.812,-417.054 320.313,-421.743 321.163,-414.794"/>
</g>
<!-- \\acdhOeaw\\schema\\dissemination\\CiriloService -->
<g id="node37" class="node"><title>\\acdhOeaw\\schema\\dissemination\\CiriloService</title>
<polygon fill="none" stroke="black" points="724,-462 620,-462 620,-426 724,-426 724,-462"/>
<text text-anchor="middle" x="672" y="-441.2" font-family="Courier,monospace" font-size="11.00">CiriloService</text>
</g>
<!-- \\acdhOeaw\\schema\\dissemination\\CiriloService&#45;&gt;\\acdhOeaw\\schema\\dissemination\\Service -->
<g id="edge24" class="edge"><title>\\acdhOeaw\\schema\\dissemination\\CiriloService&#45;&gt;\\acdhOeaw\\schema\\dissemination\\Service</title>
<path fill="none" stroke="black" d="M619.802,-441.821C583.24,-440.266 534.699,-438.2 500.646,-436.751"/>
<polygon fill="none" stroke="black" points="500.712,-433.251 490.573,-436.322 500.415,-440.244 500.712,-433.251"/>
</g>
<!-- \\acdhOeaw\\schema\\dissemination\\Parameter -->
<g id="node38" class="node"><title>\\acdhOeaw\\schema\\dissemination\\Parameter</title>
<polygon fill="none" stroke="black" points="710.5,-354 633.5,-354 633.5,-318 710.5,-318 710.5,-354"/>
<text text-anchor="middle" x="672" y="-333.2" font-family="Courier,monospace" font-size="11.00">Parameter</text>
</g>
<!-- \\acdhOeaw\\schema\\dissemination\\Parameter&#45;&gt;\\acdhOeaw\\schema\\Object -->
<g id="edge25" class="edge"><title>\\acdhOeaw\\schema\\dissemination\\Parameter&#45;&gt;\\acdhOeaw\\schema\\Object</title>
<path fill="none" stroke="black" d="M633.357,-348.769C591.493,-362.222 521.576,-382.481 459.5,-390"/>
<path fill="none" stroke="black" d="M457.5,-390C411.28,-395.598 358.636,-401.738 320.837,-406.106"/>
<polygon fill="none" stroke="black" points="320.119,-402.665 310.586,-407.289 320.922,-409.619 320.119,-402.665"/>
</g>
<!-- \\acdhOeaw\\schema\\dissemination\\Match -->
<g id="node39" class="node"><title>\\acdhOeaw\\schema\\dissemination\\Match</title>
<polygon fill="none" stroke="black" points="699,-408 645,-408 645,-372 699,-372 699,-408"/>
<text text-anchor="middle" x="672" y="-387.2" font-family="Courier,monospace" font-size="11.00">Match</text>
</g>
<!-- \\acdhOeaw\\schema\\dissemination\\Match&#45;&gt;\\acdhOeaw\\schema\\Object -->
<g id="edge26" class="edge"><title>\\acdhOeaw\\schema\\dissemination\\Match&#45;&gt;\\acdhOeaw\\schema\\Object</title>
<path fill="none" stroke="black" d="M644.83,-387.986C604.754,-385.354 525.843,-381.964 459.5,-390"/>
</g>
<!-- \\acdhOeaw\\schema\\redmine\\Issue -->
<g id="node40" class="node"><title>\\acdhOeaw\\schema\\redmine\\Issue</title>
<polygon fill="none" stroke="black" points="699,-274 645,-274 645,-238 699,-238 699,-274"/>
<text text-anchor="middle" x="672" y="-253.2" font-family="Courier,monospace" font-size="11.00">Issue</text>
</g>
<!-- \\acdhOeaw\\schema\\redmine\\Redmine -->
<g id="node41" class="node"><title>\\acdhOeaw\\schema\\redmine\\Redmine</title>
<polygon fill="none" stroke="black" points="500.5,-247 416.5,-247 416.5,-211 500.5,-211 500.5,-247"/>
<text text-anchor="start" x="424.5" y="-232.2" font-family="Courier,monospace" font-size="11.00">«abstract»</text>
<text text-anchor="start" x="434.5" y="-220.2" font-family="Courier,monospace" font-size="11.00">Redmine</text>
</g>
<!-- \\acdhOeaw\\schema\\redmine\\Issue&#45;&gt;\\acdhOeaw\\schema\\redmine\\Redmine -->
<g id="edge27" class="edge"><title>\\acdhOeaw\\schema\\redmine\\Issue&#45;&gt;\\acdhOeaw\\schema\\redmine\\Redmine</title>
<path fill="none" stroke="black" d="M644.641,-252.635C611.291,-248.378 553.116,-240.951 510.861,-235.557"/>
<polygon fill="none" stroke="black" points="511.119,-232.061 500.756,-234.267 510.232,-239.005 511.119,-232.061"/>
</g>
<!-- \\acdhOeaw\\schema\\redmine\\Redmine&#45;&gt;\\acdhOeaw\\schema\\Object -->
<g id="edge28" class="edge"><title>\\acdhOeaw\\schema\\redmine\\Redmine&#45;&gt;\\acdhOeaw\\schema\\Object</title>
<path fill="none" stroke="black" d="M435.799,-247.146C417.791,-262.427 391.712,-285.08 370,-306 342.514,-332.485 312.607,-364.469 292.628,-386.33"/>
<polygon fill="none" stroke="black" points="289.883,-384.146 285.739,-393.897 295.059,-388.859 289.883,-384.146"/>
</g>
<!-- \\acdhOeaw\\schema\\redmine\\Project -->
<g id="node42" class="node"><title>\\acdhOeaw\\schema\\redmine\\Project</title>
<polygon fill="none" stroke="black" points="704,-220 640,-220 640,-184 704,-184 704,-220"/>
<text text-anchor="middle" x="672" y="-199.2" font-family="Courier,monospace" font-size="11.00">Project</text>
</g>
<!-- \\acdhOeaw\\schema\\redmine\\Project&#45;&gt;\\acdhOeaw\\schema\\redmine\\Redmine -->
<g id="edge29" class="edge"><title>\\acdhOeaw\\schema\\redmine\\Project&#45;&gt;\\acdhOeaw\\schema\\redmine\\Redmine</title>
<path fill="none" stroke="black" d="M639.792,-205.984C605.861,-210.316 551.097,-217.307 510.818,-222.449"/>
<polygon fill="none" stroke="black" points="510.128,-219.008 500.652,-223.747 511.015,-225.952 510.128,-219.008"/>
</g>
<!-- \\acdhOeaw\\schema\\redmine\\User -->
<g id="node43" class="node"><title>\\acdhOeaw\\schema\\redmine\\User</title>
<polygon fill="none" stroke="black" points="699,-166 645,-166 645,-130 699,-130 699,-166"/>
<text text-anchor="middle" x="672" y="-145.2" font-family="Courier,monospace" font-size="11.00">User</text>
</g>
<!-- \\acdhOeaw\\schema\\redmine\\User&#45;&gt;\\acdhOeaw\\schema\\redmine\\Redmine -->
<g id="edge30" class="edge"><title>\\acdhOeaw\\schema\\redmine\\User&#45;&gt;\\acdhOeaw\\schema\\redmine\\Redmine</title>
<path fill="none" stroke="black" d="M644.792,-157.659C630.999,-162.768 613.815,-169.174 598.5,-175 569.191,-186.15 536.5,-198.838 510.188,-209.112"/>
<polygon fill="none" stroke="black" points="508.84,-205.88 500.8,-212.78 511.388,-212.4 508.84,-205.88"/>
</g>
</g>
</svg>
