<?xml version="1.0" encoding="UTF-8" standalone="no"?>
<!DOCTYPE svg PUBLIC "-//W3C//DTD SVG 1.1//EN"
 "http://www.w3.org/Graphics/SVG/1.1/DTD/svg11.dtd">
<!-- Generated by graphviz version 2.38.0 (20140413.2041)
 -->
<!-- Title: G Pages: 1 -->
<svg width="869pt" height="1118pt"
 viewBox="0.00 0.00 868.68 1118.00" xmlns="http://www.w3.org/2000/svg" xmlns:xlink="http://www.w3.org/1999/xlink">
<g id="graph0" class="graph" transform="scale(1 1) rotate(0) translate(4 1114)">
<title>G</title>
<polygon fill="white" stroke="none" points="-4,4 -4,-1114 864.679,-1114 864.679,4 -4,4"/>
<g id="clust1" class="cluster"><title>cluster_Global</title>
<path fill="none" stroke="gray" d="M20,-98C20,-98 840.679,-98 840.679,-98 846.679,-98 852.679,-104 852.679,-110 852.679,-110 852.679,-1090 852.679,-1090 852.679,-1096 846.679,-1102 840.679,-1102 840.679,-1102 20,-1102 20,-1102 14,-1102 8,-1096 8,-1090 8,-1090 8,-110 8,-110 8,-104 14,-98 20,-98"/>
<text text-anchor="middle" x="430.34" y="-1089.2" font-family="Times,serif" font-size="11.00" fill="gray">Global</text>
</g>
<g id="clust2" class="cluster"><title>cluster_\acdhOeaw</title>
<path fill="none" stroke="gray" d="M28,-106C28,-106 832.679,-106 832.679,-106 838.679,-106 844.679,-112 844.679,-118 844.679,-118 844.679,-1062 844.679,-1062 844.679,-1068 838.679,-1074 832.679,-1074 832.679,-1074 28,-1074 28,-1074 22,-1074 16,-1068 16,-1062 16,-1062 16,-118 16,-118 16,-112 22,-106 28,-106"/>
<text text-anchor="middle" x="430.34" y="-1061.2" font-family="Times,serif" font-size="11.00" fill="gray">acdhOeaw</text>
</g>
<g id="clust3" class="cluster"><title>cluster_\acdhOeaw\schema</title>
<path fill="none" stroke="gray" d="M694.679,-974C694.679,-974 824.679,-974 824.679,-974 830.679,-974 836.679,-980 836.679,-986 836.679,-986 836.679,-1034 836.679,-1034 836.679,-1040 830.679,-1046 824.679,-1046 824.679,-1046 694.679,-1046 694.679,-1046 688.679,-1046 682.679,-1040 682.679,-1034 682.679,-1034 682.679,-986 682.679,-986 682.679,-980 688.679,-974 694.679,-974"/>
<text text-anchor="middle" x="759.679" y="-1033.2" font-family="Times,serif" font-size="11.00" fill="gray">schema</text>
</g>
<g id="clust4" class="cluster"><title>cluster_\acdhOeaw\redmine</title>
<path fill="none" stroke="gray" d="M731.679,-786C731.679,-786 787.679,-786 787.679,-786 793.679,-786 799.679,-792 799.679,-798 799.679,-798 799.679,-954 799.679,-954 799.679,-960 793.679,-966 787.679,-966 787.679,-966 731.679,-966 731.679,-966 725.679,-966 719.679,-960 719.679,-954 719.679,-954 719.679,-798 719.679,-798 719.679,-792 725.679,-786 731.679,-786"/>
<text text-anchor="middle" x="759.679" y="-953.2" font-family="Times,serif" font-size="11.00" fill="gray">redmine</text>
</g>
<g id="clust5" class="cluster"><title>cluster_\acdhOeaw\cirilo</title>
<path fill="none" stroke="gray" d="M701.179,-652C701.179,-652 818.179,-652 818.179,-652 824.179,-652 830.179,-658 830.179,-664 830.179,-664 830.179,-766 830.179,-766 830.179,-772 824.179,-778 818.179,-778 818.179,-778 701.179,-778 701.179,-778 695.179,-778 689.179,-772 689.179,-766 689.179,-766 689.179,-664 689.179,-664 689.179,-658 695.179,-652 701.179,-652"/>
<text text-anchor="middle" x="759.679" y="-765.2" font-family="Times,serif" font-size="11.00" fill="gray">cirilo</text>
</g>
<g id="clust6" class="cluster"><title>cluster_\acdhOeaw\fedora</title>
<path fill="none" stroke="gray" d="M36,-328C36,-328 812.679,-328 812.679,-328 818.679,-328 824.679,-334 824.679,-340 824.679,-340 824.679,-632 824.679,-632 824.679,-638 818.679,-644 812.679,-644 812.679,-644 36,-644 36,-644 30,-644 24,-638 24,-632 24,-632 24,-340 24,-340 24,-334 30,-328 36,-328"/>
<text text-anchor="middle" x="424.34" y="-631.2" font-family="Times,serif" font-size="11.00" fill="gray">fedora</text>
</g>
<g id="clust7" class="cluster"><title>cluster_\acdhOeaw\fedora\metadataQuery</title>
<path fill="none" stroke="gray" d="M44,-490C44,-490 804.679,-490 804.679,-490 810.679,-490 816.679,-496 816.679,-502 816.679,-502 816.679,-604 816.679,-604 816.679,-610 810.679,-616 804.679,-616 804.679,-616 44,-616 44,-616 38,-616 32,-610 32,-604 32,-604 32,-502 32,-502 32,-496 38,-490 44,-490"/>
<text text-anchor="middle" x="424.34" y="-603.2" font-family="Times,serif" font-size="11.00" fill="gray">metadataQuery</text>
</g>
<g id="clust8" class="cluster"><title>cluster_\acdhOeaw\util</title>
<path fill="none" stroke="gray" d="M718.179,-248C718.179,-248 801.179,-248 801.179,-248 807.179,-248 813.179,-254 813.179,-260 813.179,-260 813.179,-308 813.179,-308 813.179,-314 807.179,-320 801.179,-320 801.179,-320 718.179,-320 718.179,-320 712.179,-320 706.179,-314 706.179,-308 706.179,-308 706.179,-260 706.179,-260 706.179,-254 712.179,-248 718.179,-248"/>
<text text-anchor="middle" x="759.679" y="-307.2" font-family="Times,serif" font-size="11.00" fill="gray">util</text>
</g>
<g id="clust9" class="cluster"><title>cluster_\acdhOeaw\storage</title>
<path fill="none" stroke="gray" d="M728.179,-114C728.179,-114 791.179,-114 791.179,-114 797.179,-114 803.179,-120 803.179,-126 803.179,-126 803.179,-228 803.179,-228 803.179,-234 797.179,-240 791.179,-240 791.179,-240 728.179,-240 728.179,-240 722.179,-240 716.179,-234 716.179,-228 716.179,-228 716.179,-126 716.179,-126 716.179,-120 722.179,-114 728.179,-114"/>
<text text-anchor="middle" x="759.679" y="-227.2" font-family="Times,serif" font-size="11.00" fill="gray">storage</text>
</g>
<!-- \\acdhOeaw\\schema\\MetadataCollection -->
<g id="node1" class="node"><title>\\acdhOeaw\\schema\\MetadataCollection</title>
<polygon fill="none" stroke="black" points="828.679,-1018 690.679,-1018 690.679,-982 828.679,-982 828.679,-1018"/>
<text text-anchor="middle" x="759.679" y="-997.2" font-family="Courier,monospace" font-size="11.00">MetadataCollection</text>
</g>
<!-- \\EasyRdf\\Graph -->
<g id="node19" class="node"><title>\\EasyRdf\\Graph</title>
<ellipse fill="none" stroke="black" cx="502.34" cy="-72" rx="67.6881" ry="18"/>
<text text-anchor="middle" x="502.34" y="-68.3" font-family="Times,serif" font-size="14.00" fill="gray">\EasyRdf\Graph</text>
</g>
<!-- \\acdhOeaw\\schema\\MetadataCollection&#45;&gt;\\EasyRdf\\Graph -->
<g id="edge1" class="edge"><title>\\acdhOeaw\\schema\\MetadataCollection&#45;&gt;\\EasyRdf\\Graph</title>
<path fill="none" stroke="black" d="M695.479,-981.76C690.643,-978.468 686.26,-974.583 682.679,-970 615.891,-884.502 640.402,-592.295 618.679,-486 588.475,-338.201 534.037,-165.626 512.484,-99.6001"/>
<polygon fill="none" stroke="black" points="515.757,-98.35 509.316,-89.9383 509.106,-100.531 515.757,-98.35"/>
</g>
<!-- \\acdhOeaw\\redmine\\Issue -->
<g id="node2" class="node"><title>\\acdhOeaw\\redmine\\Issue</title>
<polygon fill="none" stroke="black" points="786.679,-938 732.679,-938 732.679,-902 786.679,-902 786.679,-938"/>
<text text-anchor="middle" x="759.679" y="-917.2" font-family="Courier,monospace" font-size="11.00">Issue</text>
</g>
<!-- \\acdhOeaw\\redmine\\Redmine -->
<g id="node20" class="node"><title>\\acdhOeaw\\redmine\\Redmine</title>
<ellipse fill="none" stroke="black" cx="502.34" cy="-18" rx="116.18" ry="18"/>
<text text-anchor="middle" x="502.34" y="-14.3" font-family="Times,serif" font-size="14.00" fill="gray">\acdhOeaw\redmine\Redmine</text>
</g>
<!-- \\acdhOeaw\\redmine\\Issue&#45;&gt;\\acdhOeaw\\redmine\\Redmine -->
<g id="edge2" class="edge"><title>\\acdhOeaw\\redmine\\Issue&#45;&gt;\\acdhOeaw\\redmine\\Redmine</title>
<path fill="none" stroke="black" d="M732.601,-917.866C715.578,-915.001 694.41,-908.355 682.679,-893 567.953,-742.829 741.589,-188.551 618.679,-45 614.959,-40.6552 610.686,-36.9358 606.024,-33.7571"/>
<polygon fill="none" stroke="black" points="607.643,-30.6488 597.248,-28.6013 604.097,-36.6844 607.643,-30.6488"/>
</g>
<!-- \\acdhOeaw\\redmine\\User -->
<g id="node3" class="node"><title>\\acdhOeaw\\redmine\\User</title>
<polygon fill="none" stroke="black" points="786.679,-884 732.679,-884 732.679,-848 786.679,-848 786.679,-884"/>
<text text-anchor="middle" x="759.679" y="-863.2" font-family="Courier,monospace" font-size="11.00">User</text>
</g>
<!-- \\acdhOeaw\\redmine\\User&#45;&gt;\\acdhOeaw\\redmine\\Redmine -->
<g id="edge3" class="edge"><title>\\acdhOeaw\\redmine\\User&#45;&gt;\\acdhOeaw\\redmine\\Redmine</title>
<path fill="none" stroke="black" d="M732.625,-863.847C715.614,-860.974 694.449,-854.325 682.679,-839 574.857,-698.61 734.15,-179.169 618.679,-45 614.906,-40.616 610.57,-36.8694 605.84,-33.673"/>
<polygon fill="none" stroke="black" points="607.341,-30.4972 596.937,-28.495 603.822,-36.5482 607.341,-30.4972"/>
</g>
<!-- \\acdhOeaw\\redmine\\Project -->
<g id="node4" class="node"><title>\\acdhOeaw\\redmine\\Project</title>
<polygon fill="none" stroke="black" points="791.679,-830 727.679,-830 727.679,-794 791.679,-794 791.679,-830"/>
<text text-anchor="middle" x="759.679" y="-809.2" font-family="Courier,monospace" font-size="11.00">Project</text>
</g>
<!-- \\acdhOeaw\\redmine\\Project&#45;&gt;\\acdhOeaw\\redmine\\Redmine -->
<g id="edge6" class="edge"><title>\\acdhOeaw\\redmine\\Project&#45;&gt;\\acdhOeaw\\redmine\\Redmine</title>
<path fill="none" stroke="black" d="M727.67,-807.639C711.647,-803.7 693.279,-796.215 682.679,-782 584.408,-650.212 726.302,-169.269 618.679,-45 614.893,-40.6277 610.546,-36.8902 605.808,-33.7008"/>
<polygon fill="none" stroke="black" points="607.3,-30.5203 596.893,-28.5332 603.789,-36.5763 607.3,-30.5203"/>
</g>
<!-- \\acdhOeaw\\cirilo\\ServiceParameter -->
<g id="node5" class="node"><title>\\acdhOeaw\\cirilo\\ServiceParameter</title>
<polygon fill="none" stroke="black" points="822.179,-750 697.179,-750 697.179,-714 822.179,-714 822.179,-750"/>
<text text-anchor="middle" x="759.679" y="-729.2" font-family="Courier,monospace" font-size="11.00">ServiceParameter</text>
</g>
<!-- \\acdhOeaw\\cirilo\\Service -->
<g id="node6" class="node"><title>\\acdhOeaw\\cirilo\\Service</title>
<polygon fill="none" stroke="black" points="791.679,-696 727.679,-696 727.679,-660 791.679,-660 791.679,-696"/>
<text text-anchor="middle" x="759.679" y="-675.2" font-family="Courier,monospace" font-size="11.00">Service</text>
</g>
<!-- \\acdhOeaw\\fedora\\metadataQuery\\Query -->
<g id="node7" class="node"><title>\\acdhOeaw\\fedora\\metadataQuery\\Query</title>
<polygon fill="none" stroke="black" points="786.679,-588 732.679,-588 732.679,-552 786.679,-552 786.679,-588"/>
<text text-anchor="middle" x="759.679" y="-567.2" font-family="Courier,monospace" font-size="11.00">Query</text>
</g>
<!-- \\acdhOeaw\\fedora\\metadataQuery\\HasValue -->
<g id="node8" class="node"><title>\\acdhOeaw\\fedora\\metadataQuery\\HasValue</title>
<polygon fill="none" stroke="black" points="537.84,-588 466.84,-588 466.84,-552 537.84,-552 537.84,-588"/>
<text text-anchor="middle" x="502.34" y="-567.2" font-family="Courier,monospace" font-size="11.00">HasValue</text>
</g>
<!-- \\acdhOeaw\\fedora\\metadataQuery\\HasProperty -->
<g id="node12" class="node"><title>\\acdhOeaw\\fedora\\metadataQuery\\HasProperty</title>
<polygon fill="none" stroke="black" points="314,-561 223,-561 223,-525 314,-525 314,-561"/>
<text text-anchor="middle" x="268.5" y="-540.2" font-family="Courier,monospace" font-size="11.00">HasProperty</text>
</g>
<!-- \\acdhOeaw\\fedora\\metadataQuery\\HasValue&#45;&gt;\\acdhOeaw\\fedora\\metadataQuery\\HasProperty -->
<g id="edge4" class="edge"><title>\\acdhOeaw\\fedora\\metadataQuery\\HasValue&#45;&gt;\\acdhOeaw\\fedora\\metadataQuery\\HasProperty</title>
<path fill="none" stroke="black" d="M466.631,-565.958C429.013,-561.577 368.464,-554.525 324.386,-549.392"/>
<polygon fill="none" stroke="black" points="324.742,-545.91 314.404,-548.23 323.932,-552.863 324.742,-545.91"/>
</g>
<!-- \\acdhOeaw\\fedora\\metadataQuery\\QueryParameter -->
<g id="node9" class="node"><title>\\acdhOeaw\\fedora\\metadataQuery\\QueryParameter</title>
<polygon fill="none" stroke="black" points="151,-561 40,-561 40,-525 151,-525 151,-561"/>
<text text-anchor="start" x="61.5" y="-546.2" font-family="Courier,monospace" font-size="11.00">«abstract»</text>
<text text-anchor="start" x="48" y="-534.2" font-family="Courier,monospace" font-size="11.00">QueryParameter</text>
</g>
<!-- \\acdhOeaw\\fedora\\metadataQuery\\MatchesRegEx -->
<g id="node10" class="node"><title>\\acdhOeaw\\fedora\\metadataQuery\\MatchesRegEx</title>
<polygon fill="none" stroke="black" points="808.679,-534 710.679,-534 710.679,-498 808.679,-498 808.679,-534"/>
<text text-anchor="middle" x="759.679" y="-513.2" font-family="Courier,monospace" font-size="11.00">MatchesRegEx</text>
</g>
<!-- \\acdhOeaw\\fedora\\metadataQuery\\MatchesRegEx&#45;&gt;\\acdhOeaw\\fedora\\metadataQuery\\HasValue -->
<g id="edge5" class="edge"><title>\\acdhOeaw\\fedora\\metadataQuery\\MatchesRegEx&#45;&gt;\\acdhOeaw\\fedora\\metadataQuery\\HasValue</title>
<path fill="none" stroke="black" d="M710.652,-526.157C663.913,-536.041 593.464,-550.94 547.932,-560.569"/>
<polygon fill="none" stroke="black" points="547.109,-557.166 538.05,-562.659 548.558,-564.014 547.109,-557.166"/>
</g>
<!-- \\acdhOeaw\\fedora\\metadataQuery\\HasTriple -->
<g id="node11" class="node"><title>\\acdhOeaw\\fedora\\metadataQuery\\HasTriple</title>
<polygon fill="none" stroke="black" points="540.84,-534 463.84,-534 463.84,-498 540.84,-498 540.84,-534"/>
<text text-anchor="middle" x="502.34" y="-513.2" font-family="Courier,monospace" font-size="11.00">HasTriple</text>
</g>
<!-- \\acdhOeaw\\fedora\\metadataQuery\\HasTriple&#45;&gt;\\acdhOeaw\\fedora\\metadataQuery\\HasProperty -->
<g id="edge7" class="edge"><title>\\acdhOeaw\\fedora\\metadataQuery\\HasTriple&#45;&gt;\\acdhOeaw\\fedora\\metadataQuery\\HasProperty</title>
<path fill="none" stroke="black" d="M463.833,-520.368C425.986,-524.776 367.144,-531.628 324.119,-536.639"/>
<polygon fill="none" stroke="black" points="323.623,-533.173 314.095,-537.806 324.433,-540.126 323.623,-533.173"/>
</g>
<!-- \\acdhOeaw\\fedora\\metadataQuery\\HasProperty&#45;&gt;\\acdhOeaw\\fedora\\metadataQuery\\QueryParameter -->
<g id="edge8" class="edge"><title>\\acdhOeaw\\fedora\\metadataQuery\\HasProperty&#45;&gt;\\acdhOeaw\\fedora\\metadataQuery\\QueryParameter</title>
<path fill="none" stroke="black" d="M222.572,-543C203.864,-543 181.782,-543 161.369,-543"/>
<polygon fill="none" stroke="black" points="161.19,-539.5 151.19,-543 161.19,-546.5 161.19,-539.5"/>
</g>
<!-- \\acdhOeaw\\fedora\\Fedora -->
<g id="node13" class="node"><title>\\acdhOeaw\\fedora\\Fedora</title>
<polygon fill="none" stroke="black" points="788.179,-480 731.179,-480 731.179,-444 788.179,-444 788.179,-480"/>
<text text-anchor="middle" x="759.679" y="-459.2" font-family="Courier,monospace" font-size="11.00">Fedora</text>
</g>
<!-- \\acdhOeaw\\fedora\\FedoraResource -->
<g id="node14" class="node"><title>\\acdhOeaw\\fedora\\FedoraResource</title>
<polygon fill="none" stroke="black" points="815.179,-426 704.179,-426 704.179,-390 815.179,-390 815.179,-426"/>
<text text-anchor="middle" x="759.679" y="-405.2" font-family="Courier,monospace" font-size="11.00">FedoraResource</text>
</g>
<!-- \\acdhOeaw\\fedora\\SparqlClient -->
<g id="node15" class="node"><title>\\acdhOeaw\\fedora\\SparqlClient</title>
<polygon fill="none" stroke="black" points="808.679,-372 710.679,-372 710.679,-336 808.679,-336 808.679,-372"/>
<text text-anchor="middle" x="759.679" y="-351.2" font-family="Courier,monospace" font-size="11.00">SparqlClient</text>
</g>
<!-- \\acdhOeaw\\util\\EasyRdfUtil -->
<g id="node16" class="node"><title>\\acdhOeaw\\util\\EasyRdfUtil</title>
<polygon fill="none" stroke="black" points="805.179,-292 714.179,-292 714.179,-256 805.179,-256 805.179,-292"/>
<text text-anchor="middle" x="759.679" y="-271.2" font-family="Courier,monospace" font-size="11.00">EasyRdfUtil</text>
</g>
<!-- \\acdhOeaw\\storage\\Location -->
<g id="node17" class="node"><title>\\acdhOeaw\\storage\\Location</title>
<polygon fill="none" stroke="black" points="795.179,-212 724.179,-212 724.179,-176 795.179,-176 795.179,-212"/>
<text text-anchor="middle" x="759.679" y="-191.2" font-family="Courier,monospace" font-size="11.00">Location</text>
</g>
<!-- \\acdhOeaw\\storage\\Indexer -->
<g id="node18" class="node"><title>\\acdhOeaw\\storage\\Indexer</title>
<polygon fill="none" stroke="black" points="791.679,-158 727.679,-158 727.679,-122 791.679,-122 791.679,-158"/>
<text text-anchor="middle" x="759.679" y="-137.2" font-family="Courier,monospace" font-size="11.00">Indexer</text>
</g>
</g>
</svg>
