<?xml version="1.0" encoding="UTF-8" standalone="no"?>
<!DOCTYPE svg PUBLIC "-//W3C//DTD SVG 1.1//EN"
 "http://www.w3.org/Graphics/SVG/1.1/DTD/svg11.dtd">
<!-- Generated by graphviz version 2.38.0 (20140413.2041)
 -->
<!-- Title: G Pages: 1 -->
<svg width="796pt" height="2502pt"
 viewBox="0.00 0.00 796.00 2502.00" xmlns="http://www.w3.org/2000/svg" xmlns:xlink="http://www.w3.org/1999/xlink">
<g id="graph0" class="graph" transform="scale(1 1) rotate(0) translate(4 2498)">
<title>G</title>
<polygon fill="white" stroke="none" points="-4,4 -4,-2498 792,-2498 792,4 -4,4"/>
<g id="clust1" class="cluster"><title>cluster_Global</title>
<path fill="none" stroke="gray" d="M20,-98C20,-98 768,-98 768,-98 774,-98 780,-104 780,-110 780,-110 780,-2474 780,-2474 780,-2480 774,-2486 768,-2486 768,-2486 20,-2486 20,-2486 14,-2486 8,-2480 8,-2474 8,-2474 8,-110 8,-110 8,-104 14,-98 20,-98"/>
<text text-anchor="middle" x="394" y="-2473.2" font-family="Times,serif" font-size="11.00" fill="gray">Global</text>
</g>
<g id="clust2" class="cluster"><title>cluster_\acdhOeaw</title>
<path fill="none" stroke="gray" d="M28,-106C28,-106 760,-106 760,-106 766,-106 772,-112 772,-118 772,-118 772,-2446 772,-2446 772,-2452 766,-2458 760,-2458 760,-2458 28,-2458 28,-2458 22,-2458 16,-2452 16,-2446 16,-2446 16,-118 16,-118 16,-112 22,-106 28,-106"/>
<text text-anchor="middle" x="394" y="-2445.2" font-family="Times,serif" font-size="11.00" fill="gray">acdhOeaw</text>
</g>
<g id="clust3" class="cluster"><title>cluster_\acdhOeaw\schema</title>
<path fill="none" stroke="gray" d="M230.5,-1946C230.5,-1946 731.5,-1946 731.5,-1946 737.5,-1946 743.5,-1952 743.5,-1958 743.5,-1958 743.5,-2418 743.5,-2418 743.5,-2424 737.5,-2430 731.5,-2430 731.5,-2430 230.5,-2430 230.5,-2430 224.5,-2430 218.5,-2424 218.5,-2418 218.5,-2418 218.5,-1958 218.5,-1958 218.5,-1952 224.5,-1946 230.5,-1946"/>
<text text-anchor="middle" x="481" y="-2417.2" font-family="Times,serif" font-size="11.00" fill="gray">schema</text>
</g>
<g id="clust4" class="cluster"><title>cluster_\acdhOeaw\schema\dissemination</title>
<path fill="none" stroke="gray" d="M430.5,-2222C430.5,-2222 723.5,-2222 723.5,-2222 729.5,-2222 735.5,-2228 735.5,-2234 735.5,-2234 735.5,-2390 735.5,-2390 735.5,-2396 729.5,-2402 723.5,-2402 723.5,-2402 430.5,-2402 430.5,-2402 424.5,-2402 418.5,-2396 418.5,-2390 418.5,-2390 418.5,-2234 418.5,-2234 418.5,-2228 424.5,-2222 430.5,-2222"/>
<text text-anchor="middle" x="577" y="-2389.2" font-family="Times,serif" font-size="11.00" fill="gray">dissemination</text>
</g>
<g id="clust5" class="cluster"><title>cluster_\acdhOeaw\schema\redmine</title>
<path fill="none" stroke="gray" d="M420.5,-2034C420.5,-2034 703.5,-2034 703.5,-2034 709.5,-2034 715.5,-2040 715.5,-2046 715.5,-2046 715.5,-2202 715.5,-2202 715.5,-2208 709.5,-2214 703.5,-2214 703.5,-2214 420.5,-2214 420.5,-2214 414.5,-2214 408.5,-2208 408.5,-2202 408.5,-2202 408.5,-2046 408.5,-2046 408.5,-2040 414.5,-2034 420.5,-2034"/>
<text text-anchor="middle" x="562" y="-2201.2" font-family="Times,serif" font-size="11.00" fill="gray">redmine</text>
</g>
<g id="clust6" class="cluster"><title>cluster_\acdhOeaw\schema\file</title>
<path fill="none" stroke="gray" d="M435.5,-1954C435.5,-1954 707,-1954 707,-1954 713,-1954 719,-1960 719,-1966 719,-1966 719,-2014 719,-2014 719,-2020 713,-2026 707,-2026 707,-2026 435.5,-2026 435.5,-2026 429.5,-2026 423.5,-2020 423.5,-2014 423.5,-2014 423.5,-1966 423.5,-1966 423.5,-1960 429.5,-1954 435.5,-1954"/>
<text text-anchor="middle" x="571.25" y="-2013.2" font-family="Times,serif" font-size="11.00" fill="gray">file</text>
</g>
<g id="clust7" class="cluster"><title>cluster_\acdhOeaw\util</title>
<path fill="none" stroke="gray" d="M382,-1272C382,-1272 752,-1272 752,-1272 758,-1272 764,-1278 764,-1284 764,-1284 764,-1926 764,-1926 764,-1932 758,-1938 752,-1938 752,-1938 382,-1938 382,-1938 376,-1938 370,-1932 370,-1926 370,-1926 370,-1284 370,-1284 370,-1278 376,-1272 382,-1272"/>
<text text-anchor="middle" x="567" y="-1925.2" font-family="Times,serif" font-size="11.00" fill="gray">util</text>
</g>
<g id="clust8" class="cluster"><title>cluster_\acdhOeaw\util\metaLookup</title>
<path fill="none" stroke="gray" d="M390,-1730C390,-1730 744,-1730 744,-1730 750,-1730 756,-1736 756,-1742 756,-1742 756,-1898 756,-1898 756,-1904 750,-1910 744,-1910 744,-1910 390,-1910 390,-1910 384,-1910 378,-1904 378,-1898 378,-1898 378,-1742 378,-1742 378,-1736 384,-1730 390,-1730"/>
<text text-anchor="middle" x="567" y="-1897.2" font-family="Times,serif" font-size="11.00" fill="gray">metaLookup</text>
</g>
<g id="clust9" class="cluster"><title>cluster_\acdhOeaw\util\metadataValidator</title>
<path fill="none" stroke="gray" d="M614,-1542C614,-1542 737,-1542 737,-1542 743,-1542 749,-1548 749,-1554 749,-1554 749,-1710 749,-1710 749,-1716 743,-1722 737,-1722 737,-1722 614,-1722 614,-1722 608,-1722 602,-1716 602,-1710 602,-1710 602,-1554 602,-1554 602,-1548 608,-1542 614,-1542"/>
<text text-anchor="middle" x="675.5" y="-1709.2" font-family="Times,serif" font-size="11.00" fill="gray">metadataValidator</text>
</g>
<g id="clust10" class="cluster"><title>cluster_\acdhOeaw\fedora</title>
<path fill="none" stroke="gray" d="M36,-114C36,-114 745,-114 745,-114 751,-114 757,-120 757,-126 757,-126 757,-1252 757,-1252 757,-1258 751,-1264 745,-1264 745,-1264 36,-1264 36,-1264 30,-1264 24,-1258 24,-1252 24,-1252 24,-126 24,-126 24,-120 30,-114 36,-114"/>
<text text-anchor="middle" x="390.5" y="-1251.2" font-family="Times,serif" font-size="11.00" fill="gray">fedora</text>
</g>
<g id="clust11" class="cluster"><title>cluster_\acdhOeaw\fedora\dissemination</title>
<path fill="none" stroke="gray" d="M641,-1110C641,-1110 710,-1110 710,-1110 716,-1110 722,-1116 722,-1122 722,-1122 722,-1224 722,-1224 722,-1230 716,-1236 710,-1236 710,-1236 641,-1236 641,-1236 635,-1236 629,-1230 629,-1224 629,-1224 629,-1122 629,-1122 629,-1116 635,-1110 641,-1110"/>
<text text-anchor="middle" x="675.5" y="-1223.2" font-family="Times,serif" font-size="11.00" fill="gray">dissemination</text>
</g>
<g id="clust12" class="cluster"><title>cluster_\acdhOeaw\fedora\exceptions</title>
<path fill="none" stroke="gray" d="M614,-276C614,-276 737,-276 737,-276 743,-276 749,-282 749,-288 749,-288 749,-768 749,-768 749,-774 743,-780 737,-780 737,-780 614,-780 614,-780 608,-780 602,-774 602,-768 602,-768 602,-288 602,-288 602,-282 608,-276 614,-276"/>
<text text-anchor="middle" x="675.5" y="-767.2" font-family="Times,serif" font-size="11.00" fill="gray">exceptions</text>
</g>
<g id="clust13" class="cluster"><title>cluster_\acdhOeaw\fedora\acl</title>
<path fill="none" stroke="gray" d="M637.5,-976C637.5,-976 713.5,-976 713.5,-976 719.5,-976 725.5,-982 725.5,-988 725.5,-988 725.5,-1090 725.5,-1090 725.5,-1096 719.5,-1102 713.5,-1102 713.5,-1102 637.5,-1102 637.5,-1102 631.5,-1102 625.5,-1096 625.5,-1090 625.5,-1090 625.5,-988 625.5,-988 625.5,-982 631.5,-976 637.5,-976"/>
<text text-anchor="middle" x="675.5" y="-1089.2" font-family="Times,serif" font-size="11.00" fill="gray">acl</text>
</g>
<g id="clust14" class="cluster"><title>cluster_\acdhOeaw\fedora\metadataQuery</title>
<path fill="none" stroke="gray" d="M44,-788C44,-788 720.5,-788 720.5,-788 726.5,-788 732.5,-794 732.5,-800 732.5,-800 732.5,-956 732.5,-956 732.5,-962 726.5,-968 720.5,-968 720.5,-968 44,-968 44,-968 38,-968 32,-962 32,-956 32,-956 32,-800 32,-800 32,-794 38,-788 44,-788"/>
<text text-anchor="middle" x="382.25" y="-955.2" font-family="Times,serif" font-size="11.00" fill="gray">metadataQuery</text>
</g>
<!-- \\acdhOeaw\\schema\\dissemination\\Match -->
<g id="node1" class="node"><title>\\acdhOeaw\\schema\\dissemination\\Match</title>
<polygon fill="none" stroke="black" points="702.5,-2266 648.5,-2266 648.5,-2230 702.5,-2230 702.5,-2266"/>
<text text-anchor="middle" x="675.5" y="-2245.2" font-family="Courier,monospace" font-size="11.00">Match</text>
</g>
<!-- \\acdhOeaw\\schema\\Object -->
<g id="node11" class="node"><title>\\acdhOeaw\\schema\\Object</title>
<polygon fill="none" stroke="black" points="310.5,-2221 226.5,-2221 226.5,-2185 310.5,-2185 310.5,-2221"/>
<text text-anchor="start" x="234.5" y="-2206.2" font-family="Courier,monospace" font-size="11.00">«abstract»</text>
<text text-anchor="start" x="248" y="-2194.2" font-family="Courier,monospace" font-size="11.00">Object</text>
</g>
<!-- \\acdhOeaw\\schema\\dissemination\\Match&#45;&gt;\\acdhOeaw\\schema\\Object -->
<g id="edge1" class="edge"><title>\\acdhOeaw\\schema\\dissemination\\Match&#45;&gt;\\acdhOeaw\\schema\\Object</title>
<path fill="none" stroke="black" d="M648.472,-2254.56C607.821,-2263.83 526.929,-2278.33 459.5,-2266"/>
<path fill="none" stroke="black" d="M457.5,-2266C409.786,-2257.28 357.64,-2239.07 320.397,-2224.46"/>
<polygon fill="none" stroke="black" points="321.369,-2221.08 310.784,-2220.64 318.784,-2227.59 321.369,-2221.08"/>
</g>
<!-- \\acdhOeaw\\schema\\dissemination\\Parameter -->
<g id="node2" class="node"><title>\\acdhOeaw\\schema\\dissemination\\Parameter</title>
<polygon fill="none" stroke="black" points="714,-2320 637,-2320 637,-2284 714,-2284 714,-2320"/>
<text text-anchor="middle" x="675.5" y="-2299.2" font-family="Courier,monospace" font-size="11.00">Parameter</text>
</g>
<!-- \\acdhOeaw\\schema\\dissemination\\Parameter&#45;&gt;\\acdhOeaw\\schema\\Object -->
<g id="edge5" class="edge"><title>\\acdhOeaw\\schema\\dissemination\\Parameter&#45;&gt;\\acdhOeaw\\schema\\Object</title>
<path fill="none" stroke="black" d="M636.768,-2296.03C593.789,-2289.15 521.486,-2277.33 459.5,-2266"/>
</g>
<!-- \\acdhOeaw\\schema\\dissemination\\CiriloService -->
<g id="node3" class="node"><title>\\acdhOeaw\\schema\\dissemination\\CiriloService</title>
<polygon fill="none" stroke="black" points="727.5,-2374 623.5,-2374 623.5,-2338 727.5,-2338 727.5,-2374"/>
<text text-anchor="middle" x="675.5" y="-2353.2" font-family="Courier,monospace" font-size="11.00">CiriloService</text>
</g>
<!-- \\acdhOeaw\\schema\\dissemination\\Service -->
<g id="node4" class="node"><title>\\acdhOeaw\\schema\\dissemination\\Service</title>
<polygon fill="none" stroke="black" points="490.5,-2356 426.5,-2356 426.5,-2320 490.5,-2320 490.5,-2356"/>
<text text-anchor="middle" x="458.5" y="-2335.2" font-family="Courier,monospace" font-size="11.00">Service</text>
</g>
<!-- \\acdhOeaw\\schema\\dissemination\\CiriloService&#45;&gt;\\acdhOeaw\\schema\\dissemination\\Service -->
<g id="edge9" class="edge"><title>\\acdhOeaw\\schema\\dissemination\\CiriloService&#45;&gt;\\acdhOeaw\\schema\\dissemination\\Service</title>
<path fill="none" stroke="black" d="M623.275,-2351.71C585.905,-2348.58 535.9,-2344.4 501.014,-2341.48"/>
<polygon fill="none" stroke="black" points="500.961,-2337.96 490.704,-2340.61 500.377,-2344.93 500.961,-2337.96"/>
</g>
<!-- \\acdhOeaw\\schema\\dissemination\\Service&#45;&gt;\\acdhOeaw\\schema\\Object -->
<g id="edge24" class="edge"><title>\\acdhOeaw\\schema\\dissemination\\Service&#45;&gt;\\acdhOeaw\\schema\\Object</title>
<path fill="none" stroke="black" d="M426.195,-2334.73C408.677,-2331.81 387.01,-2326.31 370,-2316 334.254,-2294.32 304.096,-2255.9 286.402,-2229.94"/>
<polygon fill="none" stroke="black" points="289.127,-2227.72 280.675,-2221.33 283.298,-2231.59 289.127,-2227.72"/>
</g>
<!-- \\acdhOeaw\\schema\\redmine\\Redmine -->
<g id="node5" class="node"><title>\\acdhOeaw\\schema\\redmine\\Redmine</title>
<polygon fill="none" stroke="black" points="500.5,-2159 416.5,-2159 416.5,-2123 500.5,-2123 500.5,-2159"/>
<text text-anchor="start" x="424.5" y="-2144.2" font-family="Courier,monospace" font-size="11.00">«abstract»</text>
<text text-anchor="start" x="434.5" y="-2132.2" font-family="Courier,monospace" font-size="11.00">Redmine</text>
</g>
<!-- \\acdhOeaw\\schema\\redmine\\Redmine&#45;&gt;\\acdhOeaw\\schema\\Object -->
<g id="edge6" class="edge"><title>\\acdhOeaw\\schema\\redmine\\Redmine&#45;&gt;\\acdhOeaw\\schema\\Object</title>
<path fill="none" stroke="black" d="M416.243,-2154.61C388.081,-2163.89 350.581,-2176.26 320.539,-2186.17"/>
<polygon fill="none" stroke="black" points="319.062,-2182.97 310.661,-2189.43 321.254,-2189.62 319.062,-2182.97"/>
</g>
<!-- \\acdhOeaw\\schema\\redmine\\Issue -->
<g id="node6" class="node"><title>\\acdhOeaw\\schema\\redmine\\Issue</title>
<polygon fill="none" stroke="black" points="702.5,-2186 648.5,-2186 648.5,-2150 702.5,-2150 702.5,-2186"/>
<text text-anchor="middle" x="675.5" y="-2165.2" font-family="Courier,monospace" font-size="11.00">Issue</text>
</g>
<!-- \\acdhOeaw\\schema\\redmine\\Issue&#45;&gt;\\acdhOeaw\\schema\\redmine\\Redmine -->
<g id="edge10" class="edge"><title>\\acdhOeaw\\schema\\redmine\\Issue&#45;&gt;\\acdhOeaw\\schema\\redmine\\Redmine</title>
<path fill="none" stroke="black" d="M648.137,-2164.69C614.087,-2160.41 554.074,-2152.88 510.871,-2147.45"/>
<polygon fill="none" stroke="black" points="511.185,-2143.96 500.827,-2146.19 510.313,-2150.91 511.185,-2143.96"/>
</g>
<!-- \\acdhOeaw\\schema\\redmine\\Project -->
<g id="node7" class="node"><title>\\acdhOeaw\\schema\\redmine\\Project</title>
<polygon fill="none" stroke="black" points="707.5,-2132 643.5,-2132 643.5,-2096 707.5,-2096 707.5,-2132"/>
<text text-anchor="middle" x="675.5" y="-2111.2" font-family="Courier,monospace" font-size="11.00">Project</text>
</g>
<!-- \\acdhOeaw\\schema\\redmine\\Project&#45;&gt;\\acdhOeaw\\schema\\redmine\\Redmine -->
<g id="edge17" class="edge"><title>\\acdhOeaw\\schema\\redmine\\Project&#45;&gt;\\acdhOeaw\\schema\\redmine\\Redmine</title>
<path fill="none" stroke="black" d="M643.237,-2117.93C608.558,-2122.28 552.071,-2129.37 510.871,-2134.55"/>
<polygon fill="none" stroke="black" points="510.234,-2131.1 500.748,-2135.82 511.107,-2138.05 510.234,-2131.1"/>
</g>
<!-- \\acdhOeaw\\schema\\redmine\\User -->
<g id="node8" class="node"><title>\\acdhOeaw\\schema\\redmine\\User</title>
<polygon fill="none" stroke="black" points="702.5,-2078 648.5,-2078 648.5,-2042 702.5,-2042 702.5,-2078"/>
<text text-anchor="middle" x="675.5" y="-2057.2" font-family="Courier,monospace" font-size="11.00">User</text>
</g>
<!-- \\acdhOeaw\\schema\\redmine\\User&#45;&gt;\\acdhOeaw\\schema\\redmine\\Redmine -->
<g id="edge32" class="edge"><title>\\acdhOeaw\\schema\\redmine\\User&#45;&gt;\\acdhOeaw\\schema\\redmine\\Redmine</title>
<path fill="none" stroke="black" d="M648.311,-2069.71C634.524,-2074.84 617.339,-2081.24 602,-2087 571.561,-2098.44 537.503,-2111.34 510.318,-2121.66"/>
<polygon fill="none" stroke="black" points="508.738,-2118.52 500.633,-2125.34 511.224,-2125.06 508.738,-2118.52"/>
</g>
<!-- \\acdhOeaw\\schema\\file\\CmdiFile -->
<g id="node9" class="node"><title>\\acdhOeaw\\schema\\file\\CmdiFile</title>
<polygon fill="none" stroke="black" points="711,-1998 640,-1998 640,-1962 711,-1962 711,-1998"/>
<text text-anchor="middle" x="675.5" y="-1977.2" font-family="Courier,monospace" font-size="11.00">CmdiFile</text>
</g>
<!-- \\acdhOeaw\\schema\\file\\File -->
<g id="node10" class="node"><title>\\acdhOeaw\\schema\\file\\File</title>
<polygon fill="none" stroke="black" points="485.5,-1998 431.5,-1998 431.5,-1962 485.5,-1962 485.5,-1998"/>
<text text-anchor="middle" x="458.5" y="-1977.2" font-family="Courier,monospace" font-size="11.00">File</text>
</g>
<!-- \\acdhOeaw\\schema\\file\\CmdiFile&#45;&gt;\\acdhOeaw\\schema\\file\\File -->
<g id="edge15" class="edge"><title>\\acdhOeaw\\schema\\file\\CmdiFile&#45;&gt;\\acdhOeaw\\schema\\file\\File</title>
<path fill="none" stroke="black" d="M639.957,-1980C600.402,-1980 535.897,-1980 495.673,-1980"/>
<polygon fill="none" stroke="black" points="495.506,-1976.5 485.506,-1980 495.506,-1983.5 495.506,-1976.5"/>
</g>
<!-- \\acdhOeaw\\schema\\file\\File&#45;&gt;\\acdhOeaw\\schema\\Object -->
<g id="edge18" class="edge"><title>\\acdhOeaw\\schema\\file\\File&#45;&gt;\\acdhOeaw\\schema\\Object</title>
<path fill="none" stroke="black" d="M431.388,-1990.5C412.624,-1999.03 387.63,-2012.49 370,-2030 326.742,-2072.95 295.562,-2138.32 280.23,-2175.18"/>
<polygon fill="none" stroke="black" points="276.852,-2174.2 276.33,-2184.78 283.337,-2176.83 276.852,-2174.2"/>
</g>
<!-- \\acdhOeaw\\util\\metaLookup\\MetaLookupException -->
<g id="node12" class="node"><title>\\acdhOeaw\\util\\metaLookup\\MetaLookupException</title>
<polygon fill="none" stroke="black" points="748,-1774 603,-1774 603,-1738 748,-1738 748,-1774"/>
<text text-anchor="middle" x="675.5" y="-1753.2" font-family="Courier,monospace" font-size="11.00">MetaLookupException</text>
</g>
<!-- \\Exception -->
<g id="node48" class="node"><title>\\Exception</title>
<ellipse fill="none" stroke="black" cx="458.5" cy="-18" rx="48.9926" ry="18"/>
<text text-anchor="middle" x="458.5" y="-14.3" font-family="Times,serif" font-size="14.00" fill="gray">\Exception</text>
</g>
<!-- \\acdhOeaw\\util\\metaLookup\\MetaLookupException&#45;&gt;\\Exception -->
<g id="edge7" class="edge"><title>\\acdhOeaw\\util\\metaLookup\\MetaLookupException&#45;&gt;\\Exception</title>
<path fill="none" stroke="black" d="M614.088,-1737.99C609.434,-1734.65 605.279,-1730.69 602,-1726 494.855,-1572.81 640.528,-196.499 531,-45 526.245,-38.4222 519.679,-33.4463 512.44,-29.6824"/>
<polygon fill="none" stroke="black" points="513.56,-26.3514 502.997,-25.5335 510.744,-32.7602 513.56,-26.3514"/>
</g>
<!-- \\acdhOeaw\\util\\metaLookup\\MetaLookupFile -->
<g id="node13" class="node"><title>\\acdhOeaw\\util\\metaLookup\\MetaLookupFile</title>
<polygon fill="none" stroke="black" points="731,-1882 620,-1882 620,-1846 731,-1846 731,-1882"/>
<text text-anchor="middle" x="675.5" y="-1861.2" font-family="Courier,monospace" font-size="11.00">MetaLookupFile</text>
</g>
<!-- \\acdhOeaw\\util\\metaLookup\\MetaLookupInterface -->
<g id="node15" class="node"><title>\\acdhOeaw\\util\\metaLookup\\MetaLookupInterface</title>
<polygon fill="none" stroke="black" points="531,-1855 386,-1855 386,-1819 531,-1819 531,-1855"/>
<text text-anchor="middle" x="458.5" y="-1834.2" font-family="Courier,monospace" font-size="11.00">MetaLookupInterface</text>
</g>
<!-- \\acdhOeaw\\util\\metaLookup\\MetaLookupFile&#45;&gt;\\acdhOeaw\\util\\metaLookup\\MetaLookupInterface -->
<g id="edge8" class="edge"><title>\\acdhOeaw\\util\\metaLookup\\MetaLookupFile&#45;&gt;\\acdhOeaw\\util\\metaLookup\\MetaLookupInterface</title>
<path fill="none" stroke="black" stroke-dasharray="1,5" d="M619.968,-1857.15C596.03,-1854.15 567.421,-1850.55 541.032,-1847.24"/>
<polygon fill="none" stroke="black" points="541.399,-1843.76 531.041,-1845.98 540.527,-1850.7 541.399,-1843.76"/>
</g>
<!-- \\acdhOeaw\\util\\metaLookup\\MetaLookupGraph -->
<g id="node14" class="node"><title>\\acdhOeaw\\util\\metaLookup\\MetaLookupGraph</title>
<polygon fill="none" stroke="black" points="734.5,-1828 616.5,-1828 616.5,-1792 734.5,-1792 734.5,-1828"/>
<text text-anchor="middle" x="675.5" y="-1807.2" font-family="Courier,monospace" font-size="11.00">MetaLookupGraph</text>
</g>
<!-- \\acdhOeaw\\util\\metaLookup\\MetaLookupGraph&#45;&gt;\\acdhOeaw\\util\\metaLookup\\MetaLookupInterface -->
<g id="edge19" class="edge"><title>\\acdhOeaw\\util\\metaLookup\\MetaLookupGraph&#45;&gt;\\acdhOeaw\\util\\metaLookup\\MetaLookupInterface</title>
<path fill="none" stroke="black" stroke-dasharray="1,5" d="M616.318,-1817.31C593.255,-1820.2 566.326,-1823.58 541.357,-1826.72"/>
<polygon fill="none" stroke="black" points="540.649,-1823.28 531.163,-1828 541.521,-1830.23 540.649,-1823.28"/>
</g>
<!-- \\acdhOeaw\\util\\metadataValidator\\MetadataValidator -->
<g id="node16" class="node"><title>\\acdhOeaw\\util\\metadataValidator\\MetadataValidator</title>
<polygon fill="none" stroke="black" points="741,-1694 610,-1694 610,-1658 741,-1658 741,-1694"/>
<text text-anchor="middle" x="675.5" y="-1673.2" font-family="Courier,monospace" font-size="11.00">MetadataValidator</text>
</g>
<!-- \\acdhOeaw\\util\\metadataValidator\\Error -->
<g id="node17" class="node"><title>\\acdhOeaw\\util\\metadataValidator\\Error</title>
<polygon fill="none" stroke="black" points="702.5,-1640 648.5,-1640 648.5,-1604 702.5,-1604 702.5,-1640"/>
<text text-anchor="middle" x="675.5" y="-1619.2" font-family="Courier,monospace" font-size="11.00">Error</text>
</g>
<!-- \\acdhOeaw\\util\\metadataValidator\\OntologyProperty -->
<g id="node18" class="node"><title>\\acdhOeaw\\util\\metadataValidator\\OntologyProperty</title>
<polygon fill="none" stroke="black" points="738,-1586 613,-1586 613,-1550 738,-1550 738,-1586"/>
<text text-anchor="middle" x="675.5" y="-1565.2" font-family="Courier,monospace" font-size="11.00">OntologyProperty</text>
</g>
<!-- \\acdhOeaw\\util\\RepoConfig -->
<g id="node19" class="node"><title>\\acdhOeaw\\util\\RepoConfig</title>
<polygon fill="none" stroke="black" points="717.5,-1532 633.5,-1532 633.5,-1496 717.5,-1496 717.5,-1532"/>
<text text-anchor="middle" x="675.5" y="-1511.2" font-family="Courier,monospace" font-size="11.00">RepoConfig</text>
</g>
<!-- \\acdhOeaw\\util\\Indexer -->
<g id="node20" class="node"><title>\\acdhOeaw\\util\\Indexer</title>
<polygon fill="none" stroke="black" points="707.5,-1478 643.5,-1478 643.5,-1442 707.5,-1442 707.5,-1478"/>
<text text-anchor="middle" x="675.5" y="-1457.2" font-family="Courier,monospace" font-size="11.00">Indexer</text>
</g>
<!-- \\acdhOeaw\\util\\ResourceFactory -->
<g id="node21" class="node"><title>\\acdhOeaw\\util\\ResourceFactory</title>
<polygon fill="none" stroke="black" points="734.5,-1424 616.5,-1424 616.5,-1388 734.5,-1388 734.5,-1424"/>
<text text-anchor="middle" x="675.5" y="-1403.2" font-family="Courier,monospace" font-size="11.00">ResourceFactory</text>
</g>
<!-- \\acdhOeaw\\util\\IndexerException -->
<g id="node22" class="node"><title>\\acdhOeaw\\util\\IndexerException</title>
<polygon fill="none" stroke="black" points="738,-1316 613,-1316 613,-1280 738,-1280 738,-1316"/>
<text text-anchor="middle" x="675.5" y="-1295.2" font-family="Courier,monospace" font-size="11.00">IndexerException</text>
</g>
<!-- \\acdhOeaw\\util\\IndexerException&#45;&gt;\\Exception -->
<g id="edge12" class="edge"><title>\\acdhOeaw\\util\\IndexerException&#45;&gt;\\Exception</title>
<path fill="none" stroke="black" d="M640.88,-1279.83C626.288,-1270.07 610.596,-1256.6 602,-1240 479.699,-1003.76 688.7,-259.241 531,-45 526.188,-38.4632 519.594,-33.5087 512.343,-29.7536"/>
<polygon fill="none" stroke="black" points="513.456,-26.4201 502.892,-25.6097 510.645,-32.8309 513.456,-26.4201"/>
</g>
<!-- \\acdhOeaw\\util\\MetadataCollection -->
<g id="node23" class="node"><title>\\acdhOeaw\\util\\MetadataCollection</title>
<polygon fill="none" stroke="black" points="744.5,-1370 606.5,-1370 606.5,-1334 744.5,-1334 744.5,-1370"/>
<text text-anchor="middle" x="675.5" y="-1349.2" font-family="Courier,monospace" font-size="11.00">MetadataCollection</text>
</g>
<!-- \\EasyRdf\\Graph -->
<g id="node49" class="node"><title>\\EasyRdf\\Graph</title>
<ellipse fill="none" stroke="black" cx="458.5" cy="-72" rx="67.6881" ry="18"/>
<text text-anchor="middle" x="458.5" y="-68.3" font-family="Times,serif" font-size="14.00" fill="gray">\EasyRdf\Graph</text>
</g>
<!-- \\acdhOeaw\\util\\MetadataCollection&#45;&gt;\\EasyRdf\\Graph -->
<g id="edge27" class="edge"><title>\\acdhOeaw\\util\\MetadataCollection&#45;&gt;\\EasyRdf\\Graph</title>
<path fill="none" stroke="black" d="M611.197,-1333.94C607.767,-1331.35 604.648,-1328.39 602,-1325 582.369,-1299.9 480.547,-283.732 462.301,-100.244"/>
<polygon fill="none" stroke="black" points="465.783,-99.8888 461.311,-90.2839 458.817,-100.581 465.783,-99.8888"/>
</g>
<!-- \\acdhOeaw\\fedora\\dissemination\\Parameter -->
<g id="node24" class="node"><title>\\acdhOeaw\\fedora\\dissemination\\Parameter</title>
<polygon fill="none" stroke="black" points="714,-1208 637,-1208 637,-1172 714,-1172 714,-1208"/>
<text text-anchor="middle" x="675.5" y="-1187.2" font-family="Courier,monospace" font-size="11.00">Parameter</text>
</g>
<!-- \\acdhOeaw\\fedora\\FedoraResource -->
<g id="node45" class="node"><title>\\acdhOeaw\\fedora\\FedoraResource</title>
<polygon fill="none" stroke="black" points="514,-1154 403,-1154 403,-1118 514,-1118 514,-1154"/>
<text text-anchor="middle" x="458.5" y="-1133.2" font-family="Courier,monospace" font-size="11.00">FedoraResource</text>
</g>
<!-- \\acdhOeaw\\fedora\\dissemination\\Parameter&#45;&gt;\\acdhOeaw\\fedora\\FedoraResource -->
<g id="edge2" class="edge"><title>\\acdhOeaw\\fedora\\dissemination\\Parameter&#45;&gt;\\acdhOeaw\\fedora\\FedoraResource</title>
<path fill="none" stroke="black" d="M636.557,-1180.47C605.483,-1172.67 560.821,-1161.45 524.128,-1152.23"/>
<polygon fill="none" stroke="black" points="524.559,-1148.73 514.008,-1149.69 522.854,-1155.52 524.559,-1148.73"/>
</g>
<!-- \\acdhOeaw\\fedora\\dissemination\\Service -->
<g id="node25" class="node"><title>\\acdhOeaw\\fedora\\dissemination\\Service</title>
<polygon fill="none" stroke="black" points="707.5,-1154 643.5,-1154 643.5,-1118 707.5,-1118 707.5,-1154"/>
<text text-anchor="middle" x="675.5" y="-1133.2" font-family="Courier,monospace" font-size="11.00">Service</text>
</g>
<!-- \\acdhOeaw\\fedora\\dissemination\\Service&#45;&gt;\\acdhOeaw\\fedora\\FedoraResource -->
<g id="edge29" class="edge"><title>\\acdhOeaw\\fedora\\dissemination\\Service&#45;&gt;\\acdhOeaw\\fedora\\FedoraResource</title>
<path fill="none" stroke="black" d="M643.237,-1136C612.167,-1136 563.592,-1136 524.189,-1136"/>
<polygon fill="none" stroke="black" points="524.125,-1132.5 514.125,-1136 524.125,-1139.5 524.125,-1132.5"/>
</g>
<!-- \\acdhOeaw\\fedora\\exceptions\\ManyAcdhIds -->
<g id="node26" class="node"><title>\\acdhOeaw\\fedora\\exceptions\\ManyAcdhIds</title>
<polygon fill="none" stroke="black" points="721,-752 630,-752 630,-716 721,-716 721,-752"/>
<text text-anchor="middle" x="675.5" y="-731.2" font-family="Courier,monospace" font-size="11.00">ManyAcdhIds</text>
</g>
<!-- \\acdhOeaw\\fedora\\exceptions\\ManyAcdhIds&#45;&gt;\\Exception -->
<g id="edge3" class="edge"><title>\\acdhOeaw\\fedora\\exceptions\\ManyAcdhIds&#45;&gt;\\Exception</title>
<path fill="none" stroke="black" d="M629.67,-725.878C619.108,-721.878 608.922,-715.909 602,-707 420.44,-473.337 712.026,-279.077 531,-45 526.034,-38.5793 519.359,-33.6854 512.075,-29.9553"/>
<polygon fill="none" stroke="black" points="513.172,-26.6151 502.606,-25.8256 510.373,-33.0314 513.172,-26.6151"/>
</g>
<!-- \\acdhOeaw\\fedora\\exceptions\\Deleted -->
<g id="node27" class="node"><title>\\acdhOeaw\\fedora\\exceptions\\Deleted</title>
<polygon fill="none" stroke="black" points="707.5,-698 643.5,-698 643.5,-662 707.5,-662 707.5,-698"/>
<text text-anchor="middle" x="675.5" y="-677.2" font-family="Courier,monospace" font-size="11.00">Deleted</text>
</g>
<!-- \\acdhOeaw\\fedora\\exceptions\\Deleted&#45;&gt;\\Exception -->
<g id="edge4" class="edge"><title>\\acdhOeaw\\fedora\\exceptions\\Deleted&#45;&gt;\\Exception</title>
<path fill="none" stroke="black" d="M643.28,-675.972C628.501,-672.406 611.949,-665.68 602,-653 434.066,-438.958 698.445,-259.424 531,-45 526.004,-38.6027 519.314,-33.7211 512.023,-29.996"/>
<polygon fill="none" stroke="black" points="513.116,-26.6544 502.55,-25.8692 510.32,-33.0719 513.116,-26.6544"/>
</g>
<!-- \\acdhOeaw\\fedora\\exceptions\\NoAcdhId -->
<g id="node28" class="node"><title>\\acdhOeaw\\fedora\\exceptions\\NoAcdhId</title>
<polygon fill="none" stroke="black" points="711,-644 640,-644 640,-608 711,-608 711,-644"/>
<text text-anchor="middle" x="675.5" y="-623.2" font-family="Courier,monospace" font-size="11.00">NoAcdhId</text>
</g>
<!-- \\acdhOeaw\\fedora\\exceptions\\NoAcdhId&#45;&gt;\\Exception -->
<g id="edge13" class="edge"><title>\\acdhOeaw\\fedora\\exceptions\\NoAcdhId&#45;&gt;\\Exception</title>
<path fill="none" stroke="black" d="M639.991,-621.066C626.13,-617.305 611.268,-610.678 602,-599 447.678,-404.563 684.878,-239.789 531,-45 525.969,-38.6308 519.259,-33.7639 511.961,-30.0449"/>
<polygon fill="none" stroke="black" points="513.05,-26.7017 502.484,-25.9214 510.257,-33.1205 513.05,-26.7017"/>
</g>
<!-- \\acdhOeaw\\fedora\\exceptions\\NotFound -->
<g id="node29" class="node"><title>\\acdhOeaw\\fedora\\exceptions\\NotFound</title>
<polygon fill="none" stroke="black" points="711,-590 640,-590 640,-554 711,-554 711,-590"/>
<text text-anchor="middle" x="675.5" y="-569.2" font-family="Courier,monospace" font-size="11.00">NotFound</text>
</g>
<!-- \\acdhOeaw\\fedora\\exceptions\\NotFound&#45;&gt;\\Exception -->
<g id="edge14" class="edge"><title>\\acdhOeaw\\fedora\\exceptions\\NotFound&#45;&gt;\\Exception</title>
<path fill="none" stroke="black" d="M639.693,-566.902C625.952,-563.113 611.263,-556.51 602,-545 461.272,-370.145 671.328,-220.176 531,-45 525.925,-38.6652 519.193,-33.8162 511.886,-30.1046"/>
<polygon fill="none" stroke="black" points="512.97,-26.7595 502.403,-25.9853 510.181,-33.1799 512.97,-26.7595"/>
</g>
<!-- \\acdhOeaw\\fedora\\exceptions\\CacheInconsistent -->
<g id="node30" class="node"><title>\\acdhOeaw\\fedora\\exceptions\\CacheInconsistent</title>
<polygon fill="none" stroke="black" points="741,-536 610,-536 610,-500 741,-500 741,-536"/>
<text text-anchor="middle" x="675.5" y="-515.2" font-family="Courier,monospace" font-size="11.00">CacheInconsistent</text>
</g>
<!-- \\acdhOeaw\\fedora\\exceptions\\CacheInconsistent&#45;&gt;\\Exception -->
<g id="edge20" class="edge"><title>\\acdhOeaw\\fedora\\exceptions\\CacheInconsistent&#45;&gt;\\Exception</title>
<path fill="none" stroke="black" d="M611.369,-499.798C607.898,-497.242 604.723,-494.326 602,-491 474.843,-335.697 657.802,-200.592 531,-45 525.872,-38.7081 519.113,-33.8814 511.794,-30.1791"/>
<polygon fill="none" stroke="black" points="512.872,-26.8317 502.305,-26.065 510.087,-33.2541 512.872,-26.8317"/>
</g>
<!-- \\acdhOeaw\\fedora\\exceptions\\NotInCache -->
<g id="node31" class="node"><title>\\acdhOeaw\\fedora\\exceptions\\NotInCache</title>
<polygon fill="none" stroke="black" points="717.5,-482 633.5,-482 633.5,-446 717.5,-446 717.5,-482"/>
<text text-anchor="middle" x="675.5" y="-461.2" font-family="Courier,monospace" font-size="11.00">NotInCache</text>
</g>
<!-- \\acdhOeaw\\fedora\\exceptions\\NotInCache&#45;&gt;\\Exception -->
<g id="edge22" class="edge"><title>\\acdhOeaw\\fedora\\exceptions\\NotInCache&#45;&gt;\\Exception</title>
<path fill="none" stroke="black" d="M633.123,-456.623C621.523,-452.629 609.93,-446.477 602,-437 488.379,-301.208 644.31,-181.051 531,-45 525.806,-38.7631 519.011,-33.9651 511.678,-30.2746"/>
<polygon fill="none" stroke="black" points="512.748,-26.9244 502.181,-26.1673 509.97,-33.3493 512.748,-26.9244"/>
</g>
<!-- \\acdhOeaw\\fedora\\exceptions\\AmbiguousMatch -->
<g id="node32" class="node"><title>\\acdhOeaw\\fedora\\exceptions\\AmbiguousMatch</title>
<polygon fill="none" stroke="black" points="731,-428 620,-428 620,-392 731,-392 731,-428"/>
<text text-anchor="middle" x="675.5" y="-407.2" font-family="Courier,monospace" font-size="11.00">AmbiguousMatch</text>
</g>
<!-- \\acdhOeaw\\fedora\\exceptions\\AmbiguousMatch&#45;&gt;\\Exception -->
<g id="edge23" class="edge"><title>\\acdhOeaw\\fedora\\exceptions\\AmbiguousMatch&#45;&gt;\\Exception</title>
<path fill="none" stroke="black" d="M619.874,-396.749C613.136,-393.199 606.907,-388.701 602,-383 501.865,-266.658 630.869,-161.57 531,-45 525.719,-38.836 518.88,-34.0762 511.528,-30.4014"/>
<polygon fill="none" stroke="black" points="512.589,-27.0475 502.02,-26.303 509.818,-33.4757 512.589,-27.0475"/>
</g>
<!-- \\acdhOeaw\\fedora\\exceptions\\AlreadyInCache -->
<g id="node33" class="node"><title>\\acdhOeaw\\fedora\\exceptions\\AlreadyInCache</title>
<polygon fill="none" stroke="black" points="731,-374 620,-374 620,-338 731,-338 731,-374"/>
<text text-anchor="middle" x="675.5" y="-353.2" font-family="Courier,monospace" font-size="11.00">AlreadyInCache</text>
</g>
<!-- \\acdhOeaw\\fedora\\exceptions\\AlreadyInCache&#45;&gt;\\Exception -->
<g id="edge26" class="edge"><title>\\acdhOeaw\\fedora\\exceptions\\AlreadyInCache&#45;&gt;\\Exception</title>
<path fill="none" stroke="black" d="M619.708,-342.387C613.079,-338.893 606.924,-334.507 602,-329 515.271,-232.016 617.507,-142.182 531,-45 525.603,-38.9373 518.703,-34.2303 511.326,-30.5774"/>
<polygon fill="none" stroke="black" points="512.374,-27.2185 501.804,-26.4913 509.614,-33.6512 512.374,-27.2185"/>
</g>
<!-- \\acdhOeaw\\fedora\\exceptions\\AclException -->
<g id="node34" class="node"><title>\\acdhOeaw\\fedora\\exceptions\\AclException</title>
<polygon fill="none" stroke="black" points="724.5,-320 626.5,-320 626.5,-284 724.5,-284 724.5,-320"/>
<text text-anchor="middle" x="675.5" y="-299.2" font-family="Courier,monospace" font-size="11.00">AclException</text>
</g>
<!-- \\acdhOeaw\\fedora\\exceptions\\AclException&#45;&gt;\\Exception -->
<g id="edge30" class="edge"><title>\\acdhOeaw\\fedora\\exceptions\\AclException&#45;&gt;\\Exception</title>
<path fill="none" stroke="black" d="M626.351,-294.627C617.356,-291.373 608.693,-286.701 602,-280 524.896,-202.803 605.497,-124.716 531,-45 525.458,-39.0697 518.482,-34.4319 511.074,-30.8075"/>
<polygon fill="none" stroke="black" points="512.106,-27.4426 501.534,-26.7375 509.359,-33.8811 512.106,-27.4426"/>
</g>
<!-- \\acdhOeaw\\fedora\\acl\\WebAclRule -->
<g id="node35" class="node"><title>\\acdhOeaw\\fedora\\acl\\WebAclRule</title>
<polygon fill="none" stroke="black" points="717.5,-1074 633.5,-1074 633.5,-1038 717.5,-1038 717.5,-1074"/>
<text text-anchor="middle" x="675.5" y="-1053.2" font-family="Courier,monospace" font-size="11.00">WebAclRule</text>
</g>
<!-- \\acdhOeaw\\fedora\\acl\\WebAclRule&#45;&gt;\\acdhOeaw\\fedora\\FedoraResource -->
<g id="edge11" class="edge"><title>\\acdhOeaw\\fedora\\acl\\WebAclRule&#45;&gt;\\acdhOeaw\\fedora\\FedoraResource</title>
<path fill="none" stroke="black" d="M633.3,-1071.33C600.505,-1083.53 554.203,-1100.76 517.636,-1114.37"/>
<polygon fill="none" stroke="black" points="516.234,-1111.16 508.083,-1117.92 518.676,-1117.72 516.234,-1111.16"/>
</g>
<!-- \\acdhOeaw\\fedora\\acl\\WebAcl -->
<g id="node36" class="node"><title>\\acdhOeaw\\fedora\\acl\\WebAcl</title>
<polygon fill="none" stroke="black" points="704,-1020 647,-1020 647,-984 704,-984 704,-1020"/>
<text text-anchor="middle" x="675.5" y="-999.2" font-family="Courier,monospace" font-size="11.00">WebAcl</text>
</g>
<!-- \\acdhOeaw\\fedora\\metadataQuery\\Query -->
<g id="node37" class="node"><title>\\acdhOeaw\\fedora\\metadataQuery\\Query</title>
<polygon fill="none" stroke="black" points="485.5,-886 431.5,-886 431.5,-850 485.5,-850 485.5,-886"/>
<text text-anchor="middle" x="458.5" y="-865.2" font-family="Courier,monospace" font-size="11.00">Query</text>
</g>
<!-- \\acdhOeaw\\fedora\\metadataQuery\\HasValue -->
<g id="node38" class="node"><title>\\acdhOeaw\\fedora\\metadataQuery\\HasValue</title>
<polygon fill="none" stroke="black" points="494,-940 423,-940 423,-904 494,-904 494,-940"/>
<text text-anchor="middle" x="458.5" y="-919.2" font-family="Courier,monospace" font-size="11.00">HasValue</text>
</g>
<!-- \\acdhOeaw\\fedora\\metadataQuery\\HasProperty -->
<g id="node43" class="node"><title>\\acdhOeaw\\fedora\\metadataQuery\\HasProperty</title>
<polygon fill="none" stroke="black" points="314,-886 223,-886 223,-850 314,-850 314,-886"/>
<text text-anchor="middle" x="268.5" y="-865.2" font-family="Courier,monospace" font-size="11.00">HasProperty</text>
</g>
<!-- \\acdhOeaw\\fedora\\metadataQuery\\HasValue&#45;&gt;\\acdhOeaw\\fedora\\metadataQuery\\HasProperty -->
<g id="edge16" class="edge"><title>\\acdhOeaw\\fedora\\metadataQuery\\HasValue&#45;&gt;\\acdhOeaw\\fedora\\metadataQuery\\HasProperty</title>
<path fill="none" stroke="black" d="M422.579,-911.97C394.864,-904.009 355.626,-892.738 323.815,-883.601"/>
<polygon fill="none" stroke="black" points="324.78,-880.237 314.202,-880.84 322.847,-886.965 324.78,-880.237"/>
</g>
<!-- \\acdhOeaw\\fedora\\metadataQuery\\QueryParameter -->
<g id="node39" class="node"><title>\\acdhOeaw\\fedora\\metadataQuery\\QueryParameter</title>
<polygon fill="none" stroke="black" points="151,-886 40,-886 40,-850 151,-850 151,-886"/>
<text text-anchor="start" x="61.5" y="-871.2" font-family="Courier,monospace" font-size="11.00">«abstract»</text>
<text text-anchor="start" x="48" y="-859.2" font-family="Courier,monospace" font-size="11.00">QueryParameter</text>
</g>
<!-- \\acdhOeaw\\fedora\\metadataQuery\\MatchesRegEx -->
<g id="node40" class="node"><title>\\acdhOeaw\\fedora\\metadataQuery\\MatchesRegEx</title>
<polygon fill="none" stroke="black" points="724.5,-940 626.5,-940 626.5,-904 724.5,-904 724.5,-940"/>
<text text-anchor="middle" x="675.5" y="-919.2" font-family="Courier,monospace" font-size="11.00">MatchesRegEx</text>
</g>
<!-- \\acdhOeaw\\fedora\\metadataQuery\\MatchesRegEx&#45;&gt;\\acdhOeaw\\fedora\\metadataQuery\\HasValue -->
<g id="edge21" class="edge"><title>\\acdhOeaw\\fedora\\metadataQuery\\MatchesRegEx&#45;&gt;\\acdhOeaw\\fedora\\metadataQuery\\HasValue</title>
<path fill="none" stroke="black" d="M626.25,-922C589.74,-922 539.971,-922 504.328,-922"/>
<polygon fill="none" stroke="black" points="504.211,-918.5 494.211,-922 504.211,-925.5 504.211,-918.5"/>
</g>
<!-- \\acdhOeaw\\fedora\\metadataQuery\\SimpleQuery -->
<g id="node41" class="node"><title>\\acdhOeaw\\fedora\\metadataQuery\\SimpleQuery</title>
<polygon fill="none" stroke="black" points="721,-886 630,-886 630,-850 721,-850 721,-886"/>
<text text-anchor="middle" x="675.5" y="-865.2" font-family="Courier,monospace" font-size="11.00">SimpleQuery</text>
</g>
<!-- \\acdhOeaw\\fedora\\metadataQuery\\SimpleQuery&#45;&gt;\\acdhOeaw\\fedora\\metadataQuery\\Query -->
<g id="edge25" class="edge"><title>\\acdhOeaw\\fedora\\metadataQuery\\SimpleQuery&#45;&gt;\\acdhOeaw\\fedora\\metadataQuery\\Query</title>
<path fill="none" stroke="black" d="M629.952,-868C590.323,-868 533.07,-868 496.068,-868"/>
<polygon fill="none" stroke="black" points="495.739,-864.5 485.739,-868 495.739,-871.5 495.739,-864.5"/>
</g>
<!-- \\acdhOeaw\\fedora\\metadataQuery\\HasTriple -->
<g id="node42" class="node"><title>\\acdhOeaw\\fedora\\metadataQuery\\HasTriple</title>
<polygon fill="none" stroke="black" points="497,-832 420,-832 420,-796 497,-796 497,-832"/>
<text text-anchor="middle" x="458.5" y="-811.2" font-family="Courier,monospace" font-size="11.00">HasTriple</text>
</g>
<!-- \\acdhOeaw\\fedora\\metadataQuery\\HasTriple&#45;&gt;\\acdhOeaw\\fedora\\metadataQuery\\HasProperty -->
<g id="edge28" class="edge"><title>\\acdhOeaw\\fedora\\metadataQuery\\HasTriple&#45;&gt;\\acdhOeaw\\fedora\\metadataQuery\\HasProperty</title>
<path fill="none" stroke="black" d="M419.907,-824.798C392.447,-832.685 354.796,-843.5 324.034,-852.336"/>
<polygon fill="none" stroke="black" points="322.956,-849.004 314.31,-855.129 324.888,-855.732 322.956,-849.004"/>
</g>
<!-- \\acdhOeaw\\fedora\\metadataQuery\\HasProperty&#45;&gt;\\acdhOeaw\\fedora\\metadataQuery\\QueryParameter -->
<g id="edge31" class="edge"><title>\\acdhOeaw\\fedora\\metadataQuery\\HasProperty&#45;&gt;\\acdhOeaw\\fedora\\metadataQuery\\QueryParameter</title>
<path fill="none" stroke="black" d="M222.572,-868C203.864,-868 181.782,-868 161.369,-868"/>
<polygon fill="none" stroke="black" points="161.19,-864.5 151.19,-868 161.19,-871.5 161.19,-864.5"/>
</g>
<!-- \\acdhOeaw\\fedora\\Fedora -->
<g id="node44" class="node"><title>\\acdhOeaw\\fedora\\Fedora</title>
<polygon fill="none" stroke="black" points="704,-266 647,-266 647,-230 704,-230 704,-266"/>
<text text-anchor="middle" x="675.5" y="-245.2" font-family="Courier,monospace" font-size="11.00">Fedora</text>
</g>
<!-- \\acdhOeaw\\fedora\\SparqlClient -->
<g id="node46" class="node"><title>\\acdhOeaw\\fedora\\SparqlClient</title>
<polygon fill="none" stroke="black" points="724.5,-212 626.5,-212 626.5,-176 724.5,-176 724.5,-212"/>
<text text-anchor="middle" x="675.5" y="-191.2" font-family="Courier,monospace" font-size="11.00">SparqlClient</text>
</g>
<!-- \\acdhOeaw\\fedora\\FedoraCache -->
<g id="node47" class="node"><title>\\acdhOeaw\\fedora\\FedoraCache</title>
<polygon fill="none" stroke="black" points="721,-158 630,-158 630,-122 721,-122 721,-158"/>
<text text-anchor="middle" x="675.5" y="-137.2" font-family="Courier,monospace" font-size="11.00">FedoraCache</text>
</g>
</g>
</svg>
