<?xml version="1.0" encoding="UTF-8" standalone="no"?>
<!DOCTYPE svg PUBLIC "-//W3C//DTD SVG 1.1//EN"
 "http://www.w3.org/Graphics/SVG/1.1/DTD/svg11.dtd">
<!-- Generated by graphviz version 2.38.0 (20140413.2041)
 -->
<!-- Title: G Pages: 1 -->
<svg width="869pt" height="1200pt"
 viewBox="0.00 0.00 868.68 1200.00" xmlns="http://www.w3.org/2000/svg" xmlns:xlink="http://www.w3.org/1999/xlink">
<g id="graph0" class="graph" transform="scale(1 1) rotate(0) translate(4 1196)">
<title>G</title>
<polygon fill="white" stroke="none" points="-4,4 -4,-1196 864.679,-1196 864.679,4 -4,4"/>
<g id="clust1" class="cluster"><title>cluster_Global</title>
<path fill="none" stroke="gray" d="M20,-98C20,-98 840.679,-98 840.679,-98 846.679,-98 852.679,-104 852.679,-110 852.679,-110 852.679,-1172 852.679,-1172 852.679,-1178 846.679,-1184 840.679,-1184 840.679,-1184 20,-1184 20,-1184 14,-1184 8,-1178 8,-1172 8,-1172 8,-110 8,-110 8,-104 14,-98 20,-98"/>
<text text-anchor="middle" x="430.34" y="-1171.2" font-family="Times,serif" font-size="11.00" fill="gray">Global</text>
</g>
<g id="clust2" class="cluster"><title>cluster_\acdhOeaw</title>
<path fill="none" stroke="gray" d="M28,-106C28,-106 832.679,-106 832.679,-106 838.679,-106 844.679,-112 844.679,-118 844.679,-118 844.679,-1144 844.679,-1144 844.679,-1150 838.679,-1156 832.679,-1156 832.679,-1156 28,-1156 28,-1156 22,-1156 16,-1150 16,-1144 16,-1144 16,-118 16,-118 16,-112 22,-106 28,-106"/>
<text text-anchor="middle" x="430.34" y="-1143.2" font-family="Times,serif" font-size="11.00" fill="gray">acdhOeaw</text>
</g>
<g id="clust3" class="cluster"><title>cluster_\acdhOeaw\schema</title>
<path fill="none" stroke="gray" d="M464.34,-840C464.34,-840 824.679,-840 824.679,-840 830.679,-840 836.679,-846 836.679,-852 836.679,-852 836.679,-1116 836.679,-1116 836.679,-1122 830.679,-1128 824.679,-1128 824.679,-1128 464.34,-1128 464.34,-1128 458.34,-1128 452.34,-1122 452.34,-1116 452.34,-1116 452.34,-852 452.34,-852 452.34,-846 458.34,-840 464.34,-840"/>
<text text-anchor="middle" x="644.51" y="-1115.2" font-family="Times,serif" font-size="11.00" fill="gray">schema</text>
</g>
<g id="clust4" class="cluster"><title>cluster_\acdhOeaw\schema\cirilo</title>
<path fill="none" stroke="gray" d="M731.679,-1028C731.679,-1028 787.679,-1028 787.679,-1028 793.679,-1028 799.679,-1034 799.679,-1040 799.679,-1040 799.679,-1088 799.679,-1088 799.679,-1094 793.679,-1100 787.679,-1100 787.679,-1100 731.679,-1100 731.679,-1100 725.679,-1100 719.679,-1094 719.679,-1088 719.679,-1088 719.679,-1040 719.679,-1040 719.679,-1034 725.679,-1028 731.679,-1028"/>
<text text-anchor="middle" x="759.679" y="-1087.2" font-family="Times,serif" font-size="11.00" fill="gray">cirilo</text>
</g>
<g id="clust5" class="cluster"><title>cluster_\acdhOeaw\schema\dissemination</title>
<path fill="none" stroke="gray" d="M725.179,-894C725.179,-894 794.179,-894 794.179,-894 800.179,-894 806.179,-900 806.179,-906 806.179,-906 806.179,-1008 806.179,-1008 806.179,-1014 800.179,-1020 794.179,-1020 794.179,-1020 725.179,-1020 725.179,-1020 719.179,-1020 713.179,-1014 713.179,-1008 713.179,-1008 713.179,-906 713.179,-906 713.179,-900 719.179,-894 725.179,-894"/>
<text text-anchor="middle" x="759.679" y="-1007.2" font-family="Times,serif" font-size="11.00" fill="gray">dissemination</text>
</g>
<g id="clust6" class="cluster"><title>cluster_\acdhOeaw\redmine</title>
<path fill="none" stroke="gray" d="M731.679,-328C731.679,-328 787.679,-328 787.679,-328 793.679,-328 799.679,-334 799.679,-340 799.679,-340 799.679,-496 799.679,-496 799.679,-502 793.679,-508 787.679,-508 787.679,-508 731.679,-508 731.679,-508 725.679,-508 719.679,-502 719.679,-496 719.679,-496 719.679,-340 719.679,-340 719.679,-334 725.679,-328 731.679,-328"/>
<text text-anchor="middle" x="759.679" y="-495.2" font-family="Times,serif" font-size="11.00" fill="gray">redmine</text>
</g>
<g id="clust7" class="cluster"><title>cluster_\acdhOeaw\fedora</title>
<path fill="none" stroke="gray" d="M36,-516C36,-516 812.679,-516 812.679,-516 818.679,-516 824.679,-522 824.679,-528 824.679,-528 824.679,-820 824.679,-820 824.679,-826 818.679,-832 812.679,-832 812.679,-832 36,-832 36,-832 30,-832 24,-826 24,-820 24,-820 24,-528 24,-528 24,-522 30,-516 36,-516"/>
<text text-anchor="middle" x="424.34" y="-819.2" font-family="Times,serif" font-size="11.00" fill="gray">fedora</text>
</g>
<g id="clust8" class="cluster"><title>cluster_\acdhOeaw\fedora\metadataQuery</title>
<path fill="none" stroke="gray" d="M44,-678C44,-678 804.679,-678 804.679,-678 810.679,-678 816.679,-684 816.679,-690 816.679,-690 816.679,-792 816.679,-792 816.679,-798 810.679,-804 804.679,-804 804.679,-804 44,-804 44,-804 38,-804 32,-798 32,-792 32,-792 32,-690 32,-690 32,-684 38,-678 44,-678"/>
<text text-anchor="middle" x="424.34" y="-791.2" font-family="Times,serif" font-size="11.00" fill="gray">metadataQuery</text>
</g>
<g id="clust9" class="cluster"><title>cluster_\acdhOeaw\util</title>
<path fill="none" stroke="gray" d="M718.179,-248C718.179,-248 801.179,-248 801.179,-248 807.179,-248 813.179,-254 813.179,-260 813.179,-260 813.179,-308 813.179,-308 813.179,-314 807.179,-320 801.179,-320 801.179,-320 718.179,-320 718.179,-320 712.179,-320 706.179,-314 706.179,-308 706.179,-308 706.179,-260 706.179,-260 706.179,-254 712.179,-248 718.179,-248"/>
<text text-anchor="middle" x="759.679" y="-307.2" font-family="Times,serif" font-size="11.00" fill="gray">util</text>
</g>
<g id="clust10" class="cluster"><title>cluster_\acdhOeaw\storage</title>
<path fill="none" stroke="gray" d="M728.179,-114C728.179,-114 791.179,-114 791.179,-114 797.179,-114 803.179,-120 803.179,-126 803.179,-126 803.179,-228 803.179,-228 803.179,-234 797.179,-240 791.179,-240 791.179,-240 728.179,-240 728.179,-240 722.179,-240 716.179,-234 716.179,-228 716.179,-228 716.179,-126 716.179,-126 716.179,-120 722.179,-114 728.179,-114"/>
<text text-anchor="middle" x="759.679" y="-227.2" font-family="Times,serif" font-size="11.00" fill="gray">storage</text>
</g>
<!-- \\acdhOeaw\\schema\\cirilo\\Service -->
<g id="node1" class="node"><title>\\acdhOeaw\\schema\\cirilo\\Service</title>
<polygon fill="none" stroke="black" points="791.679,-1072 727.679,-1072 727.679,-1036 791.679,-1036 791.679,-1072"/>
<text text-anchor="middle" x="759.679" y="-1051.2" font-family="Courier,monospace" font-size="11.00">Service</text>
</g>
<!-- \\acdhOeaw\\schema\\Object -->
<g id="node5" class="node"><title>\\acdhOeaw\\schema\\Object</title>
<polygon fill="none" stroke="black" points="544.34,-992 460.34,-992 460.34,-956 544.34,-956 544.34,-992"/>
<text text-anchor="start" x="468.34" y="-977.2" font-family="Courier,monospace" font-size="11.00">«abstract»</text>
<text text-anchor="start" x="481.84" y="-965.2" font-family="Courier,monospace" font-size="11.00">Object</text>
</g>
<!-- \\acdhOeaw\\schema\\cirilo\\Service&#45;&gt;\\acdhOeaw\\schema\\Object -->
<g id="edge9" class="edge"><title>\\acdhOeaw\\schema\\cirilo\\Service&#45;&gt;\\acdhOeaw\\schema\\Object</title>
<path fill="none" stroke="black" d="M727.625,-1044.27C684.548,-1030.77 606.132,-1006.21 554.38,-989.991"/>
<polygon fill="none" stroke="black" points="555.312,-986.616 544.723,-986.966 553.219,-993.296 555.312,-986.616"/>
</g>
<!-- \\acdhOeaw\\schema\\dissemination\\Service -->
<g id="node2" class="node"><title>\\acdhOeaw\\schema\\dissemination\\Service</title>
<polygon fill="none" stroke="black" points="791.679,-992 727.679,-992 727.679,-956 791.679,-956 791.679,-992"/>
<text text-anchor="middle" x="759.679" y="-971.2" font-family="Courier,monospace" font-size="11.00">Service</text>
</g>
<!-- \\acdhOeaw\\schema\\dissemination\\Service&#45;&gt;\\acdhOeaw\\schema\\Object -->
<g id="edge10" class="edge"><title>\\acdhOeaw\\schema\\dissemination\\Service&#45;&gt;\\acdhOeaw\\schema\\Object</title>
<path fill="none" stroke="black" d="M727.625,-974C684.727,-974 606.784,-974 555.027,-974"/>
<polygon fill="none" stroke="black" points="554.723,-970.5 544.723,-974 554.723,-977.5 554.723,-970.5"/>
</g>
<!-- \\acdhOeaw\\schema\\dissemination\\Parameter -->
<g id="node3" class="node"><title>\\acdhOeaw\\schema\\dissemination\\Parameter</title>
<polygon fill="none" stroke="black" points="798.179,-938 721.179,-938 721.179,-902 798.179,-902 798.179,-938"/>
<text text-anchor="middle" x="759.679" y="-917.2" font-family="Courier,monospace" font-size="11.00">Parameter</text>
</g>
<!-- \\acdhOeaw\\schema\\dissemination\\Parameter&#45;&gt;\\acdhOeaw\\schema\\Object -->
<g id="edge11" class="edge"><title>\\acdhOeaw\\schema\\dissemination\\Parameter&#45;&gt;\\acdhOeaw\\schema\\Object</title>
<path fill="none" stroke="black" d="M721.003,-927.968C676.877,-937.3 603.568,-952.803 554.367,-963.208"/>
<polygon fill="none" stroke="black" points="553.619,-959.789 544.559,-965.283 555.067,-966.638 553.619,-959.789"/>
</g>
<!-- \\acdhOeaw\\schema\\MetadataCollection -->
<g id="node4" class="node"><title>\\acdhOeaw\\schema\\MetadataCollection</title>
<polygon fill="none" stroke="black" points="828.679,-884 690.679,-884 690.679,-848 828.679,-848 828.679,-884"/>
<text text-anchor="middle" x="759.679" y="-863.2" font-family="Courier,monospace" font-size="11.00">MetadataCollection</text>
</g>
<!-- \\EasyRdf\\Graph -->
<g id="node21" class="node"><title>\\EasyRdf\\Graph</title>
<ellipse fill="none" stroke="black" cx="502.34" cy="-72" rx="67.6881" ry="18"/>
<text text-anchor="middle" x="502.34" y="-68.3" font-family="Times,serif" font-size="14.00" fill="gray">\EasyRdf\Graph</text>
</g>
<!-- \\acdhOeaw\\schema\\MetadataCollection&#45;&gt;\\EasyRdf\\Graph -->
<g id="edge1" class="edge"><title>\\acdhOeaw\\schema\\MetadataCollection&#45;&gt;\\EasyRdf\\Graph</title>
<path fill="none" stroke="black" d="M730.172,-847.92C716.338,-837.767 700.603,-823.938 690.679,-808 539.045,-564.477 509.838,-203.266 504.486,-100.311"/>
<polygon fill="none" stroke="black" points="507.971,-99.9229 503.991,-90.1042 500.98,-100.262 507.971,-99.9229"/>
</g>
<!-- \\acdhOeaw\\redmine\\Issue -->
<g id="node6" class="node"><title>\\acdhOeaw\\redmine\\Issue</title>
<polygon fill="none" stroke="black" points="786.679,-480 732.679,-480 732.679,-444 786.679,-444 786.679,-480"/>
<text text-anchor="middle" x="759.679" y="-459.2" font-family="Courier,monospace" font-size="11.00">Issue</text>
</g>
<!-- \\acdhOeaw\\redmine\\Redmine -->
<g id="node22" class="node"><title>\\acdhOeaw\\redmine\\Redmine</title>
<ellipse fill="none" stroke="black" cx="502.34" cy="-18" rx="116.18" ry="18"/>
<text text-anchor="middle" x="502.34" y="-14.3" font-family="Times,serif" font-size="14.00" fill="gray">\acdhOeaw\redmine\Redmine</text>
</g>
<!-- \\acdhOeaw\\redmine\\Issue&#45;&gt;\\acdhOeaw\\redmine\\Redmine -->
<g id="edge2" class="edge"><title>\\acdhOeaw\\redmine\\Issue&#45;&gt;\\acdhOeaw\\redmine\\Redmine</title>
<path fill="none" stroke="black" d="M732.42,-457.922C718,-454.313 701,-447.563 690.679,-435 578.796,-298.8 740.328,-172.554 618.679,-45 614.497,-40.6143 609.749,-36.8805 604.621,-33.7067"/>
<polygon fill="none" stroke="black" points="606.128,-30.5432 595.665,-28.8778 602.806,-36.7046 606.128,-30.5432"/>
</g>
<!-- \\acdhOeaw\\redmine\\User -->
<g id="node7" class="node"><title>\\acdhOeaw\\redmine\\User</title>
<polygon fill="none" stroke="black" points="786.679,-426 732.679,-426 732.679,-390 786.679,-390 786.679,-426"/>
<text text-anchor="middle" x="759.679" y="-405.2" font-family="Courier,monospace" font-size="11.00">User</text>
</g>
<!-- \\acdhOeaw\\redmine\\User&#45;&gt;\\acdhOeaw\\redmine\\Redmine -->
<g id="edge3" class="edge"><title>\\acdhOeaw\\redmine\\User&#45;&gt;\\acdhOeaw\\redmine\\Redmine</title>
<path fill="none" stroke="black" d="M732.553,-403.811C718.178,-400.165 701.178,-393.415 690.679,-381 592.063,-264.384 725.648,-154.005 618.679,-45 614.388,-40.6274 609.534,-36.9068 604.306,-33.7458"/>
<polygon fill="none" stroke="black" points="605.666,-30.5062 595.188,-28.9378 602.401,-36.6981 605.666,-30.5062"/>
</g>
<!-- \\acdhOeaw\\redmine\\Project -->
<g id="node8" class="node"><title>\\acdhOeaw\\redmine\\Project</title>
<polygon fill="none" stroke="black" points="791.679,-372 727.679,-372 727.679,-336 791.679,-336 791.679,-372"/>
<text text-anchor="middle" x="759.679" y="-351.2" font-family="Courier,monospace" font-size="11.00">Project</text>
</g>
<!-- \\acdhOeaw\\redmine\\Project&#45;&gt;\\acdhOeaw\\redmine\\Redmine -->
<g id="edge6" class="edge"><title>\\acdhOeaw\\redmine\\Project&#45;&gt;\\acdhOeaw\\redmine\\Redmine</title>
<path fill="none" stroke="black" d="M727.564,-346.78C714.471,-342.263 700.116,-335.115 690.679,-324 607.795,-226.377 710.251,-134.525 618.679,-45 614.252,-40.6712 609.27,-36.9872 603.926,-33.8562"/>
<polygon fill="none" stroke="black" points="605.12,-30.5355 594.624,-29.0927 601.929,-36.7661 605.12,-30.5355"/>
</g>
<!-- \\acdhOeaw\\fedora\\metadataQuery\\Query -->
<g id="node9" class="node"><title>\\acdhOeaw\\fedora\\metadataQuery\\Query</title>
<polygon fill="none" stroke="black" points="786.679,-776 732.679,-776 732.679,-740 786.679,-740 786.679,-776"/>
<text text-anchor="middle" x="759.679" y="-755.2" font-family="Courier,monospace" font-size="11.00">Query</text>
</g>
<!-- \\acdhOeaw\\fedora\\metadataQuery\\HasValue -->
<g id="node10" class="node"><title>\\acdhOeaw\\fedora\\metadataQuery\\HasValue</title>
<polygon fill="none" stroke="black" points="537.84,-776 466.84,-776 466.84,-740 537.84,-740 537.84,-776"/>
<text text-anchor="middle" x="502.34" y="-755.2" font-family="Courier,monospace" font-size="11.00">HasValue</text>
</g>
<!-- \\acdhOeaw\\fedora\\metadataQuery\\HasProperty -->
<g id="node14" class="node"><title>\\acdhOeaw\\fedora\\metadataQuery\\HasProperty</title>
<polygon fill="none" stroke="black" points="314,-749 223,-749 223,-713 314,-713 314,-749"/>
<text text-anchor="middle" x="268.5" y="-728.2" font-family="Courier,monospace" font-size="11.00">HasProperty</text>
</g>
<!-- \\acdhOeaw\\fedora\\metadataQuery\\HasValue&#45;&gt;\\acdhOeaw\\fedora\\metadataQuery\\HasProperty -->
<g id="edge4" class="edge"><title>\\acdhOeaw\\fedora\\metadataQuery\\HasValue&#45;&gt;\\acdhOeaw\\fedora\\metadataQuery\\HasProperty</title>
<path fill="none" stroke="black" d="M466.631,-753.958C429.013,-749.577 368.464,-742.525 324.386,-737.392"/>
<polygon fill="none" stroke="black" points="324.742,-733.91 314.404,-736.23 323.932,-740.863 324.742,-733.91"/>
</g>
<!-- \\acdhOeaw\\fedora\\metadataQuery\\QueryParameter -->
<g id="node11" class="node"><title>\\acdhOeaw\\fedora\\metadataQuery\\QueryParameter</title>
<polygon fill="none" stroke="black" points="151,-749 40,-749 40,-713 151,-713 151,-749"/>
<text text-anchor="start" x="61.5" y="-734.2" font-family="Courier,monospace" font-size="11.00">«abstract»</text>
<text text-anchor="start" x="48" y="-722.2" font-family="Courier,monospace" font-size="11.00">QueryParameter</text>
</g>
<!-- \\acdhOeaw\\fedora\\metadataQuery\\MatchesRegEx -->
<g id="node12" class="node"><title>\\acdhOeaw\\fedora\\metadataQuery\\MatchesRegEx</title>
<polygon fill="none" stroke="black" points="808.679,-722 710.679,-722 710.679,-686 808.679,-686 808.679,-722"/>
<text text-anchor="middle" x="759.679" y="-701.2" font-family="Courier,monospace" font-size="11.00">MatchesRegEx</text>
</g>
<!-- \\acdhOeaw\\fedora\\metadataQuery\\MatchesRegEx&#45;&gt;\\acdhOeaw\\fedora\\metadataQuery\\HasValue -->
<g id="edge5" class="edge"><title>\\acdhOeaw\\fedora\\metadataQuery\\MatchesRegEx&#45;&gt;\\acdhOeaw\\fedora\\metadataQuery\\HasValue</title>
<path fill="none" stroke="black" d="M710.652,-714.157C663.913,-724.041 593.464,-738.94 547.932,-748.569"/>
<polygon fill="none" stroke="black" points="547.109,-745.166 538.05,-750.659 548.558,-752.014 547.109,-745.166"/>
</g>
<!-- \\acdhOeaw\\fedora\\metadataQuery\\HasTriple -->
<g id="node13" class="node"><title>\\acdhOeaw\\fedora\\metadataQuery\\HasTriple</title>
<polygon fill="none" stroke="black" points="540.84,-722 463.84,-722 463.84,-686 540.84,-686 540.84,-722"/>
<text text-anchor="middle" x="502.34" y="-701.2" font-family="Courier,monospace" font-size="11.00">HasTriple</text>
</g>
<!-- \\acdhOeaw\\fedora\\metadataQuery\\HasTriple&#45;&gt;\\acdhOeaw\\fedora\\metadataQuery\\HasProperty -->
<g id="edge7" class="edge"><title>\\acdhOeaw\\fedora\\metadataQuery\\HasTriple&#45;&gt;\\acdhOeaw\\fedora\\metadataQuery\\HasProperty</title>
<path fill="none" stroke="black" d="M463.833,-708.368C425.986,-712.776 367.144,-719.628 324.119,-724.639"/>
<polygon fill="none" stroke="black" points="323.623,-721.173 314.095,-725.806 324.433,-728.126 323.623,-721.173"/>
</g>
<!-- \\acdhOeaw\\fedora\\metadataQuery\\HasProperty&#45;&gt;\\acdhOeaw\\fedora\\metadataQuery\\QueryParameter -->
<g id="edge8" class="edge"><title>\\acdhOeaw\\fedora\\metadataQuery\\HasProperty&#45;&gt;\\acdhOeaw\\fedora\\metadataQuery\\QueryParameter</title>
<path fill="none" stroke="black" d="M222.572,-731C203.864,-731 181.782,-731 161.369,-731"/>
<polygon fill="none" stroke="black" points="161.19,-727.5 151.19,-731 161.19,-734.5 161.19,-727.5"/>
</g>
<!-- \\acdhOeaw\\fedora\\Fedora -->
<g id="node15" class="node"><title>\\acdhOeaw\\fedora\\Fedora</title>
<polygon fill="none" stroke="black" points="788.179,-668 731.179,-668 731.179,-632 788.179,-632 788.179,-668"/>
<text text-anchor="middle" x="759.679" y="-647.2" font-family="Courier,monospace" font-size="11.00">Fedora</text>
</g>
<!-- \\acdhOeaw\\fedora\\FedoraResource -->
<g id="node16" class="node"><title>\\acdhOeaw\\fedora\\FedoraResource</title>
<polygon fill="none" stroke="black" points="815.179,-614 704.179,-614 704.179,-578 815.179,-578 815.179,-614"/>
<text text-anchor="middle" x="759.679" y="-593.2" font-family="Courier,monospace" font-size="11.00">FedoraResource</text>
</g>
<!-- \\acdhOeaw\\fedora\\SparqlClient -->
<g id="node17" class="node"><title>\\acdhOeaw\\fedora\\SparqlClient</title>
<polygon fill="none" stroke="black" points="808.679,-560 710.679,-560 710.679,-524 808.679,-524 808.679,-560"/>
<text text-anchor="middle" x="759.679" y="-539.2" font-family="Courier,monospace" font-size="11.00">SparqlClient</text>
</g>
<!-- \\acdhOeaw\\util\\EasyRdfUtil -->
<g id="node18" class="node"><title>\\acdhOeaw\\util\\EasyRdfUtil</title>
<polygon fill="none" stroke="black" points="805.179,-292 714.179,-292 714.179,-256 805.179,-256 805.179,-292"/>
<text text-anchor="middle" x="759.679" y="-271.2" font-family="Courier,monospace" font-size="11.00">EasyRdfUtil</text>
</g>
<!-- \\acdhOeaw\\storage\\Location -->
<g id="node19" class="node"><title>\\acdhOeaw\\storage\\Location</title>
<polygon fill="none" stroke="black" points="795.179,-212 724.179,-212 724.179,-176 795.179,-176 795.179,-212"/>
<text text-anchor="middle" x="759.679" y="-191.2" font-family="Courier,monospace" font-size="11.00">Location</text>
</g>
<!-- \\acdhOeaw\\storage\\Indexer -->
<g id="node20" class="node"><title>\\acdhOeaw\\storage\\Indexer</title>
<polygon fill="none" stroke="black" points="791.679,-158 727.679,-158 727.679,-122 791.679,-122 791.679,-158"/>
<text text-anchor="middle" x="759.679" y="-137.2" font-family="Courier,monospace" font-size="11.00">Indexer</text>
</g>
</g>
</svg>
