<?xml version="1.0" encoding="UTF-8" standalone="no"?>
<!DOCTYPE svg PUBLIC "-//W3C//DTD SVG 1.1//EN"
 "http://www.w3.org/Graphics/SVG/1.1/DTD/svg11.dtd">
<!-- Generated by graphviz version 2.38.0 (20140413.2041)
 -->
<!-- Title: G Pages: 1 -->
<svg width="856pt" height="984pt"
 viewBox="0.00 0.00 855.68 984.00" xmlns="http://www.w3.org/2000/svg" xmlns:xlink="http://www.w3.org/1999/xlink">
<g id="graph0" class="graph" transform="scale(1 1) rotate(0) translate(4 980)">
<title>G</title>
<polygon fill="white" stroke="none" points="-4,4 -4,-980 851.679,-980 851.679,4 -4,4"/>
<g id="clust1" class="cluster"><title>cluster_Global</title>
<path fill="none" stroke="gray" d="M20,-44C20,-44 827.679,-44 827.679,-44 833.679,-44 839.679,-50 839.679,-56 839.679,-56 839.679,-956 839.679,-956 839.679,-962 833.679,-968 827.679,-968 827.679,-968 20,-968 20,-968 14,-968 8,-962 8,-956 8,-956 8,-56 8,-56 8,-50 14,-44 20,-44"/>
<text text-anchor="middle" x="423.84" y="-955.2" font-family="Times,serif" font-size="11.00" fill="gray">Global</text>
</g>
<g id="clust2" class="cluster"><title>cluster_\acdhOeaw</title>
<path fill="none" stroke="gray" d="M28,-52C28,-52 819.679,-52 819.679,-52 825.679,-52 831.679,-58 831.679,-64 831.679,-64 831.679,-928 831.679,-928 831.679,-934 825.679,-940 819.679,-940 819.679,-940 28,-940 28,-940 22,-940 16,-934 16,-928 16,-928 16,-64 16,-64 16,-58 22,-52 28,-52"/>
<text text-anchor="middle" x="423.84" y="-927.2" font-family="Times,serif" font-size="11.00" fill="gray">acdhOeaw</text>
</g>
<g id="clust3" class="cluster"><title>cluster_\acdhOeaw\cirilo</title>
<path fill="none" stroke="gray" d="M694.679,-786C694.679,-786 811.679,-786 811.679,-786 817.679,-786 823.679,-792 823.679,-798 823.679,-798 823.679,-900 823.679,-900 823.679,-906 817.679,-912 811.679,-912 811.679,-912 694.679,-912 694.679,-912 688.679,-912 682.679,-906 682.679,-900 682.679,-900 682.679,-798 682.679,-798 682.679,-792 688.679,-786 694.679,-786"/>
<text text-anchor="middle" x="753.179" y="-899.2" font-family="Times,serif" font-size="11.00" fill="gray">cirilo</text>
</g>
<g id="clust4" class="cluster"><title>cluster_\acdhOeaw\fedora</title>
<path fill="none" stroke="gray" d="M36,-462C36,-462 806.179,-462 806.179,-462 812.179,-462 818.179,-468 818.179,-474 818.179,-474 818.179,-766 818.179,-766 818.179,-772 812.179,-778 806.179,-778 806.179,-778 36,-778 36,-778 30,-778 24,-772 24,-766 24,-766 24,-474 24,-474 24,-468 30,-462 36,-462"/>
<text text-anchor="middle" x="421.09" y="-765.2" font-family="Times,serif" font-size="11.00" fill="gray">fedora</text>
</g>
<g id="clust5" class="cluster"><title>cluster_\acdhOeaw\fedora\metadataQuery</title>
<path fill="none" stroke="gray" d="M44,-624C44,-624 798.179,-624 798.179,-624 804.179,-624 810.179,-630 810.179,-636 810.179,-636 810.179,-738 810.179,-738 810.179,-744 804.179,-750 798.179,-750 798.179,-750 44,-750 44,-750 38,-750 32,-744 32,-738 32,-738 32,-636 32,-636 32,-630 38,-624 44,-624"/>
<text text-anchor="middle" x="421.09" y="-737.2" font-family="Times,serif" font-size="11.00" fill="gray">metadataQuery</text>
</g>
<g id="clust6" class="cluster"><title>cluster_\acdhOeaw\util</title>
<path fill="none" stroke="gray" d="M711.679,-382C711.679,-382 794.679,-382 794.679,-382 800.679,-382 806.679,-388 806.679,-394 806.679,-394 806.679,-442 806.679,-442 806.679,-448 800.679,-454 794.679,-454 794.679,-454 711.679,-454 711.679,-454 705.679,-454 699.679,-448 699.679,-442 699.679,-442 699.679,-394 699.679,-394 699.679,-388 705.679,-382 711.679,-382"/>
<text text-anchor="middle" x="753.179" y="-441.2" font-family="Times,serif" font-size="11.00" fill="gray">util</text>
</g>
<g id="clust7" class="cluster"><title>cluster_\acdhOeaw\redmine</title>
<path fill="none" stroke="gray" d="M725.179,-194C725.179,-194 781.179,-194 781.179,-194 787.179,-194 793.179,-200 793.179,-206 793.179,-206 793.179,-362 793.179,-362 793.179,-368 787.179,-374 781.179,-374 781.179,-374 725.179,-374 725.179,-374 719.179,-374 713.179,-368 713.179,-362 713.179,-362 713.179,-206 713.179,-206 713.179,-200 719.179,-194 725.179,-194"/>
<text text-anchor="middle" x="753.179" y="-361.2" font-family="Times,serif" font-size="11.00" fill="gray">redmine</text>
</g>
<g id="clust8" class="cluster"><title>cluster_\acdhOeaw\storage</title>
<path fill="none" stroke="gray" d="M721.679,-60C721.679,-60 784.679,-60 784.679,-60 790.679,-60 796.679,-66 796.679,-72 796.679,-72 796.679,-174 796.679,-174 796.679,-180 790.679,-186 784.679,-186 784.679,-186 721.679,-186 721.679,-186 715.679,-186 709.679,-180 709.679,-174 709.679,-174 709.679,-72 709.679,-72 709.679,-66 715.679,-60 721.679,-60"/>
<text text-anchor="middle" x="753.179" y="-173.2" font-family="Times,serif" font-size="11.00" fill="gray">storage</text>
</g>
<!-- \\acdhOeaw\\cirilo\\Service -->
<g id="node1" class="node"><title>\\acdhOeaw\\cirilo\\Service</title>
<polygon fill="none" stroke="black" points="785.179,-884 721.179,-884 721.179,-848 785.179,-848 785.179,-884"/>
<text text-anchor="middle" x="753.179" y="-863.2" font-family="Courier,monospace" font-size="11.00">Service</text>
</g>
<!-- \\acdhOeaw\\cirilo\\ServiceParameter -->
<g id="node2" class="node"><title>\\acdhOeaw\\cirilo\\ServiceParameter</title>
<polygon fill="none" stroke="black" points="815.679,-830 690.679,-830 690.679,-794 815.679,-794 815.679,-830"/>
<text text-anchor="middle" x="753.179" y="-809.2" font-family="Courier,monospace" font-size="11.00">ServiceParameter</text>
</g>
<!-- \\acdhOeaw\\fedora\\metadataQuery\\Query -->
<g id="node3" class="node"><title>\\acdhOeaw\\fedora\\metadataQuery\\Query</title>
<polygon fill="none" stroke="black" points="780.179,-722 726.179,-722 726.179,-686 780.179,-686 780.179,-722"/>
<text text-anchor="middle" x="753.179" y="-701.2" font-family="Courier,monospace" font-size="11.00">Query</text>
</g>
<!-- \\acdhOeaw\\fedora\\metadataQuery\\HasValue -->
<g id="node4" class="node"><title>\\acdhOeaw\\fedora\\metadataQuery\\HasValue</title>
<polygon fill="none" stroke="black" points="537.84,-722 466.84,-722 466.84,-686 537.84,-686 537.84,-722"/>
<text text-anchor="middle" x="502.34" y="-701.2" font-family="Courier,monospace" font-size="11.00">HasValue</text>
</g>
<!-- \\acdhOeaw\\fedora\\metadataQuery\\HasProperty -->
<g id="node7" class="node"><title>\\acdhOeaw\\fedora\\metadataQuery\\HasProperty</title>
<polygon fill="none" stroke="black" points="314,-695 223,-695 223,-659 314,-659 314,-695"/>
<text text-anchor="middle" x="268.5" y="-674.2" font-family="Courier,monospace" font-size="11.00">HasProperty</text>
</g>
<!-- \\acdhOeaw\\fedora\\metadataQuery\\HasValue&#45;&gt;\\acdhOeaw\\fedora\\metadataQuery\\HasProperty -->
<g id="edge1" class="edge"><title>\\acdhOeaw\\fedora\\metadataQuery\\HasValue&#45;&gt;\\acdhOeaw\\fedora\\metadataQuery\\HasProperty</title>
<path fill="none" stroke="black" d="M466.631,-699.958C429.013,-695.577 368.464,-688.525 324.386,-683.392"/>
<polygon fill="none" stroke="black" points="324.742,-679.91 314.404,-682.23 323.932,-686.863 324.742,-679.91"/>
</g>
<!-- \\acdhOeaw\\fedora\\metadataQuery\\QueryParameter -->
<g id="node5" class="node"><title>\\acdhOeaw\\fedora\\metadataQuery\\QueryParameter</title>
<polygon fill="none" stroke="black" points="151,-695 40,-695 40,-659 151,-659 151,-695"/>
<text text-anchor="start" x="61.5" y="-680.2" font-family="Courier,monospace" font-size="11.00">«abstract»</text>
<text text-anchor="start" x="48" y="-668.2" font-family="Courier,monospace" font-size="11.00">QueryParameter</text>
</g>
<!-- \\acdhOeaw\\fedora\\metadataQuery\\MatchesRegEx -->
<g id="node6" class="node"><title>\\acdhOeaw\\fedora\\metadataQuery\\MatchesRegEx</title>
<polygon fill="none" stroke="black" points="802.179,-668 704.179,-668 704.179,-632 802.179,-632 802.179,-668"/>
<text text-anchor="middle" x="753.179" y="-647.2" font-family="Courier,monospace" font-size="11.00">MatchesRegEx</text>
</g>
<!-- \\acdhOeaw\\fedora\\metadataQuery\\MatchesRegEx&#45;&gt;\\acdhOeaw\\fedora\\metadataQuery\\HasValue -->
<g id="edge2" class="edge"><title>\\acdhOeaw\\fedora\\metadataQuery\\MatchesRegEx&#45;&gt;\\acdhOeaw\\fedora\\metadataQuery\\HasValue</title>
<path fill="none" stroke="black" d="M703.906,-660.476C658.668,-670.293 591.61,-684.845 547.691,-694.375"/>
<polygon fill="none" stroke="black" points="546.901,-690.965 537.871,-696.506 548.386,-697.806 546.901,-690.965"/>
</g>
<!-- \\acdhOeaw\\fedora\\metadataQuery\\HasProperty&#45;&gt;\\acdhOeaw\\fedora\\metadataQuery\\QueryParameter -->
<g id="edge3" class="edge"><title>\\acdhOeaw\\fedora\\metadataQuery\\HasProperty&#45;&gt;\\acdhOeaw\\fedora\\metadataQuery\\QueryParameter</title>
<path fill="none" stroke="black" d="M222.572,-677C203.864,-677 181.782,-677 161.369,-677"/>
<polygon fill="none" stroke="black" points="161.19,-673.5 151.19,-677 161.19,-680.5 161.19,-673.5"/>
</g>
<!-- \\acdhOeaw\\fedora\\metadataQuery\\HasTriple -->
<g id="node8" class="node"><title>\\acdhOeaw\\fedora\\metadataQuery\\HasTriple</title>
<polygon fill="none" stroke="black" points="540.84,-668 463.84,-668 463.84,-632 540.84,-632 540.84,-668"/>
<text text-anchor="middle" x="502.34" y="-647.2" font-family="Courier,monospace" font-size="11.00">HasTriple</text>
</g>
<!-- \\acdhOeaw\\fedora\\metadataQuery\\HasTriple&#45;&gt;\\acdhOeaw\\fedora\\metadataQuery\\HasProperty -->
<g id="edge4" class="edge"><title>\\acdhOeaw\\fedora\\metadataQuery\\HasTriple&#45;&gt;\\acdhOeaw\\fedora\\metadataQuery\\HasProperty</title>
<path fill="none" stroke="black" d="M463.833,-654.368C425.986,-658.776 367.144,-665.628 324.119,-670.639"/>
<polygon fill="none" stroke="black" points="323.623,-667.173 314.095,-671.806 324.433,-674.126 323.623,-667.173"/>
</g>
<!-- \\acdhOeaw\\fedora\\Fedora -->
<g id="node9" class="node"><title>\\acdhOeaw\\fedora\\Fedora</title>
<polygon fill="none" stroke="black" points="781.679,-614 724.679,-614 724.679,-578 781.679,-578 781.679,-614"/>
<text text-anchor="middle" x="753.179" y="-593.2" font-family="Courier,monospace" font-size="11.00">Fedora</text>
</g>
<!-- \\acdhOeaw\\fedora\\SparqlClient -->
<g id="node10" class="node"><title>\\acdhOeaw\\fedora\\SparqlClient</title>
<polygon fill="none" stroke="black" points="802.179,-560 704.179,-560 704.179,-524 802.179,-524 802.179,-560"/>
<text text-anchor="middle" x="753.179" y="-539.2" font-family="Courier,monospace" font-size="11.00">SparqlClient</text>
</g>
<!-- \\acdhOeaw\\fedora\\FedoraResource -->
<g id="node11" class="node"><title>\\acdhOeaw\\fedora\\FedoraResource</title>
<polygon fill="none" stroke="black" points="808.679,-506 697.679,-506 697.679,-470 808.679,-470 808.679,-506"/>
<text text-anchor="middle" x="753.179" y="-485.2" font-family="Courier,monospace" font-size="11.00">FedoraResource</text>
</g>
<!-- \\acdhOeaw\\util\\EasyRdfUtil -->
<g id="node12" class="node"><title>\\acdhOeaw\\util\\EasyRdfUtil</title>
<polygon fill="none" stroke="black" points="798.679,-426 707.679,-426 707.679,-390 798.679,-390 798.679,-426"/>
<text text-anchor="middle" x="753.179" y="-405.2" font-family="Courier,monospace" font-size="11.00">EasyRdfUtil</text>
</g>
<!-- \\acdhOeaw\\redmine\\Issue -->
<g id="node13" class="node"><title>\\acdhOeaw\\redmine\\Issue</title>
<polygon fill="none" stroke="black" points="780.179,-346 726.179,-346 726.179,-310 780.179,-310 780.179,-346"/>
<text text-anchor="middle" x="753.179" y="-325.2" font-family="Courier,monospace" font-size="11.00">Issue</text>
</g>
<!-- \\acdhOeaw\\redmine\\Redmine -->
<g id="node18" class="node"><title>\\acdhOeaw\\redmine\\Redmine</title>
<ellipse fill="none" stroke="black" cx="502.34" cy="-18" rx="116.18" ry="18"/>
<text text-anchor="middle" x="502.34" y="-14.3" font-family="Times,serif" font-size="14.00" fill="gray">\acdhOeaw\redmine\Redmine</text>
</g>
<!-- \\acdhOeaw\\redmine\\Issue&#45;&gt;\\acdhOeaw\\redmine\\Redmine -->
<g id="edge5" class="edge"><title>\\acdhOeaw\\redmine\\Issue&#45;&gt;\\acdhOeaw\\redmine\\Redmine</title>
<path fill="none" stroke="black" d="M726.025,-322.099C712.04,-317.956 695.177,-311.278 682.679,-301 594.71,-228.654 536.39,-101.41 513.83,-45.5764"/>
<polygon fill="none" stroke="black" points="516.976,-44.0156 510.035,-36.0115 510.47,-46.5974 516.976,-44.0156"/>
</g>
<!-- \\acdhOeaw\\redmine\\Project -->
<g id="node14" class="node"><title>\\acdhOeaw\\redmine\\Project</title>
<polygon fill="none" stroke="black" points="785.179,-292 721.179,-292 721.179,-256 785.179,-256 785.179,-292"/>
<text text-anchor="middle" x="753.179" y="-271.2" font-family="Courier,monospace" font-size="11.00">Project</text>
</g>
<!-- \\acdhOeaw\\redmine\\Project&#45;&gt;\\acdhOeaw\\redmine\\Redmine -->
<g id="edge6" class="edge"><title>\\acdhOeaw\\redmine\\Project&#45;&gt;\\acdhOeaw\\redmine\\Redmine</title>
<path fill="none" stroke="black" d="M720.956,-265.834C708.291,-261.552 694.009,-255.409 682.679,-247 606.048,-190.125 544.825,-92.4282 518.022,-45.173"/>
<polygon fill="none" stroke="black" points="520.914,-43.174 512.978,-36.1543 514.805,-46.5906 520.914,-43.174"/>
</g>
<!-- \\acdhOeaw\\redmine\\User -->
<g id="node15" class="node"><title>\\acdhOeaw\\redmine\\User</title>
<polygon fill="none" stroke="black" points="780.179,-238 726.179,-238 726.179,-202 780.179,-202 780.179,-238"/>
<text text-anchor="middle" x="753.179" y="-217.2" font-family="Courier,monospace" font-size="11.00">User</text>
</g>
<!-- \\acdhOeaw\\redmine\\User&#45;&gt;\\acdhOeaw\\redmine\\Redmine -->
<g id="edge7" class="edge"><title>\\acdhOeaw\\redmine\\User&#45;&gt;\\acdhOeaw\\redmine\\Redmine</title>
<path fill="none" stroke="black" d="M725.968,-211.234C712.448,-206.096 696.038,-198.867 682.679,-190 618.354,-147.302 556.32,-80.244 524.811,-43.7522"/>
<polygon fill="none" stroke="black" points="527.357,-41.3449 518.197,-36.0208 522.038,-45.8951 527.357,-41.3449"/>
</g>
<!-- \\acdhOeaw\\storage\\Indexer -->
<g id="node16" class="node"><title>\\acdhOeaw\\storage\\Indexer</title>
<polygon fill="none" stroke="black" points="785.179,-158 721.179,-158 721.179,-122 785.179,-122 785.179,-158"/>
<text text-anchor="middle" x="753.179" y="-137.2" font-family="Courier,monospace" font-size="11.00">Indexer</text>
</g>
<!-- \\acdhOeaw\\storage\\Location -->
<g id="node17" class="node"><title>\\acdhOeaw\\storage\\Location</title>
<polygon fill="none" stroke="black" points="788.679,-104 717.679,-104 717.679,-68 788.679,-68 788.679,-104"/>
<text text-anchor="middle" x="753.179" y="-83.2" font-family="Courier,monospace" font-size="11.00">Location</text>
</g>
</g>
</svg>
