<?xml version="1.0" encoding="UTF-8" standalone="no"?>
<!DOCTYPE svg PUBLIC "-//W3C//DTD SVG 1.1//EN"
 "http://www.w3.org/Graphics/SVG/1.1/DTD/svg11.dtd">
<!-- Generated by graphviz version 2.38.0 (20140413.2041)
 -->
<!-- Title: G Pages: 1 -->
<svg width="795pt" height="2340pt"
 viewBox="0.00 0.00 795.00 2340.00" xmlns="http://www.w3.org/2000/svg" xmlns:xlink="http://www.w3.org/1999/xlink">
<g id="graph0" class="graph" transform="scale(1 1) rotate(0) translate(4 2336)">
<title>G</title>
<polygon fill="white" stroke="none" points="-4,4 -4,-2336 791,-2336 791,4 -4,4"/>
<g id="clust1" class="cluster"><title>cluster_Global</title>
<path fill="none" stroke="gray" d="M20,-98C20,-98 767,-98 767,-98 773,-98 779,-104 779,-110 779,-110 779,-2312 779,-2312 779,-2318 773,-2324 767,-2324 767,-2324 20,-2324 20,-2324 14,-2324 8,-2318 8,-2312 8,-2312 8,-110 8,-110 8,-104 14,-98 20,-98"/>
<text text-anchor="middle" x="393.5" y="-2311.2" font-family="Times,serif" font-size="11.00" fill="gray">Global</text>
</g>
<g id="clust2" class="cluster"><title>cluster_\acdhOeaw</title>
<path fill="none" stroke="gray" d="M28,-106C28,-106 759,-106 759,-106 765,-106 771,-112 771,-118 771,-118 771,-2284 771,-2284 771,-2290 765,-2296 759,-2296 759,-2296 28,-2296 28,-2296 22,-2296 16,-2290 16,-2284 16,-2284 16,-118 16,-118 16,-112 22,-106 28,-106"/>
<text text-anchor="middle" x="393.5" y="-2283.2" font-family="Times,serif" font-size="11.00" fill="gray">acdhOeaw</text>
</g>
<g id="clust3" class="cluster"><title>cluster_\acdhOeaw\util</title>
<path fill="none" stroke="gray" d="M382,-1710C382,-1710 751,-1710 751,-1710 757,-1710 763,-1716 763,-1722 763,-1722 763,-2256 763,-2256 763,-2262 757,-2268 751,-2268 751,-2268 382,-2268 382,-2268 376,-2268 370,-2262 370,-2256 370,-2256 370,-1722 370,-1722 370,-1716 376,-1710 382,-1710"/>
<text text-anchor="middle" x="566.5" y="-2255.2" font-family="Times,serif" font-size="11.00" fill="gray">util</text>
</g>
<g id="clust4" class="cluster"><title>cluster_\acdhOeaw\util\metaLookup</title>
<path fill="none" stroke="gray" d="M390,-2114C390,-2114 734,-2114 734,-2114 740,-2114 746,-2120 746,-2126 746,-2126 746,-2228 746,-2228 746,-2234 740,-2240 734,-2240 734,-2240 390,-2240 390,-2240 384,-2240 378,-2234 378,-2228 378,-2228 378,-2126 378,-2126 378,-2120 384,-2114 390,-2114"/>
<text text-anchor="middle" x="562" y="-2227.2" font-family="Times,serif" font-size="11.00" fill="gray">metaLookup</text>
</g>
<g id="clust5" class="cluster"><title>cluster_\acdhOeaw\util\metadataValidator</title>
<path fill="none" stroke="gray" d="M617.5,-1926C617.5,-1926 740.5,-1926 740.5,-1926 746.5,-1926 752.5,-1932 752.5,-1938 752.5,-1938 752.5,-2094 752.5,-2094 752.5,-2100 746.5,-2106 740.5,-2106 740.5,-2106 617.5,-2106 617.5,-2106 611.5,-2106 605.5,-2100 605.5,-2094 605.5,-2094 605.5,-1938 605.5,-1938 605.5,-1932 611.5,-1926 617.5,-1926"/>
<text text-anchor="middle" x="679" y="-2093.2" font-family="Times,serif" font-size="11.00" fill="gray">metadataValidator</text>
</g>
<g id="clust6" class="cluster"><title>cluster_\acdhOeaw\fedora</title>
<path fill="none" stroke="gray" d="M36,-552C36,-552 748.5,-552 748.5,-552 754.5,-552 760.5,-558 760.5,-564 760.5,-564 760.5,-1690 760.5,-1690 760.5,-1696 754.5,-1702 748.5,-1702 748.5,-1702 36,-1702 36,-1702 30,-1702 24,-1696 24,-1690 24,-1690 24,-564 24,-564 24,-558 30,-552 36,-552"/>
<text text-anchor="middle" x="392.25" y="-1689.2" font-family="Times,serif" font-size="11.00" fill="gray">fedora</text>
</g>
<g id="clust7" class="cluster"><title>cluster_\acdhOeaw\fedora\dissemination</title>
<path fill="none" stroke="gray" d="M644.5,-1548C644.5,-1548 713.5,-1548 713.5,-1548 719.5,-1548 725.5,-1554 725.5,-1560 725.5,-1560 725.5,-1662 725.5,-1662 725.5,-1668 719.5,-1674 713.5,-1674 713.5,-1674 644.5,-1674 644.5,-1674 638.5,-1674 632.5,-1668 632.5,-1662 632.5,-1662 632.5,-1560 632.5,-1560 632.5,-1554 638.5,-1548 644.5,-1548"/>
<text text-anchor="middle" x="679" y="-1661.2" font-family="Times,serif" font-size="11.00" fill="gray">dissemination</text>
</g>
<g id="clust8" class="cluster"><title>cluster_\acdhOeaw\fedora\exceptions</title>
<path fill="none" stroke="gray" d="M617.5,-714C617.5,-714 740.5,-714 740.5,-714 746.5,-714 752.5,-720 752.5,-726 752.5,-726 752.5,-1206 752.5,-1206 752.5,-1212 746.5,-1218 740.5,-1218 740.5,-1218 617.5,-1218 617.5,-1218 611.5,-1218 605.5,-1212 605.5,-1206 605.5,-1206 605.5,-726 605.5,-726 605.5,-720 611.5,-714 617.5,-714"/>
<text text-anchor="middle" x="679" y="-1205.2" font-family="Times,serif" font-size="11.00" fill="gray">exceptions</text>
</g>
<g id="clust9" class="cluster"><title>cluster_\acdhOeaw\fedora\acl</title>
<path fill="none" stroke="gray" d="M641,-1414C641,-1414 717,-1414 717,-1414 723,-1414 729,-1420 729,-1426 729,-1426 729,-1528 729,-1528 729,-1534 723,-1540 717,-1540 717,-1540 641,-1540 641,-1540 635,-1540 629,-1534 629,-1528 629,-1528 629,-1426 629,-1426 629,-1420 635,-1414 641,-1414"/>
<text text-anchor="middle" x="679" y="-1527.2" font-family="Times,serif" font-size="11.00" fill="gray">acl</text>
</g>
<g id="clust10" class="cluster"><title>cluster_\acdhOeaw\fedora\metadataQuery</title>
<path fill="none" stroke="gray" d="M44,-1226C44,-1226 724,-1226 724,-1226 730,-1226 736,-1232 736,-1238 736,-1238 736,-1394 736,-1394 736,-1400 730,-1406 724,-1406 724,-1406 44,-1406 44,-1406 38,-1406 32,-1400 32,-1394 32,-1394 32,-1238 32,-1238 32,-1232 38,-1226 44,-1226"/>
<text text-anchor="middle" x="384" y="-1393.2" font-family="Times,serif" font-size="11.00" fill="gray">metadataQuery</text>
</g>
<g id="clust11" class="cluster"><title>cluster_\acdhOeaw\schema</title>
<path fill="none" stroke="gray" d="M230.5,-114C230.5,-114 735,-114 735,-114 741,-114 747,-120 747,-126 747,-126 747,-532 747,-532 747,-538 741,-544 735,-544 735,-544 230.5,-544 230.5,-544 224.5,-544 218.5,-538 218.5,-532 218.5,-532 218.5,-126 218.5,-126 218.5,-120 224.5,-114 230.5,-114"/>
<text text-anchor="middle" x="482.75" y="-531.2" font-family="Times,serif" font-size="11.00" fill="gray">schema</text>
</g>
<g id="clust12" class="cluster"><title>cluster_\acdhOeaw\schema\dissemination</title>
<path fill="none" stroke="gray" d="M430.5,-390C430.5,-390 727,-390 727,-390 733,-390 739,-396 739,-402 739,-402 739,-504 739,-504 739,-510 733,-516 727,-516 727,-516 430.5,-516 430.5,-516 424.5,-516 418.5,-510 418.5,-504 418.5,-504 418.5,-402 418.5,-402 418.5,-396 424.5,-390 430.5,-390"/>
<text text-anchor="middle" x="578.75" y="-503.2" font-family="Times,serif" font-size="11.00" fill="gray">dissemination</text>
</g>
<g id="clust13" class="cluster"><title>cluster_\acdhOeaw\schema\redmine</title>
<path fill="none" stroke="gray" d="M420.5,-202C420.5,-202 707,-202 707,-202 713,-202 719,-208 719,-214 719,-214 719,-370 719,-370 719,-376 713,-382 707,-382 707,-382 420.5,-382 420.5,-382 414.5,-382 408.5,-376 408.5,-370 408.5,-370 408.5,-214 408.5,-214 408.5,-208 414.5,-202 420.5,-202"/>
<text text-anchor="middle" x="563.75" y="-369.2" font-family="Times,serif" font-size="11.00" fill="gray">redmine</text>
</g>
<g id="clust14" class="cluster"><title>cluster_\acdhOeaw\schema\file</title>
<path fill="none" stroke="gray" d="M435.5,-122C435.5,-122 710.5,-122 710.5,-122 716.5,-122 722.5,-128 722.5,-134 722.5,-134 722.5,-182 722.5,-182 722.5,-188 716.5,-194 710.5,-194 710.5,-194 435.5,-194 435.5,-194 429.5,-194 423.5,-188 423.5,-182 423.5,-182 423.5,-134 423.5,-134 423.5,-128 429.5,-122 435.5,-122"/>
<text text-anchor="middle" x="573" y="-181.2" font-family="Times,serif" font-size="11.00" fill="gray">file</text>
</g>
<!-- \\acdhOeaw\\util\\metaLookup\\MetaLookupFile -->
<g id="node1" class="node"><title>\\acdhOeaw\\util\\metaLookup\\MetaLookupFile</title>
<polygon fill="none" stroke="black" points="734.5,-2212 623.5,-2212 623.5,-2176 734.5,-2176 734.5,-2212"/>
<text text-anchor="middle" x="679" y="-2191.2" font-family="Courier,monospace" font-size="11.00">MetaLookupFile</text>
</g>
<!-- \\acdhOeaw\\util\\metaLookup\\MetaLookupInterface -->
<g id="node3" class="node"><title>\\acdhOeaw\\util\\metaLookup\\MetaLookupInterface</title>
<polygon fill="none" stroke="black" points="531,-2185 386,-2185 386,-2149 531,-2149 531,-2185"/>
<text text-anchor="middle" x="458.5" y="-2164.2" font-family="Courier,monospace" font-size="11.00">MetaLookupInterface</text>
</g>
<!-- \\acdhOeaw\\util\\metaLookup\\MetaLookupFile&#45;&gt;\\acdhOeaw\\util\\metaLookup\\MetaLookupInterface -->
<g id="edge6" class="edge"><title>\\acdhOeaw\\util\\metaLookup\\MetaLookupFile&#45;&gt;\\acdhOeaw\\util\\metaLookup\\MetaLookupInterface</title>
<path fill="none" stroke="black" stroke-dasharray="1,5" d="M623.427,-2187.26C598.547,-2184.18 568.57,-2180.48 541.092,-2177.08"/>
<polygon fill="none" stroke="black" points="541.45,-2173.6 531.096,-2175.85 540.591,-2180.55 541.45,-2173.6"/>
</g>
<!-- \\acdhOeaw\\util\\metaLookup\\MetaLookupGraph -->
<g id="node2" class="node"><title>\\acdhOeaw\\util\\metaLookup\\MetaLookupGraph</title>
<polygon fill="none" stroke="black" points="738,-2158 620,-2158 620,-2122 738,-2122 738,-2158"/>
<text text-anchor="middle" x="679" y="-2137.2" font-family="Courier,monospace" font-size="11.00">MetaLookupGraph</text>
</g>
<!-- \\acdhOeaw\\util\\metaLookup\\MetaLookupGraph&#45;&gt;\\acdhOeaw\\util\\metaLookup\\MetaLookupInterface -->
<g id="edge16" class="edge"><title>\\acdhOeaw\\util\\metaLookup\\MetaLookupGraph&#45;&gt;\\acdhOeaw\\util\\metaLookup\\MetaLookupInterface</title>
<path fill="none" stroke="black" stroke-dasharray="1,5" d="M619.733,-2147.2C595.738,-2150.17 567.513,-2153.65 541.492,-2156.87"/>
<polygon fill="none" stroke="black" points="540.756,-2153.43 531.261,-2158.13 541.615,-2160.38 540.756,-2153.43"/>
</g>
<!-- \\acdhOeaw\\util\\metadataValidator\\MetadataValidator -->
<g id="node4" class="node"><title>\\acdhOeaw\\util\\metadataValidator\\MetadataValidator</title>
<polygon fill="none" stroke="black" points="744.5,-2078 613.5,-2078 613.5,-2042 744.5,-2042 744.5,-2078"/>
<text text-anchor="middle" x="679" y="-2057.2" font-family="Courier,monospace" font-size="11.00">MetadataValidator</text>
</g>
<!-- \\acdhOeaw\\util\\metadataValidator\\Error -->
<g id="node5" class="node"><title>\\acdhOeaw\\util\\metadataValidator\\Error</title>
<polygon fill="none" stroke="black" points="706,-2024 652,-2024 652,-1988 706,-1988 706,-2024"/>
<text text-anchor="middle" x="679" y="-2003.2" font-family="Courier,monospace" font-size="11.00">Error</text>
</g>
<!-- \\acdhOeaw\\util\\metadataValidator\\OntologyProperty -->
<g id="node6" class="node"><title>\\acdhOeaw\\util\\metadataValidator\\OntologyProperty</title>
<polygon fill="none" stroke="black" points="741.5,-1970 616.5,-1970 616.5,-1934 741.5,-1934 741.5,-1970"/>
<text text-anchor="middle" x="679" y="-1949.2" font-family="Courier,monospace" font-size="11.00">OntologyProperty</text>
</g>
<!-- \\acdhOeaw\\util\\RepoConfig -->
<g id="node7" class="node"><title>\\acdhOeaw\\util\\RepoConfig</title>
<polygon fill="none" stroke="black" points="721,-1916 637,-1916 637,-1880 721,-1880 721,-1916"/>
<text text-anchor="middle" x="679" y="-1895.2" font-family="Courier,monospace" font-size="11.00">RepoConfig</text>
</g>
<!-- \\acdhOeaw\\util\\Indexer -->
<g id="node8" class="node"><title>\\acdhOeaw\\util\\Indexer</title>
<polygon fill="none" stroke="black" points="711,-1862 647,-1862 647,-1826 711,-1826 711,-1862"/>
<text text-anchor="middle" x="679" y="-1841.2" font-family="Courier,monospace" font-size="11.00">Indexer</text>
</g>
<!-- \\acdhOeaw\\util\\DisseminationService -->
<g id="node9" class="node"><title>\\acdhOeaw\\util\\DisseminationService</title>
<polygon fill="none" stroke="black" points="755,-1808 603,-1808 603,-1772 755,-1772 755,-1808"/>
<text text-anchor="middle" x="679" y="-1787.2" font-family="Courier,monospace" font-size="11.00">DisseminationService</text>
</g>
<!-- \\acdhOeaw\\util\\MetadataCollection -->
<g id="node10" class="node"><title>\\acdhOeaw\\util\\MetadataCollection</title>
<polygon fill="none" stroke="black" points="748,-1754 610,-1754 610,-1718 748,-1718 748,-1754"/>
<text text-anchor="middle" x="679" y="-1733.2" font-family="Courier,monospace" font-size="11.00">MetadataCollection</text>
</g>
<!-- \\EasyRdf\\Graph -->
<g id="node46" class="node"><title>\\EasyRdf\\Graph</title>
<ellipse fill="none" stroke="black" cx="458.5" cy="-72" rx="67.6881" ry="18"/>
<text text-anchor="middle" x="458.5" y="-68.3" font-family="Times,serif" font-size="14.00" fill="gray">\EasyRdf\Graph</text>
</g>
<!-- \\acdhOeaw\\util\\MetadataCollection&#45;&gt;\\EasyRdf\\Graph -->
<g id="edge24" class="edge"><title>\\acdhOeaw\\util\\MetadataCollection&#45;&gt;\\EasyRdf\\Graph</title>
<path fill="none" stroke="black" d="M642.752,-1717.88C627.751,-1708.21 611.73,-1694.8 603,-1678 442.954,-1370.07 704.222,-418.713 531,-118 524.956,-107.508 515.444,-99.017 505.307,-92.3217"/>
<polygon fill="none" stroke="black" points="507.075,-89.3003 496.708,-87.1155 503.45,-95.2885 507.075,-89.3003"/>
</g>
<!-- \\acdhOeaw\\fedora\\dissemination\\Parameter -->
<g id="node11" class="node"><title>\\acdhOeaw\\fedora\\dissemination\\Parameter</title>
<polygon fill="none" stroke="black" points="717.5,-1646 640.5,-1646 640.5,-1610 717.5,-1610 717.5,-1646"/>
<text text-anchor="middle" x="679" y="-1625.2" font-family="Courier,monospace" font-size="11.00">Parameter</text>
</g>
<!-- \\acdhOeaw\\fedora\\FedoraResource -->
<g id="node32" class="node"><title>\\acdhOeaw\\fedora\\FedoraResource</title>
<polygon fill="none" stroke="black" points="514,-1592 403,-1592 403,-1556 514,-1556 514,-1592"/>
<text text-anchor="middle" x="458.5" y="-1571.2" font-family="Courier,monospace" font-size="11.00">FedoraResource</text>
</g>
<!-- \\acdhOeaw\\fedora\\dissemination\\Parameter&#45;&gt;\\acdhOeaw\\fedora\\FedoraResource -->
<g id="edge1" class="edge"><title>\\acdhOeaw\\fedora\\dissemination\\Parameter&#45;&gt;\\acdhOeaw\\fedora\\FedoraResource</title>
<path fill="none" stroke="black" d="M640.439,-1618.72C608.516,-1610.83 561.974,-1599.33 524.088,-1589.96"/>
<polygon fill="none" stroke="black" points="524.703,-1586.51 514.156,-1587.51 523.024,-1593.3 524.703,-1586.51"/>
</g>
<!-- \\acdhOeaw\\fedora\\dissemination\\Service -->
<g id="node12" class="node"><title>\\acdhOeaw\\fedora\\dissemination\\Service</title>
<polygon fill="none" stroke="black" points="711,-1592 647,-1592 647,-1556 711,-1556 711,-1592"/>
<text text-anchor="middle" x="679" y="-1571.2" font-family="Courier,monospace" font-size="11.00">Service</text>
</g>
<!-- \\acdhOeaw\\fedora\\dissemination\\Service&#45;&gt;\\acdhOeaw\\fedora\\FedoraResource -->
<g id="edge26" class="edge"><title>\\acdhOeaw\\fedora\\dissemination\\Service&#45;&gt;\\acdhOeaw\\fedora\\FedoraResource</title>
<path fill="none" stroke="black" d="M646.694,-1574C614.93,-1574 564.822,-1574 524.439,-1574"/>
<polygon fill="none" stroke="black" points="524.399,-1570.5 514.399,-1574 524.399,-1577.5 524.399,-1570.5"/>
</g>
<!-- \\acdhOeaw\\fedora\\exceptions\\ManyAcdhIds -->
<g id="node13" class="node"><title>\\acdhOeaw\\fedora\\exceptions\\ManyAcdhIds</title>
<polygon fill="none" stroke="black" points="724.5,-1028 633.5,-1028 633.5,-992 724.5,-992 724.5,-1028"/>
<text text-anchor="middle" x="679" y="-1007.2" font-family="Courier,monospace" font-size="11.00">ManyAcdhIds</text>
</g>
<!-- \\Exception -->
<g id="node45" class="node"><title>\\Exception</title>
<ellipse fill="none" stroke="black" cx="458.5" cy="-18" rx="48.9926" ry="18"/>
<text text-anchor="middle" x="458.5" y="-14.3" font-family="Times,serif" font-size="14.00" fill="gray">\Exception</text>
</g>
<!-- \\acdhOeaw\\fedora\\exceptions\\ManyAcdhIds&#45;&gt;\\Exception -->
<g id="edge2" class="edge"><title>\\acdhOeaw\\fedora\\exceptions\\ManyAcdhIds&#45;&gt;\\Exception</title>
<path fill="none" stroke="black" d="M633.419,-1003.03C621.802,-999.047 610.463,-992.798 603,-983 476.327,-816.69 656.379,-212.288 531,-45 526.132,-38.505 519.508,-33.5723 512.245,-29.8262"/>
<polygon fill="none" stroke="black" points="513.352,-26.4902 502.788,-25.6874 510.546,-32.903 513.352,-26.4902"/>
</g>
<!-- \\acdhOeaw\\fedora\\exceptions\\Deleted -->
<g id="node14" class="node"><title>\\acdhOeaw\\fedora\\exceptions\\Deleted</title>
<polygon fill="none" stroke="black" points="711,-974 647,-974 647,-938 711,-938 711,-974"/>
<text text-anchor="middle" x="679" y="-953.2" font-family="Courier,monospace" font-size="11.00">Deleted</text>
</g>
<!-- \\acdhOeaw\\fedora\\exceptions\\Deleted&#45;&gt;\\Exception -->
<g id="edge3" class="edge"><title>\\acdhOeaw\\fedora\\exceptions\\Deleted&#45;&gt;\\Exception</title>
<path fill="none" stroke="black" d="M646.681,-952.655C631.063,-949.278 613.345,-942.517 603,-929 483.211,-772.485 649.572,-202.439 531,-45 526.117,-38.5163 519.485,-33.5896 512.219,-29.8459"/>
<polygon fill="none" stroke="black" points="513.324,-26.5093 502.76,-25.7085 510.519,-32.9226 513.324,-26.5093"/>
</g>
<!-- \\acdhOeaw\\fedora\\exceptions\\NoAcdhId -->
<g id="node15" class="node"><title>\\acdhOeaw\\fedora\\exceptions\\NoAcdhId</title>
<polygon fill="none" stroke="black" points="714.5,-920 643.5,-920 643.5,-884 714.5,-884 714.5,-920"/>
<text text-anchor="middle" x="679" y="-899.2" font-family="Courier,monospace" font-size="11.00">NoAcdhId</text>
</g>
<!-- \\acdhOeaw\\fedora\\exceptions\\NoAcdhId&#45;&gt;\\Exception -->
<g id="edge10" class="edge"><title>\\acdhOeaw\\fedora\\exceptions\\NoAcdhId&#45;&gt;\\Exception</title>
<path fill="none" stroke="black" d="M643.253,-897.835C628.546,-894.225 612.621,-887.503 603,-875 490.092,-728.277 642.767,-192.594 531,-45 526.1,-38.5292 519.459,-33.6092 512.189,-29.8683"/>
<polygon fill="none" stroke="black" points="513.293,-26.5309 502.728,-25.7324 510.489,-32.9449 513.293,-26.5309"/>
</g>
<!-- \\acdhOeaw\\fedora\\exceptions\\NotFound -->
<g id="node16" class="node"><title>\\acdhOeaw\\fedora\\exceptions\\NotFound</title>
<polygon fill="none" stroke="black" points="714.5,-866 643.5,-866 643.5,-830 714.5,-830 714.5,-866"/>
<text text-anchor="middle" x="679" y="-845.2" font-family="Courier,monospace" font-size="11.00">NotFound</text>
</g>
<!-- \\acdhOeaw\\fedora\\exceptions\\NotFound&#45;&gt;\\Exception -->
<g id="edge11" class="edge"><title>\\acdhOeaw\\fedora\\exceptions\\NotFound&#45;&gt;\\Exception</title>
<path fill="none" stroke="black" d="M643.288,-843.808C628.588,-840.193 612.659,-833.474 603,-821 390.941,-547.132 740.928,-320.504 531,-45 526.081,-38.5439 519.43,-33.6316 512.156,-29.8938"/>
<polygon fill="none" stroke="black" points="513.257,-26.5556 502.692,-25.7598 510.455,-32.9702 513.257,-26.5556"/>
</g>
<!-- \\acdhOeaw\\fedora\\exceptions\\CacheInconsistent -->
<g id="node17" class="node"><title>\\acdhOeaw\\fedora\\exceptions\\CacheInconsistent</title>
<polygon fill="none" stroke="black" points="744.5,-812 613.5,-812 613.5,-776 744.5,-776 744.5,-812"/>
<text text-anchor="middle" x="679" y="-791.2" font-family="Courier,monospace" font-size="11.00">CacheInconsistent</text>
</g>
<!-- \\acdhOeaw\\fedora\\exceptions\\CacheInconsistent&#45;&gt;\\Exception -->
<g id="edge17" class="edge"><title>\\acdhOeaw\\fedora\\exceptions\\CacheInconsistent&#45;&gt;\\Exception</title>
<path fill="none" stroke="black" d="M613.482,-776.916C609.545,-774.099 605.979,-770.82 603,-767 404.692,-512.702 727.33,-300.829 531,-45 526.058,-38.5609 519.396,-33.6574 512.117,-29.9233"/>
<polygon fill="none" stroke="black" points="513.216,-26.5841 502.651,-25.7913 510.416,-32.9995 513.216,-26.5841"/>
</g>
<!-- \\acdhOeaw\\fedora\\exceptions\\NotInCache -->
<g id="node18" class="node"><title>\\acdhOeaw\\fedora\\exceptions\\NotInCache</title>
<polygon fill="none" stroke="black" points="721,-758 637,-758 637,-722 721,-722 721,-758"/>
<text text-anchor="middle" x="679" y="-737.2" font-family="Courier,monospace" font-size="11.00">NotInCache</text>
</g>
<!-- \\acdhOeaw\\fedora\\exceptions\\NotInCache&#45;&gt;\\Exception -->
<g id="edge19" class="edge"><title>\\acdhOeaw\\fedora\\exceptions\\NotInCache&#45;&gt;\\Exception</title>
<path fill="none" stroke="black" d="M636.91,-736.771C624.251,-733.706 611.439,-728.101 603,-718 410.124,-487.153 714.997,-282.984 531,-45 526.035,-38.5787 519.361,-33.6844 512.077,-29.9542"/>
<polygon fill="none" stroke="black" points="513.173,-26.614 502.608,-25.8244 510.375,-33.0303 513.173,-26.614"/>
</g>
<!-- \\acdhOeaw\\fedora\\exceptions\\AmbiguousMatch -->
<g id="node19" class="node"><title>\\acdhOeaw\\fedora\\exceptions\\AmbiguousMatch</title>
<polygon fill="none" stroke="black" points="734.5,-1190 623.5,-1190 623.5,-1154 734.5,-1154 734.5,-1190"/>
<text text-anchor="middle" x="679" y="-1169.2" font-family="Courier,monospace" font-size="11.00">AmbiguousMatch</text>
</g>
<!-- \\acdhOeaw\\fedora\\exceptions\\AmbiguousMatch&#45;&gt;\\Exception -->
<g id="edge20" class="edge"><title>\\acdhOeaw\\fedora\\exceptions\\AmbiguousMatch&#45;&gt;\\Exception</title>
<path fill="none" stroke="black" d="M623.332,-1160.98C615.449,-1157.14 608.244,-1151.97 603,-1145 455.667,-949.291 676.811,-241.846 531,-45 526.169,-38.4777 519.564,-33.5308 512.309,-29.7788"/>
<polygon fill="none" stroke="black" points="513.42,-26.4444 502.856,-25.6367 510.61,-32.8559 513.42,-26.4444"/>
</g>
<!-- \\acdhOeaw\\fedora\\exceptions\\AlreadyInCache -->
<g id="node20" class="node"><title>\\acdhOeaw\\fedora\\exceptions\\AlreadyInCache</title>
<polygon fill="none" stroke="black" points="734.5,-1136 623.5,-1136 623.5,-1100 734.5,-1100 734.5,-1136"/>
<text text-anchor="middle" x="679" y="-1115.2" font-family="Courier,monospace" font-size="11.00">AlreadyInCache</text>
</g>
<!-- \\acdhOeaw\\fedora\\exceptions\\AlreadyInCache&#45;&gt;\\Exception -->
<g id="edge23" class="edge"><title>\\acdhOeaw\\fedora\\exceptions\\AlreadyInCache&#45;&gt;\\Exception</title>
<path fill="none" stroke="black" d="M623.352,-1106.96C615.466,-1103.12 608.255,-1097.96 603,-1091 462.555,-905.092 669.999,-231.991 531,-45 526.158,-38.4858 519.547,-33.5432 512.29,-29.7929"/>
<polygon fill="none" stroke="black" points="513.4,-26.4581 502.835,-25.6518 510.591,-32.87 513.4,-26.4581"/>
</g>
<!-- \\acdhOeaw\\fedora\\exceptions\\AclException -->
<g id="node21" class="node"><title>\\acdhOeaw\\fedora\\exceptions\\AclException</title>
<polygon fill="none" stroke="black" points="728,-1082 630,-1082 630,-1046 728,-1046 728,-1082"/>
<text text-anchor="middle" x="679" y="-1061.2" font-family="Courier,monospace" font-size="11.00">AclException</text>
</g>
<!-- \\acdhOeaw\\fedora\\exceptions\\AclException&#45;&gt;\\Exception -->
<g id="edge27" class="edge"><title>\\acdhOeaw\\fedora\\exceptions\\AclException&#45;&gt;\\Exception</title>
<path fill="none" stroke="black" d="M629.881,-1055.77C619.523,-1051.77 609.69,-1045.82 603,-1037 469.442,-860.892 663.188,-222.139 531,-45 526.146,-38.4949 519.529,-33.5569 512.269,-29.8086"/>
<polygon fill="none" stroke="black" points="513.377,-26.4733 502.813,-25.6686 510.57,-32.8856 513.377,-26.4733"/>
</g>
<!-- \\acdhOeaw\\fedora\\acl\\WebAclRule -->
<g id="node22" class="node"><title>\\acdhOeaw\\fedora\\acl\\WebAclRule</title>
<polygon fill="none" stroke="black" points="721,-1512 637,-1512 637,-1476 721,-1476 721,-1512"/>
<text text-anchor="middle" x="679" y="-1491.2" font-family="Courier,monospace" font-size="11.00">WebAclRule</text>
</g>
<!-- \\acdhOeaw\\fedora\\acl\\WebAclRule&#45;&gt;\\acdhOeaw\\fedora\\FedoraResource -->
<g id="edge9" class="edge"><title>\\acdhOeaw\\fedora\\acl\\WebAclRule&#45;&gt;\\acdhOeaw\\fedora\\FedoraResource</title>
<path fill="none" stroke="black" d="M636.902,-1509.05C603.539,-1521.26 556.057,-1538.65 518.611,-1552.36"/>
<polygon fill="none" stroke="black" points="517.016,-1549.21 508.829,-1555.94 519.423,-1555.79 517.016,-1549.21"/>
</g>
<!-- \\acdhOeaw\\fedora\\acl\\WebAcl -->
<g id="node23" class="node"><title>\\acdhOeaw\\fedora\\acl\\WebAcl</title>
<polygon fill="none" stroke="black" points="707.5,-1458 650.5,-1458 650.5,-1422 707.5,-1422 707.5,-1458"/>
<text text-anchor="middle" x="679" y="-1437.2" font-family="Courier,monospace" font-size="11.00">WebAcl</text>
</g>
<!-- \\acdhOeaw\\fedora\\metadataQuery\\Query -->
<g id="node24" class="node"><title>\\acdhOeaw\\fedora\\metadataQuery\\Query</title>
<polygon fill="none" stroke="black" points="485.5,-1324 431.5,-1324 431.5,-1288 485.5,-1288 485.5,-1324"/>
<text text-anchor="middle" x="458.5" y="-1303.2" font-family="Courier,monospace" font-size="11.00">Query</text>
</g>
<!-- \\acdhOeaw\\fedora\\metadataQuery\\HasValue -->
<g id="node25" class="node"><title>\\acdhOeaw\\fedora\\metadataQuery\\HasValue</title>
<polygon fill="none" stroke="black" points="494,-1378 423,-1378 423,-1342 494,-1342 494,-1378"/>
<text text-anchor="middle" x="458.5" y="-1357.2" font-family="Courier,monospace" font-size="11.00">HasValue</text>
</g>
<!-- \\acdhOeaw\\fedora\\metadataQuery\\HasProperty -->
<g id="node30" class="node"><title>\\acdhOeaw\\fedora\\metadataQuery\\HasProperty</title>
<polygon fill="none" stroke="black" points="314,-1324 223,-1324 223,-1288 314,-1288 314,-1324"/>
<text text-anchor="middle" x="268.5" y="-1303.2" font-family="Courier,monospace" font-size="11.00">HasProperty</text>
</g>
<!-- \\acdhOeaw\\fedora\\metadataQuery\\HasValue&#45;&gt;\\acdhOeaw\\fedora\\metadataQuery\\HasProperty -->
<g id="edge13" class="edge"><title>\\acdhOeaw\\fedora\\metadataQuery\\HasValue&#45;&gt;\\acdhOeaw\\fedora\\metadataQuery\\HasProperty</title>
<path fill="none" stroke="black" d="M422.579,-1349.97C394.864,-1342.01 355.626,-1330.74 323.815,-1321.6"/>
<polygon fill="none" stroke="black" points="324.78,-1318.24 314.202,-1318.84 322.847,-1324.96 324.78,-1318.24"/>
</g>
<!-- \\acdhOeaw\\fedora\\metadataQuery\\QueryParameter -->
<g id="node26" class="node"><title>\\acdhOeaw\\fedora\\metadataQuery\\QueryParameter</title>
<polygon fill="none" stroke="black" points="151,-1324 40,-1324 40,-1288 151,-1288 151,-1324"/>
<text text-anchor="start" x="61.5" y="-1309.2" font-family="Courier,monospace" font-size="11.00">«abstract»</text>
<text text-anchor="start" x="48" y="-1297.2" font-family="Courier,monospace" font-size="11.00">QueryParameter</text>
</g>
<!-- \\acdhOeaw\\fedora\\metadataQuery\\MatchesRegEx -->
<g id="node27" class="node"><title>\\acdhOeaw\\fedora\\metadataQuery\\MatchesRegEx</title>
<polygon fill="none" stroke="black" points="728,-1378 630,-1378 630,-1342 728,-1342 728,-1378"/>
<text text-anchor="middle" x="679" y="-1357.2" font-family="Courier,monospace" font-size="11.00">MatchesRegEx</text>
</g>
<!-- \\acdhOeaw\\fedora\\metadataQuery\\MatchesRegEx&#45;&gt;\\acdhOeaw\\fedora\\metadataQuery\\HasValue -->
<g id="edge18" class="edge"><title>\\acdhOeaw\\fedora\\metadataQuery\\MatchesRegEx&#45;&gt;\\acdhOeaw\\fedora\\metadataQuery\\HasValue</title>
<path fill="none" stroke="black" d="M629.779,-1360C592.375,-1360 540.919,-1360 504.387,-1360"/>
<polygon fill="none" stroke="black" points="504.032,-1356.5 494.032,-1360 504.032,-1363.5 504.032,-1356.5"/>
</g>
<!-- \\acdhOeaw\\fedora\\metadataQuery\\SimpleQuery -->
<g id="node28" class="node"><title>\\acdhOeaw\\fedora\\metadataQuery\\SimpleQuery</title>
<polygon fill="none" stroke="black" points="724.5,-1324 633.5,-1324 633.5,-1288 724.5,-1288 724.5,-1324"/>
<text text-anchor="middle" x="679" y="-1303.2" font-family="Courier,monospace" font-size="11.00">SimpleQuery</text>
</g>
<!-- \\acdhOeaw\\fedora\\metadataQuery\\SimpleQuery&#45;&gt;\\acdhOeaw\\fedora\\metadataQuery\\Query -->
<g id="edge22" class="edge"><title>\\acdhOeaw\\fedora\\metadataQuery\\SimpleQuery&#45;&gt;\\acdhOeaw\\fedora\\metadataQuery\\Query</title>
<path fill="none" stroke="black" d="M633.256,-1306C592.628,-1306 533.457,-1306 495.724,-1306"/>
<polygon fill="none" stroke="black" points="495.683,-1302.5 485.683,-1306 495.683,-1309.5 495.683,-1302.5"/>
</g>
<!-- \\acdhOeaw\\fedora\\metadataQuery\\HasTriple -->
<g id="node29" class="node"><title>\\acdhOeaw\\fedora\\metadataQuery\\HasTriple</title>
<polygon fill="none" stroke="black" points="497,-1270 420,-1270 420,-1234 497,-1234 497,-1270"/>
<text text-anchor="middle" x="458.5" y="-1249.2" font-family="Courier,monospace" font-size="11.00">HasTriple</text>
</g>
<!-- \\acdhOeaw\\fedora\\metadataQuery\\HasTriple&#45;&gt;\\acdhOeaw\\fedora\\metadataQuery\\HasProperty -->
<g id="edge25" class="edge"><title>\\acdhOeaw\\fedora\\metadataQuery\\HasTriple&#45;&gt;\\acdhOeaw\\fedora\\metadataQuery\\HasProperty</title>
<path fill="none" stroke="black" d="M419.907,-1262.8C392.447,-1270.69 354.796,-1281.5 324.034,-1290.34"/>
<polygon fill="none" stroke="black" points="322.956,-1287 314.31,-1293.13 324.888,-1293.73 322.956,-1287"/>
</g>
<!-- \\acdhOeaw\\fedora\\metadataQuery\\HasProperty&#45;&gt;\\acdhOeaw\\fedora\\metadataQuery\\QueryParameter -->
<g id="edge28" class="edge"><title>\\acdhOeaw\\fedora\\metadataQuery\\HasProperty&#45;&gt;\\acdhOeaw\\fedora\\metadataQuery\\QueryParameter</title>
<path fill="none" stroke="black" d="M222.572,-1306C203.864,-1306 181.782,-1306 161.369,-1306"/>
<polygon fill="none" stroke="black" points="161.19,-1302.5 151.19,-1306 161.19,-1309.5 161.19,-1302.5"/>
</g>
<!-- \\acdhOeaw\\fedora\\Fedora -->
<g id="node31" class="node"><title>\\acdhOeaw\\fedora\\Fedora</title>
<polygon fill="none" stroke="black" points="707.5,-704 650.5,-704 650.5,-668 707.5,-668 707.5,-704"/>
<text text-anchor="middle" x="679" y="-683.2" font-family="Courier,monospace" font-size="11.00">Fedora</text>
</g>
<!-- \\acdhOeaw\\fedora\\SparqlClient -->
<g id="node33" class="node"><title>\\acdhOeaw\\fedora\\SparqlClient</title>
<polygon fill="none" stroke="black" points="728,-650 630,-650 630,-614 728,-614 728,-650"/>
<text text-anchor="middle" x="679" y="-629.2" font-family="Courier,monospace" font-size="11.00">SparqlClient</text>
</g>
<!-- \\acdhOeaw\\fedora\\FedoraCache -->
<g id="node34" class="node"><title>\\acdhOeaw\\fedora\\FedoraCache</title>
<polygon fill="none" stroke="black" points="724.5,-596 633.5,-596 633.5,-560 724.5,-560 724.5,-596"/>
<text text-anchor="middle" x="679" y="-575.2" font-family="Courier,monospace" font-size="11.00">FedoraCache</text>
</g>
<!-- \\acdhOeaw\\schema\\dissemination\\Parameter -->
<g id="node35" class="node"><title>\\acdhOeaw\\schema\\dissemination\\Parameter</title>
<polygon fill="none" stroke="black" points="717.5,-488 640.5,-488 640.5,-452 717.5,-452 717.5,-488"/>
<text text-anchor="middle" x="679" y="-467.2" font-family="Courier,monospace" font-size="11.00">Parameter</text>
</g>
<!-- \\acdhOeaw\\schema\\Object -->
<g id="node44" class="node"><title>\\acdhOeaw\\schema\\Object</title>
<polygon fill="none" stroke="black" points="310.5,-380 226.5,-380 226.5,-344 310.5,-344 310.5,-380"/>
<text text-anchor="start" x="234.5" y="-365.2" font-family="Courier,monospace" font-size="11.00">«abstract»</text>
<text text-anchor="start" x="248" y="-353.2" font-family="Courier,monospace" font-size="11.00">Object</text>
</g>
<!-- \\acdhOeaw\\schema\\dissemination\\Parameter&#45;&gt;\\acdhOeaw\\schema\\Object -->
<g id="edge4" class="edge"><title>\\acdhOeaw\\schema\\dissemination\\Parameter&#45;&gt;\\acdhOeaw\\schema\\Object</title>
<path fill="none" stroke="black" d="M640.355,-473.551C580.646,-477.705 461.614,-479.901 370,-443 339.721,-430.804 311.362,-406.263 292.54,-387.373"/>
<polygon fill="none" stroke="black" points="295.045,-384.928 285.567,-380.192 290.023,-389.804 295.045,-384.928"/>
</g>
<!-- \\acdhOeaw\\schema\\dissemination\\CiriloService -->
<g id="node36" class="node"><title>\\acdhOeaw\\schema\\dissemination\\CiriloService</title>
<polygon fill="none" stroke="black" points="731,-434 627,-434 627,-398 731,-398 731,-434"/>
<text text-anchor="middle" x="679" y="-413.2" font-family="Courier,monospace" font-size="11.00">CiriloService</text>
</g>
<!-- \\acdhOeaw\\schema\\dissemination\\Service -->
<g id="node37" class="node"><title>\\acdhOeaw\\schema\\dissemination\\Service</title>
<polygon fill="none" stroke="black" points="490.5,-434 426.5,-434 426.5,-398 490.5,-398 490.5,-434"/>
<text text-anchor="middle" x="458.5" y="-413.2" font-family="Courier,monospace" font-size="11.00">Service</text>
</g>
<!-- \\acdhOeaw\\schema\\dissemination\\CiriloService&#45;&gt;\\acdhOeaw\\schema\\dissemination\\Service -->
<g id="edge7" class="edge"><title>\\acdhOeaw\\schema\\dissemination\\CiriloService&#45;&gt;\\acdhOeaw\\schema\\dissemination\\Service</title>
<path fill="none" stroke="black" d="M626.771,-416C588.312,-416 536.338,-416 500.585,-416"/>
<polygon fill="none" stroke="black" points="500.5,-412.5 490.5,-416 500.5,-419.5 500.5,-412.5"/>
</g>
<!-- \\acdhOeaw\\schema\\dissemination\\Service&#45;&gt;\\acdhOeaw\\schema\\Object -->
<g id="edge21" class="edge"><title>\\acdhOeaw\\schema\\dissemination\\Service&#45;&gt;\\acdhOeaw\\schema\\Object</title>
<path fill="none" stroke="black" d="M426.456,-407.083C397.694,-398.822 354.38,-386.381 320.535,-376.659"/>
<polygon fill="none" stroke="black" points="321.39,-373.263 310.812,-373.866 319.457,-379.991 321.39,-373.263"/>
</g>
<!-- \\acdhOeaw\\schema\\redmine\\Redmine -->
<g id="node38" class="node"><title>\\acdhOeaw\\schema\\redmine\\Redmine</title>
<polygon fill="none" stroke="black" points="500.5,-327 416.5,-327 416.5,-291 500.5,-291 500.5,-327"/>
<text text-anchor="start" x="424.5" y="-312.2" font-family="Courier,monospace" font-size="11.00">«abstract»</text>
<text text-anchor="start" x="434.5" y="-300.2" font-family="Courier,monospace" font-size="11.00">Redmine</text>
</g>
<!-- \\acdhOeaw\\schema\\redmine\\Redmine&#45;&gt;\\acdhOeaw\\schema\\Object -->
<g id="edge5" class="edge"><title>\\acdhOeaw\\schema\\redmine\\Redmine&#45;&gt;\\acdhOeaw\\schema\\Object</title>
<path fill="none" stroke="black" d="M416.243,-320.631C388.081,-328.57 350.581,-339.142 320.539,-347.611"/>
<polygon fill="none" stroke="black" points="319.336,-344.314 310.661,-350.396 321.236,-351.051 319.336,-344.314"/>
</g>
<!-- \\acdhOeaw\\schema\\redmine\\Issue -->
<g id="node39" class="node"><title>\\acdhOeaw\\schema\\redmine\\Issue</title>
<polygon fill="none" stroke="black" points="706,-354 652,-354 652,-318 706,-318 706,-354"/>
<text text-anchor="middle" x="679" y="-333.2" font-family="Courier,monospace" font-size="11.00">Issue</text>
</g>
<!-- \\acdhOeaw\\schema\\redmine\\Issue&#45;&gt;\\acdhOeaw\\schema\\redmine\\Redmine -->
<g id="edge8" class="edge"><title>\\acdhOeaw\\schema\\redmine\\Issue&#45;&gt;\\acdhOeaw\\schema\\redmine\\Redmine</title>
<path fill="none" stroke="black" d="M651.644,-332.743C616.894,-328.449 555.001,-320.801 510.85,-315.345"/>
<polygon fill="none" stroke="black" points="511.231,-311.866 500.877,-314.113 510.372,-318.813 511.231,-311.866"/>
</g>
<!-- \\acdhOeaw\\schema\\redmine\\Project -->
<g id="node40" class="node"><title>\\acdhOeaw\\schema\\redmine\\Project</title>
<polygon fill="none" stroke="black" points="711,-300 647,-300 647,-264 711,-264 711,-300"/>
<text text-anchor="middle" x="679" y="-279.2" font-family="Courier,monospace" font-size="11.00">Project</text>
</g>
<!-- \\acdhOeaw\\schema\\redmine\\Project&#45;&gt;\\acdhOeaw\\schema\\redmine\\Redmine -->
<g id="edge14" class="edge"><title>\\acdhOeaw\\schema\\redmine\\Project&#45;&gt;\\acdhOeaw\\schema\\redmine\\Redmine</title>
<path fill="none" stroke="black" d="M646.694,-285.868C611.265,-290.246 553.015,-297.444 510.893,-302.649"/>
<polygon fill="none" stroke="black" points="510.32,-299.193 500.825,-303.893 511.179,-306.141 510.32,-299.193"/>
</g>
<!-- \\acdhOeaw\\schema\\redmine\\User -->
<g id="node41" class="node"><title>\\acdhOeaw\\schema\\redmine\\User</title>
<polygon fill="none" stroke="black" points="706,-246 652,-246 652,-210 706,-210 706,-246"/>
<text text-anchor="middle" x="679" y="-225.2" font-family="Courier,monospace" font-size="11.00">User</text>
</g>
<!-- \\acdhOeaw\\schema\\redmine\\User&#45;&gt;\\acdhOeaw\\schema\\redmine\\Redmine -->
<g id="edge29" class="edge"><title>\\acdhOeaw\\schema\\redmine\\User&#45;&gt;\\acdhOeaw\\schema\\redmine\\Redmine</title>
<path fill="none" stroke="black" d="M651.934,-237.28C637.495,-242.447 619.234,-249.024 603,-255 572.052,-266.393 537.449,-279.406 509.978,-289.803"/>
<polygon fill="none" stroke="black" points="508.688,-286.549 500.576,-293.364 511.167,-293.095 508.688,-286.549"/>
</g>
<!-- \\acdhOeaw\\schema\\file\\CmdiFile -->
<g id="node42" class="node"><title>\\acdhOeaw\\schema\\file\\CmdiFile</title>
<polygon fill="none" stroke="black" points="714.5,-166 643.5,-166 643.5,-130 714.5,-130 714.5,-166"/>
<text text-anchor="middle" x="679" y="-145.2" font-family="Courier,monospace" font-size="11.00">CmdiFile</text>
</g>
<!-- \\acdhOeaw\\schema\\file\\File -->
<g id="node43" class="node"><title>\\acdhOeaw\\schema\\file\\File</title>
<polygon fill="none" stroke="black" points="485.5,-166 431.5,-166 431.5,-130 485.5,-130 485.5,-166"/>
<text text-anchor="middle" x="458.5" y="-145.2" font-family="Courier,monospace" font-size="11.00">File</text>
</g>
<!-- \\acdhOeaw\\schema\\file\\CmdiFile&#45;&gt;\\acdhOeaw\\schema\\file\\File -->
<g id="edge12" class="edge"><title>\\acdhOeaw\\schema\\file\\CmdiFile&#45;&gt;\\acdhOeaw\\schema\\file\\File</title>
<path fill="none" stroke="black" d="M643.378,-148C603.084,-148 536.846,-148 495.834,-148"/>
<polygon fill="none" stroke="black" points="495.731,-144.5 485.731,-148 495.731,-151.5 495.731,-144.5"/>
</g>
<!-- \\acdhOeaw\\schema\\file\\File&#45;&gt;\\acdhOeaw\\schema\\Object -->
<g id="edge15" class="edge"><title>\\acdhOeaw\\schema\\file\\File&#45;&gt;\\acdhOeaw\\schema\\Object</title>
<path fill="none" stroke="black" d="M431.113,-158.807C412.455,-167.401 387.709,-180.825 370,-198 328.259,-238.482 296.804,-299.769 280.955,-334.829"/>
<polygon fill="none" stroke="black" points="277.75,-333.422 276.902,-343.983 284.151,-336.256 277.75,-333.422"/>
</g>
</g>
</svg>
