<?xml version="1.0" encoding="UTF-8" standalone="no"?>
<!DOCTYPE svg PUBLIC "-//W3C//DTD SVG 1.1//EN"
 "http://www.w3.org/Graphics/SVG/1.1/DTD/svg11.dtd">
<!-- Generated by graphviz version 2.38.0 (20140413.2041)
 -->
<!-- Title: G Pages: 1 -->
<svg width="456pt" height="624pt"
 viewBox="0.00 0.00 455.68 624.00" xmlns="http://www.w3.org/2000/svg" xmlns:xlink="http://www.w3.org/1999/xlink">
<g id="graph0" class="graph" transform="scale(1 1) rotate(0) translate(4 620)">
<title>G</title>
<polygon fill="white" stroke="none" points="-4,4 -4,-620 451.679,-620 451.679,4 -4,4"/>
<g id="clust1" class="cluster"><title>cluster_Global</title>
<path fill="none" stroke="gray" d="M292.679,-8C292.679,-8 427.679,-8 427.679,-8 433.679,-8 439.679,-14 439.679,-20 439.679,-20 439.679,-596 439.679,-596 439.679,-602 433.679,-608 427.679,-608 427.679,-608 292.679,-608 292.679,-608 286.679,-608 280.679,-602 280.679,-596 280.679,-596 280.679,-20 280.679,-20 280.679,-14 286.679,-8 292.679,-8"/>
<text text-anchor="middle" x="360.179" y="-595.2" font-family="Times,serif" font-size="11.00" fill="gray">Global</text>
</g>
<g id="clust2" class="cluster"><title>cluster_\acdhOeaw</title>
<path fill="none" stroke="gray" d="M300.679,-16C300.679,-16 419.679,-16 419.679,-16 425.679,-16 431.679,-22 431.679,-28 431.679,-28 431.679,-568 431.679,-568 431.679,-574 425.679,-580 419.679,-580 419.679,-580 300.679,-580 300.679,-580 294.679,-580 288.679,-574 288.679,-568 288.679,-568 288.679,-28 288.679,-28 288.679,-22 294.679,-16 300.679,-16"/>
<text text-anchor="middle" x="360.179" y="-567.2" font-family="Times,serif" font-size="11.00" fill="gray">acdhOeaw</text>
</g>
<g id="clust3" class="cluster"><title>cluster_\acdhOeaw\redmine</title>
<path fill="none" stroke="gray" d="M332.179,-372C332.179,-372 388.179,-372 388.179,-372 394.179,-372 400.179,-378 400.179,-384 400.179,-384 400.179,-540 400.179,-540 400.179,-546 394.179,-552 388.179,-552 388.179,-552 332.179,-552 332.179,-552 326.179,-552 320.179,-546 320.179,-540 320.179,-540 320.179,-384 320.179,-384 320.179,-378 326.179,-372 332.179,-372"/>
<text text-anchor="middle" x="360.179" y="-539.2" font-family="Times,serif" font-size="11.00" fill="gray">redmine</text>
</g>
<g id="clust4" class="cluster"><title>cluster_\acdhOeaw\fedora</title>
<path fill="none" stroke="gray" d="M308.679,-238C308.679,-238 411.679,-238 411.679,-238 417.679,-238 423.679,-244 423.679,-250 423.679,-250 423.679,-352 423.679,-352 423.679,-358 417.679,-364 411.679,-364 411.679,-364 308.679,-364 308.679,-364 302.679,-364 296.679,-358 296.679,-352 296.679,-352 296.679,-250 296.679,-250 296.679,-244 302.679,-238 308.679,-238"/>
<text text-anchor="middle" x="360.179" y="-351.2" font-family="Times,serif" font-size="11.00" fill="gray">fedora</text>
</g>
<g id="clust5" class="cluster"><title>cluster_\acdhOeaw\util</title>
<path fill="none" stroke="gray" d="M318.679,-158C318.679,-158 401.679,-158 401.679,-158 407.679,-158 413.679,-164 413.679,-170 413.679,-170 413.679,-218 413.679,-218 413.679,-224 407.679,-230 401.679,-230 401.679,-230 318.679,-230 318.679,-230 312.679,-230 306.679,-224 306.679,-218 306.679,-218 306.679,-170 306.679,-170 306.679,-164 312.679,-158 318.679,-158"/>
<text text-anchor="middle" x="360.179" y="-217.2" font-family="Times,serif" font-size="11.00" fill="gray">util</text>
</g>
<g id="clust6" class="cluster"><title>cluster_\acdhOeaw\storage</title>
<path fill="none" stroke="gray" d="M328.679,-24C328.679,-24 391.679,-24 391.679,-24 397.679,-24 403.679,-30 403.679,-36 403.679,-36 403.679,-138 403.679,-138 403.679,-144 397.679,-150 391.679,-150 391.679,-150 328.679,-150 328.679,-150 322.679,-150 316.679,-144 316.679,-138 316.679,-138 316.679,-36 316.679,-36 316.679,-30 322.679,-24 328.679,-24"/>
<text text-anchor="middle" x="360.179" y="-137.2" font-family="Times,serif" font-size="11.00" fill="gray">storage</text>
</g>
<!-- \\acdhOeaw\\redmine\\Issue -->
<g id="node1" class="node"><title>\\acdhOeaw\\redmine\\Issue</title>
<polygon fill="none" stroke="black" points="387.179,-524 333.179,-524 333.179,-488 387.179,-488 387.179,-524"/>
<text text-anchor="middle" x="360.179" y="-503.2" font-family="Courier,monospace" font-size="11.00">Issue</text>
</g>
<!-- \\acdhOeaw\\redmine\\Redmine -->
<g id="node9" class="node"><title>\\acdhOeaw\\redmine\\Redmine</title>
<ellipse fill="none" stroke="black" cx="116.34" cy="-452" rx="116.18" ry="18"/>
<text text-anchor="middle" x="116.34" y="-448.3" font-family="Times,serif" font-size="14.00" fill="gray">\acdhOeaw\redmine\Redmine</text>
</g>
<!-- \\acdhOeaw\\redmine\\Issue&#45;&gt;\\acdhOeaw\\redmine\\Redmine -->
<g id="edge1" class="edge"><title>\\acdhOeaw\\redmine\\Issue&#45;&gt;\\acdhOeaw\\redmine\\Redmine</title>
<path fill="none" stroke="black" d="M332.838,-500.118C299.636,-492.705 241.143,-479.644 193.468,-468.998"/>
<polygon fill="none" stroke="black" points="193.994,-465.53 183.472,-466.766 192.468,-472.362 193.994,-465.53"/>
</g>
<!-- \\acdhOeaw\\redmine\\User -->
<g id="node2" class="node"><title>\\acdhOeaw\\redmine\\User</title>
<polygon fill="none" stroke="black" points="387.179,-470 333.179,-470 333.179,-434 387.179,-434 387.179,-470"/>
<text text-anchor="middle" x="360.179" y="-449.2" font-family="Courier,monospace" font-size="11.00">User</text>
</g>
<!-- \\acdhOeaw\\redmine\\User&#45;&gt;\\acdhOeaw\\redmine\\Redmine -->
<g id="edge2" class="edge"><title>\\acdhOeaw\\redmine\\User&#45;&gt;\\acdhOeaw\\redmine\\Redmine</title>
<path fill="none" stroke="black" d="M332.838,-452C310.609,-452 277.044,-452 242.978,-452"/>
<polygon fill="none" stroke="black" points="242.886,-448.5 232.886,-452 242.886,-455.5 242.886,-448.5"/>
</g>
<!-- \\acdhOeaw\\redmine\\Project -->
<g id="node3" class="node"><title>\\acdhOeaw\\redmine\\Project</title>
<polygon fill="none" stroke="black" points="392.179,-416 328.179,-416 328.179,-380 392.179,-380 392.179,-416"/>
<text text-anchor="middle" x="360.179" y="-395.2" font-family="Courier,monospace" font-size="11.00">Project</text>
</g>
<!-- \\acdhOeaw\\redmine\\Project&#45;&gt;\\acdhOeaw\\redmine\\Redmine -->
<g id="edge3" class="edge"><title>\\acdhOeaw\\redmine\\Project&#45;&gt;\\acdhOeaw\\redmine\\Redmine</title>
<path fill="none" stroke="black" d="M328.058,-404.949C294.185,-412.512 238.775,-424.885 193.275,-435.044"/>
<polygon fill="none" stroke="black" points="192.429,-431.647 183.432,-437.242 193.955,-438.479 192.429,-431.647"/>
</g>
<!-- \\acdhOeaw\\fedora\\Fedora -->
<g id="node4" class="node"><title>\\acdhOeaw\\fedora\\Fedora</title>
<polygon fill="none" stroke="black" points="388.679,-336 331.679,-336 331.679,-300 388.679,-300 388.679,-336"/>
<text text-anchor="middle" x="360.179" y="-315.2" font-family="Courier,monospace" font-size="11.00">Fedora</text>
</g>
<!-- \\acdhOeaw\\fedora\\FedoraResource -->
<g id="node5" class="node"><title>\\acdhOeaw\\fedora\\FedoraResource</title>
<polygon fill="none" stroke="black" points="415.679,-282 304.679,-282 304.679,-246 415.679,-246 415.679,-282"/>
<text text-anchor="middle" x="360.179" y="-261.2" font-family="Courier,monospace" font-size="11.00">FedoraResource</text>
</g>
<!-- \\acdhOeaw\\util\\EasyRdfUtil -->
<g id="node6" class="node"><title>\\acdhOeaw\\util\\EasyRdfUtil</title>
<polygon fill="none" stroke="black" points="405.679,-202 314.679,-202 314.679,-166 405.679,-166 405.679,-202"/>
<text text-anchor="middle" x="360.179" y="-181.2" font-family="Courier,monospace" font-size="11.00">EasyRdfUtil</text>
</g>
<!-- \\acdhOeaw\\storage\\Location -->
<g id="node7" class="node"><title>\\acdhOeaw\\storage\\Location</title>
<polygon fill="none" stroke="black" points="395.679,-122 324.679,-122 324.679,-86 395.679,-86 395.679,-122"/>
<text text-anchor="middle" x="360.179" y="-101.2" font-family="Courier,monospace" font-size="11.00">Location</text>
</g>
<!-- \\acdhOeaw\\storage\\Indexer -->
<g id="node8" class="node"><title>\\acdhOeaw\\storage\\Indexer</title>
<polygon fill="none" stroke="black" points="392.179,-68 328.179,-68 328.179,-32 392.179,-32 392.179,-68"/>
<text text-anchor="middle" x="360.179" y="-47.2" font-family="Courier,monospace" font-size="11.00">Indexer</text>
</g>
</g>
</svg>
