<?xml version="1.0" encoding="UTF-8" standalone="no"?>
<!DOCTYPE svg PUBLIC "-//W3C//DTD SVG 1.1//EN"
 "http://www.w3.org/Graphics/SVG/1.1/DTD/svg11.dtd">
<!-- Generated by graphviz version 2.38.0 (20140413.2041)
 -->
<!-- Title: G Pages: 1 -->
<svg width="856pt" height="984pt"
 viewBox="0.00 0.00 855.68 984.00" xmlns="http://www.w3.org/2000/svg" xmlns:xlink="http://www.w3.org/1999/xlink">
<g id="graph0" class="graph" transform="scale(1 1) rotate(0) translate(4 980)">
<title>G</title>
<polygon fill="white" stroke="none" points="-4,4 -4,-980 851.679,-980 851.679,4 -4,4"/>
<g id="clust1" class="cluster"><title>cluster_Global</title>
<path fill="none" stroke="gray" d="M20,-44C20,-44 827.679,-44 827.679,-44 833.679,-44 839.679,-50 839.679,-56 839.679,-56 839.679,-956 839.679,-956 839.679,-962 833.679,-968 827.679,-968 827.679,-968 20,-968 20,-968 14,-968 8,-962 8,-956 8,-956 8,-56 8,-56 8,-50 14,-44 20,-44"/>
<text text-anchor="middle" x="423.84" y="-955.2" font-family="Times,serif" font-size="11.00" fill="gray">Global</text>
</g>
<g id="clust2" class="cluster"><title>cluster_\acdhOeaw</title>
<path fill="none" stroke="gray" d="M28,-52C28,-52 819.679,-52 819.679,-52 825.679,-52 831.679,-58 831.679,-64 831.679,-64 831.679,-928 831.679,-928 831.679,-934 825.679,-940 819.679,-940 819.679,-940 28,-940 28,-940 22,-940 16,-934 16,-928 16,-928 16,-64 16,-64 16,-58 22,-52 28,-52"/>
<text text-anchor="middle" x="423.84" y="-927.2" font-family="Times,serif" font-size="11.00" fill="gray">acdhOeaw</text>
</g>
<g id="clust3" class="cluster"><title>cluster_\acdhOeaw\redmine</title>
<path fill="none" stroke="gray" d="M725.179,-732C725.179,-732 781.179,-732 781.179,-732 787.179,-732 793.179,-738 793.179,-744 793.179,-744 793.179,-900 793.179,-900 793.179,-906 787.179,-912 781.179,-912 781.179,-912 725.179,-912 725.179,-912 719.179,-912 713.179,-906 713.179,-900 713.179,-900 713.179,-744 713.179,-744 713.179,-738 719.179,-732 725.179,-732"/>
<text text-anchor="middle" x="753.179" y="-899.2" font-family="Times,serif" font-size="11.00" fill="gray">redmine</text>
</g>
<g id="clust4" class="cluster"><title>cluster_\acdhOeaw\cirilo</title>
<path fill="none" stroke="gray" d="M694.679,-598C694.679,-598 811.679,-598 811.679,-598 817.679,-598 823.679,-604 823.679,-610 823.679,-610 823.679,-712 823.679,-712 823.679,-718 817.679,-724 811.679,-724 811.679,-724 694.679,-724 694.679,-724 688.679,-724 682.679,-718 682.679,-712 682.679,-712 682.679,-610 682.679,-610 682.679,-604 688.679,-598 694.679,-598"/>
<text text-anchor="middle" x="753.179" y="-711.2" font-family="Times,serif" font-size="11.00" fill="gray">cirilo</text>
</g>
<g id="clust5" class="cluster"><title>cluster_\acdhOeaw\fedora</title>
<path fill="none" stroke="gray" d="M36,-274C36,-274 806.179,-274 806.179,-274 812.179,-274 818.179,-280 818.179,-286 818.179,-286 818.179,-578 818.179,-578 818.179,-584 812.179,-590 806.179,-590 806.179,-590 36,-590 36,-590 30,-590 24,-584 24,-578 24,-578 24,-286 24,-286 24,-280 30,-274 36,-274"/>
<text text-anchor="middle" x="421.09" y="-577.2" font-family="Times,serif" font-size="11.00" fill="gray">fedora</text>
</g>
<g id="clust6" class="cluster"><title>cluster_\acdhOeaw\fedora\metadataQuery</title>
<path fill="none" stroke="gray" d="M44,-436C44,-436 798.179,-436 798.179,-436 804.179,-436 810.179,-442 810.179,-448 810.179,-448 810.179,-550 810.179,-550 810.179,-556 804.179,-562 798.179,-562 798.179,-562 44,-562 44,-562 38,-562 32,-556 32,-550 32,-550 32,-448 32,-448 32,-442 38,-436 44,-436"/>
<text text-anchor="middle" x="421.09" y="-549.2" font-family="Times,serif" font-size="11.00" fill="gray">metadataQuery</text>
</g>
<g id="clust7" class="cluster"><title>cluster_\acdhOeaw\util</title>
<path fill="none" stroke="gray" d="M711.679,-194C711.679,-194 794.679,-194 794.679,-194 800.679,-194 806.679,-200 806.679,-206 806.679,-206 806.679,-254 806.679,-254 806.679,-260 800.679,-266 794.679,-266 794.679,-266 711.679,-266 711.679,-266 705.679,-266 699.679,-260 699.679,-254 699.679,-254 699.679,-206 699.679,-206 699.679,-200 705.679,-194 711.679,-194"/>
<text text-anchor="middle" x="753.179" y="-253.2" font-family="Times,serif" font-size="11.00" fill="gray">util</text>
</g>
<g id="clust8" class="cluster"><title>cluster_\acdhOeaw\storage</title>
<path fill="none" stroke="gray" d="M721.679,-60C721.679,-60 784.679,-60 784.679,-60 790.679,-60 796.679,-66 796.679,-72 796.679,-72 796.679,-174 796.679,-174 796.679,-180 790.679,-186 784.679,-186 784.679,-186 721.679,-186 721.679,-186 715.679,-186 709.679,-180 709.679,-174 709.679,-174 709.679,-72 709.679,-72 709.679,-66 715.679,-60 721.679,-60"/>
<text text-anchor="middle" x="753.179" y="-173.2" font-family="Times,serif" font-size="11.00" fill="gray">storage</text>
</g>
<!-- \\acdhOeaw\\redmine\\Issue -->
<g id="node1" class="node"><title>\\acdhOeaw\\redmine\\Issue</title>
<polygon fill="none" stroke="black" points="780.179,-884 726.179,-884 726.179,-848 780.179,-848 780.179,-884"/>
<text text-anchor="middle" x="753.179" y="-863.2" font-family="Courier,monospace" font-size="11.00">Issue</text>
</g>
<!-- \\acdhOeaw\\redmine\\Redmine -->
<g id="node18" class="node"><title>\\acdhOeaw\\redmine\\Redmine</title>
<ellipse fill="none" stroke="black" cx="502.34" cy="-18" rx="116.18" ry="18"/>
<text text-anchor="middle" x="502.34" y="-14.3" font-family="Times,serif" font-size="14.00" fill="gray">\acdhOeaw\redmine\Redmine</text>
</g>
<!-- \\acdhOeaw\\redmine\\Issue&#45;&gt;\\acdhOeaw\\redmine\\Redmine -->
<g id="edge1" class="edge"><title>\\acdhOeaw\\redmine\\Issue&#45;&gt;\\acdhOeaw\\redmine\\Redmine</title>
<path fill="none" stroke="black" d="M725.916,-862.34C710.993,-858.863 693.236,-852.105 682.679,-839 567.809,-696.4 657.538,-610.941 618.679,-432 586.666,-284.582 533.276,-111.786 512.244,-45.6506"/>
<polygon fill="none" stroke="black" points="515.53,-44.4343 509.154,-35.9723 508.861,-46.563 515.53,-44.4343"/>
</g>
<!-- \\acdhOeaw\\redmine\\User -->
<g id="node2" class="node"><title>\\acdhOeaw\\redmine\\User</title>
<polygon fill="none" stroke="black" points="780.179,-830 726.179,-830 726.179,-794 780.179,-794 780.179,-830"/>
<text text-anchor="middle" x="753.179" y="-809.2" font-family="Courier,monospace" font-size="11.00">User</text>
</g>
<!-- \\acdhOeaw\\redmine\\User&#45;&gt;\\acdhOeaw\\redmine\\Redmine -->
<g id="edge2" class="edge"><title>\\acdhOeaw\\redmine\\User&#45;&gt;\\acdhOeaw\\redmine\\Redmine</title>
<path fill="none" stroke="black" d="M726.026,-808.25C711.143,-804.74 693.388,-797.981 682.679,-785 581.21,-662.008 654.336,-587.409 618.679,-432 584.945,-284.967 532.553,-111.948 512.016,-45.7016"/>
<polygon fill="none" stroke="black" points="515.312,-44.5162 509.001,-36.0065 508.628,-46.5948 515.312,-44.5162"/>
</g>
<!-- \\acdhOeaw\\redmine\\Project -->
<g id="node3" class="node"><title>\\acdhOeaw\\redmine\\Project</title>
<polygon fill="none" stroke="black" points="785.179,-776 721.179,-776 721.179,-740 785.179,-740 785.179,-776"/>
<text text-anchor="middle" x="753.179" y="-755.2" font-family="Courier,monospace" font-size="11.00">Project</text>
</g>
<!-- \\acdhOeaw\\redmine\\Project&#45;&gt;\\acdhOeaw\\redmine\\Redmine -->
<g id="edge5" class="edge"><title>\\acdhOeaw\\redmine\\Project&#45;&gt;\\acdhOeaw\\redmine\\Redmine</title>
<path fill="none" stroke="black" d="M720.889,-751.347C707.277,-746.914 692.278,-739.674 682.679,-728 597.2,-624.033 650.977,-562.663 618.679,-432 582.481,-285.554 531.517,-112.195 511.689,-45.7794"/>
<polygon fill="none" stroke="black" points="515,-44.6363 508.781,-36.0589 508.294,-46.6425 515,-44.6363"/>
</g>
<!-- \\acdhOeaw\\cirilo\\ServiceParameter -->
<g id="node4" class="node"><title>\\acdhOeaw\\cirilo\\ServiceParameter</title>
<polygon fill="none" stroke="black" points="815.679,-696 690.679,-696 690.679,-660 815.679,-660 815.679,-696"/>
<text text-anchor="middle" x="753.179" y="-675.2" font-family="Courier,monospace" font-size="11.00">ServiceParameter</text>
</g>
<!-- \\acdhOeaw\\cirilo\\Service -->
<g id="node5" class="node"><title>\\acdhOeaw\\cirilo\\Service</title>
<polygon fill="none" stroke="black" points="785.179,-642 721.179,-642 721.179,-606 785.179,-606 785.179,-642"/>
<text text-anchor="middle" x="753.179" y="-621.2" font-family="Courier,monospace" font-size="11.00">Service</text>
</g>
<!-- \\acdhOeaw\\fedora\\metadataQuery\\Query -->
<g id="node6" class="node"><title>\\acdhOeaw\\fedora\\metadataQuery\\Query</title>
<polygon fill="none" stroke="black" points="780.179,-534 726.179,-534 726.179,-498 780.179,-498 780.179,-534"/>
<text text-anchor="middle" x="753.179" y="-513.2" font-family="Courier,monospace" font-size="11.00">Query</text>
</g>
<!-- \\acdhOeaw\\fedora\\metadataQuery\\HasValue -->
<g id="node7" class="node"><title>\\acdhOeaw\\fedora\\metadataQuery\\HasValue</title>
<polygon fill="none" stroke="black" points="537.84,-534 466.84,-534 466.84,-498 537.84,-498 537.84,-534"/>
<text text-anchor="middle" x="502.34" y="-513.2" font-family="Courier,monospace" font-size="11.00">HasValue</text>
</g>
<!-- \\acdhOeaw\\fedora\\metadataQuery\\HasProperty -->
<g id="node11" class="node"><title>\\acdhOeaw\\fedora\\metadataQuery\\HasProperty</title>
<polygon fill="none" stroke="black" points="314,-507 223,-507 223,-471 314,-471 314,-507"/>
<text text-anchor="middle" x="268.5" y="-486.2" font-family="Courier,monospace" font-size="11.00">HasProperty</text>
</g>
<!-- \\acdhOeaw\\fedora\\metadataQuery\\HasValue&#45;&gt;\\acdhOeaw\\fedora\\metadataQuery\\HasProperty -->
<g id="edge3" class="edge"><title>\\acdhOeaw\\fedora\\metadataQuery\\HasValue&#45;&gt;\\acdhOeaw\\fedora\\metadataQuery\\HasProperty</title>
<path fill="none" stroke="black" d="M466.631,-511.958C429.013,-507.577 368.464,-500.525 324.386,-495.392"/>
<polygon fill="none" stroke="black" points="324.742,-491.91 314.404,-494.23 323.932,-498.863 324.742,-491.91"/>
</g>
<!-- \\acdhOeaw\\fedora\\metadataQuery\\QueryParameter -->
<g id="node8" class="node"><title>\\acdhOeaw\\fedora\\metadataQuery\\QueryParameter</title>
<polygon fill="none" stroke="black" points="151,-507 40,-507 40,-471 151,-471 151,-507"/>
<text text-anchor="start" x="61.5" y="-492.2" font-family="Courier,monospace" font-size="11.00">«abstract»</text>
<text text-anchor="start" x="48" y="-480.2" font-family="Courier,monospace" font-size="11.00">QueryParameter</text>
</g>
<!-- \\acdhOeaw\\fedora\\metadataQuery\\MatchesRegEx -->
<g id="node9" class="node"><title>\\acdhOeaw\\fedora\\metadataQuery\\MatchesRegEx</title>
<polygon fill="none" stroke="black" points="802.179,-480 704.179,-480 704.179,-444 802.179,-444 802.179,-480"/>
<text text-anchor="middle" x="753.179" y="-459.2" font-family="Courier,monospace" font-size="11.00">MatchesRegEx</text>
</g>
<!-- \\acdhOeaw\\fedora\\metadataQuery\\MatchesRegEx&#45;&gt;\\acdhOeaw\\fedora\\metadataQuery\\HasValue -->
<g id="edge4" class="edge"><title>\\acdhOeaw\\fedora\\metadataQuery\\MatchesRegEx&#45;&gt;\\acdhOeaw\\fedora\\metadataQuery\\HasValue</title>
<path fill="none" stroke="black" d="M703.906,-472.476C658.668,-482.293 591.61,-496.845 547.691,-506.375"/>
<polygon fill="none" stroke="black" points="546.901,-502.965 537.871,-508.506 548.386,-509.806 546.901,-502.965"/>
</g>
<!-- \\acdhOeaw\\fedora\\metadataQuery\\HasTriple -->
<g id="node10" class="node"><title>\\acdhOeaw\\fedora\\metadataQuery\\HasTriple</title>
<polygon fill="none" stroke="black" points="540.84,-480 463.84,-480 463.84,-444 540.84,-444 540.84,-480"/>
<text text-anchor="middle" x="502.34" y="-459.2" font-family="Courier,monospace" font-size="11.00">HasTriple</text>
</g>
<!-- \\acdhOeaw\\fedora\\metadataQuery\\HasTriple&#45;&gt;\\acdhOeaw\\fedora\\metadataQuery\\HasProperty -->
<g id="edge6" class="edge"><title>\\acdhOeaw\\fedora\\metadataQuery\\HasTriple&#45;&gt;\\acdhOeaw\\fedora\\metadataQuery\\HasProperty</title>
<path fill="none" stroke="black" d="M463.833,-466.368C425.986,-470.776 367.144,-477.628 324.119,-482.639"/>
<polygon fill="none" stroke="black" points="323.623,-479.173 314.095,-483.806 324.433,-486.126 323.623,-479.173"/>
</g>
<!-- \\acdhOeaw\\fedora\\metadataQuery\\HasProperty&#45;&gt;\\acdhOeaw\\fedora\\metadataQuery\\QueryParameter -->
<g id="edge7" class="edge"><title>\\acdhOeaw\\fedora\\metadataQuery\\HasProperty&#45;&gt;\\acdhOeaw\\fedora\\metadataQuery\\QueryParameter</title>
<path fill="none" stroke="black" d="M222.572,-489C203.864,-489 181.782,-489 161.369,-489"/>
<polygon fill="none" stroke="black" points="161.19,-485.5 151.19,-489 161.19,-492.5 161.19,-485.5"/>
</g>
<!-- \\acdhOeaw\\fedora\\Fedora -->
<g id="node12" class="node"><title>\\acdhOeaw\\fedora\\Fedora</title>
<polygon fill="none" stroke="black" points="781.679,-426 724.679,-426 724.679,-390 781.679,-390 781.679,-426"/>
<text text-anchor="middle" x="753.179" y="-405.2" font-family="Courier,monospace" font-size="11.00">Fedora</text>
</g>
<!-- \\acdhOeaw\\fedora\\FedoraResource -->
<g id="node13" class="node"><title>\\acdhOeaw\\fedora\\FedoraResource</title>
<polygon fill="none" stroke="black" points="808.679,-372 697.679,-372 697.679,-336 808.679,-336 808.679,-372"/>
<text text-anchor="middle" x="753.179" y="-351.2" font-family="Courier,monospace" font-size="11.00">FedoraResource</text>
</g>
<!-- \\acdhOeaw\\fedora\\SparqlClient -->
<g id="node14" class="node"><title>\\acdhOeaw\\fedora\\SparqlClient</title>
<polygon fill="none" stroke="black" points="802.179,-318 704.179,-318 704.179,-282 802.179,-282 802.179,-318"/>
<text text-anchor="middle" x="753.179" y="-297.2" font-family="Courier,monospace" font-size="11.00">SparqlClient</text>
</g>
<!-- \\acdhOeaw\\util\\EasyRdfUtil -->
<g id="node15" class="node"><title>\\acdhOeaw\\util\\EasyRdfUtil</title>
<polygon fill="none" stroke="black" points="798.679,-238 707.679,-238 707.679,-202 798.679,-202 798.679,-238"/>
<text text-anchor="middle" x="753.179" y="-217.2" font-family="Courier,monospace" font-size="11.00">EasyRdfUtil</text>
</g>
<!-- \\acdhOeaw\\storage\\Location -->
<g id="node16" class="node"><title>\\acdhOeaw\\storage\\Location</title>
<polygon fill="none" stroke="black" points="788.679,-158 717.679,-158 717.679,-122 788.679,-122 788.679,-158"/>
<text text-anchor="middle" x="753.179" y="-137.2" font-family="Courier,monospace" font-size="11.00">Location</text>
</g>
<!-- \\acdhOeaw\\storage\\Indexer -->
<g id="node17" class="node"><title>\\acdhOeaw\\storage\\Indexer</title>
<polygon fill="none" stroke="black" points="785.179,-104 721.179,-104 721.179,-68 785.179,-68 785.179,-104"/>
<text text-anchor="middle" x="753.179" y="-83.2" font-family="Courier,monospace" font-size="11.00">Indexer</text>
</g>
</g>
</svg>
